<?xml version="1.0" encoding="utf-8"?>
<!-- Generator: Adobe Illustrator 18.1.1, SVG Export Plug-In . SVG Version: 6.00 Build 0)  -->
<svg version="1.1" id="arrow_down" xmlns="http://www.w3.org/2000/svg" xmlns:xlink="http://www.w3.org/1999/xlink" x="0px" y="0px"
	 viewBox="-257 349 96 96" enable-background="new -257 349 96 96" xml:space="preserve">
<path fill="#FFFFFF" d="M-213,361v62.3l-21.5-21.5c-1.6-1.6-4.1-1.6-5.7,0c-1.6,1.6-1.6,4.1,0,5.7l28.3,28.3l0,0
	c0.2,0.2,0.4,0.4,0.6,0.5c0.1,0.1,0.2,0.1,0.3,0.2c0.1,0.1,0.2,0.1,0.4,0.2c0.1,0.1,0.3,0.1,0.4,0.1c0.1,0,0.2,0.1,0.3,0.1
	c0.3,0.1,0.5,0.1,0.8,0.1l0,0c0,0,0,0,0,0c0.3,0,0.5,0,0.8-0.1c0.1,0,0.2-0.1,0.3-0.1c0.1,0,0.3-0.1,0.4-0.1
	c0.1-0.1,0.3-0.1,0.4-0.2c0.1-0.1,0.2-0.1,0.3-0.2c0.2-0.1,0.4-0.3,0.6-0.5l28.3-28.3c1.6-1.6,1.6-4.1,0-5.7c-1.6-1.6-4.1-1.6-5.7,0
	l-21.5,21.5V361c0-2.2-1.8-4-4-4S-213,358.8-213,361z"/>
</svg>
