<?xml version="1.0" encoding="utf-8"?>
<!-- Generator: Adobe Illustrator 19.2.0, SVG Export Plug-In . SVG Version: 6.00 Build 0)  -->
<!DOCTYPE svg PUBLIC "-//W3C//DTD SVG 1.1//EN" "http://www.w3.org/Graphics/SVG/1.1/DTD/svg11.dtd">
<svg version="1.1" id="Calque_1" xmlns="http://www.w3.org/2000/svg" xmlns:xlink="http://www.w3.org/1999/xlink" x="0px" y="0px"
	 viewBox="0 0 500 500" style="enable-background:new 0 0 500 500;" xml:space="preserve">
<style type="text/css">
	.st0{fill:url(#SVGID_1_);}
	.st1{fill:url(#SVGID_2_);}
	.st2{fill:url(#SVGID_3_);}
	.st3{fill:url(#SVGID_4_);}
	.st4{fill:url(#SVGID_5_);}
	.st5{fill:url(#SVGID_6_);}
	.st6{fill:url(#SVGID_7_);}
	.st7{fill:url(#SVGID_8_);}
</style>
<g>
	<linearGradient id="SVGID_1_" gradientUnits="userSpaceOnUse" x1="280.3803" y1="287.6077" x2="330.5764" y2="287.6077">
		<stop  offset="0" style="stop-color:#FF6706"/>
		<stop  offset="7.434362e-02" style="stop-color:#FF5D0B"/>
		<stop  offset="0.2209" style="stop-color:#FF5211"/>
		<stop  offset="0.4272" style="stop-color:#FF4B14"/>
		<stop  offset="1" style="stop-color:#FF4915"/>
	</linearGradient>
	<polygon class="st0" points="288.7,289.4 318.6,269.1 330.6,265.8 330.6,309.4 280.9,306.1 280.4,294.5 	"/>
	<linearGradient id="SVGID_2_" gradientUnits="userSpaceOnUse" x1="130.6346" y1="303.0295" x2="178.9614" y2="303.0295">
		<stop  offset="0" style="stop-color:#FCD57C"/>
		<stop  offset="1" style="stop-color:#FF6706"/>
	</linearGradient>
	<polygon class="st1" points="130.6,314.8 130.6,309.5 138.1,303.8 171.4,283.2 179,293.3 179,322.9 	"/>
	<linearGradient id="SVGID_3_" gradientUnits="userSpaceOnUse" x1="130.1626" y1="299.2407" x2="172.8877" y2="299.2407">
		<stop  offset="0" style="stop-color:#B1D7F2"/>
		<stop  offset="0.2459" style="stop-color:#9FCAE9"/>
		<stop  offset="0.7365" style="stop-color:#71A7D2"/>
		<stop  offset="1" style="stop-color:#5593C5"/>
	</linearGradient>
	<polygon class="st2" points="171.4,283.2 167.7,282.6 130.2,309.5 172.9,315.9 	"/>
	<linearGradient id="SVGID_4_" gradientUnits="userSpaceOnUse" x1="197.9778" y1="369.5638" x2="197.9778" y2="229.2287">
		<stop  offset="0" style="stop-color:#122042"/>
		<stop  offset="0.1906" style="stop-color:#15274B"/>
		<stop  offset="0.5063" style="stop-color:#1C3C65"/>
		<stop  offset="0.9059" style="stop-color:#295C8D"/>
		<stop  offset="1" style="stop-color:#2C6598"/>
	</linearGradient>
	<polygon class="st3" points="180,316.5 180.1,319.6 182.4,369.6 219.9,342.7 217.6,292.7 217.5,289.6 215,235 176.1,229.2 	"/>
	<linearGradient id="SVGID_5_" gradientUnits="userSpaceOnUse" x1="280.3803" y1="284.2432" x2="323.1054" y2="284.2432">
		<stop  offset="0" style="stop-color:#B1D7F2"/>
		<stop  offset="0.2459" style="stop-color:#9FCAE9"/>
		<stop  offset="0.7365" style="stop-color:#71A7D2"/>
		<stop  offset="1" style="stop-color:#5593C5"/>
	</linearGradient>
	<polygon class="st4" points="321.6,268.2 317.9,267.6 280.4,294.5 323.1,300.9 	"/>
	<linearGradient id="SVGID_6_" gradientUnits="userSpaceOnUse" x1="347.5177" y1="357.0472" x2="347.5177" y2="154.7272">
		<stop  offset="0" style="stop-color:#122042"/>
		<stop  offset="0.1906" style="stop-color:#15274B"/>
		<stop  offset="0.5063" style="stop-color:#1C3C65"/>
		<stop  offset="0.9059" style="stop-color:#295C8D"/>
		<stop  offset="1" style="stop-color:#2C6598"/>
	</linearGradient>
	<polygon class="st5" points="367.9,277.7 367.8,276.2 365.4,223.9 363.9,190 362.3,154.7 324.8,181.6 326.4,216.9 327.9,250.7 
		330.3,303.1 330.4,304.6 332.7,357 370.2,330.2 	"/>
	<linearGradient id="SVGID_7_" gradientUnits="userSpaceOnUse" x1="222.6465" y1="205.6929" x2="305.4495" y2="107.0122">
		<stop  offset="0" style="stop-color:#B1D7F2"/>
		<stop  offset="0.2459" style="stop-color:#9FCAE9"/>
		<stop  offset="0.7365" style="stop-color:#71A7D2"/>
		<stop  offset="1" style="stop-color:#5593C5"/>
	</linearGradient>
	<polygon class="st6" points="362.3,154.7 203.3,131.1 165.8,158 324.8,181.6 	"/>
	<linearGradient id="SVGID_8_" gradientUnits="userSpaceOnUse" x1="231.4419" y1="369.5638" x2="231.4419" y2="157.978">
		<stop  offset="0" style="stop-color:#283972"/>
		<stop  offset="1" style="stop-color:#7DC9F2"/>
	</linearGradient>
	<polygon class="st7" points="330.3,303.1 327.9,250.7 326.4,216.9 324.8,181.6 165.8,158 166.9,183.2 168.9,227.1 171.4,283.2 
		172.9,315.9 130.2,309.5 132.5,362.2 182.4,369.6 180.1,319.6 180,316.5 176.1,229.2 215,235 320.8,250.7 321.6,268.2 323.1,300.9 
		280.4,294.5 282.9,349.6 332.7,357 330.4,304.6 	"/>
</g>
</svg>
