<?xml version="1.0" encoding="utf-8"?>
<!-- Generator: Adobe Illustrator 19.2.0, SVG Export Plug-In . SVG Version: 6.00 Build 0)  -->
<!DOCTYPE svg PUBLIC "-//W3C//DTD SVG 1.1//EN" "http://www.w3.org/Graphics/SVG/1.1/DTD/svg11.dtd">
<svg version="1.1" id="Calque_1" xmlns="http://www.w3.org/2000/svg" xmlns:xlink="http://www.w3.org/1999/xlink" x="0px" y="0px"
	 viewBox="0 0 500 500" style="enable-background:new 0 0 500 500;" xml:space="preserve">
<style type="text/css">
	.st0{fill:url(#SVGID_1_);}
	.st1{fill:url(#SVGID_2_);}
	.st2{fill:url(#SVGID_3_);}
	.st3{fill:#88C3ED;}
	.st4{fill:url(#SVGID_4_);}
	.st5{fill:#231F20;}
	.st6{fill:url(#SVGID_5_);}
	.st7{fill:url(#SVGID_6_);}
	.st8{fill:url(#SVGID_7_);}
	.st9{fill:url(#SVGID_8_);}
	.st10{fill:url(#SVGID_9_);}
	.st11{fill:url(#SVGID_10_);}
	.st12{fill:url(#SVGID_11_);}
	.st13{fill:url(#SVGID_12_);}
	.st14{fill:url(#SVGID_13_);}
</style>
<g>
	<g>
		
			<linearGradient id="SVGID_1_" gradientUnits="userSpaceOnUse" x1="228.2914" y1="383.2144" x2="284.4497" y2="383.2144" gradientTransform="matrix(0.9398 0.3416 -0.3416 0.9398 89.547 -54.8507)">
			<stop  offset="0" style="stop-color:#2D5992"/>
			<stop  offset="1" style="stop-color:#330062"/>
		</linearGradient>
		<path class="st0" d="M198.1,464.6c-22.5-24.8-29.1-57.6-19.3-94.9c7.3-27.7,20.9-47.9,21.5-48.8l8.7,5.9
			c-0.5,0.8-51.5,77.3-3.1,130.6L198.1,464.6z"/>
	</g>
	
		<linearGradient id="SVGID_2_" gradientUnits="userSpaceOnUse" x1="214.135" y1="307.01" x2="234.9714" y2="307.01" gradientTransform="matrix(0.9398 0.3416 -0.3416 0.9398 89.547 -54.8507)">
		<stop  offset="0" style="stop-color:#5593C5"/>
		<stop  offset="1" style="stop-color:#4454A2"/>
	</linearGradient>
	<polygon class="st1" points="206.9,249.1 171.8,356.6 184.4,371.7 222.4,267.5 	"/>
	
		<linearGradient id="SVGID_3_" gradientUnits="userSpaceOnUse" x1="161.8447" y1="244.6308" x2="287.9268" y2="338.8922" gradientTransform="matrix(0.9398 0.3416 -0.3416 0.9398 89.547 -54.8507)">
		<stop  offset="0" style="stop-color:#2D5992"/>
		<stop  offset="1" style="stop-color:#330062"/>
	</linearGradient>
	<polygon class="st2" points="203.7,368.2 245.9,263.3 222.4,267.5 184.4,371.7 	"/>
	<polygon class="st3" points="226.6,171.2 177.8,320.6 195.4,341.5 248.1,196.8 	"/>
	
		<linearGradient id="SVGID_4_" gradientUnits="userSpaceOnUse" x1="234.8866" y1="250.9778" x2="263.7778" y2="250.9778" gradientTransform="matrix(0.9398 0.3416 -0.3416 0.9398 89.547 -54.8507)">
		<stop  offset="0" style="stop-color:#5593C5"/>
		<stop  offset="1" style="stop-color:#4454A2"/>
	</linearGradient>
	<polygon class="st4" points="222.2,336.7 280.9,190.9 248.1,196.8 195.4,341.5 	"/>
	<path class="st5" d="M282.4,186.7"/>
	<g>
		
			<linearGradient id="SVGID_5_" gradientUnits="userSpaceOnUse" x1="177.2954" y1="124.9503" x2="292.7916" y2="124.9503" gradientTransform="matrix(0.9398 0.3416 -0.3416 0.9398 89.547 -54.8507)">
			<stop  offset="0" style="stop-color:#123CA4"/>
			<stop  offset="1" style="stop-color:#07D0EE"/>
		</linearGradient>
		<polygon class="st6" points="279,111.4 213.5,123.1 256.5,174.4 322,162.6 		"/>
		
			<linearGradient id="SVGID_6_" gradientUnits="userSpaceOnUse" x1="187.7401" y1="64.1433" x2="280.2003" y2="174.0148" gradientTransform="matrix(0.9398 0.3416 -0.3416 0.9398 89.547 -54.8507)">
			<stop  offset="0" style="stop-color:#123CA4"/>
			<stop  offset="1" style="stop-color:#07D0EE"/>
		</linearGradient>
		<polygon class="st7" points="256.5,174.4 247.6,199 313.1,187.2 322,162.6 		"/>
		
			<linearGradient id="SVGID_7_" gradientUnits="userSpaceOnUse" x1="177.2954" y1="154.778" x2="235.2317" y2="154.778" gradientTransform="matrix(0.9398 0.3416 -0.3416 0.9398 89.547 -54.8507)">
			<stop  offset="0" style="stop-color:#123CA4"/>
			<stop  offset="1" style="stop-color:#07D0EE"/>
		</linearGradient>
		<polygon class="st8" points="213.5,123.1 204.5,147.8 247.6,199 256.5,174.4 		"/>
	</g>
	
		<linearGradient id="SVGID_8_" gradientUnits="userSpaceOnUse" x1="163.0749" y1="103.7581" x2="306.5444" y2="103.7581" gradientTransform="matrix(0.9398 0.3416 -0.3416 0.9398 89.547 -54.8507)">
		<stop  offset="0" style="stop-color:#5593C5"/>
		<stop  offset="1" style="stop-color:#4454A2"/>
	</linearGradient>
	<polygon class="st9" points="288.8,83.7 207.4,98.4 260.8,162 342.2,147.4 	"/>
	
		<linearGradient id="SVGID_9_" gradientUnits="userSpaceOnUse" x1="235.0435" y1="131.7807" x2="306.5444" y2="131.7807" gradientTransform="matrix(0.9398 0.3416 -0.3416 0.9398 89.547 -54.8507)">
		<stop  offset="0" style="stop-color:#2D5992"/>
		<stop  offset="1" style="stop-color:#330062"/>
	</linearGradient>
	<polygon class="st10" points="260.8,162 255.9,175.6 337.3,161 342.2,147.4 	"/>
	
		<linearGradient id="SVGID_10_" gradientUnits="userSpaceOnUse" x1="163.0749" y1="131.7811" x2="235.0435" y2="131.7811" gradientTransform="matrix(0.9398 0.3416 -0.3416 0.9398 89.547 -54.8507)">
		<stop  offset="0" style="stop-color:#2F4286"/>
		<stop  offset="1" style="stop-color:#4454A2"/>
	</linearGradient>
	<polygon class="st11" points="207.4,98.4 202.4,112 255.9,175.6 260.8,162 	"/>
	
		<linearGradient id="SVGID_11_" gradientUnits="userSpaceOnUse" x1="175.7571" y1="17.9682" x2="279.0244" y2="119.4343" gradientTransform="matrix(0.9398 0.3416 -0.3416 0.9398 89.547 -54.8507)">
		<stop  offset="0" style="stop-color:#123CA4"/>
		<stop  offset="1" style="stop-color:#07D0EE"/>
	</linearGradient>
	<polygon class="st12" points="295.7,65.6 230.1,77.4 273.2,128.6 338.7,116.8 	"/>
	
		<linearGradient id="SVGID_12_" gradientUnits="userSpaceOnUse" x1="211.7468" y1="43.941" x2="304.207" y2="153.8125" gradientTransform="matrix(0.9398 0.3416 -0.3416 0.9398 89.547 -54.8507)">
		<stop  offset="0" style="stop-color:#123CA4"/>
		<stop  offset="1" style="stop-color:#07D0EE"/>
	</linearGradient>
	<polygon class="st13" points="273.2,128.6 264.2,153.2 329.7,141.4 338.7,116.8 	"/>
	
		<linearGradient id="SVGID_13_" gradientUnits="userSpaceOnUse" x1="177.2954" y1="106.0482" x2="235.2317" y2="106.0482" gradientTransform="matrix(0.9398 0.3416 -0.3416 0.9398 89.547 -54.8507)">
		<stop  offset="0" style="stop-color:#123CA4"/>
		<stop  offset="1" style="stop-color:#07D0EE"/>
	</linearGradient>
	<polygon class="st14" points="230.1,77.4 221.2,102 264.2,153.2 273.2,128.6 	"/>
</g>
</svg>
