<?xml version="1.0" encoding="utf-8"?>
<!-- Generator: Adobe Illustrator 19.2.1, SVG Export Plug-In . SVG Version: 6.00 Build 0)  -->
<svg version="1.1" id="Layer_2" xmlns="http://www.w3.org/2000/svg" xmlns:xlink="http://www.w3.org/1999/xlink" x="0px" y="0px"
	 width="181.7px" height="77.3px" viewBox="0 0 181.7 77.3" style="enable-background:new 0 0 181.7 77.3;" xml:space="preserve">
<style type="text/css">
	.st0{fill:url(#SVGID_1_);}
	.st1{fill:url(#SVGID_2_);}
	.st2{fill:url(#SVGID_3_);}
	.st3{fill:url(#SVGID_4_);}
	.st4{fill:url(#SVGID_5_);}
	.st5{fill:url(#SVGID_6_);}
	.st6{fill:url(#SVGID_7_);}
	.st7{fill:url(#SVGID_8_);}
	.st8{fill:url(#SVGID_9_);}
	.st9{fill:#88C3ED;}
	.st10{fill:url(#SVGID_10_);}
	.st11{fill:#231F20;}
	.st12{fill:url(#SVGID_11_);}
	.st13{fill:url(#SVGID_12_);}
	.st14{fill:url(#SVGID_13_);}
	.st15{fill:url(#SVGID_14_);}
	.st16{fill:url(#SVGID_15_);}
	.st17{fill:url(#SVGID_16_);}
	.st18{fill:url(#SVGID_17_);}
	.st19{fill:url(#SVGID_18_);}
	.st20{fill:url(#SVGID_19_);}
	.st21{fill:url(#SVGID_20_);}
	.st22{fill:url(#SVGID_21_);}
	.st23{fill:url(#SVGID_22_);}
	.st24{fill:url(#SVGID_23_);}
	.st25{fill:#1C0F51;}
	.st26{fill:url(#SVGID_24_);}
	.st27{fill:url(#SVGID_25_);}
	.st28{fill:url(#SVGID_26_);}
	.st29{fill:url(#SVGID_27_);}
	.st30{fill:#310965;}
	.st31{fill:url(#SVGID_28_);}
	.st32{fill:url(#SVGID_29_);}
	.st33{fill:url(#SVGID_30_);}
	.st34{fill:url(#SVGID_31_);}
	.st35{fill:url(#SVGID_32_);}
	.st36{fill:url(#SVGID_33_);}
	.st37{fill:url(#SVGID_34_);}
	.st38{fill:url(#SVGID_35_);}
	.st39{fill:url(#SVGID_36_);}
	.st40{fill:url(#SVGID_37_);}
	.st41{fill:url(#SVGID_38_);}
	.st42{fill:url(#SVGID_39_);}
	.st43{fill:url(#SVGID_40_);}
	.st44{fill:url(#SVGID_41_);}
	.st45{fill:url(#SVGID_42_);}
	.st46{fill:url(#SVGID_43_);}
	.st47{fill:url(#SVGID_44_);}
	.st48{fill:url(#SVGID_45_);}
	.st49{fill:url(#SVGID_46_);}
	.st50{fill:url(#SVGID_47_);}
	.st51{fill:url(#SVGID_48_);}
	.st52{fill:url(#SVGID_49_);}
	.st53{fill:url(#SVGID_50_);}
	.st54{fill:url(#SVGID_51_);}
	.st55{fill:url(#SVGID_52_);}
	.st56{fill:url(#SVGID_53_);}
	.st57{fill:#2C6598;}
	.st58{fill:url(#SVGID_54_);}
	.st59{fill:url(#SVGID_55_);}
	.st60{fill:url(#SVGID_56_);}
	.st61{fill:url(#SVGID_57_);}
	.st62{fill:url(#SVGID_58_);}
	.st63{fill:#01003A;}
	.st64{fill:url(#SVGID_59_);}
	.st65{fill:url(#SVGID_60_);}
	.st66{fill:#0072D4;}
	.st67{fill:url(#SVGID_61_);}
</style>
<g>
	<g>
		
			<linearGradient id="SVGID_1_" gradientUnits="userSpaceOnUse" x1="152.1244" y1="13.45" x2="169.8942" y2="13.45" gradientTransform="matrix(1 0 0 -1 0 77.2)">
			<stop  offset="0" style="stop-color:#310965"/>
			<stop  offset="1" style="stop-color:#312375"/>
		</linearGradient>
		<path class="st0" d="M181.6,63.8c0,3.2-4.6,5.8-10.3,5.8S161,67,161,63.8c0-1,0.1-4.3,0.1-4.3s6.4-1.6,10.3-1.6
			c3.6,0,10.3,2.2,10.3,2.2S181.6,62.6,181.6,63.8z"/>
		
			<linearGradient id="SVGID_2_" gradientUnits="userSpaceOnUse" x1="160.3887" y1="17.1" x2="180.6866" y2="17.1" gradientTransform="matrix(1 0 0 -1 0 77.2)">
			<stop  offset="0" style="stop-color:#310965"/>
			<stop  offset="1" style="stop-color:#88C3ED"/>
		</linearGradient>
		<ellipse class="st1" cx="171.3" cy="60.1" rx="10.3" ry="5.8"/>
		<g>
			
				<linearGradient id="SVGID_3_" gradientUnits="userSpaceOnUse" x1="167.75" y1="13.8014" x2="167.75" y2="19.6855" gradientTransform="matrix(1 0 0 -1 0 77.2)">
				<stop  offset="0" style="stop-color:#BED9ED"/>
				<stop  offset="0.1432" style="stop-color:#88C3ED"/>
				<stop  offset="1" style="stop-color:#31337E"/>
			</linearGradient>
			<path class="st2" d="M169.4,57.1c-2,0.4-3.3,1.3-3.3,2.4c0,0.9,0.9,1.7,2.3,2.2c0-0.2,0.1-0.3,0.1-0.5L169.4,57.1z"/>
			
				<linearGradient id="SVGID_4_" gradientUnits="userSpaceOnUse" x1="175.45" y1="13.8014" x2="175.45" y2="19.6855" gradientTransform="matrix(1 0 0 -1 0 77.2)">
				<stop  offset="0" style="stop-color:#BED9ED"/>
				<stop  offset="0.1432" style="stop-color:#88C3ED"/>
				<stop  offset="1" style="stop-color:#31337E"/>
			</linearGradient>
			<path class="st3" d="M176.6,59.5c0-0.5-0.3-0.9-0.7-1.3l-1.6,3.5C175.6,61.2,176.6,60.4,176.6,59.5z"/>
			
				<linearGradient id="SVGID_5_" gradientUnits="userSpaceOnUse" x1="172.1" y1="13.8014" x2="172.1" y2="19.6855" gradientTransform="matrix(1 0 0 -1 0 77.2)">
				<stop  offset="0" style="stop-color:#BED9ED"/>
				<stop  offset="0.1432" style="stop-color:#88C3ED"/>
				<stop  offset="1" style="stop-color:#31337E"/>
			</linearGradient>
			<path class="st4" d="M169.4,57.1l-0.9,4.1c-0.1,0.2-0.1,0.3-0.1,0.5c0.8,0.3,1.8,0.4,2.9,0.4c1.1,0,2.1-0.2,2.9-0.5l1.6-3.5
				c-0.9-0.8-2.6-1.3-4.5-1.3C170.6,56.9,170,57,169.4,57.1z"/>
			
				<linearGradient id="SVGID_6_" gradientUnits="userSpaceOnUse" x1="178.8278" y1="37.8594" x2="170.7829" y2="16.5302" gradientTransform="matrix(1 0 0 -1 0 77.2)">
				<stop  offset="0" style="stop-color:#BED9ED"/>
				<stop  offset="0.1432" style="stop-color:#88C3ED"/>
				<stop  offset="1" style="stop-color:#31337E"/>
			</linearGradient>
			<path class="st5" d="M177,39.6c-2.3,0-4.2,1.7-4.6,3.9l-3,13.6l-0.9,4.1c-0.1,0.2-0.1,0.3-0.1,0.5c0.8,0.3,1.8,0.4,2.9,0.4
				c1.1,0,2.1-0.2,2.9-0.5l1.6-3.5l5.4-12l0,0c0.3-0.6,0.4-1.2,0.4-1.9C181.6,41.7,179.6,39.6,177,39.6z"/>
		</g>
	</g>
	<g>
		<g>
			
				<linearGradient id="SVGID_7_" gradientUnits="userSpaceOnUse" x1="74.1176" y1="3.6212" x2="80.2242" y2="3.6212" gradientTransform="matrix(0.9398 0.3416 0.3416 -0.9398 14.4447 12.6442)">
				<stop  offset="0" style="stop-color:#2D5992"/>
				<stop  offset="1" style="stop-color:#330062"/>
			</linearGradient>
			<path class="st6" d="M88.1,43.4c-2.4-2.7-3.2-6.3-2.1-10.3c0.8-3,2.3-5.2,2.3-5.3l1,0.6c-0.1,0.1-5.6,8.4-0.3,14.2L88.1,43.4z"/>
		</g>
		
			<linearGradient id="SVGID_8_" gradientUnits="userSpaceOnUse" x1="72.5782" y1="11.9435" x2="74.844" y2="11.9435" gradientTransform="matrix(0.9398 0.3416 0.3416 -0.9398 14.4447 12.6442)">
			<stop  offset="0" style="stop-color:#5593C5"/>
			<stop  offset="1" style="stop-color:#4454A2"/>
		</linearGradient>
		<polygon class="st7" points="89,19.9 85.2,31.6 86.6,33.3 90.7,21.9 		"/>
		
			<linearGradient id="SVGID_9_" gradientUnits="userSpaceOnUse" x1="66.8945" y1="18.7387" x2="80.6046" y2="8.4888" gradientTransform="matrix(0.9398 0.3416 0.3416 -0.9398 14.4447 12.6442)">
			<stop  offset="0" style="stop-color:#2D5992"/>
			<stop  offset="1" style="stop-color:#330062"/>
		</linearGradient>
		<polygon class="st8" points="88.7,32.9 93.3,21.5 90.7,21.9 86.6,33.3 		"/>
		<polygon class="st9" points="91.2,11.5 85.9,27.7 87.8,30 93.5,14.2 		"/>
		
			<linearGradient id="SVGID_10_" gradientUnits="userSpaceOnUse" x1="74.834" y1="18.0435" x2="77.9756" y2="18.0435" gradientTransform="matrix(0.9398 0.3416 0.3416 -0.9398 14.4447 12.6442)">
			<stop  offset="0" style="stop-color:#5593C5"/>
			<stop  offset="1" style="stop-color:#4454A2"/>
		</linearGradient>
		<polygon class="st10" points="90.7,29.5 97.1,13.6 93.5,14.2 87.8,30 		"/>
		<path class="st11" d="M97.2,13.1"/>
		<g>
			
				<linearGradient id="SVGID_11_" gradientUnits="userSpaceOnUse" x1="68.5723" y1="31.7311" x2="81.1319" y2="31.7311" gradientTransform="matrix(0.9398 0.3416 0.3416 -0.9398 14.4447 12.6442)">
				<stop  offset="0" style="stop-color:#123CA4"/>
				<stop  offset="1" style="stop-color:#07D0EE"/>
			</linearGradient>
			<polygon class="st12" points="96.9,5 89.7,6.2 94.4,11.8 101.5,10.5 			"/>
			
				<linearGradient id="SVGID_12_" gradientUnits="userSpaceOnUse" x1="69.6803" y1="38.3383" x2="79.7343" y2="26.3909" gradientTransform="matrix(0.9398 0.3416 0.3416 -0.9398 14.4447 12.6442)">
				<stop  offset="0" style="stop-color:#123CA4"/>
				<stop  offset="1" style="stop-color:#07D0EE"/>
			</linearGradient>
			<polygon class="st13" points="94.4,11.8 93.4,14.5 100.6,13.2 101.5,10.5 			"/>
			
				<linearGradient id="SVGID_13_" gradientUnits="userSpaceOnUse" x1="68.5723" y1="28.4977" x2="74.8723" y2="28.4977" gradientTransform="matrix(0.9398 0.3416 0.3416 -0.9398 14.4447 12.6442)">
				<stop  offset="0" style="stop-color:#123CA4"/>
				<stop  offset="1" style="stop-color:#07D0EE"/>
			</linearGradient>
			<polygon class="st14" points="89.7,6.2 88.8,8.9 93.4,14.5 94.4,11.8 			"/>
		</g>
		
			<linearGradient id="SVGID_14_" gradientUnits="userSpaceOnUse" x1="67.026" y1="34.0551" x2="82.6268" y2="34.0551" gradientTransform="matrix(0.9398 0.3416 0.3416 -0.9398 14.4447 12.6442)">
			<stop  offset="0" style="stop-color:#5593C5"/>
			<stop  offset="1" style="stop-color:#4454A2"/>
		</linearGradient>
		<polygon class="st15" points="97.9,1.9 89.1,3.5 94.9,10.5 103.7,8.9 		"/>
		
			<linearGradient id="SVGID_15_" gradientUnits="userSpaceOnUse" x1="74.8518" y1="30.9958" x2="82.6268" y2="30.9958" gradientTransform="matrix(0.9398 0.3416 0.3416 -0.9398 14.4447 12.6442)">
			<stop  offset="0" style="stop-color:#2D5992"/>
			<stop  offset="1" style="stop-color:#330062"/>
		</linearGradient>
		<polygon class="st16" points="94.9,10.5 94.3,11.9 103.2,10.3 103.7,8.9 		"/>
		
			<linearGradient id="SVGID_16_" gradientUnits="userSpaceOnUse" x1="67.026" y1="31.0396" x2="74.8518" y2="31.0396" gradientTransform="matrix(0.9398 0.3416 0.3416 -0.9398 14.4447 12.6442)">
			<stop  offset="0" style="stop-color:#2F4286"/>
			<stop  offset="1" style="stop-color:#4454A2"/>
		</linearGradient>
		<polygon class="st17" points="89.1,3.5 88.5,5 94.3,11.9 94.9,10.5 		"/>
		
			<linearGradient id="SVGID_17_" gradientUnits="userSpaceOnUse" x1="68.4376" y1="43.416" x2="79.6668" y2="32.3827" gradientTransform="matrix(0.9398 0.3416 0.3416 -0.9398 14.4447 12.6442)">
			<stop  offset="0" style="stop-color:#123CA4"/>
			<stop  offset="1" style="stop-color:#07D0EE"/>
		</linearGradient>
		<polygon class="st18" points="98.7,0 91.6,1.3 96.2,6.8 103.4,5.5 		"/>
		
			<linearGradient id="SVGID_18_" gradientUnits="userSpaceOnUse" x1="72.3606" y1="40.5939" x2="82.4147" y2="28.6466" gradientTransform="matrix(0.9398 0.3416 0.3416 -0.9398 14.4447 12.6442)">
			<stop  offset="0" style="stop-color:#123CA4"/>
			<stop  offset="1" style="stop-color:#07D0EE"/>
		</linearGradient>
		<polygon class="st19" points="96.2,6.8 95.3,9.5 102.4,8.2 103.4,5.5 		"/>
		
			<linearGradient id="SVGID_19_" gradientUnits="userSpaceOnUse" x1="68.5723" y1="33.7992" x2="74.8723" y2="33.7992" gradientTransform="matrix(0.9398 0.3416 0.3416 -0.9398 14.4447 12.6442)">
			<stop  offset="0" style="stop-color:#123CA4"/>
			<stop  offset="1" style="stop-color:#07D0EE"/>
		</linearGradient>
		<polygon class="st20" points="91.6,1.3 90.6,3.9 95.3,9.5 96.2,6.8 		"/>
	</g>
	<g>
		<g>
			<g>
				
					<linearGradient id="SVGID_20_" gradientUnits="userSpaceOnUse" x1="67.7178" y1="334.5877" x2="67.7178" y2="334.5877" gradientTransform="matrix(-9.691034e-02 -0.9953 -0.9953 9.691034e-02 393.5777 112.2745)">
					<stop  offset="0" style="stop-color:#310965"/>
					<stop  offset="1" style="stop-color:#475EA7"/>
				</linearGradient>
				<path class="st21" d="M54,77.3L54,77.3L54,77.3L54,77.3z"/>
				
					<linearGradient id="SVGID_21_" gradientUnits="userSpaceOnUse" x1="78.0736" y1="46.2474" x2="70.9996" y2="48.2661" gradientTransform="matrix(0.9898 -0.1424 -0.1424 -0.9898 -3.2089 104.4415)">
					<stop  offset="0" style="stop-color:#310965"/>
					<stop  offset="1" style="stop-color:#475EA7"/>
				</linearGradient>
				<path class="st22" d="M72.6,16.7L72.6,16.7C72.7,16.7,72.7,16.7,72.6,16.7C72.7,16.7,72.7,16.7,72.6,16.7
					C72.7,16.7,72.7,16.7,72.6,16.7L72.6,16.7L72.6,16.7c0.1,0,0.1,0,0.2,0l0,0c0,0,0,0,0.1,0l0,0c0,0,0,0,0.1,0.1l0,0l0,0l0,0
					c0,0,0,0.1,0.1,0.1l0,0c0,0,0,0.1,0.1,0.1l0,0v0.1l0,0c0,0,0,0,0,0.1c0,0,0,0,0,0.1l0.1,0.5v0.1l0,0V18l0,0v0.1l0,0v0.1
					c0,0.1,0,0.1,0,0.1c-0.1,0.4-0.2,0.5-0.2,0.5L73,18.9L72.9,19h-0.1h-0.1c0,0,0,0-0.1,0L72,25.7c-0.3,0.6-0.3,0.6-0.3,0.6l-1,0.2
					l-4,26.9l0,0l0,0h-0.1l0,0c0,0,0,0-0.1-0.1l0,0l-0.1-0.1l0,0l-0.1-0.1l0,0l0,0l0,0c0,0,0,0,0-0.1l0,0c0,0,0,0,0-0.1l0,0
					c0,0,0-0.1-0.1-0.1c0-0.1-0.1-0.1-0.1-0.2c0,0,0,0,0-0.1s0-0.1-0.1-0.2v-0.1v-0.1V52v-0.1v-0.1c0,0,0,0,0-0.1s0-0.1,0-0.2l0,0
					c0-0.1,0-0.1,0-0.2l0,0c0-0.1,0-0.1,0-0.2V48l0,0l0,0l0,0l0,0l0,0l0,0c0,0,0,0,0-0.1c0,0,0,0,0-0.1l0,0l0,0l0,0c0,0,0,0,0-0.1
					l0,0c0,0,0-0.1-0.1-0.1l-0.1-0.2c0,0,0,0,0-0.1l0,0l0,0l0,0l0,0l0,0l0,0l0,0l0,0l0,0l0,0l0,0l0,0l0,0l0,0l-0.5-0.1l0,0l0,0l0,0
					l0,0l0,0l0,0l0,0l-2,0.2l0,0l0,0l0,0l0,0l0,0l0,0l0,0l0,0l0,0l-0.4,0.1l0,0c-0.1,0-0.2,0.1-0.2,0.2c-0.5,1-0.8,2.2-0.9,3.6v0.5
					c-0.1,0.7-0.1,1.4,0,2.1l0.3,3.4c0,0.4,0,0.9-0.1,1.3v0.1v0.1c0,0,0,0-0.2,0.4c0,0,0,0,0,0.1l-2.4,3.5c0,0-0.1,0.1-0.1,0.2
					c0,0-0.1,0.1-0.1,0.2c0,0-0.1,0.1-0.1,0.2s0,0.1-0.1,0.2c0,0,0,0.1-0.1,0.2c0,0,0,0.1-0.1,0.2c0,0,0,0.1-0.1,0.2
					c0,0,0,0.1-0.1,0.2c0,0,0,0.1,0,0.2s0,0.1,0,0.2s0,0.1,0,0.2s0,0.1,0,0.2s0,0.1,0,0.2c0,0,0,0.1,0,0.2s0,0.1,0,0.2
					c0,0,0,0.1,0,0.2s0,0.1,0,0.2s0,0.1,0,0.2s0,0.1,0,0.2s0,0.1,0,0.2v0.8c0,0.1,0,0.1,0,0.2c0,0,0,0.1,0,0.2c0,0,0,0.1,0,0.2
					c0,0,0,0.1,0,0.2c0,0,0,0.1,0,0.2c0,0,0,0.1,0,0.2c0,0,0,0.1,0,0.2c0,0,0,0.1,0,0.2c0,0,0,0.1,0,0.2s0,0.1,0,0.2
					c0,0,0,0.1,0,0.2c0,0,0,0.1,0,0.2v0.1v0.1v0.1v0.1v0.1v0.1c0,0.1,0.1,0.2,0.1,0.3c0,0,0,0.1,0.1,0.1c0,0,0,0.1,0.1,0.1
					c0,0,0,0.1,0.1,0.1c0,0,0,0,0.1,0.1c0,0,0,0,0.1,0.1c0,0,0,0,0.1,0.1c0,0,0,0,0.1,0.1c0,0,0,0.1,0.1,0.1c0,0,0,0.1,0.1,0.1
					c0,0,0,0.1,0.1,0.1c0,0,0,0.1,0.1,0.1l0.1,0.1l0.4,0.5c1.8,2.1,3.9,3.4,6,3.6c-0.1,0-0.1,0-0.2,0l0,0l0,0l0,0l0.5,0.1
					c0.1,0,0.1,0,0.2,0h0.1c0,0,0,0,0.1,0c0,0,0,0,0.1,0l0,0l0,0l0,0l0,0l2-0.2c0,0,0,0,0.1,0h0.1h0.1c0,0,0,0,0.1,0l0,0l0,0
					l0.4-0.1c0,0,0,0,0.1,0c0,0,0,0,0.1,0c0,0,0.1,0,0.1-0.1c0,0,0,0,0.1-0.1c0,0,0,0,0.1-0.1c0,0,0,0,0.1-0.1c0,0,0.1,0,0.1-0.1
					c0,0,0.1,0,0.1-0.1c0,0,0,0,0.1-0.1c0,0,0,0,0.1-0.1c0,0,0,0,0.1-0.1c0,0,0-0.1,0.1-0.1c0,0,0,0,0.1-0.1c0,0,0,0,0.1-0.1
					c0,0,0,0,0.1-0.1c0,0,0-0.1,0.1-0.1c0,0,0-0.1,0.1-0.1c0,0,0-0.1,0.1-0.1c0,0,0-0.1,0.1-0.1c0,0,0,0,0-0.1c0,0,0-0.1,0.1-0.2
					c0-0.1,0-0.1,0.1-0.2c0,0,0-0.1,0.1-0.2c0-0.1,0-0.1,0.1-0.2c0,0,0,0,0-0.1s0-0.2,0.1-0.3c0,0,0,0,0-0.1v-0.1v-0.1
					c0-0.1,0-0.1,0-0.2v-0.1c0,0,0,0,0-0.1s0-0.1,0-0.2V72c0,0,0,0,0-0.1s0-0.1,0-0.2v-0.1v-0.1v-0.1v-0.1v-0.1v-0.1c0,0,0,0,0-0.1
					s0-0.1,0-0.2v-0.1l0,0c0-0.1,0-0.2,0-0.3l-0.4-3.8c0-0.1,0-0.2,0-0.4v-0.1c0-0.1,0-0.2,0-0.2v-0.1c0-0.1,0-0.1,0-0.2v-0.1
					c0-0.1,0-0.1,0-0.2s0-0.1,0-0.2s0-0.1,0-0.2s0-0.1,0-0.2s0-0.1,0-0.2s0-0.2,0-0.2c0-0.1,0-0.1,0-0.2c0,0,0,0,0-0.1
					s0-0.2,0.1-0.3c0-0.1,0-0.1,0.1-0.2c0-0.1,0-0.1,0.1-0.2c0-0.1,0-0.1,0.1-0.2c0-0.1,0-0.1,0.1-0.2c0,0,0-0.1,0.1-0.1
					c0,0,0-0.1,0.1-0.1l0.4-0.8c0,0,0-0.1,0.1-0.2c0,0,0-0.1,0.1-0.1c0-0.1,0-0.1,0.1-0.2c0-0.1,0-0.1,0.1-0.2c0-0.1,0-0.1,0.1-0.2
					c0-0.1,0-0.1,0.1-0.2v-0.1l0,0v-0.1c0-0.1,0-0.1,0.1-0.2c0-0.1,0-0.1,0-0.2l0,0l0,0v-0.1l0,0V60c0,0,0,0,0-0.1l0,0l0,0l0,0l0,0
					c0,0,0,0,0-0.1s0-0.1,0-0.2c0,0,0,0,0-0.1l0,0l0,0v-0.1c0,0,0,0,0-0.1l0,0l0,0l0,0l0,0c0,0,0,0,0-0.1s0-0.1,0-0.2l0,0l0,0l0,0
					l0,0l0,0l0,0c0,0,0,0,0-0.1v-0.1l0,0v-0.1c0-0.1,0-0.2,0-0.2l0,0l0,0l0,0l0,0l0,0l0,0l0,0l0,0l0,0l0,0l0,0l0,0l0,0l0,0l0,0l0,0
					l0,0c0,0,0,0,0-0.1l0,0c0,0,0,0,0-0.1l0,0l0,0l0,0l0,0l0,0l0,0l0,0l0,0l0,0l0,0l0,0l0,0l0,0l0,0l0,0l0,0l0,0l0,0l0,0l0,0l0,0
					l0,0l0,0c-0.1,0-0.1,0-0.2,0c-0.1,0-0.2,0-0.3,0l0,0l0,0l0,0l0,0l0,0l0,0l0,0l-2,0.2l0,0l0,0l0,0l0,0l0,0l0,0l-0.4,0.1l0,0
					c0,0,0,0-0.2,0.2l0,0L69,57.1c0-0.1,0-0.1,0-0.2l-0.5-2.6l0,0l0,0l0,0l0,0v-0.1l0,0c0,0,0,0,0-0.1l0,0l0,0l0,0l0,0l0,0l0,0l0,0
					l0,0l0,0l0,0l0,0l0,0l0,0l0,0l0,0l0,0l0,0l0,0h-0.3l4-26.9l1-0.2c0,0,0.1,0,0.3-0.6l0.6-6.7c0,0,0,0,0.1,0h0.1h0.1
					c0,0,0,0,0.1-0.1c0,0,0,0,0.1-0.1c0,0,0-0.1,0.2-0.5c0,0,0,0,0-0.1v-0.1l0,0v-0.1l0,0l0,0c0,0,0,0,0-0.1l0,0l0,0l0,0l0,0l0,0
					l0,0v-0.1L74.7,18c0,0,0,0,0-0.1l0,0c0,0,0,0,0-0.1l0,0v-0.1l0,0l0,0c0,0,0-0.1-0.1-0.1l0,0c0,0,0-0.1-0.1-0.1l0,0l0,0l0,0l0,0
					c0,0,0,0-0.1-0.1l0,0l0,0c0,0,0,0-0.1,0l0,0l0,0c0,0,0,0-0.1,0l0,0l0,0l0,0l0,0l0,0l0,0l0,0l0,0l0,0l0,0l0,0L72.6,16.7
					L72.6,16.7z M54,77.3L54,77.3L54,77.3L54,77.3z"/>
			</g>
		</g>
		
			<linearGradient id="SVGID_22_" gradientUnits="userSpaceOnUse" x1="67.8748" y1="323.493" x2="96.3389" y2="323.493" gradientTransform="matrix(-9.691034e-02 -0.9953 -0.9953 9.691034e-02 393.5777 112.2745)">
			<stop  offset="0" style="stop-color:#1E72B7"/>
			<stop  offset="0.4827" style="stop-color:#37A7DF"/>
			<stop  offset="0.9879" style="stop-color:#6FC9C7"/>
		</linearGradient>
		<polyline class="st23" points="69.7,57.6 69.7,57.8 69.8,57.9 69.8,58.1 69.8,58.1 69.8,58.2 69.8,58.2 69.8,58.2 69.8,58.2 
			69.8,58.3 69.8,58.3 69.8,58.3 69.8,58.4 69.8,58.4 69.8,58.4 69.8,58.5 69.8,58.5 69.8,58.5 69.8,58.5 69.8,58.6 69.8,58.6 
			69.8,58.6 69.8,58.7 69.8,58.7 69.8,58.7 69.8,58.8 69.8,58.8 69.8,58.8 69.8,58.9 69.8,58.9 69.8,58.9 69.8,59 69.8,59 69.8,59 
			69.8,59 69.8,59.1 69.8,59.1 69.8,59.1 69.8,59.2 69.8,59.2 69.8,59.2 69.8,59.3 69.8,59.3 69.8,59.3 69.8,59.3 69.8,59.4 
			69.8,59.4 69.8,59.4 69.8,59.5 69.8,59.5 69.8,59.5 69.8,59.6 69.8,59.6 69.8,59.6 69.8,59.6 69.8,59.7 69.8,59.7 69.8,59.7 
			69.8,59.8 69.8,59.8 69.7,59.8 69.7,59.8 69.7,59.9 69.7,59.9 69.7,59.9 69.7,60 69.7,60 69.7,60 69.7,60 69.7,60.1 69.7,60.1 
			69.7,60.1 69.7,60.2 69.7,60.2 69.7,60.2 69.7,60.2 69.7,60.3 69.7,60.3 69.7,60.3 69.7,60.4 69.7,60.4 69.6,60.4 69.6,60.4 
			69.6,60.5 69.6,60.5 69.6,60.5 69.6,60.6 69.6,60.6 69.6,60.6 69.6,60.6 69.6,60.7 69.6,60.7 69.6,60.7 69.6,60.7 69.6,60.8 
			69.6,60.8 69.5,60.8 69.5,60.8 69.5,60.9 69.5,60.9 69.5,60.9 69.5,61 69.5,61 69.5,61 69.5,61 69.5,61.1 69.5,61.1 69.5,61.1 
			69.5,61.1 69.4,61.2 69.4,61.2 69.4,61.2 69.4,61.2 69.4,61.3 69.4,61.3 69.4,61.3 69.4,61.3 69.4,61.4 69.4,61.4 69.4,61.4 
			69.3,61.4 69.3,61.5 69.3,61.5 69.3,61.5 69.3,61.5 69.3,61.6 69.3,61.6 69.3,61.6 69.3,61.6 69.3,61.7 69.2,61.7 69.2,61.7 
			69.2,61.7 69.2,61.7 69.2,61.8 69.2,61.8 69.2,61.8 69.2,61.8 69.2,61.8 69.2,61.8 69.2,61.8 69.1,61.9 69.1,61.9 69.1,61.9 
			69.1,61.9 69.1,61.9 69.1,62 69.1,62 68.7,62.8 68.7,62.8 68.6,62.8 68.6,62.8 68.6,62.9 68.6,62.9 68.6,62.9 68.6,62.9 
			68.6,62.9 68.6,62.9 68.6,63 68.6,63 68.6,63 68.6,63 68.5,63 68.5,63 68.5,63 68.5,63.1 68.5,63.1 68.5,63.1 68.5,63.1 
			68.5,63.2 68.5,63.2 68.5,63.2 68.5,63.2 68.5,63.2 68.4,63.3 68.4,63.3 68.4,63.3 68.4,63.4 68.4,63.4 68.4,63.4 68.4,63.4 
			68.4,63.5 68.4,63.5 68.4,63.5 68.3,63.5 68.3,63.5 68.3,63.6 68.3,63.6 68.3,63.6 68.3,63.6 68.3,63.7 68.3,63.7 68.3,63.7 
			68.3,63.8 68.3,63.8 68.3,63.8 68.3,63.8 68.2,64.2 68.1,64.5 68.1,64.9 68,65.2 68,65.6 68,66 68,66.3 68,66.7 68.4,70.4 
			68.5,70.8 68.5,71.2 68.5,71.6 68.4,72 68.4,72.4 68.4,72.7 68.3,73.1 68.2,73.4 68.2,73.4 68.2,73.5 68.2,73.5 68.2,73.5 
			68.2,73.5 68.2,73.6 68.1,73.6 68.1,73.6 68.1,73.6 68.1,73.7 68.1,73.7 68.1,73.7 68.1,73.8 68.1,73.8 68.1,73.8 68.1,73.8 
			68.1,73.9 68,73.9 68,73.9 68,73.9 68,74 68,74 68,74 68,74 68,74.1 68,74.1 68,74.1 67.9,74.1 67.9,74.2 67.9,74.2 67.9,74.2 
			67.9,74.2 67.9,74.2 67.9,74.2 67.9,74.2 67.9,74.2 67.9,74.2 67.9,74.3 67.9,74.3 67.9,74.3 67.9,74.3 67.9,74.3 67.9,74.3 
			67.9,74.3 67.8,74.4 67.8,74.4 67.8,74.4 67.8,74.4 67.8,74.4 67.8,74.4 67.8,74.5 67.8,74.5 67.8,74.5 67.8,74.5 67.8,74.5 
			67.8,74.5 67.8,74.5 67.7,74.6 67.7,74.6 67.7,74.6 67.7,74.6 67.7,74.6 67.7,74.6 67.7,74.7 67.7,74.7 67.7,74.7 67.7,74.7 
			67.6,74.7 67.6,74.7 67.6,74.7 67.6,74.8 67.6,74.8 67.6,74.8 67.6,74.8 67.6,74.8 67.6,74.8 67.6,74.8 67.6,74.9 67.6,74.9 
			67.6,74.9 67.5,74.9 67.5,74.9 67.5,74.9 67.5,74.9 67.5,75 67.5,75 67.5,75 67.5,75 67.5,75 67.5,75 67.4,75 67.4,75 67.4,75.1 
			67.4,75.1 67.4,75.1 67.4,75.1 67.4,75.1 67.4,75.1 67.4,75.1 67.3,75.1 67.3,75.2 67.3,75.2 67.3,75.2 67.3,75.2 67.3,75.2 
			67.3,75.2 67.3,75.2 67.3,75.2 67.3,75.3 67.2,75.3 67.2,75.3 67.2,75.3 67.2,75.3 67.2,75.3 67.2,75.3 67.2,75.3 67.2,75.3 
			67.2,75.3 67.2,75.4 67.2,75.4 67.1,75.4 67.1,75.4 67.1,75.4 67.1,75.4 67.1,75.4 67.1,75.4 67.1,75.4 67.1,75.4 67.1,75.5 
			67,75.5 67,75.5 67,75.5 67,75.5 67,75.5 67,75.5 67,75.5 67,75.5 66.9,75.5 66.9,75.6 66.9,75.6 66.9,75.6 66.9,75.6 66.9,75.6 
			66.9,75.6 66.9,75.6 66.8,75.6 66.8,75.6 66.8,75.6 66.8,75.6 66.8,75.6 66.8,75.7 66.8,75.7 66.8,75.7 66.8,75.7 66.7,75.7 
			66.7,75.7 66.7,75.7 66.7,75.7 66.7,75.7 66.7,75.7 66.7,75.7 66.7,75.7 66.7,75.7 66.6,75.7 66.6,75.8 66.6,75.8 66.6,75.8 
			66.6,75.8 66.6,75.8 66.6,75.8 66.6,75.8 66.5,75.8 66.5,75.8 66.5,75.8 66.5,75.8 66.5,75.8 66.5,75.8 66.5,75.8 66.5,75.8 
			66.4,75.8 66.4,75.9 66.4,75.9 66.4,75.9 66.4,75.9 66.4,75.9 66.4,75.9 66.4,75.9 66.3,75.9 66.3,75.9 66.3,75.9 66.3,75.9 
			66.3,75.9 66.3,75.9 66.3,75.9 66.3,75.9 66.3,75.9 66.2,75.9 66.2,75.9 66.2,75.9 66.2,75.9 66.2,75.9 66.2,75.9 66.2,75.9 
			66.2,75.9 66.1,75.9 66.1,75.9 66.1,75.9 66.1,76 66.1,76 66.1,76 66.1,76 66,76 66,76 66,76 66,76 66,76 66,76 66,76 66,76 
			65.9,76 65.9,76 65.9,76 65.9,76 65.9,76 65.9,76 65.9,76 65.9,76 65.8,76 65.8,76 65.8,76 65.8,76 65.8,76 65.8,76 65.8,76 
			65.8,76 65.7,76 65.7,76 65.7,76 65.7,76 65.7,76 65.7,76 65.7,76 65.6,76 65.6,76 65.6,76 65.6,76 65.6,76 65.6,76 64.8,75.9 
			64,75.6 63.3,75.3 62.5,74.9 61.8,74.4 61,73.8 60.3,73.2 59.6,72.4 59.2,71.9 59.2,71.9 59.2,71.9 59.2,71.9 59.2,71.8 
			59.1,71.8 59.1,71.8 59.1,71.8 59.1,71.8 59.1,71.8 59.1,71.8 59.1,71.7 59.1,71.7 59,71.7 59,71.7 59,71.7 59,71.7 59,71.7 
			59,71.7 59,71.6 59,71.6 59,71.6 59,71.6 59,71.6 59,71.6 59,71.6 58.9,71.6 58.9,71.5 58.9,71.5 58.9,71.5 58.9,71.5 58.9,71.5 
			58.9,71.5 58.9,71.5 58.9,71.4 58.8,71.4 58.8,71.4 58.8,71.4 58.8,71.4 58.8,71.4 58.8,71.4 58.8,71.3 58.8,71.3 58.8,71.3 
			58.8,71.3 58.8,71.3 58.8,71.3 58.7,71.3 58.7,71.2 58.7,71.2 58.7,71.2 58.7,71.2 58.7,71.2 58.7,71.2 58.7,71.1 58.7,71.1 
			58.7,71.1 58.7,71.1 58.6,71.1 58.6,71.1 58.6,71 58.6,71 58.6,71 58.6,71 58.6,71 58.6,71 58.6,71 58.6,70.9 58.6,70.9 
			58.6,70.9 58.5,70.9 58.5,70.9 58.5,70.9 58.5,70.9 58.5,70.8 58.5,70.8 58.5,70.8 58.5,70.8 58.5,70.8 58.5,70.8 58.5,70.7 
			58.5,70.7 58.5,70.7 58.4,70.7 58.4,70.7 58.4,70.6 58.4,70.6 58.4,70.6 58.4,70.6 58.4,70.6 58.4,70.6 58.4,70.5 58.4,70.5 
			58.4,70.5 58.4,70.5 58.4,70.5 58.4,70.5 58.3,70.4 58.3,70.4 58.3,70.3 58.3,70.3 58.3,70.3 58.3,70.2 58.2,70.2 58.2,70.2 
			58.2,70.1 58.2,70.1 58.2,70.1 58.2,70.1 58.2,70.1 58.2,70 58.2,70 58.2,70 58.2,70 58.2,70 58.2,70 58.1,69.9 58.1,69.9 
			58.1,69.9 58.1,69.9 58.1,69.9 58.1,69.9 58.1,69.8 58.1,69.8 58.1,69.8 58.1,69.8 58.1,69.8 58.1,69.7 58.1,69.7 58.1,69.7 
			58.1,69.7 58.1,69.7 58.1,69.6 58.1,69.6 58,69.6 58,69.6 58,69.6 58,69.6 58,69.5 58,69.5 58,69.5 58,69.5 58,69.5 58,69.5 
			58,69.4 58,69.4 58,69.4 58,69.4 58,69.3 58,69.3 58,69.3 58,69.3 58,69.3 58,69.3 57.9,69.2 57.9,69.2 57.9,69.2 57.9,69.2 
			57.9,69.2 57.9,69.1 57.9,69.1 57.9,69.1 57.9,69.1 57.9,69 57.9,69 57.9,69 57.9,69 57.9,69 57.9,69 57.9,68.9 57.9,68.9 
			57.9,68.9 57.9,68.9 57.9,68.8 57.9,68.8 57.9,68.8 57.9,68.8 57.8,68.8 57.8,68.7 57.8,68.7 57.8,68.7 57.8,68.7 57.8,68.7 
			57.8,68.6 57.8,68.6 57.8,68.6 57.8,68.6 57.8,68.5 57.8,68.5 57.8,68.5 57.8,68.5 57.8,68.5 57.8,68.5 57.8,68.4 57.8,68.4 
			57.8,68.4 57.8,68.4 57.8,68.3 57.8,68.3 57.8,68.3 57.8,68.3 57.8,68.3 57.8,68.2 57.8,68.2 57.8,68.2 57.8,68.2 57.8,68.2 
			57.8,68.2 57.8,68.2 57.8,68.1 57.8,68.1 57.8,68.1 57.7,68 57.7,68 57.7,68 57.7,68 57.7,68 57.7,68 57.7,67.9 57.7,67.9 
			57.7,67.9 57.7,67.9 57.7,67.9 57.7,67.8 57.7,67.8 57.7,67.8 57.7,67.8 57.7,67.7 57.7,67.7 57.7,67.7 57.7,67.7 57.7,67.7 
			57.7,67.7 57.7,67.6 57.7,67.6 57.7,67.6 57.7,67.6 57.7,67.5 57.7,67.5 57.7,67.5 57.7,67.5 57.7,67.5 57.7,67.4 57.7,67.4 
			57.7,67.4 57.7,67.3 57.7,67.3 57.7,67.3 57.7,67.3 57.7,66.5 57.7,66.5 57.7,66.5 57.7,66.5 57.7,66.4 57.7,66.4 57.7,66.4 
			57.7,66.4 57.7,66.3 57.7,66.3 57.7,66.3 57.7,66.2 57.7,66.2 57.7,66.2 57.7,66.2 57.7,66.1 57.7,66.1 57.7,66.1 57.7,66.1 
			57.7,66 57.7,66 57.7,66 57.7,66 57.7,65.9 57.7,65.9 57.7,65.9 57.7,65.9 57.7,65.8 57.7,65.8 57.7,65.8 57.7,65.8 57.7,65.7 
			57.7,65.7 57.7,65.7 57.7,65.6 57.7,65.6 57.7,65.6 57.7,65.6 57.7,65.6 57.7,65.5 57.7,65.5 57.7,65.5 57.8,65.5 57.8,65.4 
			57.8,65.4 57.8,65.4 57.8,65.4 57.8,65.3 57.8,65.3 57.8,65.3 57.8,65.3 57.8,65.2 57.8,65.2 57.8,65.2 57.8,65.2 57.8,65.1 
			57.8,65.1 57.8,65.1 57.8,65.1 57.8,65 57.8,65 57.8,65 57.8,65 57.8,65 57.8,64.9 57.8,64.9 57.8,64.9 57.8,64.8 57.9,64.8 
			57.9,64.8 57.9,64.8 57.9,64.8 57.9,64.7 57.9,64.7 57.9,64.7 57.9,64.7 57.9,64.6 57.9,64.6 57.9,64.6 57.9,64.6 57.9,64.6 
			57.9,64.5 57.9,64.5 57.9,64.5 57.9,64.5 57.9,64.4 57.9,64.4 58,64.4 58,64.4 58,64.3 58,64.3 58,64.3 58,64.3 58,64.3 58,64.2 
			58,64.2 58,64.2 58,64.2 58,64.1 58,64.1 58,64.1 58,64.1 58.1,64.1 58.1,64 58.1,64 58.1,64 58.1,64 58.1,64 58.1,63.9 
			58.1,63.9 58.1,63.9 58.1,63.9 58.1,63.9 58.1,63.8 58.1,63.8 58.2,63.8 58.2,63.8 58.2,63.8 58.2,63.7 58.2,63.7 58.2,63.7 
			58.2,63.7 58.2,63.6 58.2,63.6 58.2,63.6 58.2,63.6 58.2,63.6 58.2,63.6 58.3,63.5 58.3,63.5 58.3,63.5 58.3,63.5 58.3,63.4 
			58.3,63.4 58.3,63.4 58.3,63.4 58.3,63.4 58.4,63.3 58.4,63.3 58.4,63.3 58.4,63.3 58.4,63.3 58.4,63.2 58.4,63.2 58.4,63.2 
			58.4,63.2 58.5,63.1 58.5,63.1 58.5,63.1 58.5,63.1 58.5,63.1 58.5,63 58.5,63 58.5,63 58.6,63 58.6,63 58.6,62.9 58.6,62.9 
			58.6,62.9 58.6,62.9 58.6,62.9 61,59.4 61,59.4 61,59.4 61,59.4 61,59.4 61,59.4 61,59.4 61,59.4 61,59.4 61.1,59.3 61.1,59.2 
			61.1,59.1 61.2,59.1 61.2,59 61.2,59 61.2,59 61.2,59 61.2,59 61.2,59 61.2,59 61.2,58.9 61.2,58.9 61.2,58.9 61.2,58.9 
			61.2,58.9 61.2,58.9 61.2,58.9 61.3,58.9 61.3,58.8 61.3,58.8 61.3,58.8 61.3,58.8 61.3,58.8 61.3,58.6 61.3,58.5 61.4,58.4 
			61.4,58.2 61.4,58 61.4,57.9 61.4,57.7 61.4,57.6 61.1,54.2 61.1,53.9 61.1,53.7 61.1,53.4 61.1,53.1 61.1,52.9 61.1,52.6 
			61.1,52.3 61.1,52.1 61.2,51.6 61.2,51.1 61.3,50.6 61.4,50.1 61.5,49.7 61.6,49.2 61.7,48.8 61.9,48.4 62,48 62.1,47.9 
			62.2,47.8 62.3,47.8 62.3,47.7 62.4,47.7 62.5,47.8 62.6,47.9 62.7,48 62.8,48.1 62.8,48.2 62.9,48.3 62.9,48.3 62.9,48.4 
			62.9,48.5 63,48.6 63,48.7 63,48.8 62.9,51.8 63,52 63,52.2 63,52.4 63,52.6 63.1,52.8 63.1,53 63.2,53.2 63.3,53.4 63.4,53.6 
			63.5,53.7 63.7,53.9 63.8,54 64,54.1 64.1,54.1 64.3,54.2 64.5,54.1 64.9,54 65,54 65.1,54.1 65.2,54.1 65.3,54.2 65.3,54.3 
			65.4,54.4 65.4,54.5 65.5,54.6 66,57.2 66,57.2 66,57.3 66,57.3 66,57.3 66,57.3 66,57.3 66,57.3 66,57.4 66.3,58.1 66.4,58.3 
			66.5,58.6 66.6,58.8 66.7,59 66.9,59.1 67,59.3 67.2,59.4 67.4,59.4 67.4,59.4 67.4,59.4 67.4,59.4 67.4,59.4 67.4,59.5 
			67.5,59.5 67.5,59.5 67.5,59.5 67.5,59.5 67.5,59.5 67.5,59.5 67.5,59.5 67.5,59.5 67.6,59.5 67.6,59.5 67.6,59.5 67.6,59.5 
			67.6,59.5 67.6,59.5 67.6,59.5 67.6,59.5 67.6,59.5 67.7,59.5 67.7,59.5 67.7,59.5 67.7,59.5 67.7,59.5 67.7,59.5 67.7,59.5 
			67.7,59.5 67.7,59.5 67.8,59.5 67.8,59.5 67.8,59.4 67.8,59.4 67.8,59.4 67.8,59.4 67.8,59.4 67.8,59.4 67.8,59.4 67.9,59.4 
			67.9,59.4 67.9,59.4 67.9,59.4 67.9,59.4 67.9,59.4 67.9,59.4 67.9,59.4 67.9,59.4 68,59.4 68,59.4 68,59.4 68,59.4 68,59.4 
			68,59.4 68,59.4 68,59.3 68,59.3 68.1,59.3 68.1,59.3 68.1,59.3 68.1,59.3 68.1,59.3 68.1,59.3 68.1,59.3 68.1,59.3 68.1,59.3 
			68.2,59.3 68.2,59.3 68.2,59.3 68.2,59.2 68.2,59.2 68.2,59.2 68.2,59.2 68.2,59.2 68.2,59.2 68.2,59.2 68.3,59.2 68.3,59.2 
			68.3,59.2 68.3,59.1 68.3,59.1 68.3,59.1 68.3,59.1 68.3,59.1 68.3,59.1 68.3,59.1 68.4,59.1 68.4,59 68.4,59 68.4,59 68.4,59 
			68.4,59 68.4,59 68.4,59 68.4,59 68.4,59 68.4,58.9 68.5,58.9 68.5,58.9 68.5,58.9 68.5,58.9 68.5,58.9 68.5,58.9 68.5,58.8 
			68.5,58.8 68.5,58.8 68.5,58.8 68.5,58.8 68.5,58.8 68.5,58.8 68.5,58.8 68.6,58.7 68.6,58.6 68.6,58.6 68.6,58.6 68.6,58.5 
			68.7,58.5 68.7,58.5 68.7,58.5 68.7,58.4 68.8,58.3 68.8,58.1 68.8,58 68.9,57.9 68.9,57.8 68.9,57.7 69,57.6 69,57.6 69,57.6 
			69,57.6 69,57.6 69,57.6 69,57.6 69,57.6 69,57.6 69.1,57.5 69.1,57.4 69.2,57.4 69.2,57.4 69.2,57.4 69.2,57.3 69.2,57.3 
			69.2,57.3 69.3,57.3 69.4,57.4 69.5,57.4 69.6,57.5 69.7,57.6 		"/>
		
			<linearGradient id="SVGID_23_" gradientUnits="userSpaceOnUse" x1="76.8844" y1="317.2676" x2="126.2055" y2="317.2676" gradientTransform="matrix(-9.691034e-02 -0.9953 -0.9953 9.691034e-02 393.5777 112.2745)">
			<stop  offset="0" style="stop-color:#2D4F8D"/>
			<stop  offset="1" style="stop-color:#5180BB"/>
		</linearGradient>
		<path class="st24" d="M72.5,16.8c0.3-0.2,0.7,0.2,0.8,0.7l0.1,0.5c0,0.2,0.1,0.4,0.1,0.5s0,0.1,0,0.1c-0.1,0.4-0.2,0.5-0.2,0.5
			l-0.1,0.1l-0.1,0.1H73h-0.1c0,0,0,0-0.1,0L72.2,26c-0.3,0.6-0.3,0.6-0.3,0.6l-1,0.2L65,66.9l-2.6-1.7l7.1-39.3l-0.3-0.8
			c-0.1-0.3-0.1-0.6,0-0.8l2.8-7.2L72.5,16.8z"/>
	</g>
	<g>
		<polygon class="st9" points="132.4,47.7 120.2,40.8 113.9,42.1 107.6,48.3 103.6,56.9 103.7,63.8 107.6,68.1 119.8,75 115.9,71 
			115.8,63.4 119.7,54.9 126,49 		"/>
		<polygon class="st25" points="115.9,71 103.7,63.8 107.6,68.1 119.8,75 		"/>
		<g>
			
				<radialGradient id="SVGID_24_" cx="18.1569" cy="-273.3351" r="12.0656" gradientTransform="matrix(0.7071 -0.7071 0.495 0.495 248.5565 209.484)" gradientUnits="userSpaceOnUse">
				<stop  offset="0" style="stop-color:#5189BF"/>
				<stop  offset="0.4127" style="stop-color:#5086BD"/>
				<stop  offset="0.7305" style="stop-color:#4E7CB8"/>
				<stop  offset="1" style="stop-color:#4A6DB0"/>
			</radialGradient>
			<polygon class="st26" points="115.8,63.4 119.7,54.9 126,49 132.4,47.7 136.3,51.6 136.4,59.2 132.5,67.7 126,74 119.8,75 
				115.9,71 			"/>
			
				<radialGradient id="SVGID_25_" cx="18.1597" cy="-273.2817" r="10.6074" gradientTransform="matrix(0.7071 -0.7071 0.495 0.495 248.5337 209.4152)" gradientUnits="userSpaceOnUse">
				<stop  offset="0" style="stop-color:#5189BF"/>
				<stop  offset="0.4127" style="stop-color:#5086BD"/>
				<stop  offset="0.7305" style="stop-color:#4E7CB8"/>
				<stop  offset="1" style="stop-color:#4A6DB0"/>
			</radialGradient>
			<polygon class="st27" points="117.1,63.1 120.5,55.7 126.2,50.4 131.6,49.3 135.1,52.7 135.1,59.5 131.7,66.9 126.1,72.2 
				120.6,73.3 117.1,69.9 			"/>
		</g>
		
			<linearGradient id="SVGID_26_" gradientUnits="userSpaceOnUse" x1="219.6653" y1="28.55" x2="238.152" y2="28.55" gradientTransform="matrix(-1 0 0 -1 345.7099 77.2)">
			<stop  offset="0" style="stop-color:#5593C5"/>
			<stop  offset="1" style="stop-color:#4454A2"/>
		</linearGradient>
		<polygon class="st28" points="126,49 113.9,42.1 107.6,48.3 119.8,55.2 		"/>
		
			<linearGradient id="SVGID_27_" gradientUnits="userSpaceOnUse" x1="225.9571" y1="21.15" x2="242.1007" y2="21.15" gradientTransform="matrix(-1 0 0 -1 345.7099 77.2)">
			<stop  offset="0" style="stop-color:#2D5992"/>
			<stop  offset="1" style="stop-color:#330062"/>
		</linearGradient>
		<polygon class="st29" points="119.8,55.2 115.8,63.8 103.6,56.9 107.6,48.3 		"/>
		<polygon class="st30" points="115.9,71 103.7,63.8 103.6,56.9 115.8,63.8 		"/>
	</g>
	<g>
		
			<linearGradient id="SVGID_28_" gradientUnits="userSpaceOnUse" x1="16.2637" y1="58.9" x2="41.0119" y2="58.9" gradientTransform="matrix(1 0 0 -1 0 77.2)">
			<stop  offset="0.202" style="stop-color:#5593C5"/>
			<stop  offset="0.3955" style="stop-color:#5A98C9"/>
			<stop  offset="0.6386" style="stop-color:#6AA7D6"/>
			<stop  offset="0.9072" style="stop-color:#83BFEA"/>
			<stop  offset="1" style="stop-color:#8EC9F2"/>
		</linearGradient>
		<polygon class="st31" points="16.3,13.7 20.6,11.2 41,22.9 36.7,25.4 		"/>
		
			<linearGradient id="SVGID_29_" gradientUnits="userSpaceOnUse" x1="20.6" y1="61.4" x2="45.3502" y2="61.4" gradientTransform="matrix(1 0 0 -1 0 77.2)">
			<stop  offset="0.202" style="stop-color:#5593C5"/>
			<stop  offset="0.3955" style="stop-color:#5A98C9"/>
			<stop  offset="0.6386" style="stop-color:#6AA7D6"/>
			<stop  offset="0.9072" style="stop-color:#83BFEA"/>
			<stop  offset="1" style="stop-color:#8EC9F2"/>
		</linearGradient>
		<polygon class="st32" points="20.6,11.2 24.9,8.7 45.3,20.5 41,22.9 		"/>
		
			<linearGradient id="SVGID_30_" gradientUnits="userSpaceOnUse" x1="24.9306" y1="63.85" x2="49.6526" y2="63.85" gradientTransform="matrix(1 0 0 -1 0 77.2)">
			<stop  offset="0.202" style="stop-color:#5593C5"/>
			<stop  offset="0.3955" style="stop-color:#5A98C9"/>
			<stop  offset="0.6386" style="stop-color:#6AA7D6"/>
			<stop  offset="0.9072" style="stop-color:#83BFEA"/>
			<stop  offset="1" style="stop-color:#8EC9F2"/>
		</linearGradient>
		<polygon class="st33" points="24.9,8.7 29.3,6.2 49.7,18 45.3,20.5 		"/>
		
			<linearGradient id="SVGID_31_" gradientUnits="userSpaceOnUse" x1="29.2431" y1="66.35" x2="53.8431" y2="66.35" gradientTransform="matrix(1 0 0 -1 0 77.2)">
			<stop  offset="0.202" style="stop-color:#5593C5"/>
			<stop  offset="0.3955" style="stop-color:#5A98C9"/>
			<stop  offset="0.6386" style="stop-color:#6AA7D6"/>
			<stop  offset="0.9072" style="stop-color:#83BFEA"/>
			<stop  offset="1" style="stop-color:#8EC9F2"/>
		</linearGradient>
		<polygon class="st34" points="29.2,6.2 33.4,3.7 53.8,15.5 49.7,18 		"/>
		
			<linearGradient id="SVGID_32_" gradientUnits="userSpaceOnUse" x1="20.617" y1="63.6" x2="33.4788" y2="63.6" gradientTransform="matrix(1 0 0 -1 0 77.2)">
			<stop  offset="0" style="stop-color:#283972"/>
			<stop  offset="1" style="stop-color:#330062"/>
		</linearGradient>
		<polygon class="st35" points="20.6,11.1 22.9,9.9 33.5,16.1 31.3,17.3 		"/>
		
			<linearGradient id="SVGID_33_" gradientUnits="userSpaceOnUse" x1="24.9541" y1="66.05" x2="37.8541" y2="66.05" gradientTransform="matrix(1 0 0 -1 0 77.2)">
			<stop  offset="0" style="stop-color:#283972"/>
			<stop  offset="1" style="stop-color:#330062"/>
		</linearGradient>
		<polygon class="st36" points="25,8.7 27.2,7.4 37.9,13.6 35.8,14.9 		"/>
		
			<linearGradient id="SVGID_34_" gradientUnits="userSpaceOnUse" x1="29.2268" y1="68.55" x2="42.1268" y2="68.55" gradientTransform="matrix(1 0 0 -1 0 77.2)">
			<stop  offset="0" style="stop-color:#283972"/>
			<stop  offset="1" style="stop-color:#330062"/>
		</linearGradient>
		<polygon class="st37" points="29.2,6.2 31.4,4.9 42.1,11.1 40,12.4 		"/>
		
			<linearGradient id="SVGID_35_" gradientUnits="userSpaceOnUse" x1="20.617" y1="62.35" x2="31.2803" y2="62.35" gradientTransform="matrix(1 0 0 -1 0 77.2)">
			<stop  offset="0" style="stop-color:#2C6598"/>
			<stop  offset="1" style="stop-color:#330062"/>
		</linearGradient>
		<polygon class="st38" points="31.3,17.3 20.6,11.1 20.7,12.4 31.3,18.6 		"/>
		
			<linearGradient id="SVGID_36_" gradientUnits="userSpaceOnUse" x1="31.2803" y1="59.85" x2="33.4803" y2="59.85" gradientTransform="matrix(1 0 0 -1 0 77.2)">
			<stop  offset="0" style="stop-color:#283972"/>
			<stop  offset="1" style="stop-color:#330062"/>
		</linearGradient>
		<polygon class="st39" points="33.5,16.1 33.5,17.3 31.3,18.6 31.3,17.3 		"/>
		
			<linearGradient id="SVGID_37_" gradientUnits="userSpaceOnUse" x1="24.9541" y1="64.85" x2="35.7541" y2="64.85" gradientTransform="matrix(1 0 0 -1 0 77.2)">
			<stop  offset="0" style="stop-color:#2C6598"/>
			<stop  offset="1" style="stop-color:#330062"/>
		</linearGradient>
		<polygon class="st40" points="25,8.7 25,9.9 35.7,16 35.8,14.9 		"/>
		
			<linearGradient id="SVGID_38_" gradientUnits="userSpaceOnUse" x1="29.1741" y1="67.3" x2="40.0741" y2="67.3" gradientTransform="matrix(1 0 0 -1 0 77.2)">
			<stop  offset="0" style="stop-color:#2C6598"/>
			<stop  offset="1" style="stop-color:#330062"/>
		</linearGradient>
		<polygon class="st41" points="40.1,12.4 40.1,13.6 29.2,7.4 29.2,6.2 		"/>
		
			<linearGradient id="SVGID_39_" gradientUnits="userSpaceOnUse" x1="40.028" y1="64.85" x2="42.1636" y2="64.85" gradientTransform="matrix(1 0 0 -1 0 77.2)">
			<stop  offset="0" style="stop-color:#283972"/>
			<stop  offset="1" style="stop-color:#330062"/>
		</linearGradient>
		<polygon class="st42" points="40,12.4 42.1,11.1 42.2,12.4 40.1,13.6 		"/>
		
			<linearGradient id="SVGID_40_" gradientUnits="userSpaceOnUse" x1="35.7142" y1="62.4" x2="37.8553" y2="62.4" gradientTransform="matrix(1 0 0 -1 0 77.2)">
			<stop  offset="0" style="stop-color:#283972"/>
			<stop  offset="1" style="stop-color:#330062"/>
		</linearGradient>
		<polygon class="st43" points="35.8,14.9 37.9,13.6 37.9,14.8 35.7,16 		"/>
		
			<linearGradient id="SVGID_41_" gradientUnits="userSpaceOnUse" x1="39.4008" y1="50.2866" x2="38.3089" y2="53.2866" gradientTransform="matrix(1 0 0 -1 0 77.2)">
			<stop  offset="0.202" style="stop-color:#8EC9F2"/>
			<stop  offset="0.3955" style="stop-color:#89C4EE"/>
			<stop  offset="0.6386" style="stop-color:#79B5E1"/>
			<stop  offset="0.9072" style="stop-color:#609DCD"/>
			<stop  offset="1" style="stop-color:#5593C5"/>
		</linearGradient>
		<polygon class="st44" points="36.7,25.4 36.7,27.9 41,25.4 41,22.9 		"/>
		
			<linearGradient id="SVGID_42_" gradientUnits="userSpaceOnUse" x1="16.2618" y1="56.4" x2="36.6618" y2="56.4" gradientTransform="matrix(1 0 0 -1 0 77.2)">
			<stop  offset="0" style="stop-color:#5593C5"/>
			<stop  offset="1" style="stop-color:#2C6598"/>
		</linearGradient>
		<polygon class="st45" points="36.7,27.9 36.7,27.9 36.7,25.4 19.8,15.7 16.3,13.7 16.3,16.1 		"/>
		
			<linearGradient id="SVGID_43_" gradientUnits="userSpaceOnUse" x1="43.7066" y1="52.7207" x2="42.6064" y2="55.7435" gradientTransform="matrix(1 0 0 -1 0 77.2)">
			<stop  offset="0.202" style="stop-color:#8EC9F2"/>
			<stop  offset="0.3955" style="stop-color:#89C4EE"/>
			<stop  offset="0.6386" style="stop-color:#79B5E1"/>
			<stop  offset="0.9072" style="stop-color:#609DCD"/>
			<stop  offset="1" style="stop-color:#5593C5"/>
		</linearGradient>
		<polygon class="st46" points="41,22.9 41,25.4 45.4,22.9 45.3,20.5 		"/>
		
			<linearGradient id="SVGID_44_" gradientUnits="userSpaceOnUse" x1="48.0926" y1="55.2591" x2="46.995" y2="58.2748" gradientTransform="matrix(1 0 0 -1 0 77.2)">
			<stop  offset="0.202" style="stop-color:#8EC9F2"/>
			<stop  offset="0.3955" style="stop-color:#89C4EE"/>
			<stop  offset="0.6386" style="stop-color:#79B5E1"/>
			<stop  offset="0.9072" style="stop-color:#609DCD"/>
			<stop  offset="1" style="stop-color:#5593C5"/>
		</linearGradient>
		<polygon class="st47" points="45.3,20.5 49.7,18 49.7,20.4 45.4,22.9 		"/>
		
			<linearGradient id="SVGID_45_" gradientUnits="userSpaceOnUse" x1="52.2976" y1="57.7454" x2="51.2083" y2="60.7383" gradientTransform="matrix(1 0 0 -1 0 77.2)">
			<stop  offset="0.202" style="stop-color:#8EC9F2"/>
			<stop  offset="0.3955" style="stop-color:#89C4EE"/>
			<stop  offset="0.6386" style="stop-color:#79B5E1"/>
			<stop  offset="0.9072" style="stop-color:#609DCD"/>
			<stop  offset="1" style="stop-color:#5593C5"/>
		</linearGradient>
		<polygon class="st48" points="53.8,15.5 49.7,18 49.7,20.4 53.9,18 		"/>
	</g>
	<g>
		
			<linearGradient id="SVGID_46_" gradientUnits="userSpaceOnUse" x1="589.3926" y1="58.4" x2="595.1328" y2="58.4" gradientTransform="matrix(-1 0 0 -1 729.0566 77.2)">
			<stop  offset="0" style="stop-color:#FF6706"/>
			<stop  offset="7.434362e-02" style="stop-color:#FF5D0B"/>
			<stop  offset="0.2209" style="stop-color:#FF5211"/>
			<stop  offset="0.4272" style="stop-color:#FF4B14"/>
			<stop  offset="1" style="stop-color:#FF4915"/>
		</linearGradient>
		<polygon class="st49" points="138.7,19 135.3,16.6 133.9,16.3 133.9,21.3 139.6,20.9 139.7,19.6 		"/>
		
			<linearGradient id="SVGID_47_" gradientUnits="userSpaceOnUse" x1="572.2684" y1="56.65" x2="577.7948" y2="56.65" gradientTransform="matrix(-1 0 0 -1 729.0566 77.2)">
			<stop  offset="0" style="stop-color:#FCD57C"/>
			<stop  offset="1" style="stop-color:#FF6706"/>
		</linearGradient>
		<polygon class="st50" points="156.8,21.9 156.8,21.3 155.9,20.6 152.1,18.3 151.3,19.4 151.3,22.8 		"/>
		
			<linearGradient id="SVGID_48_" gradientUnits="userSpaceOnUse" x1="572.2144" y1="57.1" x2="577.1003" y2="57.1" gradientTransform="matrix(-1 0 0 -1 729.0566 77.2)">
			<stop  offset="0" style="stop-color:#B1D7F2"/>
			<stop  offset="0.2459" style="stop-color:#9FCAE9"/>
			<stop  offset="0.7365" style="stop-color:#71A7D2"/>
			<stop  offset="1" style="stop-color:#5593C5"/>
		</linearGradient>
		<polygon class="st51" points="152.1,18.3 152.6,18.2 156.8,21.3 152,22 		"/>
		
			<linearGradient id="SVGID_49_" gradientUnits="userSpaceOnUse" x1="579.9565" y1="49.0636" x2="579.9566" y2="65.1116" gradientTransform="matrix(-1 0 0 -1 729.0566 77.2)">
			<stop  offset="0" style="stop-color:#122042"/>
			<stop  offset="0.1906" style="stop-color:#15274B"/>
			<stop  offset="0.5063" style="stop-color:#1C3C65"/>
			<stop  offset="0.9059" style="stop-color:#295C8D"/>
			<stop  offset="1" style="stop-color:#2C6598"/>
		</linearGradient>
		<polygon class="st52" points="151.1,22.1 151.1,22.4 150.9,28.1 146.6,25.1 146.8,19.4 146.9,19 147.1,12.8 151.6,12.1 		"/>
		
			<linearGradient id="SVGID_50_" gradientUnits="userSpaceOnUse" x1="589.3926" y1="58.8" x2="594.2784" y2="58.8" gradientTransform="matrix(-1 0 0 -1 729.0566 77.2)">
			<stop  offset="0" style="stop-color:#B1D7F2"/>
			<stop  offset="0.2459" style="stop-color:#9FCAE9"/>
			<stop  offset="0.7365" style="stop-color:#71A7D2"/>
			<stop  offset="1" style="stop-color:#5593C5"/>
		</linearGradient>
		<polygon class="st53" points="134.9,16.5 135.4,16.5 139.7,19.6 134.8,20.3 		"/>
		
			<linearGradient id="SVGID_51_" gradientUnits="userSpaceOnUse" x1="597.0566" y1="50.5" x2="597.0566" y2="73.6364" gradientTransform="matrix(-1 0 0 -1 729.0566 77.2)">
			<stop  offset="0" style="stop-color:#122042"/>
			<stop  offset="0.1906" style="stop-color:#15274B"/>
			<stop  offset="0.5063" style="stop-color:#1C3C65"/>
			<stop  offset="0.9059" style="stop-color:#295C8D"/>
			<stop  offset="1" style="stop-color:#2C6598"/>
		</linearGradient>
		<polygon class="st54" points="129.7,17.6 129.7,17.5 129.9,11.5 130.1,7.6 130.3,3.6 134.6,6.6 134.4,10.7 134.2,14.5 134,20.5 
			133.9,20.7 133.7,26.7 129.4,23.6 		"/>
		
			<linearGradient id="SVGID_52_" gradientUnits="userSpaceOnUse" x1="582.7844" y1="67.8224" x2="592.2534" y2="79.107" gradientTransform="matrix(-1 0 0 -1 729.0566 77.2)">
			<stop  offset="0" style="stop-color:#B1D7F2"/>
			<stop  offset="0.2459" style="stop-color:#9FCAE9"/>
			<stop  offset="0.7365" style="stop-color:#71A7D2"/>
			<stop  offset="1" style="stop-color:#5593C5"/>
		</linearGradient>
		<polygon class="st55" points="130.3,3.6 148.5,0.9 152.8,3.9 134.6,6.6 		"/>
		
			<linearGradient id="SVGID_53_" gradientUnits="userSpaceOnUse" x1="583.8066" y1="49.0636" x2="583.8066" y2="73.2636" gradientTransform="matrix(-1 0 0 -1 729.0566 77.2)">
			<stop  offset="0" style="stop-color:#283972"/>
			<stop  offset="1" style="stop-color:#7DC9F2"/>
		</linearGradient>
		<polygon class="st56" points="134,20.5 134.2,14.5 134.4,10.7 134.6,6.6 152.8,3.9 152.6,6.8 152.4,11.8 152.1,18.3 152,22 
			156.8,21.3 156.6,27.3 150.9,28.1 151.1,22.4 151.1,22.1 151.6,12.1 147.1,12.8 135,14.5 134.9,16.5 134.8,20.3 139.7,19.6 
			139.4,25.9 133.7,26.7 133.9,20.7 		"/>
	</g>
	<g>
		<polygon class="st57" points="10.1,74.5 9.7,58.7 10.1,40.2 13.1,58.7 		"/>
		
			<linearGradient id="SVGID_54_" gradientUnits="userSpaceOnUse" x1="22.801" y1="16.8325" x2="19.9993" y2="0.9435" gradientTransform="matrix(1 0 0 -1 0 77.2)">
			<stop  offset="0" style="stop-color:#2C6598"/>
			<stop  offset="1" style="stop-color:#07D0EE"/>
		</linearGradient>
		<polygon class="st58" points="31.1,71.2 13.1,58.7 10.1,74.5 		"/>
		
			<linearGradient id="SVGID_55_" gradientUnits="userSpaceOnUse" x1="13.1" y1="18.35" x2="31.1" y2="18.35" gradientTransform="matrix(1 0 0 -1 0 77.2)">
			<stop  offset="0" style="stop-color:#2C6598"/>
			<stop  offset="1" style="stop-color:#07D0EE"/>
		</linearGradient>
		<polygon class="st59" points="31.1,71.2 31.1,46.5 13.1,58.7 		"/>
		
			<linearGradient id="SVGID_56_" gradientUnits="userSpaceOnUse" x1="0" y1="19.9" x2="6" y2="19.9" gradientTransform="matrix(1 0 0 -1 0 77.2)">
			<stop  offset="0" style="stop-color:#1E72B7"/>
			<stop  offset="0.4827" style="stop-color:#37A7DF"/>
			<stop  offset="0.9879" style="stop-color:#6FC9C7"/>
		</linearGradient>
		<polygon class="st60" points="0,63.7 6,65 6,49.6 0,50.9 		"/>
		
			<linearGradient id="SVGID_57_" gradientUnits="userSpaceOnUse" x1="22.4785" y1="23.9444" x2="13.7304" y2="39.0966" gradientTransform="matrix(1 0 0 -1 0 77.2)">
			<stop  offset="0" style="stop-color:#2C6598"/>
			<stop  offset="1" style="stop-color:#123CA4"/>
		</linearGradient>
		<polygon class="st61" points="13.1,58.7 31.1,46.5 10.1,40.2 		"/>
		
			<linearGradient id="SVGID_58_" gradientUnits="userSpaceOnUse" x1="5.2607" y1="19.85" x2="10.1049" y2="19.85" gradientTransform="matrix(1 0 0 -1 0 77.2)">
			<stop  offset="0" style="stop-color:#2C6598"/>
			<stop  offset="1" style="stop-color:#330062"/>
		</linearGradient>
		<polygon class="st62" points="10.1,40.2 5.3,49.6 5.3,65 10.1,74.5 9.7,58.7 		"/>
		<polygon class="st63" points="14,51.2 14,64.6 14,64.6 14,50.9 		"/>
		
			<linearGradient id="SVGID_59_" gradientUnits="userSpaceOnUse" x1="16.5774" y1="26.7183" x2="19.0905" y2="12.4657" gradientTransform="matrix(1 0 0 -1 0 77.2)">
			<stop  offset="0" style="stop-color:#283972"/>
			<stop  offset="1" style="stop-color:#330062"/>
		</linearGradient>
		<polygon class="st64" points="22,52.4 14,50.9 14,64.7 22,64.2 		"/>
		
			<linearGradient id="SVGID_60_" gradientUnits="userSpaceOnUse" x1="2.5908" y1="13.0808" x2="7.6649" y2="27.0217" gradientTransform="matrix(1 0 0 -1 0 77.2)">
			<stop  offset="0" style="stop-color:#283972"/>
			<stop  offset="1" style="stop-color:#330062"/>
		</linearGradient>
		<polygon class="st65" points="4,50 4,64.6 6,65 6,49.6 		"/>
		<polygon class="st66" points="17,54.5 18,54.2 18,61.2 17,61.2 		"/>
		
			<linearGradient id="SVGID_61_" gradientUnits="userSpaceOnUse" x1="18.1766" y1="23.1243" x2="22.4674" y2="15.6925" gradientTransform="matrix(1 0 0 -1 0 77.2)">
			<stop  offset="0" style="stop-color:#5593C5"/>
			<stop  offset="1" style="stop-color:#4454A2"/>
		</linearGradient>
		<polygon class="st67" points="23,55 18,54.2 18,61.2 23,61.2 		"/>
	</g>
</g>
</svg>
