<?xml version="1.0" standalone="no"?>
<!DOCTYPE svg PUBLIC "-//W3C//DTD SVG 1.1//EN" "http://www.w3.org/Graphics/SVG/1.1/DTD/svg11.dtd" >
<svg xmlns="http://www.w3.org/2000/svg">
<metadata>
Created by FontPrep 20130207 at Fri Jun  3 12:33:10 2016
 By Luigi De Rosa
Exclusively designed for Red Bull TV. Copyright (C) 2015 by Red Bull Media House GmbH. All rights reserved.
</metadata>
<defs>
<font id="4132f23a490ba5b7af86b3ebbc605217" horiz-adv-x='1024' >
  <font-face 
    font-family="Bull-Heavy1"
    font-weight="800"
    font-stretch="normal"
    units-per-em="2048"
    panose-1="2 11 9 4 4 0 0 0 0 0"
    ascent="1638"
    descent="-410"
    x-height="1030"
    cap-height="1378"
    bbox="-557 -449 2622 2032"
    underline-thickness="204"
    underline-position="-20"
    unicode-range="U+0020-FB02"
  />
<missing-glyph horiz-adv-x="1488" 
d="M1098 1145h-713l713 -932v932zM133 1378h1223v-1378h-1223v1378z" />
    <glyph glyph-name="fi" unicode="fi" horiz-adv-x="1380" 
d="M885 0v1030h391v-1030h-391zM1081 1133q-94 0 -156 61q-63 62 -63 152t62 151t157 61q93 0 155 -60q62 -62 62 -152t-61 -152q-62 -61 -156 -61zM778 1092h-123q-59 0 -83 -20t-23 -73v-6h219v-327h-219v-666h-391v666h-140v327h140q4 201 113 293q110 92 345 92h162
v-286z" />
    <glyph glyph-name="fl" unicode="fl" horiz-adv-x="1380" 
d="M885 0v1378h391v-1378h-391zM778 1092h-123q-59 0 -83 -20t-23 -73v-6h219v-327h-219v-666h-391v666h-140v327h140q4 201 113 293q110 92 345 92h162v-286z" />
    <glyph glyph-name=".notdef" horiz-adv-x="1488" 
d="M1098 1145h-713l713 -932v932zM133 1378h1223v-1378h-1223v1378z" />
    <glyph glyph-name=".null" 
 />
    <glyph glyph-name="nonmarkingreturn" horiz-adv-x="681" 
 />
    <glyph glyph-name="space" unicode=" " horiz-adv-x="555" 
 />
    <glyph glyph-name="exclam" unicode="!" horiz-adv-x="737" 
d="M369 -27q-93 1 -155 59t-62 149t61 151t155 59q94 0 156 -59q62 -58 62 -150t-62 -150t-155 -59zM211 498l-74 880h461l-70 -880h-317z" />
    <glyph glyph-name="quotedbl" unicode="&#x22;" horiz-adv-x="1028" 
d="M588 750v628h354l-49 -628h-305zM440 1378v-628h-305l-49 628h354z" />
    <glyph glyph-name="numbersign" unicode="#" horiz-adv-x="1361" 
d="M545 565h246l30 223h-246zM1335 776h-207l-26 -198h192v-297h-231l-37 -281h-328l37 281h-211l-37 -281h-327l37 281h-172v297h213l26 198h-196v297h235l41 301h326l-41 -301h215l39 301h325l-39 -301h166v-297z" />
    <glyph glyph-name="dollar" unicode="$" horiz-adv-x="1101" 
d="M1051 410q1 -136 -91 -234t-253 -129v-252h-330v260q-152 39 -238 141t-90 257h357q12 -141 143 -141t131 85q0 39 -29 65t-110 56l-113 43q-178 70 -260 160t-82 218t77 218t214 125v250h330v-246q139 -35 219 -130t90 -243h-346q-16 115 -121 115q-47 0 -74 -22
t-27 -57q0 -36 26 -56t104 -51l124 -51q193 -78 271 -161t78 -220z" />
    <glyph glyph-name="percent" unicode="%" horiz-adv-x="1839" 
d="M1294 350q0 -52 30 -82t79 -30t79 30t30 80q0 49 -31 81t-79 32t-78 -30t-30 -81zM1790 345q0 -159 -112 -265t-278 -107q-167 -1 -278 105q-110 106 -110 267t109 264q110 103 279 103q170 0 280 -104t110 -263zM438 930q49 0 79 31t30 79t-31 81q-31 32 -79 32t-78 -30
q-29 -30 -29 -81q0 -52 30 -82t78 -30zM340 0l836 1378h325l-839 -1378h-322zM437 668q-167 0 -277 104t-111 265q0 161 110 265q111 104 279 103t278 -105t110 -263t-112 -264q-110 -105 -277 -105z" />
    <glyph glyph-name="ampersand" unicode="&#x26;" horiz-adv-x="1392" 
d="M588 1137q-41 0 -66 -25t-24 -77t80 -138l2 2q94 76 94 150q0 41 -22 65t-64 23zM412 396q0 -68 41 -104t113 -36t141 53l-203 226q-92 -71 -92 -139zM1006 1059q0 -201 -246 -365l127 -141l108 192h387l-266 -448l264 -297h-409l-68 74q-159 -100 -371 -100t-347 107
q-134 108 -134 284q0 217 252 378q-125 145 -125 303t116 258t298 101q182 0 298 -97t116 -249z" />
    <glyph glyph-name="quotesingle" unicode="'" horiz-adv-x="565" 
d="M135 750l-49 628h393l-49 -628h-295z" />
    <glyph glyph-name="parenleft" unicode="(" horiz-adv-x="800" 
d="M143 688q0 522 322 871h364q-356 -371 -356 -869t356 -870h-364q-322 346 -322 868z" />
    <glyph glyph-name="parenright" unicode=")" horiz-adv-x="800" 
d="M658 688q0 -522 -322 -868h-365q357 372 357 870t-357 869h365q322 -349 322 -871z" />
    <glyph glyph-name="asterisk" unicode="*" horiz-adv-x="911" 
d="M844 1155l-191 -100l191 -103l-107 -182l-180 115l8 -217h-215l8 217l-182 -115l-106 182l190 103l-190 100l106 184l182 -114l-8 215h215l-8 -215l180 114z" />
    <glyph glyph-name="plus" unicode="+" horiz-adv-x="1187" 
d="M422 164v364h-356v306h356v364h344v-364h354v-306h-354v-364h-344z" />
    <glyph glyph-name="comma" unicode="," horiz-adv-x="614" 
d="M113 -317l6 657h401l-121 -657h-286z" />
    <glyph glyph-name="hyphen" unicode="-" horiz-adv-x="679" 
d="M68 487v328h542v-328h-542z" />
    <glyph glyph-name="period" unicode="." horiz-adv-x="618" 
d="M309 -27q-98 1 -163 63q-64 62 -64 158t64 158q65 64 163 64t163 -64t65 -158q0 -95 -65 -158t-163 -63z" />
    <glyph glyph-name="slash" unicode="/" horiz-adv-x="1116" 
d="M61 -61l617 1501h379l-617 -1501h-379z" />
    <glyph glyph-name="zero" unicode="0" horiz-adv-x="1591" 
d="M797 332q145 0 240 101t95 256t-94 256q-96 101 -241 101t-241 -100q-96 -102 -97 -257q1 -155 97 -256t241 -101zM795 -27q-322 0 -530 202t-208 515t207 514t531 201q325 0 531 -201t206 -514t-208 -515t-529 -202z" />
    <glyph glyph-name="one" unicode="1" horiz-adv-x="866" 
d="M719 1378v-1378h-389v999l-226 -69l-88 330l387 118h316z" />
    <glyph glyph-name="two" unicode="2" horiz-adv-x="1159" 
d="M1094 334v-334h-1028v141q0 295 376 539q162 104 204 143t42 97q0 121 -115 120q-119 0 -118 -157h-387q0 246 139 384t377 138t370 -118q131 -118 131 -326q0 -160 -81 -259q-82 -98 -264 -216t-222 -152h576z" />
    <glyph glyph-name="three" unicode="3" horiz-adv-x="1165" 
d="M1096 385q0 -182 -146 -297t-379 -115q-235 0 -371 129t-147 367h371q2 -70 39 -109q37 -38 99 -38t102 33q38 34 38 90t-36 89q-37 32 -105 31h-133v277h127q137 0 137 112q0 53 -35 84t-96 31t-99 -37t-40 -100h-365q11 219 153 346t366 127t359 -110
q134 -110 134 -287q0 -213 -182 -303q209 -94 209 -320z" />
    <glyph glyph-name="four" unicode="4" horiz-adv-x="1239" 
d="M700 530v435l-274 -435h274zM1202 530v-321h-151v-209h-389v209h-613v301l576 868h426v-848h151z" />
    <glyph glyph-name="five" unicode="5" horiz-adv-x="1216" 
d="M715 915q193 0 317 -130q124 -129 125 -339q0 -210 -146 -342q-145 -132 -383 -131q-238 0 -376 124q-137 124 -148 347h375q8 -57 46 -91q39 -34 99 -34q60 1 101 45t41 112t-42 111q-42 44 -114 44t-118 -70h-357v817h948v-334h-579v-176q94 47 211 47z" />
    <glyph glyph-name="six" unicode="6" horiz-adv-x="1155" 
d="M575 326q68 0 113 46t45 116t-45 114q-45 45 -113 45q-67 0 -111 -45t-44 -115q0 -69 44 -115t111 -46zM1110 473q0 -201 -156 -351t-380 -149q-224 0 -376 152t-153 375q0 94 35 182t129 227l313 469h457l-268 -413q171 -25 285 -158t114 -334z" />
    <glyph glyph-name="seven" unicode="7" horiz-adv-x="1112" 
d="M55 1378h987v-325l-499 -1053h-424l514 1028h-578v350z" />
    <glyph glyph-name="eight" unicode="8" horiz-adv-x="1216" 
d="M608 264q66 0 108 39t42 104t-41 105t-108 41q-67 0 -109 -42q-42 -43 -41 -107q-1 -64 41 -102t108 -38zM609 1114q-58 0 -97 -36t-39 -93t38 -95t97 -38t98 38q38 38 38 95t-38 93q-39 36 -97 36zM1147 387q-1 -190 -145 -302t-394 -112t-393 112t-143 302
q0 229 192 334q-168 103 -168 287t140 290t372 106t372 -106t140 -290t-168 -287q195 -104 195 -334z" />
    <glyph glyph-name="nine" unicode="9" horiz-adv-x="1155" 
d="M580 1053q-68 0 -113 -46t-45 -116t45 -115t113 -45t112 45t43 115q1 70 -43 116t-112 46zM45 905q0 201 156 351t380 149q225 0 377 -152t152 -374q0 -95 -35 -183t-129 -227l-313 -469h-457l268 414q-172 26 -286 158t-113 333z" />
    <glyph glyph-name="colon" unicode=":" horiz-adv-x="659" 
d="M330 -27q-98 1 -163 63t-65 158t65 158q65 64 163 64t163 -64t65 -158q0 -95 -66 -158q-64 -63 -162 -63zM330 584q-98 0 -163 62t-65 158t65 158q65 64 163 64t163 -63t65 -159t-65 -158t-163 -62z" />
    <glyph glyph-name="semicolon" unicode=";" horiz-adv-x="659" 
d="M133 -317l6 657h402l-121 -657h-287zM330 584q-98 0 -163 62t-65 158t65 158q65 64 163 64t163 -63t65 -159t-65 -158t-163 -62z" />
    <glyph glyph-name="less" unicode="&#x3c;" horiz-adv-x="1187" 
d="M1106 1282v-358l-563 -234l563 -231v-361l-1020 451v282z" />
    <glyph glyph-name="equal" unicode="=" horiz-adv-x="1187" 
d="M92 289v311h1006v-311h-1006zM92 762v309h1006v-309h-1006z" />
    <glyph glyph-name="greater" unicode="&#x3e;" horiz-adv-x="1187" 
d="M82 1282l1020 -451v-282l-1020 -451v361l563 231l-563 234v358z" />
    <glyph glyph-name="question" unicode="?" horiz-adv-x="876" 
d="M358 391q94 0 156 -59q62 -58 61 -150q0 -92 -61 -150q-62 -58 -156 -58t-155 58t-61 149t60 151q62 60 156 59zM92 1378h320q192 0 304 -97t111 -261q1 -111 -69 -202t-238 -197v-123h-327v264q169 110 207 142t38 67q0 76 -94 76h-252v331z" />
    <glyph glyph-name="at" unicode="@" horiz-adv-x="1976" 
d="M989 315q66 0 106 43t40 115t-40 115t-107 43q-68 0 -106 -43t-38 -115t40 -115t105 -43zM1038 1397q383 0 632 -216t249 -550q0 -260 -160 -413t-430 -152h-180v88q-71 -111 -233 -111t-268 121q-105 121 -105 311t105 309q106 119 268 119t233 -106v88h274v-535
q100 10 158 86q57 76 57 201q0 217 -164 352q-165 135 -451 135t-474 -179q-189 -179 -189 -470t184 -464t488 -173h230v-268h-226q-446 -2 -712 246t-266 650t278 666q278 265 702 265z" />
    <glyph glyph-name="A" unicode="A" horiz-adv-x="1415" 
d="M840 528l-131 455l-129 -455h260zM997 0l-73 240h-430l-76 -240h-418l496 1378h424l495 -1378h-418z" />
    <glyph glyph-name="B" unicode="B" horiz-adv-x="1327" 
d="M717 1067h-211v-229h211q59 0 94 30t35 84q0 115 -129 115zM506 311h258q68 0 104 33t37 92q0 59 -39 91t-104 32h-256v-248zM1280 375q0 -175 -129 -275t-348 -100h-668v1378h588q231 0 361 -99t130 -287t-155 -287q221 -90 221 -330z" />
    <glyph glyph-name="C" unicode="C" horiz-adv-x="1597" 
d="M794 -27q-316 0 -527 201q-210 201 -210 514t210 515q211 202 527 202t521 -170t225 -442h-416q-28 113 -114 181t-219 66q-133 0 -225 -97t-93 -253q0 -156 92 -254q91 -98 225 -98t221 68t113 180h416q-20 -272 -225 -442t-521 -171z" />
    <glyph glyph-name="D" unicode="D" horiz-adv-x="1519" 
d="M532 358h170q158 0 251 92t93 244t-92 239t-252 87h-170v-662zM133 0v1378h569q336 0 548 -191t212 -493t-215 -498t-545 -196h-569z" />
    <glyph glyph-name="E" unicode="E" horiz-adv-x="1097" 
d="M133 0v1378h864v-334h-465v-190h445v-311h-445v-209h488v-334h-887z" />
    <glyph glyph-name="F" unicode="F" horiz-adv-x="1048" 
d="M133 0v1378h860v-358h-461v-205h445v-340h-445v-475h-399z" />
    <glyph glyph-name="G" unicode="G" horiz-adv-x="1599" 
d="M819 760h682v-434q-102 -168 -280 -260t-402 -93q-338 0 -549 201t-211 518t208 515t542 198q271 0 457 -133t231 -363h-430q-74 145 -245 145t-267 -100q-96 -102 -96 -270t102 -269t267 -101t282 94v90h-291v262z" />
    <glyph glyph-name="H" unicode="H" horiz-adv-x="1439" 
d="M133 0v1378h397v-491h379v491h398v-1378h-398v528h-379v-528h-397z" />
    <glyph glyph-name="I" unicode="I" horiz-adv-x="665" 
d="M133 0v1378h399v-1378h-399z" />
    <glyph glyph-name="J" unicode="J" horiz-adv-x="811" 
d="M12 0v358h115q82 0 118 29t36 92v899h397v-956q0 -422 -469 -422h-197z" />
    <glyph glyph-name="K" unicode="K" horiz-adv-x="1368" 
d="M532 0h-399v1378h399v-547l369 547h451l-445 -659l484 -719h-471l-388 590v-590z" />
    <glyph glyph-name="L" unicode="L" horiz-adv-x="1011" 
d="M133 0v1378h399v-1020h447v-358h-846z" />
    <glyph glyph-name="M" unicode="M" horiz-adv-x="1802" 
d="M1669 1378v-1378h-373v821l-243 -821h-305l-242 821v-821h-373v1378h516l252 -870l248 870h520z" />
    <glyph glyph-name="N" unicode="N" horiz-adv-x="1441" 
d="M930 1378h379v-1378h-410l-387 748v-748h-379v1378h412l385 -745v745z" />
    <glyph glyph-name="O" unicode="O" horiz-adv-x="1630" 
d="M815 338q150 0 245 99t95 252t-95 252t-245 99t-246 -99t-96 -252t96 -252t246 -99zM814 -27q-331 0 -544 202t-213 515t213 514t544 201t544 -202t213 -514t-213 -514t-544 -202z" />
    <glyph glyph-name="P" unicode="P" horiz-adv-x="1212" 
d="M530 754h113q68 0 109 41t41 109t-41 109q-41 40 -109 40h-113v-299zM133 0v1378h518q246 0 387 -126q142 -126 142 -344t-140 -340t-389 -122h-119v-446h-399z" />
    <glyph glyph-name="Q" unicode="Q" horiz-adv-x="1630" 
d="M815 1040q-150 0 -246 -99t-96 -252t96 -252t246 -99t246 99t96 252t-96 252t-246 99zM57 676q0 309 218 519t540 210t540 -203t218 -504q0 -178 -85 -319t-237 -223l369 -101v-342l-975 275q-281 78 -435 258t-153 430z" />
    <glyph glyph-name="R" unicode="R" horiz-adv-x="1296" 
d="M530 754h113q68 0 109 41t41 109t-41 109q-41 40 -109 40h-113v-299zM133 0v1378h518q246 0 387 -126t142 -347q0 -262 -201 -381l301 -524h-457l-237 446h-54v-446h-399z" />
    <glyph glyph-name="S" unicode="S" horiz-adv-x="1161" 
d="M586 -29q-246 0 -392 127t-153 351h379q2 -166 158 -166q63 1 102 29t39 72t-27 70t-94 50l-156 55q-358 125 -358 432q0 186 139 300t365 114t354 -115q129 -115 143 -327h-370q-6 133 -127 133q-51 0 -84 -27t-33 -68t28 -69t91 -51l164 -62q194 -72 276 -164t82 -243
q0 -205 -140 -323t-386 -118z" />
    <glyph glyph-name="T" unicode="T" horiz-adv-x="1185" 
d="M381 0v1020h-334v358h1092v-358h-361v-1020h-397z" />
    <glyph glyph-name="U" unicode="U" horiz-adv-x="1419" 
d="M1298 553q0 -264 -162 -422t-427 -158q-266 0 -427 159t-161 421v825h399v-823q0 -95 49 -151t139 -56t141 54q50 54 50 153v823h399v-825z" />
    <glyph glyph-name="V" unicode="V" horiz-adv-x="1341" 
d="M909 1378h432l-458 -1378h-426l-457 1378h430l242 -862z" />
    <glyph glyph-name="W" unicode="W" horiz-adv-x="2045" 
d="M1577 1378h430l-371 -1378h-426l-186 864l-188 -864h-426l-373 1378h430l182 -841l168 841h410l170 -846z" />
    <glyph glyph-name="X" unicode="X" horiz-adv-x="1396" 
d="M1374 0h-452l-224 414l-225 -414h-450l423 709l-399 669h449l204 -377l195 377h451l-396 -669z" />
    <glyph glyph-name="Y" unicode="Y" horiz-adv-x="1310" 
d="M854 0h-399v590l-457 788h459l198 -413l199 413h457l-457 -788v-590z" />
    <glyph glyph-name="Z" unicode="Z" horiz-adv-x="1167" 
d="M1096 358v-358h-1022v326l522 694h-508v358h999v-325l-534 -695h543z" />
    <glyph glyph-name="bracketleft" unicode="[" horiz-adv-x="790" 
d="M154 -184v1747h548v-281h-223v-1184h223v-282h-548z" />
    <glyph glyph-name="backslash" unicode="\" horiz-adv-x="1116" 
d="M1055 -61h-379l-617 1501h379z" />
    <glyph glyph-name="bracketright" unicode="]" horiz-adv-x="790" 
d="M637 -184h-549v282h223v1184h-223v281h549v-1747z" />
    <glyph glyph-name="asciicircum" unicode="^" horiz-adv-x="1099" 
d="M1061 553h-365l-145 354l-145 -354h-367l352 825h318z" />
    <glyph glyph-name="underscore" unicode="_" horiz-adv-x="1007" 
d="M47 -416v305h911v-305h-911z" />
    <glyph glyph-name="grave" unicode="`" horiz-adv-x="690" 
d="M303 1147l-244 383h428l142 -383h-326z" />
    <glyph glyph-name="a" unicode="a" horiz-adv-x="1126" 
d="M522 221q63 0 102 37q38 37 38 102v46h-136q-51 0 -80 -25t-28 -70q0 -90 104 -90zM558 1057q216 0 344 -115t128 -315v-627h-344v80q-113 -106 -284 -106t-264 82q-93 83 -93 232q-1 148 105 232t303 84h209v41q0 67 -34 101t-91 34q-102 0 -115 -106h-336
q8 180 132 282t340 101z" />
    <glyph glyph-name="b" unicode="b" horiz-adv-x="1296" 
d="M664 717q-84 0 -134 -55q-50 -56 -51 -148q1 -92 51 -146t135 -55t135 55t50 147t-51 147t-135 55zM760 1057q207 0 343 -155q136 -154 136 -392t-135 -388t-340 -149q-205 0 -303 131v-104h-357v1378h392v-428q100 107 264 107z" />
    <glyph glyph-name="c" unicode="c" horiz-adv-x="1212" 
d="M604 -27q-230 0 -392 155t-161 386q0 231 162 387t391 156t380 -128t177 -335h-373q-35 119 -165 119q-81 -1 -133 -55t-52 -143t51 -143t134 -55q131 0 165 119h373q-27 -207 -177 -335t-380 -128z" />
    <glyph glyph-name="d" unicode="d" horiz-adv-x="1296" 
d="M630 313q85 1 135 55t50 146t-50 148t-134 55q-84 0 -135 -55q-52 -54 -52 -146t50 -148t136 -55zM801 1378h391v-1378h-356v104q-98 -131 -303 -131t-340 150q-135 151 -135 387t134 392q136 156 343 155q166 0 266 -107v428z" />
    <glyph glyph-name="e" unicode="e" horiz-adv-x="1208" 
d="M618 772q-145 0 -200 -141h391q-13 65 -65 103t-126 38zM53 510q-1 238 159 392t413 155q253 0 405 -175t125 -450h-745q20 -80 78 -127t143 -47q129 0 160 88h354q-47 -176 -183 -274t-337 -99q-252 0 -412 150q-160 149 -160 387z" />
    <glyph glyph-name="f" unicode="f" horiz-adv-x="780" 
d="M778 1092h-123q-59 0 -83 -20t-23 -73v-6h219v-327h-219v-666h-391v666h-140v327h140q4 201 113 293q110 92 345 92h162v-286z" />
    <glyph glyph-name="g" unicode="g" horiz-adv-x="1292" 
d="M629 371q84 0 134 54t50 143q0 88 -50 142t-134 54t-135 -54q-52 -54 -52 -142t52 -143q52 -54 135 -54zM834 1030h356v-885q0 -237 -150 -371t-399 -134t-390 96q-140 96 -157 272h371q18 -92 164 -92q170 0 170 166v106q-102 -106 -288 -106t-321 139t-135 349t136 348
q137 138 341 139q204 0 302 -135v108z" />
    <glyph glyph-name="h" unicode="h" horiz-adv-x="1218" 
d="M754 1057q160 0 264 -119t104 -307v-631h-389v573q0 59 -32 95t-85 34q-53 0 -87 -36t-33 -93v-573h-392v1378h392v-415q99 94 258 94z" />
    <glyph glyph-name="i" unicode="i" horiz-adv-x="600" 
d="M104 0v1030h392v-1030h-392zM301 1133q-94 0 -157 61q-62 62 -62 152t62 151t156 61t156 -60q62 -62 62 -152t-61 -152q-62 -61 -156 -61z" />
    <glyph glyph-name="j" unicode="j" horiz-adv-x="600" 
d="M-90 -334v309h57q76 0 107 28t30 95v932h390v-954q0 -197 -110 -303t-312 -107h-162zM303 1133q-94 0 -157 61q-62 62 -62 152t62 151t156 61t156 -60q62 -62 62 -152t-61 -152q-62 -61 -156 -61z" />
    <glyph glyph-name="k" unicode="k" horiz-adv-x="1171" 
d="M496 0h-392v1378h392v-751l262 403h413l-323 -498l352 -532h-430l-274 420v-420z" />
    <glyph glyph-name="l" unicode="l" horiz-adv-x="600" 
d="M104 0v1378h392v-1378h-392z" />
    <glyph glyph-name="m" unicode="m" horiz-adv-x="1828" 
d="M1333 1057q185 0 291 -114t107 -312v-631h-388v573q0 59 -30 95q-31 34 -83 34t-84 -34t-32 -93v-575h-391v573q0 59 -30 95t-83 34q-53 0 -84 -34t-30 -95v-573h-392v1030h357v-82q104 109 278 109t279 -129q129 129 315 129z" />
    <glyph glyph-name="n" unicode="n" horiz-adv-x="1220" 
d="M741 1057q173 0 277 -117t104 -309v-631h-389v573q0 59 -32 95t-85 34q-53 0 -87 -36t-33 -93v-573h-392v1030h357v-82q108 109 280 109z" />
    <glyph glyph-name="o" unicode="o" horiz-adv-x="1253" 
d="M627 311q84 1 135 57t51 146t-51 146t-135 56q-85 0 -137 -56t-52 -146t52 -146t137 -57zM626 1057q244 0 410 -156t166 -386t-166 -386t-410 -156q-245 0 -410 155t-165 386t165 387t410 156z" />
    <glyph glyph-name="p" unicode="p" horiz-adv-x="1296" 
d="M666 313q84 -1 135 55t51 147t-51 147t-135 55q-84 0 -134 -55q-50 -54 -51 -146q1 -92 51 -148t134 -55zM764 1057q205 0 340 -152q135 -153 135 -391t-133 -390t-344 -151q-166 0 -266 107v-414h-392v1364h357v-108q98 135 303 135z" />
    <glyph glyph-name="q" unicode="q" horiz-adv-x="1296" 
d="M631 313q84 -1 134 55t50 147t-50 147t-134 55q-84 0 -135 -55q-52 -54 -52 -146t52 -148t135 -55zM57 516q-1 238 135 390t341 151q205 0 303 -135v108h356v-1364h-391v414q-100 -106 -266 -107q-211 0 -345 152q-133 153 -133 391z" />
    <glyph glyph-name="r" unicode="r" horiz-adv-x="819" 
d="M721 1030h82v-362h-90q-115 0 -166 -52t-51 -165v-451h-392v1030h357v-127q88 127 260 127z" />
    <glyph glyph-name="s" unicode="s" horiz-adv-x="964" 
d="M930 311q0 -162 -114 -250t-325 -88q-210 1 -331 97t-127 270h342q6 -104 123 -104q94 0 94 65q0 27 -16 40t-60 24l-162 38q-143 33 -218 113t-75 201q0 154 116 247t305 93t302 -93t125 -259h-334q-6 90 -96 90q-37 1 -61 -17t-23 -47q0 -45 72 -61l164 -41
q299 -72 299 -318z" />
    <glyph glyph-name="t" unicode="t" horiz-adv-x="819" 
d="M672 328h108v-328h-176q-229 0 -340 96t-110 295v311h-148v328h148v223h391v-223h223v-328h-223v-264q0 -59 28 -85q29 -25 99 -25z" />
    <glyph glyph-name="u" unicode="u" horiz-adv-x="1220" 
d="M725 1030h389v-1030h-356v80q-111 -106 -281 -106t-275 115q-105 116 -106 308v633h391v-573q0 -59 31 -95t85 -36t88 36t34 95v573z" />
    <glyph glyph-name="v" unicode="v" horiz-adv-x="1146" 
d="M739 1030h412l-365 -1030h-421l-371 1030h412l167 -594z" />
    <glyph glyph-name="w" unicode="w" horiz-adv-x="1824" 
d="M1399 1030h411l-342 -1030h-407l-148 582l-147 -582h-408l-342 1030h412l154 -573l135 573h393l135 -573z" />
    <glyph glyph-name="x" unicode="x" horiz-adv-x="1204" 
d="M1214 0h-434l-178 268l-176 -268h-436l375 526l-359 504h436l160 -246l160 246h436l-360 -502z" />
    <glyph glyph-name="y" unicode="y" horiz-adv-x="1150" 
d="M741 1030h414l-491 -1364h-428l129 344l-371 1020h414l167 -594z" />
    <glyph glyph-name="z" unicode="z" horiz-adv-x="1007" 
d="M956 317v-317h-907v293l418 420h-404v317h875v-293l-426 -420h444z" />
    <glyph glyph-name="braceleft" unicode="{" horiz-adv-x="854" 
d="M764 1272h-125q-100 0 -100 -107q0 -29 16 -137t16 -172q0 -135 -168 -168q168 -29 168 -178q0 -49 -16 -159t-16 -136q0 -106 100 -106h125v-293h-201q-348 0 -348 305q0 61 19 170t20 141q0 106 -104 107h-95v301h95q104 0 104 106q0 35 -20 143q-19 108 -19 168
q0 305 348 306h201v-291z" />
    <glyph glyph-name="bar" unicode="|" horiz-adv-x="714" 
d="M195 -248v1845h323v-1845h-323z" />
    <glyph glyph-name="braceright" unicode="}" horiz-adv-x="854" 
d="M451 688q-168 31 -168 168q0 63 16 172t16 137q0 107 -100 107h-125v291h201q348 0 348 -306q0 -61 -19 -169t-20 -142q0 -106 105 -106h94v-301h-94q-104 0 -105 -107q0 -34 20 -142t19 -169q0 -305 -348 -305h-201v293h125q100 0 100 106q0 27 -16 137t-16 158
q0 150 168 178z" />
    <glyph glyph-name="asciitilde" unicode="~" horiz-adv-x="1187" 
d="M836 426q-66 0 -116 15t-180 74t-204 59t-260 -89v320q92 57 151 77t127 21q68 0 118 -14t175 -73q125 -58 202 -58t265 86v-320q-94 -54 -154 -76q-58 -22 -124 -22z" />
    <glyph glyph-name="uni00A0" unicode="&#xa0;" horiz-adv-x="555" 
 />
    <glyph glyph-name="exclamdown" unicode="&#xa1;" horiz-adv-x="731" 
d="M348 1071q94 0 156 -58q62 -57 61 -149q0 -92 -61 -151q-62 -59 -156 -59t-155 58q-61 60 -61 151t60 149q62 58 156 59zM190 547h318l70 -881h-461z" />
    <glyph glyph-name="cent" unicode="&#xa2;" horiz-adv-x="1218" 
d="M453 -205v350q-178 49 -288 191t-110 328t110 328t288 192v348h329v-346q156 -41 259 -159t124 -284h-372q-35 119 -166 119q-82 0 -133 -54q-52 -54 -52 -143t52 -143t133 -55q131 0 166 119h372q-19 -166 -123 -284t-260 -159v-348h-329z" />
    <glyph glyph-name="sterling" unicode="&#xa3;" horiz-adv-x="1226" 
d="M670 504v-29q0 -106 -76 -170h565v-305h-1102v264q143 35 205 80q61 45 62 115q0 16 -5 45h-241v287h131q-39 102 -39 200q0 188 137 301t374 113t367 -120t130 -347h-338q-2 63 -39 101t-103 38t-104 -40t-37 -103q0 -63 27 -143h381v-287h-295z" />
    <glyph glyph-name="currency" unicode="&#xa4;" horiz-adv-x="1353" 
d="M668 510q72 0 114 45t43 120q0 75 -43 120q-44 45 -116 45t-114 -44t-42 -121t43 -121t115 -44zM670 182q-117 0 -217 41l-213 -237l-232 233l195 213q-63 111 -63 239t63 236l-195 203l232 233l211 -219q102 45 219 45t221 -47l221 221l231 -233l-208 -205
q59 -102 59 -228t-61 -237l213 -223l-232 -231l-229 239q-98 -43 -215 -43z" />
    <glyph glyph-name="yen" unicode="&#xa5;" horiz-adv-x="1310" 
d="M1192 762v-254h-336v-102h336v-252h-336v-154h-399v154h-336v252h336v102h-336v254h235l-358 616h459l198 -413l199 413h457l-359 -616h240z" />
    <glyph glyph-name="brokenbar" unicode="&#xa6;" horiz-adv-x="714" 
d="M195 -248v656h323v-656h-323zM195 942v655h323v-655h-323z" />
    <glyph glyph-name="section" unicode="&#xa7;" horiz-adv-x="1222" 
d="M856 456q0 56 -102 107l-299 146q-47 25 -56 28q-33 -39 -32 -86q0 -65 100 -112l299 -146l59 -31q31 38 31 94zM1192 492q0 -207 -201 -310q23 -61 23 -125q0 -155 -115 -245t-315 -91h-305v287h303q70 0 69 53q0 41 -69 74l-267 131q-158 78 -221 154t-63 188
q0 203 205 303q-27 55 -27 131q0 156 115 246t313 90h307v-286h-305q-68 0 -68 -54q0 -39 68 -73l266 -131q159 -76 223 -152t64 -190z" />
    <glyph glyph-name="dieresis" unicode="&#xa8;" horiz-adv-x="1017" 
d="M754 1133q-84 0 -145 58q-60 58 -60 140t58 139q59 58 147 58t145 -55t57 -141t-59 -142q-59 -57 -143 -57zM469 1332q1 -86 -59 -142q-60 -57 -144 -57t-144 59t-60 140t58 138q58 58 146 58t146 -55t57 -141z" />
    <glyph glyph-name="copyright" unicode="&#xa9;" horiz-adv-x="1574" 
d="M798 324q-154 0 -262 103t-108 258t109 259t263 104t254 -87q100 -88 115 -230h-245q-23 90 -113 90q-57 0 -91 -37t-34 -97t34 -97t91 -37q90 0 113 90h245q-13 -143 -115 -231t-256 -88zM295 686q1 -215 143 -354t362 -139t366 140t146 354t-146 357q-148 144 -366 144
t-362 -144t-143 -358zM802 -27q-310 0 -529 208q-218 208 -218 505t220 508q219 211 529 211t530 -212t220 -507t-221 -504t-531 -209z" />
    <glyph glyph-name="ordfeminine" unicode="&#xaa;" horiz-adv-x="907" 
d="M430 715q47 1 77 29t30 81v33h-105q-86 0 -86 -72t84 -71zM458 1397q177 0 280 -94t104 -261v-491h-285v74q-91 -93 -233 -93t-216 65t-75 179q0 114 87 178q87 66 251 66h166v41q0 102 -95 102q-86 0 -92 -86h-282q6 150 109 235q104 85 281 85z" />
    <glyph glyph-name="guillemotleft" unicode="&#xab;" horiz-adv-x="1257" 
d="M1208 176h-379l-208 475l206 471h381l-198 -471zM651 176h-379l-209 475l207 471h381l-198 -471z" />
    <glyph glyph-name="logicalnot" unicode="&#xac;" horiz-adv-x="1187" 
d="M676 225v301h-613v322h973v-623h-360z" />
    <glyph glyph-name="uni00AD" unicode="&#xad;" horiz-adv-x="679" 
d="M68 487v328h542v-328h-542z" />
    <glyph glyph-name="registered" unicode="&#xae;" horiz-adv-x="993" 
d="M461 965h43q18 0 31 12q12 12 12 31q0 43 -43 43h-43v-86zM518 1171q82 -1 134 -43t53 -121q0 -79 -76 -118l86 -156h-156l-65 133h-31v-133h-152v438h207zM500 633q137 0 222 89t85 231q0 141 -85 231t-222 90q-138 0 -226 -90t-88 -230t88 -231q88 -90 226 -90z
M498 1405q192 0 322 -129t130 -322q0 -192 -130 -322t-322 -130t-324 131q-131 131 -131 321t131 320t324 131z" />
    <glyph glyph-name="macron" unicode="&#xaf;" horiz-adv-x="786" 
d="M59 1180v270h666v-270h-666z" />
    <glyph glyph-name="degree" unicode="&#xb0;" horiz-adv-x="884" 
d="M442 885q53 0 87 34t34 91t-33 91t-88 34t-89 -34t-34 -89t35 -91t88 -36zM443 614q-175 0 -291 113t-115 284q0 171 116 283q117 112 291 111q174 0 289 -112q115 -113 115 -283t-115 -283t-290 -113z" />
    <glyph glyph-name="plusminus" unicode="&#xb1;" horiz-adv-x="1187" 
d="M88 29v297h1014v-297h-1014zM422 408v325h-356v305h356v324h344v-324h354v-305h-354v-325h-344z" />
    <glyph glyph-name="uni00B2" unicode="&#xb2;" horiz-adv-x="712" 
d="M666 1040v-192h-621v76q0 82 49 146q50 64 156 124q106 59 135 84t29 55q0 61 -63 61t-62 -83h-240q0 131 86 210t223 79t222 -68q84 -68 84 -163t-48 -155t-163 -127l-78 -47h291z" />
    <glyph glyph-name="uni00B3" unicode="&#xb3;" horiz-adv-x="694" 
d="M342 836q-137 0 -218 68t-87 196h227q2 -33 22 -52q20 -20 53 -20q32 0 51 16t20 43q0 59 -70 60h-72v149h68q68 0 67 60q0 25 -18 40t-48 15t-50 -19t-25 -49h-223q6 119 88 188t215 69t211 -62t78 -164t-96 -151q111 -47 111 -153t-84 -170q-83 -64 -220 -64z" />
    <glyph glyph-name="acute" unicode="&#xb4;" horiz-adv-x="690" 
d="M61 1147l144 383h426l-244 -383h-326z" />
    <glyph glyph-name="uni00B5" unicode="&#xb5;" horiz-adv-x="1267" 
d="M1210 328h43v-328h-149q-154 0 -238 84q-86 -100 -229 -100q-90 0 -160 43v-361h-373v1364h392v-573q0 -59 31 -95q32 -34 87 -34t89 34t34 93v575h391v-614q0 -88 82 -88z" />
    <glyph glyph-name="paragraph" unicode="&#xb6;" horiz-adv-x="1327" 
d="M512 -334v352h129q90 0 129 29t39 94v1237h391v-1280q0 -212 -121 -322t-352 -110h-215zM686 436h-115q-233 0 -382 132q-148 132 -148 341t147 339t383 130h115v-942z" />
    <glyph glyph-name="periodcentered" unicode="&#xb7;" horiz-adv-x="618" 
d="M309 461q-98 0 -163 62q-64 61 -64 157t64 160q65 63 163 63t163 -63q65 -62 65 -158t-65 -158t-163 -63z" />
    <glyph glyph-name="cedilla" unicode="&#xb8;" horiz-adv-x="628" 
d="M238 -397q-86 0 -179 8v233h121q104 0 105 90q0 57 -41 125l172 58q152 -96 151 -236q1 -278 -329 -278z" />
    <glyph glyph-name="uni00B9" unicode="&#xb9;" horiz-adv-x="595" 
d="M479 1583v-735h-256v516l-147 -41l-49 190l237 70h215z" />
    <glyph glyph-name="ordmasculine" unicode="&#xba;" horiz-adv-x="999" 
d="M500 811q68 0 108 43t39 111q0 69 -40 111q-41 42 -107 42t-107 -42t-41 -110t40 -112q40 -43 108 -43zM965 965q0 -189 -130 -311t-336 -122t-335 121t-129 311t129 312q129 121 335 121t336 -121t130 -311z" />
    <glyph glyph-name="guillemotright" unicode="&#xbb;" horiz-adv-x="1257" 
d="M608 176l199 475l-199 471h381l207 -471l-209 -475h-379zM51 176l199 475l-199 471h381l207 -471l-209 -475h-379z" />
    <glyph glyph-name="onequarter" unicode="&#xbc;" horiz-adv-x="1550" 
d="M1225 500l-135 -197h137zM1522 303v-192h-82v-111h-240v111h-356v178l332 448h264v-434h82zM479 1378v-735h-256v516l-147 -41l-49 191l237 69h215zM201 0l796 1378h310l-801 -1378h-305z" />
    <glyph glyph-name="onehalf" unicode="&#xbd;" horiz-adv-x="1609" 
d="M1565 193v-193h-621v76q0 82 49 146t155 124q106 59 136 84q29 25 29 55q0 61 -63 61t-62 -83h-240q0 131 86 210t224 79t221 -68q84 -68 84 -163q-1 -95 -49 -155t-162 -126l-78 -47h291zM479 1378v-735h-256v516l-147 -41l-49 191l237 69h215zM201 0l796 1378h310
l-801 -1378h-305z" />
    <glyph glyph-name="threequarters" unicode="&#xbe;" horiz-adv-x="1671" 
d="M1346 500l-136 -197h138zM1642 303v-192h-81v-111h-240v111h-356v178l331 448h265v-434h81zM342 631q-137 1 -218 69t-87 195h227q2 -33 22 -52t53 -19q32 0 51 16t20 43q0 59 -70 59h-72v150h68q68 0 67 59q0 25 -18 40t-48 15t-50 -19t-25 -48h-223q6 119 88 187
t215 69t211 -61t78 -164t-96 -152q111 -48 111 -154t-84 -170q-83 -64 -220 -63zM326 0l796 1378h310l-801 -1378h-305z" />
    <glyph glyph-name="questiondown" unicode="&#xbf;" horiz-adv-x="845" 
d="M518 653q-94 -1 -156 59t-61 151q0 91 61 149q62 58 156 59q94 0 156 -58q62 -57 61 -149q1 -92 -61 -152t-156 -59zM784 -334h-319q-193 0 -305 97t-111 262q0 111 70 201t237 198v123h328v-264q-168 -109 -207 -142t-39 -67q0 -76 94 -76h252v-332z" />
    <glyph glyph-name="Agrave" unicode="&#xc0;" horiz-adv-x="1415" 
d="M545 1487l-244 389h438l135 -389h-329zM840 528l-131 455l-129 -455h260zM997 0l-73 240h-430l-76 -240h-418l496 1378h424l495 -1378h-418z" />
    <glyph glyph-name="Aacute" unicode="&#xc1;" horiz-adv-x="1415" 
d="M549 1487l137 389h451l-258 -389h-330zM840 528l-131 455l-129 -455h260zM997 0l-73 240h-430l-76 -240h-418l496 1378h424l495 -1378h-418z" />
    <glyph glyph-name="Acircumflex" unicode="&#xc2;" horiz-adv-x="1415" 
d="M1157 1487h-311l-137 160l-138 -160h-309l291 389h313zM840 528l-131 455l-129 -455h260zM997 0l-73 240h-430l-76 -240h-418l496 1378h424l495 -1378h-418z" />
    <glyph glyph-name="Atilde" unicode="&#xc3;" horiz-adv-x="1415" 
d="M894 1464q-96 0 -200 44t-164 44q-106 0 -223 -69v274q117 84 215 84t204 -44t163 -44q106 0 223 70v-277q-121 -82 -218 -82zM840 528l-131 455l-129 -455h260zM997 0l-73 240h-430l-76 -240h-418l496 1378h424l495 -1378h-418z" />
    <glyph glyph-name="Adieresis" unicode="&#xc4;" horiz-adv-x="1415" 
d="M963 1477q-88 0 -151 59q-62 59 -62 142q0 82 61 142t151 60t151 -57t61 -143t-62 -145q-62 -58 -149 -58zM455 1477q-88 0 -151 59q-62 59 -62 142q0 82 61 142t151 60t151 -57t61 -143t-62 -145q-62 -58 -149 -58zM840 528l-131 455l-129 -455h260zM997 0l-73 240h-430
l-76 -240h-418l496 1378h424l495 -1378h-418z" />
    <glyph glyph-name="Aring" unicode="&#xc5;" horiz-adv-x="1415" 
d="M710 1673q36 0 58 23q22 24 20 60q0 36 -21 58t-57 22t-59 -22t-23 -59t24 -59q22 -22 58 -23zM707 1477q-127 -1 -209 77t-82 201t82 200t210 77t210 -77t82 -200t-84 -201q-82 -78 -209 -77zM840 528l-131 455l-129 -455h260zM997 0l-73 240h-430l-76 -240h-418
l496 1378h424l495 -1378h-418z" />
    <glyph glyph-name="AE" unicode="&#xc6;" horiz-adv-x="1787" 
d="M877 502l-84 559l-203 -559h287zM1712 334v-334h-754l-36 209h-443l-88 -209h-409l591 1378h1117v-334h-537l31 -190h485v-311h-434l33 -209h444z" />
    <glyph glyph-name="Ccedilla" unicode="&#xc7;" horiz-adv-x="1597" 
d="M717 -397q-86 0 -178 8v233h120q104 0 105 90q0 16 -4 41q-311 14 -507 213t-196 506t210 509q211 202 527 202t521 -170t225 -442h-416q-28 113 -114 181t-219 66q-133 0 -225 -97t-93 -253q0 -156 92 -254q91 -98 225 -98t221 68t113 180h416q-18 -221 -160 -378
t-366 -210q33 -59 33 -117q0 -278 -330 -278z" />
    <glyph glyph-name="Egrave" unicode="&#xc8;" horiz-adv-x="1097" 
d="M408 1487l-244 389h438l135 -389h-329zM133 0v1378h864v-334h-465v-190h445v-311h-445v-209h488v-334h-887z" />
    <glyph glyph-name="Eacute" unicode="&#xc9;" horiz-adv-x="1097" 
d="M412 1487l137 389h450l-258 -389h-329zM133 0v1378h864v-334h-465v-190h445v-311h-445v-209h488v-334h-887z" />
    <glyph glyph-name="Ecircumflex" unicode="&#xca;" horiz-adv-x="1097" 
d="M1020 1487h-311l-138 160l-137 -160h-309l291 389h313zM133 0v1378h864v-334h-465v-190h445v-311h-445v-209h488v-334h-887z" />
    <glyph glyph-name="Edieresis" unicode="&#xcb;" horiz-adv-x="1097" 
d="M825 1880q91 0 151 -57t60 -143t-62 -145q-62 -58 -149 -58q-88 0 -150 59q-63 59 -63 142q0 82 62 142t151 60zM317 1880q91 0 151 -57t60 -143t-62 -145q-62 -58 -149 -58q-88 0 -150 59q-63 59 -63 142q0 82 62 142t151 60zM133 0v1378h864v-334h-465v-190h445v-311
h-445v-209h488v-334h-887z" />
    <glyph glyph-name="Igrave" unicode="&#xcc;" horiz-adv-x="665" 
d="M168 1487l-244 389h438l136 -389h-330zM133 0v1378h399v-1378h-399z" />
    <glyph glyph-name="Iacute" unicode="&#xcd;" horiz-adv-x="665" 
d="M172 1487l137 389h451l-258 -389h-330zM133 0v1378h399v-1378h-399z" />
    <glyph glyph-name="Icircumflex" unicode="&#xce;" horiz-adv-x="665" 
d="M780 1487h-311l-137 160l-137 -160h-310l291 389h313zM133 0v1378h399v-1378h-399z" />
    <glyph glyph-name="Idieresis" unicode="&#xcf;" horiz-adv-x="665" 
d="M586 1477q-88 0 -151 59q-62 59 -62 142q0 82 61 142q62 60 152 60t150 -57t60 -143t-60 -145q-62 -58 -150 -58zM78 1477q-88 0 -151 59q-62 59 -62 142q0 82 61 142q62 60 152 60t150 -57t60 -143t-60 -145q-62 -58 -150 -58zM133 0v1378h399v-1378h-399z" />
    <glyph glyph-name="Eth" unicode="&#xd0;" horiz-adv-x="1566" 
d="M580 358h170q158 0 250 92t94 244q0 152 -92 239t-252 87h-170v-176h202v-293h-202v-193zM180 1378h570q336 0 548 -190t211 -492q0 -302 -215 -500q-215 -196 -544 -196h-570v551h-151v293h151v534z" />
    <glyph glyph-name="Ntilde" unicode="&#xd1;" horiz-adv-x="1441" 
d="M906 1464q-96 0 -200 44t-163 44q-106 0 -224 -69v274q117 84 215 84t205 -44q106 -44 162 -44q106 0 223 70v-277q-121 -82 -218 -82zM930 1378h379v-1378h-410l-387 748v-748h-379v1378h412l385 -745v745z" />
    <glyph glyph-name="Ograve" unicode="&#xd2;" horiz-adv-x="1630" 
d="M651 1487l-243 389h438l135 -389h-330zM815 338q150 0 245 99t95 252t-95 252t-245 99t-246 -99t-96 -252t96 -252t246 -99zM814 -27q-331 0 -544 202t-213 515t213 514t544 201t544 -202t213 -514t-213 -514t-544 -202z" />
    <glyph glyph-name="Oacute" unicode="&#xd3;" horiz-adv-x="1630" 
d="M655 1487l138 389h450l-258 -389h-330zM815 338q150 0 245 99t95 252t-95 252t-245 99t-246 -99t-96 -252t96 -252t246 -99zM814 -27q-331 0 -544 202t-213 515t213 514t544 201t544 -202t213 -514t-213 -514t-544 -202z" />
    <glyph glyph-name="Ocircumflex" unicode="&#xd4;" horiz-adv-x="1630" 
d="M1264 1487h-312l-137 160l-137 -160h-309l290 389h314zM815 338q150 0 245 99t95 252t-95 252t-245 99t-246 -99t-96 -252t96 -252t246 -99zM814 -27q-331 0 -544 202t-213 515t213 514t544 201t544 -202t213 -514t-213 -514t-544 -202z" />
    <glyph glyph-name="Otilde" unicode="&#xd5;" horiz-adv-x="1630" 
d="M1000 1464q-97 0 -201 44t-162 44q-106 0 -223 -69v274q117 84 215 84q99 0 205 -44t161 -44q106 0 224 70v-277q-122 -82 -219 -82zM815 338q150 0 245 99t95 252t-95 252t-245 99t-246 -99t-96 -252t96 -252t246 -99zM814 -27q-331 0 -544 202t-213 515t213 514
t544 201t544 -202t213 -514t-213 -514t-544 -202z" />
    <glyph glyph-name="Odieresis" unicode="&#xd6;" horiz-adv-x="1630" 
d="M1069 1880q91 0 151 -57t60 -143t-62 -145q-62 -58 -149 -58q-88 0 -150 59q-63 59 -63 142q0 82 62 142t151 60zM561 1880q91 0 151 -57t60 -143t-62 -145q-62 -58 -149 -58q-88 0 -150 59q-63 59 -63 142q0 82 62 142t151 60zM815 338q150 0 245 99t95 252t-95 252
t-245 99t-246 -99t-96 -252t96 -252t246 -99zM814 -27q-331 0 -544 202t-213 515t213 514t544 201t544 -202t213 -514t-213 -514t-544 -202z" />
    <glyph glyph-name="multiply" unicode="&#xd7;" horiz-adv-x="1187" 
d="M311 176l-227 230l283 282l-283 281l227 227l285 -281l281 281l227 -227l-283 -281l283 -285l-225 -227l-287 283z" />
    <glyph glyph-name="Oslash" unicode="&#xd8;" horiz-adv-x="1671" 
d="M836 332q152 0 246 100t96 258q0 88 -31 160l-408 -506q46 -12 97 -12zM836 1049q-152 -1 -249 -101t-98 -258q0 -92 33 -160l410 506q-45 13 -96 13zM1591 690q0 -313 -213 -515t-542 -202q-170 0 -318 58l-82 -103h-420l232 293q-170 193 -170 469q0 313 213 514
t545 201q168 0 315 -57l82 102h420l-232 -291q170 -193 170 -469z" />
    <glyph glyph-name="Ugrave" unicode="&#xd9;" horiz-adv-x="1419" 
d="M547 1487l-244 389h438l136 -389h-330zM1298 553q0 -264 -162 -422t-427 -158q-266 0 -427 159t-161 421v825h399v-823q0 -95 49 -151t139 -56t141 54q50 54 50 153v823h399v-825z" />
    <glyph glyph-name="Uacute" unicode="&#xda;" horiz-adv-x="1419" 
d="M551 1487l137 389h451l-258 -389h-330zM1298 553q0 -264 -162 -422t-427 -158q-266 0 -427 159t-161 421v825h399v-823q0 -95 49 -151t139 -56t141 54q50 54 50 153v823h399v-825z" />
    <glyph glyph-name="Ucircumflex" unicode="&#xdb;" horiz-adv-x="1419" 
d="M1159 1487h-311l-137 160l-138 -160h-309l291 389h313zM1298 553q0 -264 -162 -422t-427 -158q-266 0 -427 159t-161 421v825h399v-823q0 -95 49 -151t139 -56t141 54q50 54 50 153v823h399v-825z" />
    <glyph glyph-name="Udieresis" unicode="&#xdc;" horiz-adv-x="1419" 
d="M965 1477q-88 0 -151 59q-62 59 -62 142q0 82 61 142t151 60t151 -57t61 -143t-62 -145q-62 -58 -149 -58zM457 1477q-88 0 -151 59q-62 59 -62 142q0 82 61 142t151 60t151 -57t61 -143t-62 -145q-62 -58 -149 -58zM1298 553q0 -264 -162 -422t-427 -158
q-266 0 -427 159t-161 421v825h399v-823q0 -95 49 -151t139 -56t141 54q50 54 50 153v823h399v-825z" />
    <glyph glyph-name="Yacute" unicode="&#xdd;" horiz-adv-x="1310" 
d="M498 1487l137 389h450l-258 -389h-329zM854 0h-399v590l-457 788h459l198 -413l199 413h457l-457 -788v-590z" />
    <glyph glyph-name="Thorn" unicode="&#xde;" horiz-adv-x="1282" 
d="M541 559h151q66 0 104 38q38 37 38 103t-38 104t-104 38h-151v-283zM133 0v1378h408v-182h161q254 0 402 -133t147 -363q1 -230 -149 -364q-150 -135 -400 -135h-161v-201h-408z" />
    <glyph glyph-name="germandbls" unicode="&#xdf;" horiz-adv-x="1275" 
d="M106 0v905q0 244 140 372t393 128q252 0 380 -86t128 -244q0 -63 -15 -105t-71 -114q-55 -72 -55 -106t18 -60t92 -92t103 -117t28 -131q0 -164 -126 -257t-349 -93h-141v315h125q94 0 94 70q0 29 -16 51t-78 70q-131 98 -131 188q0 62 61 146t62 131q0 102 -113 102
q-72 0 -105 -43t-32 -139v-891h-392z" />
    <glyph glyph-name="agrave" unicode="&#xe0;" horiz-adv-x="1126" 
d="M395 1147l-243 383h428l141 -383h-326zM522 221q63 0 102 37q38 37 38 102v46h-136q-51 0 -80 -25t-28 -70q0 -90 104 -90zM558 1057q216 0 344 -115t128 -315v-627h-344v80q-113 -106 -284 -106t-264 82q-93 83 -93 232q-1 148 105 232t303 84h209v41q0 67 -34 101
t-91 34q-102 0 -115 -106h-336q8 180 132 282t340 101z" />
    <glyph glyph-name="aacute" unicode="&#xe1;" horiz-adv-x="1126" 
d="M389 1147l143 383h426l-243 -383h-326zM522 221q63 0 102 37q38 37 38 102v46h-136q-51 0 -80 -25t-28 -70q0 -90 104 -90zM558 1057q216 0 344 -115t128 -315v-627h-344v80q-113 -106 -284 -106t-264 82q-93 83 -93 232q-1 148 105 232t303 84h209v41q0 67 -34 101
t-91 34q-102 0 -115 -106h-336q8 180 132 282t340 101z" />
    <glyph glyph-name="acircumflex" unicode="&#xe2;" horiz-adv-x="1126" 
d="M993 1147h-315l-121 149l-119 -149h-315l278 383h314zM522 221q63 0 102 37q38 37 38 102v46h-136q-51 0 -80 -25t-28 -70q0 -90 104 -90zM558 1057q216 0 344 -115t128 -315v-627h-344v80q-113 -106 -284 -106t-264 82q-93 83 -93 232q-1 148 105 232t303 84h209v41
q0 67 -34 101t-91 34q-102 0 -115 -106h-336q8 180 132 282t340 101z" />
    <glyph glyph-name="atilde" unicode="&#xe3;" horiz-adv-x="1126" 
d="M699 1149q-79 0 -162 45q-88 41 -144 41t-192 -74v277q129 78 203 78t174 -43q84 -43 142 -42t193 72v-276q-135 -78 -214 -78zM522 221q63 0 102 37q38 37 38 102v46h-136q-51 0 -80 -25t-28 -70q0 -90 104 -90zM558 1057q216 0 344 -115t128 -315v-627h-344v80
q-113 -106 -284 -106t-264 82q-93 83 -93 232q-1 148 105 232t303 84h209v41q0 67 -34 101t-91 34q-102 0 -115 -106h-336q8 180 132 282t340 101z" />
    <glyph glyph-name="adieresis" unicode="&#xe4;" horiz-adv-x="1126" 
d="M803 1133q-84 0 -145 58q-60 58 -60 140t58 139q58 58 146 58t146 -55t58 -141t-60 -142q-60 -57 -143 -57zM518 1332q0 -86 -60 -142q-60 -57 -143 -57q-84 0 -144 59t-60 140t58 138q58 58 146 58q87 0 145 -55t58 -141zM522 221q63 0 102 37q38 37 38 102v46h-136
q-51 0 -80 -25t-28 -70q0 -90 104 -90zM558 1057q216 0 344 -115t128 -315v-627h-344v80q-113 -106 -284 -106t-264 82q-93 83 -93 232q-1 148 105 232t303 84h209v41q0 67 -34 101t-91 34q-102 0 -115 -106h-336q8 180 132 282t340 101z" />
    <glyph glyph-name="aring" unicode="&#xe5;" horiz-adv-x="1126" 
d="M477 1372q-1 -34 23 -58t58 -24t58 24t23 58q0 34 -24 59q-23 23 -57 23t-58 -24t-23 -58zM848 1372q0 -122 -82 -200t-210 -78t-209 78t-81 200q0 123 81 201t210 78t210 -78t81 -201zM522 221q63 0 102 37q38 37 38 102v46h-136q-51 0 -80 -25t-28 -70q0 -90 104 -90z
M558 1057q216 0 344 -115t128 -315v-627h-344v80q-113 -106 -284 -106t-264 82q-93 83 -93 232q-1 148 105 232t303 84h209v41q0 67 -34 101t-91 34q-102 0 -115 -106h-336q8 180 132 282t340 101z" />
    <glyph glyph-name="ae" unicode="&#xe6;" horiz-adv-x="1837" 
d="M522 221q59 0 94 37t35 100v50h-125q-51 0 -80 -25t-28 -68q0 -94 104 -94zM1247 772q-147 0 -200 -145h391q-12 69 -64 107t-127 38zM1247 1057q262 0 413 -176t124 -449h-744q20 -84 78 -130t144 -46q131 0 159 90h353q-44 -176 -182 -274t-339 -99q-262 0 -415 164
q-113 -164 -389 -164q-186 0 -295 82t-109 232q-1 149 105 233t305 84h196v39q0 137 -114 137q-102 0 -115 -106h-336q8 180 132 281t341 101t332 -118q147 119 356 119z" />
    <glyph glyph-name="ccedilla" unicode="&#xe7;" horiz-adv-x="1212" 
d="M535 -397q-86 0 -179 8v233h121q104 0 105 90q0 16 -4 41q-227 14 -377 166t-150 378t162 382t391 156t380 -128t177 -335h-373q-35 119 -165 119q-81 -1 -133 -55t-52 -143t51 -143t134 -55q131 0 165 119h373q-20 -154 -109 -266t-229 -162q41 -59 41 -127
q1 -278 -329 -278z" />
    <glyph glyph-name="egrave" unicode="&#xe8;" horiz-adv-x="1208" 
d="M453 1147l-244 383h428l141 -383h-325zM618 772q-145 0 -200 -141h391q-13 65 -65 103t-126 38zM53 510q-1 238 159 392t413 155q253 0 405 -175t125 -450h-745q20 -80 78 -127t143 -47q129 0 160 88h354q-47 -176 -183 -274t-337 -99q-252 0 -412 150q-160 149 -160 387
z" />
    <glyph glyph-name="eacute" unicode="&#xe9;" horiz-adv-x="1208" 
d="M446 1147l144 383h426l-244 -383h-326zM618 772q-145 0 -200 -141h391q-13 65 -65 103t-126 38zM53 510q-1 238 159 392t413 155q253 0 405 -175t125 -450h-745q20 -80 78 -127t143 -47q129 0 160 88h354q-47 -176 -183 -274t-337 -99q-252 0 -412 150q-160 149 -160 387
z" />
    <glyph glyph-name="ecircumflex" unicode="&#xea;" horiz-adv-x="1208" 
d="M1051 1147h-316l-121 149l-118 -149h-316l279 383h313zM618 772q-145 0 -200 -141h391q-13 65 -65 103t-126 38zM53 510q-1 238 159 392t413 155q253 0 405 -175t125 -450h-745q20 -80 78 -127t143 -47q129 0 160 88h354q-47 -176 -183 -274t-337 -99q-252 0 -412 150
q-160 149 -160 387z" />
    <glyph glyph-name="edieresis" unicode="&#xeb;" horiz-adv-x="1208" 
d="M1063 1332q1 -86 -59 -142q-60 -57 -144 -57t-144 58t-60 140t58 139q58 58 146 58t146 -55t57 -141zM373 1133q-84 0 -145 59q-60 59 -60 140t58 138q58 58 146 58t146 -55q57 -55 57 -141t-59 -142q-59 -57 -143 -57zM618 772q-145 0 -200 -141h391q-13 65 -65 103
t-126 38zM53 510q-1 238 159 392t413 155q253 0 405 -175t125 -450h-745q20 -80 78 -127t143 -47q129 0 160 88h354q-47 -176 -183 -274t-337 -99q-252 0 -412 150q-160 149 -160 387z" />
    <glyph glyph-name="igrave" unicode="&#xec;" horiz-adv-x="600" 
d="M139 1147l-243 383h428l141 -383h-326zM104 0v1030h392v-1030h-392z" />
    <glyph glyph-name="iacute" unicode="&#xed;" horiz-adv-x="600" 
d="M133 1147l143 383h426l-243 -383h-326zM104 0v1030h392v-1030h-392z" />
    <glyph glyph-name="icircumflex" unicode="&#xee;" horiz-adv-x="600" 
d="M737 1147h-315l-121 149l-119 -149h-315l278 383h314zM104 0v1030h392v-1030h-392z" />
    <glyph glyph-name="idieresis" unicode="&#xef;" horiz-adv-x="600" 
d="M547 1133q-84 0 -145 58q-60 58 -60 140t58 139q58 58 146 58t146 -55t58 -141t-60 -142q-60 -57 -143 -57zM262 1332q0 -86 -60 -142q-60 -57 -143 -57q-84 0 -144 59t-60 140t58 138q58 58 146 58q87 0 145 -55t58 -141zM104 0v1030h392v-1030h-392z" />
    <glyph glyph-name="eth" unicode="&#xf0;" horiz-adv-x="1169" 
d="M586 274q72 0 120 48t48 120t-47 117t-121 45t-120 -45t-46 -117t47 -120t119 -48zM1120 479q0 -229 -147 -367t-389 -138t-386 127q-144 128 -144 331t126 327q127 124 326 124q27 0 72 -4l-95 118l-315 -84v238l160 45l-140 180h408l68 -86l313 90v-252l-154 -41
l78 -100q121 -157 170 -271t49 -237z" />
    <glyph glyph-name="ntilde" unicode="&#xf1;" horiz-adv-x="1220" 
d="M742 1149q-79 0 -162 45q-86 41 -143 41t-193 -74v277q128 78 202 78t175 -43q83 -43 141 -42t194 72v-276q-135 -78 -214 -78zM741 1057q173 0 277 -117t104 -309v-631h-389v573q0 59 -32 95t-85 34q-53 0 -87 -36t-33 -93v-573h-392v1030h357v-82q108 109 280 109z" />
    <glyph glyph-name="ograve" unicode="&#xf2;" horiz-adv-x="1253" 
d="M465 1147l-244 383h428l142 -383h-326zM627 311q84 1 135 57t51 146t-51 146t-135 56q-85 0 -137 -56t-52 -146t52 -146t137 -57zM626 1057q244 0 410 -156t166 -386t-166 -386t-410 -156q-245 0 -410 155t-165 386t165 387t410 156z" />
    <glyph glyph-name="oacute" unicode="&#xf3;" horiz-adv-x="1253" 
d="M459 1147l143 383h426l-244 -383h-325zM627 311q84 1 135 57t51 146t-51 146t-135 56q-85 0 -137 -56t-52 -146t52 -146t137 -57zM626 1057q244 0 410 -156t166 -386t-166 -386t-410 -156q-245 0 -410 155t-165 386t165 387t410 156z" />
    <glyph glyph-name="ocircumflex" unicode="&#xf4;" horiz-adv-x="1253" 
d="M1063 1147h-315l-121 149l-119 -149h-315l278 383h313zM627 311q84 1 135 57t51 146t-51 146t-135 56q-85 0 -137 -56t-52 -146t52 -146t137 -57zM626 1057q244 0 410 -156t166 -386t-166 -386t-410 -156q-245 0 -410 155t-165 386t165 387t410 156z" />
    <glyph glyph-name="otilde" unicode="&#xf5;" horiz-adv-x="1253" 
d="M769 1149q-79 0 -163 45q-88 41 -144 41t-192 -74v277q128 78 202 78t175 -43q83 -43 141 -42t195 72v-276q-135 -78 -214 -78zM627 311q84 1 135 57t51 146t-51 146t-135 56q-85 0 -137 -56t-52 -146t52 -146t137 -57zM626 1057q244 0 410 -156t166 -386t-166 -386
t-410 -156q-245 0 -410 155t-165 386t165 387t410 156z" />
    <glyph glyph-name="odieresis" unicode="&#xf6;" horiz-adv-x="1253" 
d="M1075 1332q1 -86 -59 -142q-60 -57 -144 -57t-144 58t-60 140t58 139q58 58 146 58t146 -55t57 -141zM385 1133q-84 0 -144 59q-61 59 -61 140t58 138q58 58 147 58q88 0 145 -55q58 -55 58 -141t-60 -142q-60 -57 -143 -57zM627 311q84 1 135 57t51 146t-51 146t-135 56
q-85 0 -137 -56t-52 -146t52 -146t137 -57zM626 1057q244 0 410 -156t166 -386t-166 -386t-410 -156q-245 0 -410 155t-165 386t165 387t410 156z" />
    <glyph glyph-name="divide" unicode="&#xf7;" horiz-adv-x="1187" 
d="M594 51q-90 -1 -154 59t-63 146q0 86 63 145q62 59 154 59t156 -58q64 -60 63 -146t-65 -146t-154 -59zM76 526v326h1038v-326h-1038zM594 918q-90 0 -154 59q-63 59 -63 145t63 146q62 60 154 59q92 0 156 -59q64 -60 63 -146t-65 -145t-154 -59z" />
    <glyph glyph-name="oslash" unicode="&#xf8;" horiz-adv-x="1308" 
d="M655 256q106 0 173 72t67 186q0 53 -14 94l-279 -348q33 -4 53 -4zM416 514q0 -43 10 -88l279 342q-33 4 -50 4q-107 0 -173 -70t-66 -188zM655 -27q-123 0 -229 41l-66 -92h-346l189 250q-123 145 -123 342q0 231 165 387t410 156q125 0 230 -43l71 100h342l-192 -256
q125 -147 125 -344q-2 -231 -167 -386t-409 -155z" />
    <glyph glyph-name="ugrave" unicode="&#xf9;" horiz-adv-x="1220" 
d="M446 1147l-243 383h428l141 -383h-326zM725 1030h389v-1030h-356v80q-111 -106 -281 -106t-275 115q-105 116 -106 308v633h391v-573q0 -59 31 -95t85 -36t88 36t34 95v573z" />
    <glyph glyph-name="uacute" unicode="&#xfa;" horiz-adv-x="1220" 
d="M440 1147l144 383h426l-244 -383h-326zM725 1030h389v-1030h-356v80q-111 -106 -281 -106t-275 115q-105 116 -106 308v633h391v-573q0 -59 31 -95t85 -36t88 36t34 95v573z" />
    <glyph glyph-name="ucircumflex" unicode="&#xfb;" horiz-adv-x="1220" 
d="M1044 1147h-315l-121 149l-119 -149h-315l279 383h313zM725 1030h389v-1030h-356v80q-111 -106 -281 -106t-275 115q-105 116 -106 308v633h391v-573q0 -59 31 -95t85 -36t88 36t34 95v573z" />
    <glyph glyph-name="udieresis" unicode="&#xfc;" horiz-adv-x="1220" 
d="M854 1133q-84 0 -144 58t-60 140t58 139q58 58 146 58t145 -55t57 -141t-58 -142q-60 -57 -144 -57zM367 1133q-84 0 -145 59q-60 59 -60 140t58 138q58 58 146 58t146 -55q57 -55 57 -141t-59 -142q-59 -57 -143 -57zM725 1030h389v-1030h-356v80q-111 -106 -281 -106
t-275 115q-105 116 -106 308v633h391v-573q0 -59 31 -95t85 -36t88 36t34 95v573z" />
    <glyph glyph-name="yacute" unicode="&#xfd;" horiz-adv-x="1150" 
d="M408 1147l143 383h426l-244 -383h-325zM741 1030h414l-491 -1364h-428l129 344l-371 1020h414l167 -594z" />
    <glyph glyph-name="thorn" unicode="&#xfe;" horiz-adv-x="1296" 
d="M664 313q84 -1 135 55t51 147t-50 147t-135 55q-85 0 -135 -55q-50 -54 -51 -146q1 -92 51 -148t134 -55zM764 1057q205 0 340 -152q135 -153 135 -391t-134 -390t-343 -151q-166 0 -266 107v-414h-392v1712h357v-456q98 135 303 135z" />
    <glyph glyph-name="ydieresis" unicode="&#xff;" horiz-adv-x="1150" 
d="M1024 1332q0 -86 -60 -142q-60 -57 -143 -57q-84 0 -144 58q-61 58 -61 140t58 139q58 58 147 58q87 0 145 -55t58 -141zM334 1133q-84 0 -145 59q-60 59 -60 140t58 138q59 58 147 58t145 -55t57 -141t-58 -142q-60 -57 -144 -57zM741 1030h414l-491 -1364h-428l129 344
l-371 1020h414l167 -594z" />
    <glyph glyph-name="Amacron" unicode="&#x100;" horiz-adv-x="1415" 
d="M354 1524v286h709v-286h-709zM840 528l-131 455l-129 -455h260zM997 0l-73 240h-430l-76 -240h-418l496 1378h424l495 -1378h-418z" />
    <glyph glyph-name="amacron" unicode="&#x101;" horiz-adv-x="1126" 
d="M223 1180v270h666v-270h-666zM522 221q63 0 102 37q38 37 38 102v46h-136q-51 0 -80 -25t-28 -70q0 -90 104 -90zM558 1057q216 0 344 -115t128 -315v-627h-344v80q-113 -106 -284 -106t-264 82q-93 83 -93 232q-1 148 105 232t303 84h209v41q0 67 -34 101t-91 34
q-102 0 -115 -106h-336q8 180 132 282t340 101z" />
    <glyph glyph-name="Abreve" unicode="&#x102;" horiz-adv-x="1415" 
d="M709 1477q-205 -1 -326 107t-121 288h281q0 -62 47 -102t120 -40q74 0 120 40q46 38 47 102h280q1 -180 -121 -288t-327 -107zM840 528l-131 455l-129 -455h260zM997 0l-73 240h-430l-76 -240h-418l496 1378h424l495 -1378h-418z" />
    <glyph glyph-name="abreve" unicode="&#x103;" horiz-adv-x="1126" 
d="M556 1141q-187 0 -289 100q-101 100 -101 285h270q0 -141 121 -142q119 0 119 142h270q0 -184 -101 -285q-102 -100 -289 -100zM522 221q63 0 102 37q38 37 38 102v46h-136q-51 0 -80 -25t-28 -70q0 -90 104 -90zM558 1057q216 0 344 -115t128 -315v-627h-344v80
q-113 -106 -284 -106t-264 82q-93 83 -93 232q-1 148 105 232t303 84h209v41q0 67 -34 101t-91 34q-102 0 -115 -106h-336q8 180 132 282t340 101z" />
    <glyph glyph-name="Aogonek" unicode="&#x104;" horiz-adv-x="1415" 
d="M840 528l-131 455l-129 -455h260zM1294 -106q0 -53 66 -54h57v-219q-100 -14 -180 -14q-139 0 -219 57q-80 56 -80 156t90 180h-31l-73 240h-430l-76 -240h-418l496 1378h424l493 -1376l4 -2l-55 -31q-68 -35 -68 -75z" />
    <glyph glyph-name="aogonek" unicode="&#x105;" horiz-adv-x="1126" 
d="M522 221q63 0 102 37q38 37 38 102v46h-136q-51 0 -80 -25t-28 -70q0 -90 104 -90zM852 -393q-139 0 -219 57t-80 167t133 202v47q-113 -106 -284 -106t-264 82q-93 83 -93 232q-1 148 105 232t303 84h209v41q0 67 -34 101t-91 34q-102 0 -115 -106h-336q8 180 132 281
t340 101t344 -114q128 -115 128 -315v-625l2 -2l-55 -31q-68 -35 -68 -75q0 -53 66 -54h57v-219q-100 -14 -180 -14z" />
    <glyph glyph-name="Cacute" unicode="&#x106;" horiz-adv-x="1597" 
d="M647 1487l137 389h451l-258 -389h-330zM794 -27q-316 0 -527 201q-210 201 -210 514t210 515q211 202 527 202t521 -170t225 -442h-416q-28 113 -114 181t-219 66q-133 0 -225 -97t-93 -253q0 -156 92 -254q91 -98 225 -98t221 68t113 180h416q-20 -272 -225 -442
t-521 -171z" />
    <glyph glyph-name="cacute" unicode="&#x107;" horiz-adv-x="1212" 
d="M461 1147l143 383h426l-244 -383h-325zM604 -27q-230 0 -392 155t-161 386q0 231 162 387t391 156t380 -128t177 -335h-373q-35 119 -165 119q-81 -1 -133 -55t-52 -143t51 -143t134 -55q131 0 165 119h373q-27 -207 -177 -335t-380 -128z" />
    <glyph glyph-name="Ccaron" unicode="&#x10c;" horiz-adv-x="1597" 
d="M946 1876h309l-292 -389h-314l-291 389h314l137 -160zM794 -27q-316 0 -527 201q-210 201 -210 514t210 515q211 202 527 202t521 -170t225 -442h-416q-28 113 -114 181t-219 66q-133 0 -225 -97t-93 -253q0 -156 92 -254q91 -98 225 -98t221 68t113 180h416
q-20 -272 -225 -442t-521 -171z" />
    <glyph glyph-name="ccaron" unicode="&#x10d;" horiz-adv-x="1212" 
d="M750 1530h313l-279 -383h-311l-278 383h315l119 -150zM604 -27q-230 0 -392 155t-161 386q0 231 162 387t391 156t380 -128t177 -335h-373q-35 119 -165 119q-81 -1 -133 -55t-52 -143t51 -143t134 -55q131 0 165 119h373q-27 -207 -177 -335t-380 -128z" />
    <glyph glyph-name="Dcaron" unicode="&#x10e;" horiz-adv-x="1519" 
d="M772 1876h309l-293 -389h-313l-291 389h314l137 -160zM532 358h170q158 0 251 92t93 244t-92 239t-252 87h-170v-662zM133 0v1378h569q336 0 548 -191t212 -493t-215 -498t-545 -196h-569z" />
    <glyph glyph-name="dcaron" unicode="&#x10f;" horiz-adv-x="1726" 
d="M1309 983l6 395h391l-121 -395h-276zM630 313q85 1 135 55t50 146t-50 148t-134 55q-84 0 -135 -55q-52 -54 -52 -146t50 -148t136 -55zM801 1378h391v-1378h-356v104q-98 -131 -303 -131t-340 150q-135 151 -135 387t134 392q136 156 343 155q166 0 266 -107v428z" />
    <glyph glyph-name="Dcroat" unicode="&#x110;" horiz-adv-x="1566" 
d="M580 358h170q158 0 250 92t94 244q0 152 -92 239t-252 87h-170v-176h202v-293h-202v-193zM180 1378h570q336 0 548 -190t211 -492q0 -302 -215 -500q-215 -196 -544 -196h-570v551h-151v293h151v534z" />
    <glyph glyph-name="dcroat" unicode="&#x111;" horiz-adv-x="1329" 
d="M633 276q84 0 135 54t51 145t-51 145t-135 54t-135 -54q-52 -54 -52 -144t52 -144q52 -56 135 -56zM1346 1272v-246h-152v-1026h-356v100q-96 -127 -305 -127q-209 -1 -341 135t-133 359q0 223 129 353t349 130q170 0 268 -108v184h-354v246h354v106h389v-106h152z" />
    <glyph glyph-name="Emacron" unicode="&#x112;" horiz-adv-x="1097" 
d="M217 1524v286h709v-286h-709zM133 0v1378h864v-334h-465v-190h445v-311h-445v-209h488v-334h-887z" />
    <glyph glyph-name="emacron" unicode="&#x113;" horiz-adv-x="1208" 
d="M281 1180v270h665v-270h-665zM618 772q-145 0 -200 -141h391q-13 65 -65 103t-126 38zM53 510q-1 238 159 392t413 155q253 0 405 -175t125 -450h-745q20 -80 78 -127t143 -47q129 0 160 88h354q-47 -176 -183 -274t-337 -99q-252 0 -412 150q-160 149 -160 387z" />
    <glyph glyph-name="Edotaccent" unicode="&#x116;" horiz-adv-x="1097" 
d="M569 1452q-98 0 -166 66q-67 66 -67 160t67 159q68 66 166 66t167 -66t69 -160q0 -93 -69 -159t-167 -66zM133 0v1378h864v-334h-465v-190h445v-311h-445v-209h488v-334h-887z" />
    <glyph glyph-name="edotaccent" unicode="&#x117;" horiz-adv-x="1208" 
d="M614 1133q-94 0 -156 61q-62 62 -62 152t62 151t156 61t156 -60q62 -62 64 -152q0 -90 -63 -152t-157 -61zM618 772q-145 0 -200 -141h391q-13 65 -65 103t-126 38zM53 510q-1 238 159 392t413 155q253 0 405 -175t125 -450h-745q20 -80 78 -127t143 -47q129 0 160 88
h354q-47 -176 -183 -274t-337 -99q-252 0 -412 150q-160 149 -160 387z" />
    <glyph glyph-name="Eogonek" unicode="&#x118;" horiz-adv-x="1097" 
d="M133 0v1378h864v-334h-465v-190h445v-311h-445v-209h488v-332l2 -2l-55 -31q-68 -35 -68 -75q0 -53 66 -54h57v-219q-100 -14 -180 -14q-139 0 -219 57q-80 56 -80 156t90 180h-500z" />
    <glyph glyph-name="eogonek" unicode="&#x119;" horiz-adv-x="1208" 
d="M618 772q-145 0 -200 -141h391q-13 65 -65 103t-126 38zM768 -393q-139 0 -219 57q-80 58 -80 152t68 164q-217 25 -351 170q-133 146 -133 372t160 380q161 154 413 155q252 0 404 -175t125 -450h-745q20 -80 78 -127t143 -47q129 0 160 88h354q-39 -154 -148 -248
l-118 -121q-51 -55 -52 -83q0 -53 66 -54h55v-219q-100 -14 -180 -14z" />
    <glyph glyph-name="Ecaron" unicode="&#x11a;" horiz-adv-x="1097" 
d="M711 1876h309l-293 -389h-313l-291 389h313l137 -160zM133 0v1378h864v-334h-465v-190h445v-311h-445v-209h488v-334h-887z" />
    <glyph glyph-name="ecaron" unicode="&#x11b;" horiz-adv-x="1208" 
d="M735 1530h314l-279 -383h-311l-279 383h316l118 -150zM618 772q-145 0 -200 -141h391q-13 65 -65 103t-126 38zM53 510q-1 238 159 392t413 155q253 0 405 -175t125 -450h-745q20 -80 78 -127t143 -47q129 0 160 88h354q-47 -176 -183 -274t-337 -99q-252 0 -412 150
q-160 149 -160 387z" />
    <glyph glyph-name="Gbreve" unicode="&#x11e;" horiz-adv-x="1599" 
d="M809 1477q-205 -1 -326 107t-121 288h281q0 -62 47 -102t120 -40t120 40q47 38 47 102h280q0 -180 -121 -288q-122 -107 -327 -107zM819 760h682v-434q-102 -168 -280 -260t-402 -93q-338 0 -549 201t-211 518t208 515t542 198q271 0 457 -133t231 -363h-430
q-74 145 -245 145t-267 -100q-96 -102 -96 -270t102 -269t267 -101t282 94v90h-291v262z" />
    <glyph glyph-name="gbreve" unicode="&#x11f;" horiz-adv-x="1292" 
d="M638 1141q-187 0 -289 100q-101 100 -101 285h270q0 -141 121 -142q119 0 119 142h270q0 -184 -101 -285q-102 -100 -289 -100zM629 371q84 0 134 54t50 143q0 88 -50 142t-134 54t-135 -54q-52 -54 -52 -142t52 -143q52 -54 135 -54zM834 1030h356v-885
q0 -237 -150 -371t-399 -134t-390 96q-140 96 -157 272h371q18 -92 164 -92q170 0 170 166v106q-102 -106 -288 -106t-321 139t-135 349t136 348q137 138 341 139q204 0 302 -135v108z" />
    <glyph glyph-name="Gcommaaccent" unicode="&#x122;" horiz-adv-x="1599" 
d="M616 -449l7 361h346l-54 -361h-299zM819 760h682v-434q-102 -168 -280 -260t-402 -93q-338 0 -549 201t-211 518t208 515t542 198q271 0 457 -133t231 -363h-430q-74 145 -245 145t-267 -100q-96 -102 -96 -270t102 -269t267 -101t282 94v90h-291v262z" />
    <glyph glyph-name="gcommaaccent" unicode="&#x123;" horiz-adv-x="1292" 
d="M436 1147l60 383h301l-6 -383h-355zM629 371q84 0 134 54t50 143q0 88 -50 142t-134 54t-135 -54q-52 -54 -52 -142t52 -143q52 -54 135 -54zM834 1030h356v-885q0 -237 -150 -371t-399 -134t-390 96q-140 96 -157 272h371q18 -92 164 -92q170 0 170 166v106
q-102 -106 -288 -106t-321 139t-135 349t136 348q137 138 341 139q204 0 302 -135v108z" />
    <glyph glyph-name="Imacron" unicode="&#x12a;" horiz-adv-x="665" 
d="M-23 1524v286h709v-286h-709zM133 0v1378h399v-1378h-399z" />
    <glyph glyph-name="imacron" unicode="&#x12b;" horiz-adv-x="600" 
d="M4 1180v270h596v-270h-596zM104 0v1030h392v-1030h-392z" />
    <glyph glyph-name="Iogonek" unicode="&#x12e;" horiz-adv-x="665" 
d="M133 0v1378h399v-1378l-55 -31q-68 -35 -67 -75q0 -53 65 -54h57v-219q-100 -14 -180 -14q-139 0 -219 57q-80 56 -80 156t90 180h-10z" />
    <glyph glyph-name="iogonek" unicode="&#x12f;" horiz-adv-x="600" 
d="M301 1133q-94 0 -157 61q-62 62 -62 152t62 151t156 61t158 -60q62 -62 62 -152t-62 -152q-63 -61 -157 -61zM301 -393q-139 0 -219 57q-80 58 -80 160t102 186v1020h392v-1030h-15l-55 -31q-68 -35 -68 -75q0 -53 66 -54h57v-219q-100 -14 -180 -14z" />
    <glyph glyph-name="Idotaccent" unicode="&#x130;" horiz-adv-x="665" 
d="M330 1452q-98 0 -166 66t-68 160t68 159q68 66 166 66t167 -66t69 -160q0 -93 -70 -159q-68 -66 -166 -66zM133 0v1378h399v-1378h-399z" />
    <glyph glyph-name="dotlessi" unicode="&#x131;" horiz-adv-x="600" 
d="M104 0v1030h392v-1030h-392z" />
    <glyph glyph-name="Kcommaaccent" unicode="&#x136;" horiz-adv-x="1368" 
d="M524 -449l6 361h347l-54 -361h-299zM532 0h-399v1378h399v-547l369 547h451l-445 -659l484 -719h-471l-388 590v-590z" />
    <glyph glyph-name="kcommaaccent" unicode="&#x137;" horiz-adv-x="1171" 
d="M416 -449l6 361h346l-53 -361h-299zM496 0h-392v1378h392v-751l262 403h413l-323 -498l352 -532h-430l-274 420v-420z" />
    <glyph glyph-name="Lacute" unicode="&#x139;" horiz-adv-x="1011" 
d="M180 1487l137 389h451l-258 -389h-330zM133 0v1378h399v-1020h447v-358h-846z" />
    <glyph glyph-name="lacute" unicode="&#x13a;" horiz-adv-x="600" 
d="M141 1487l138 389h450l-258 -389h-330zM104 0v1378h392v-1378h-392z" />
    <glyph glyph-name="Lcommaaccent" unicode="&#x13b;" horiz-adv-x="1011" 
d="M395 -449l6 361h347l-54 -361h-299zM133 0v1378h399v-1020h447v-358h-846z" />
    <glyph glyph-name="lcommaaccent" unicode="&#x13c;" horiz-adv-x="600" 
d="M109 -449l6 361h346l-53 -361h-299zM104 0v1378h392v-1378h-392z" />
    <glyph glyph-name="Lcaron" unicode="&#x13d;" horiz-adv-x="1011" 
d="M688 983l6 395h391l-120 -395h-277zM133 0v1378h399v-1020h447v-358h-846z" />
    <glyph glyph-name="lcaron" unicode="&#x13e;" horiz-adv-x="1038" 
d="M618 983l7 395h391l-121 -395h-277zM104 0v1378h392v-1378h-392z" />
    <glyph glyph-name="Ldot" unicode="&#x13f;" horiz-adv-x="1138" 
d="M901 621q-98 0 -163 62q-64 61 -64 157t64 159q65 63 163 63t163 -62q64 -64 64 -159t-64 -158q-65 -62 -163 -62zM133 0v1378h399v-1020h447v-358h-846z" />
    <glyph glyph-name="ldot" unicode="&#x140;" horiz-adv-x="1013" 
d="M811 453q-98 0 -163 62q-64 61 -64 157t64 159q65 63 163 63t163 -62q64 -64 64 -159t-64 -158q-65 -62 -163 -62zM104 0v1378h392v-1378h-392z" />
    <glyph glyph-name="Lslash" unicode="&#x141;" horiz-adv-x="1054" 
d="M176 0v438l-147 -65v368l147 64v573h399v-415l351 159v-370l-351 -158v-236h447v-358h-846z" />
    <glyph glyph-name="lslash" unicode="&#x142;" horiz-adv-x="755" 
d="M182 1378h391v-460l154 69v-358l-154 -72v-557h-391v403l-153 -69v358l153 70v616z" />
    <glyph glyph-name="Nacute" unicode="&#x143;" horiz-adv-x="1441" 
d="M561 1487l137 389h451l-258 -389h-330zM930 1378h379v-1378h-410l-387 748v-748h-379v1378h412l385 -745v745z" />
    <glyph glyph-name="nacute" unicode="&#x144;" horiz-adv-x="1220" 
d="M432 1147l143 383h426l-243 -383h-326zM741 1057q173 0 277 -117t104 -309v-631h-389v573q0 59 -32 95t-85 34q-53 0 -87 -36t-33 -93v-573h-392v1030h357v-82q108 109 280 109z" />
    <glyph glyph-name="Ncommaaccent" unicode="&#x145;" horiz-adv-x="1441" 
d="M528 -449l7 361h346l-54 -361h-299zM930 1378h379v-1378h-410l-387 748v-748h-379v1378h412l385 -745v745z" />
    <glyph glyph-name="ncommaaccent" unicode="&#x146;" horiz-adv-x="1220" 
d="M422 -449l6 361h346l-53 -361h-299zM741 1057q173 0 277 -117t104 -309v-631h-389v573q0 59 -32 95t-85 34q-53 0 -87 -36t-33 -93v-573h-392v1030h357v-82q108 109 280 109z" />
    <glyph glyph-name="Ncaron" unicode="&#x147;" horiz-adv-x="1441" 
d="M860 1876h309l-292 -389h-314l-291 389h314l137 -160zM930 1378h379v-1378h-410l-387 748v-748h-379v1378h412l385 -745v745z" />
    <glyph glyph-name="ncaron" unicode="&#x148;" horiz-adv-x="1220" 
d="M721 1530h313l-278 -383h-312l-278 383h315l119 -150zM741 1057q173 0 277 -117t104 -309v-631h-389v573q0 59 -32 95t-85 34q-53 0 -87 -36t-33 -93v-573h-392v1030h357v-82q108 109 280 109z" />
    <glyph glyph-name="Omacron" unicode="&#x14c;" horiz-adv-x="1630" 
d="M461 1524v286h708v-286h-708zM815 338q150 0 245 99t95 252t-95 252t-245 99t-246 -99t-96 -252t96 -252t246 -99zM814 -27q-331 0 -544 202t-213 515t213 514t544 201t544 -202t213 -514t-213 -514t-544 -202z" />
    <glyph glyph-name="omacron" unicode="&#x14d;" horiz-adv-x="1253" 
d="M293 1180v270h665v-270h-665zM627 311q84 1 135 57t51 146t-51 146t-135 56q-85 0 -137 -56t-52 -146t52 -146t137 -57zM626 1057q244 0 410 -156t166 -386t-166 -386t-410 -156q-245 0 -410 155t-165 386t165 387t410 156z" />
    <glyph glyph-name="Ohungarumlaut" unicode="&#x150;" horiz-adv-x="1630" 
d="M907 1487l166 389h365l-256 -389h-275zM479 1487l144 389h325l-166 -389h-303zM815 338q150 0 245 99t95 252t-95 252t-245 99t-246 -99t-96 -252t96 -252t246 -99zM814 -27q-331 0 -544 202t-213 515t213 514t544 201t544 -202t213 -514t-213 -514t-544 -202z" />
    <glyph glyph-name="ohungarumlaut" unicode="&#x151;" horiz-adv-x="1253" 
d="M702 1147l177 383h348l-250 -383h-275zM283 1147l153 383h328l-180 -383h-301zM627 311q84 1 135 57t51 146t-51 146t-135 56q-85 0 -137 -56t-52 -146t52 -146t137 -57zM626 1057q244 0 410 -156t166 -386t-166 -386t-410 -156q-245 0 -410 155t-165 386t165 387
t410 156z" />
    <glyph glyph-name="OE" unicode="&#x152;" horiz-adv-x="2093" 
d="M813 340q150 0 245 97t95 251t-95 252t-246 98t-244 -97t-93 -253t94 -252t244 -96zM1530 334h485v-334h-860v74q-156 -100 -356 -101q-322 0 -532 203t-210 513t210 513t534 203q201 0 354 -102v75h838v-334h-463v-190h442v-311h-442v-209z" />
    <glyph glyph-name="oe" unicode="&#x153;" horiz-adv-x="1968" 
d="M629 311q84 -1 135 55t51 148t-51 148t-135 55t-136 -57q-53 -56 -53 -146t52 -146t137 -57zM1376 774q-154 0 -205 -145h404q-17 69 -69 107t-130 38zM1387 1057q253 0 405 -175t123 -450h-750q19 -86 79 -133t149 -47q129 0 157 90h355q-45 -174 -181 -271t-338 -98
q-252 0 -393 154q-137 -154 -378 -154t-401 156t-161 386q0 230 161 386q160 156 402 156t379 -156q139 156 392 156z" />
    <glyph glyph-name="Racute" unicode="&#x154;" horiz-adv-x="1296" 
d="M463 1487l137 389h451l-258 -389h-330zM530 754h113q68 0 109 41t41 109t-41 109q-41 40 -109 40h-113v-299zM133 0v1378h518q246 0 387 -126t142 -347q0 -262 -201 -381l301 -524h-457l-237 446h-54v-446h-399z" />
    <glyph glyph-name="racute" unicode="&#x155;" horiz-adv-x="819" 
d="M254 1147l143 383h426l-243 -383h-326zM721 1030h82v-362h-90q-115 0 -166 -52t-51 -165v-451h-392v1030h357v-127q88 127 260 127z" />
    <glyph glyph-name="Rcommaaccent" unicode="&#x156;" horiz-adv-x="1296" 
d="M457 -449l6 361h346l-53 -361h-299zM530 754h113q68 0 109 41t41 109t-41 109q-41 40 -109 40h-113v-299zM133 0v1378h518q246 0 387 -126t142 -347q0 -262 -201 -381l301 -524h-457l-237 446h-54v-446h-399z" />
    <glyph glyph-name="rcommaaccent" unicode="&#x157;" horiz-adv-x="819" 
d="M104 -449l7 361h346l-54 -361h-299zM721 1030h82v-362h-90q-115 0 -166 -52t-51 -165v-451h-392v1030h357v-127q88 127 260 127z" />
    <glyph glyph-name="Rcaron" unicode="&#x158;" horiz-adv-x="1296" 
d="M762 1876h309l-293 -389h-313l-291 389h313l138 -160zM530 754h113q68 0 109 41t41 109t-41 109q-41 40 -109 40h-113v-299zM133 0v1378h518q246 0 387 -126t142 -347q0 -262 -201 -381l301 -524h-457l-237 446h-54v-446h-399z" />
    <glyph glyph-name="rcaron" unicode="&#x159;" horiz-adv-x="819" 
d="M543 1530h313l-278 -383h-312l-278 383h315l119 -150zM721 1030h82v-362h-90q-115 0 -166 -52t-51 -165v-451h-392v1030h357v-127q88 127 260 127z" />
    <glyph glyph-name="Sacute" unicode="&#x15a;" horiz-adv-x="1161" 
d="M422 1487l137 389h451l-258 -389h-330zM586 -29q-246 0 -392 127t-153 351h379q2 -166 158 -166q63 1 102 29t39 72t-27 70t-94 50l-156 55q-358 125 -358 432q0 186 139 300t365 114t354 -115q129 -115 143 -327h-370q-6 133 -127 133q-51 0 -84 -27t-33 -68t28 -69
t91 -51l164 -62q194 -72 276 -164t82 -243q0 -205 -140 -323t-386 -118z" />
    <glyph glyph-name="sacute" unicode="&#x15b;" horiz-adv-x="964" 
d="M317 1147l144 383h426l-244 -383h-326zM930 311q0 -162 -114 -250t-325 -88q-210 1 -331 97t-127 270h342q6 -104 123 -104q94 0 94 65q0 27 -16 40t-60 24l-162 38q-143 33 -218 113t-75 201q0 154 116 247t305 93t302 -93t125 -259h-334q-6 90 -96 90q-37 1 -61 -17
t-23 -47q0 -45 72 -61l164 -41q299 -72 299 -318z" />
    <glyph glyph-name="Scedilla" unicode="&#x15e;" horiz-adv-x="1161" 
d="M492 -397q-86 0 -179 8v233h121q104 0 105 90q0 14 -4 39q-227 13 -357 139t-137 337h379q2 -166 158 -166q63 1 102 29t39 72t-27 70t-94 50l-156 55q-358 125 -358 432q0 186 139 300t365 114t354 -115q129 -115 143 -327h-370q-6 133 -127 133q-51 0 -84 -27t-33 -68
t28 -69t91 -51l164 -62q194 -72 276 -164q82 -93 82 -247t-85 -262t-239 -148q33 -53 33 -117q1 -278 -329 -278z" />
    <glyph glyph-name="scedilla" unicode="&#x15f;" horiz-adv-x="964" 
d="M395 -397q-86 0 -178 8v233h121q104 0 104 90q0 16 -4 41q-188 11 -294 107t-111 258h342q6 -104 123 -104q94 0 94 65q0 27 -16 40t-60 24l-162 38q-143 33 -218 113t-75 201q0 154 116 247t305 93t302 -93t125 -259h-334q-6 90 -96 90q-37 1 -61 -17t-23 -47
q0 -45 72 -61l164 -41q299 -72 299 -314t-240 -315q35 -57 35 -119q0 -278 -330 -278z" />
    <glyph glyph-name="Scaron" unicode="&#x160;" horiz-adv-x="1161" 
d="M721 1876h309l-293 -389h-313l-291 389h313l138 -160zM586 -29q-246 0 -392 127t-153 351h379q2 -166 158 -166q63 1 102 29t39 72t-27 70t-94 50l-156 55q-358 125 -358 432q0 186 139 300t365 114t354 -115q129 -115 143 -327h-370q-6 133 -127 133q-51 0 -84 -27
t-33 -68t28 -69t91 -51l164 -62q194 -72 276 -164t82 -243q0 -205 -140 -323t-386 -118z" />
    <glyph glyph-name="scaron" unicode="&#x161;" horiz-adv-x="964" 
d="M606 1530h314l-279 -383h-311l-279 383h316l118 -150zM930 311q0 -162 -114 -250t-325 -88q-210 1 -331 97t-127 270h342q6 -104 123 -104q94 0 94 65q0 27 -16 40t-60 24l-162 38q-143 33 -218 113t-75 201q0 154 116 247t305 93t302 -93t125 -259h-334q-6 90 -96 90
q-37 1 -61 -17t-23 -47q0 -45 72 -61l164 -41q299 -72 299 -318z" />
    <glyph glyph-name="uni0162" unicode="&#x162;" horiz-adv-x="1185" 
d="M381 0v1020h-334v358h1092v-358h-361v-989q55 -72 56 -150q0 -279 -330 -278q-86 0 -178 8v233h120q104 0 105 90q0 35 -12 66h-158z" />
    <glyph glyph-name="uni0163" unicode="&#x163;" horiz-adv-x="819" 
d="M672 328h108v-328h-133q35 -57 35 -119q0 -279 -330 -278q-88 0 -178 8v233h121q104 0 104 90q0 45 -26 99q-219 80 -219 358v311h-148v328h148v223h391v-223h223v-328h-223v-264q0 -59 28 -85q29 -25 99 -25z" />
    <glyph glyph-name="Tcaron" unicode="&#x164;" horiz-adv-x="1185" 
d="M733 1876h309l-292 -389h-314l-291 389h314l137 -160zM381 0v1020h-334v358h1092v-358h-361v-1020h-397z" />
    <glyph glyph-name="tcaron" unicode="&#x165;" horiz-adv-x="1019" 
d="M688 1165l6 396h391l-120 -396h-277zM672 328h108v-328h-176q-229 0 -340 96t-110 295v311h-148v328h148v223h391v-223h223v-328h-223v-264q0 -59 28 -85q29 -25 99 -25z" />
    <glyph glyph-name="Umacron" unicode="&#x16a;" horiz-adv-x="1419" 
d="M356 1524v286h709v-286h-709zM1298 553q0 -264 -162 -422t-427 -158q-266 0 -427 159t-161 421v825h399v-823q0 -95 49 -151t139 -56t141 54q50 54 50 153v823h399v-825z" />
    <glyph glyph-name="umacron" unicode="&#x16b;" horiz-adv-x="1220" 
d="M274 1180v270h666v-270h-666zM725 1030h389v-1030h-356v80q-111 -106 -281 -106t-275 115q-105 116 -106 308v633h391v-573q0 -59 31 -95t85 -36t88 36t34 95v573z" />
    <glyph glyph-name="Uring" unicode="&#x16e;" horiz-adv-x="1419" 
d="M712 1583q36 0 58 23q22 24 21 60q0 36 -22 58q-21 22 -57 21q-36 0 -59 -22q-23 -23 -23 -59t24 -58q22 -22 58 -23zM709 1386q-127 0 -209 78t-82 201t82 200t210 77t210 -77t82 -200t-84 -201q-82 -78 -209 -78zM1298 553q0 -264 -162 -422t-427 -158q-266 0 -427 159
t-161 421v825h399v-823q0 -95 49 -151t139 -56t141 54q50 54 50 153v823h399v-825z" />
    <glyph glyph-name="uring" unicode="&#x16f;" horiz-adv-x="1220" 
d="M528 1372q0 -34 24 -58t57 -24q34 0 58 24q23 24 23 58t-23 59q-24 23 -58 23q-33 0 -57 -24t-24 -58zM899 1372q0 -122 -82 -200t-210 -78t-209 78t-81 200q0 123 81 201t210 78t210 -78t81 -201zM725 1030h389v-1030h-356v80q-111 -106 -281 -106t-275 115
q-105 116 -106 308v633h391v-573q0 -59 31 -95t85 -36t88 36t34 95v573z" />
    <glyph glyph-name="Uhungarumlaut" unicode="&#x170;" horiz-adv-x="1419" 
d="M803 1487l166 389h364l-256 -389h-274zM375 1487l143 389h326l-166 -389h-303zM1298 553q0 -264 -162 -422t-427 -158q-266 0 -427 159t-161 421v825h399v-823q0 -95 49 -151t139 -56t141 54q50 54 50 153v823h399v-825z" />
    <glyph glyph-name="uhungarumlaut" unicode="&#x171;" horiz-adv-x="1220" 
d="M684 1147l176 383h348l-250 -383h-274zM264 1147l154 383h327l-180 -383h-301zM725 1030h389v-1030h-356v80q-111 -106 -281 -106t-275 115q-105 116 -106 308v633h391v-573q0 -59 31 -95t85 -36t88 36t34 95v573z" />
    <glyph glyph-name="Uogonek" unicode="&#x172;" horiz-adv-x="1419" 
d="M877 -393q-139 0 -220 57q-79 58 -79 152t65 161q-238 19 -380 175t-142 401v825h399v-823q0 -95 49 -151t139 -56t141 54q50 54 50 153v823h399v-825q0 -266 -165 -426l-146 -150q-51 -55 -51 -83q0 -53 65 -54h56v-219q-100 -14 -180 -14z" />
    <glyph glyph-name="uogonek" unicode="&#x173;" horiz-adv-x="1220" 
d="M936 -393q-139 0 -219 57t-80 163t121 198v55q-111 -106 -281 -106t-275 115q-105 116 -106 308v633h391v-573q0 -59 31 -95t85 -36t88 36t34 95v573h389v-1028l2 -2l-55 -31q-68 -35 -68 -75q0 -53 66 -54h57v-219q-100 -14 -180 -14z" />
    <glyph glyph-name="Ydieresis" unicode="&#x178;" horiz-adv-x="1310" 
d="M911 1880q91 0 151 -57t60 -143t-62 -145q-62 -58 -149 -58q-88 0 -150 59q-63 59 -63 142q0 82 62 142t151 60zM403 1880q91 0 151 -57t60 -143t-62 -145q-62 -58 -149 -58q-88 0 -150 59q-63 59 -63 142q0 82 62 142t151 60zM854 0h-399v590l-457 788h459l198 -413
l199 413h457l-457 -788v-590z" />
    <glyph glyph-name="Zacute" unicode="&#x179;" horiz-adv-x="1167" 
d="M424 1487l137 389h451l-258 -389h-330zM1096 358v-358h-1022v326l522 694h-508v358h999v-325l-534 -695h543z" />
    <glyph glyph-name="zacute" unicode="&#x17a;" horiz-adv-x="1007" 
d="M336 1147l143 383h426l-243 -383h-326zM956 317v-317h-907v293l418 420h-404v317h875v-293l-426 -420h444z" />
    <glyph glyph-name="Zdotaccent" unicode="&#x17b;" horiz-adv-x="1167" 
d="M582 1452q-98 0 -166 66t-68 160t68 159q68 66 166 66t167 -66t69 -160q0 -93 -70 -159q-68 -66 -166 -66zM1096 358v-358h-1022v326l522 694h-508v358h999v-325l-534 -695h543z" />
    <glyph glyph-name="zdotaccent" unicode="&#x17c;" horiz-adv-x="1007" 
d="M504 1133q-94 0 -157 61q-62 62 -62 152t62 151q63 61 157 61t156 -60q62 -62 62 -152t-62 -152t-156 -61zM956 317v-317h-907v293l418 420h-404v317h875v-293l-426 -420h444z" />
    <glyph glyph-name="Zcaron" unicode="&#x17d;" horiz-adv-x="1167" 
d="M723 1876h309l-293 -389h-313l-291 389h314l137 -160zM1096 358v-358h-1022v326l522 694h-508v358h999v-325l-534 -695h543z" />
    <glyph glyph-name="zcaron" unicode="&#x17e;" horiz-adv-x="1007" 
d="M625 1530h313l-279 -383h-311l-278 383h315l119 -150zM956 317v-317h-907v293l418 420h-404v317h875v-293l-426 -420h444z" />
    <glyph glyph-name="florin" unicode="&#x192;" horiz-adv-x="978" 
d="M961 1028h-113q-127 0 -141 -123l-9 -74h162v-313h-201l-43 -358q-27 -219 -139 -326q-113 -106 -321 -106h-176v348h92q139 0 159 125l37 317h-139v313h176l14 113q27 222 141 328t324 106h177v-350z" />
    <glyph glyph-name="Scommaaccent" unicode="&#x218;" horiz-adv-x="1161" 
d="M389 -449l6 361h346l-53 -361h-299zM586 -29q-246 0 -392 127t-153 351h379q2 -166 158 -166q63 1 102 29t39 72t-27 70t-94 50l-156 55q-358 125 -358 432q0 186 139 300t365 114t354 -115q129 -115 143 -327h-370q-6 133 -127 133q-51 0 -84 -27t-33 -68t28 -69t91 -51
l164 -62q194 -72 276 -164t82 -243q0 -205 -140 -323t-386 -118z" />
    <glyph glyph-name="scommaaccent" unicode="&#x219;" horiz-adv-x="964" 
d="M293 -449l6 361h346l-53 -361h-299zM930 311q0 -162 -114 -250t-325 -88q-210 1 -331 97t-127 270h342q6 -104 123 -104q94 0 94 65q0 27 -16 40t-60 24l-162 38q-143 33 -218 113t-75 201q0 154 116 247t305 93t302 -93t125 -259h-334q-6 90 -96 90q-37 1 -61 -17
t-23 -47q0 -45 72 -61l164 -41q299 -72 299 -318z" />
    <glyph glyph-name="uni021A" unicode="&#x21a;" horiz-adv-x="1185" 
d="M401 -449l7 361h346l-54 -361h-299zM381 0v1020h-334v358h1092v-358h-361v-1020h-397z" />
    <glyph glyph-name="uni021B" unicode="&#x21b;" horiz-adv-x="819" 
d="M293 -449l6 361h346l-53 -361h-299zM672 328h108v-328h-176q-229 0 -340 96t-110 295v311h-148v328h148v223h391v-223h223v-328h-223v-264q0 -59 28 -85q29 -25 99 -25z" />
    <glyph glyph-name="uni0237" unicode="&#x237;" horiz-adv-x="600" 
d="M-90 -334v309h57q76 0 107 28t30 95v932h390v-954q0 -197 -110 -303t-312 -107h-162z" />
    <glyph glyph-name="circumflex" unicode="&#x2c6;" horiz-adv-x="989" 
d="M930 1147h-316l-120 149l-119 -149h-316l279 383h313z" />
    <glyph glyph-name="caron" unicode="&#x2c7;" horiz-adv-x="989" 
d="M614 1530h314l-279 -383h-311l-279 383h316l119 -150z" />
    <glyph glyph-name="breve" unicode="&#x2d8;" horiz-adv-x="899" 
d="M840 1526q0 -184 -102 -284t-288 -101q-187 0 -289 100q-101 100 -102 285h271q0 -141 121 -142q119 0 118 142h271z" />
    <glyph glyph-name="dotaccent" unicode="&#x2d9;" horiz-adv-x="557" 
d="M279 1133q-94 0 -157 61q-62 62 -62 152t62 151t156 61t157 -60q63 -62 63 -152t-62 -152t-157 -61z" />
    <glyph glyph-name="ring" unicode="&#x2da;" horiz-adv-x="702" 
d="M270 1372q0 -34 24 -58t57 -24q34 0 58 24q23 24 23 58t-23 59q-24 23 -58 23q-33 0 -57 -24t-24 -58zM641 1372q0 -122 -82 -200t-210 -78t-209 78t-81 200q0 123 81 201t210 78t210 -78t81 -201z" />
    <glyph glyph-name="ogonek" unicode="&#x2db;" horiz-adv-x="600" 
d="M360 -393q-139 0 -219 57q-80 56 -80 154q-1 98 89 181t247 130l144 -129l-56 -31q-68 -35 -67 -75q0 -53 65 -54h58v-219q-101 -14 -181 -14z" />
    <glyph glyph-name="tilde" unicode="&#x2dc;" horiz-adv-x="833" 
d="M560 1149q-79 0 -163 45q-87 41 -143 41t-193 -74v277q129 78 203 78t174 -43q84 -43 142 -42t194 72v-276q-135 -78 -214 -78z" />
    <glyph glyph-name="hungarumlaut" unicode="&#x2dd;" horiz-adv-x="1067" 
d="M481 1147l176 383h349l-250 -383h-275zM61 1147l154 383h328l-181 -383h-301z" />
    <glyph glyph-name="gravecomb" unicode="&#x300;" 
d="M-164 1147l-244 383h428l142 -383h-326z" />
    <glyph glyph-name="acutecomb" unicode="&#x301;" 
d="M-172 1147l143 383h426l-243 -383h-326z" />
    <glyph glyph-name="uni0302" unicode="&#x302;" 
d="M432 1147h-315l-121 149l-119 -149h-315l278 383h314z" />
    <glyph glyph-name="tildecomb" unicode="&#x303;" 
d="M140 1149q-79 0 -163 45q-87 41 -143 41t-192 -74v277q128 78 202 78t174 -43q84 -43 142 -42t194 72v-276q-135 -78 -214 -78z" />
    <glyph glyph-name="uni0304" unicode="&#x304;" 
d="M-336 1180v270h666v-270h-666z" />
    <glyph glyph-name="uni0306" unicode="&#x306;" 
d="M-5 1141q-187 0 -289 100q-101 100 -101 285h270q0 -141 121 -142q119 0 119 142h270q0 -184 -101 -285q-102 -100 -289 -100z" />
    <glyph glyph-name="uni0307" unicode="&#x307;" 
d="M-4 1133q-94 0 -157 61q-62 62 -62 152t62 151q63 61 157 61t156 -60q62 -62 63 -152q0 -90 -62 -152q-63 -61 -157 -61z" />
    <glyph glyph-name="uni0308" unicode="&#x308;" 
d="M242 1133q-84 0 -145 58q-60 58 -60 140t58 139q59 58 147 58t145 -55t57 -141t-59 -142q-59 -57 -143 -57zM-43 1332q1 -86 -59 -142q-60 -57 -144 -57t-144 59t-60 140t58 138q58 58 146 58t146 -55t57 -141z" />
    <glyph glyph-name="uni030A" unicode="&#x30a;" 
d="M-84 1372q0 -34 24 -58t57 -24t57 24t24 58t-24 59q-24 23 -58 23t-56 -24q-24 -24 -24 -58zM287 1372q0 -122 -82 -200t-210 -78t-209 78t-81 200q0 123 81 201t210 78t210 -78t81 -201z" />
    <glyph glyph-name="uni030B" unicode="&#x30b;" 
d="M72 1147l176 383h348l-250 -383h-274zM-348 1147l153 383h328l-180 -383h-301z" />
    <glyph glyph-name="uni030C" unicode="&#x30c;" 
d="M119 1530h313l-278 -383h-312l-278 383h315l119 -150z" />
    <glyph glyph-name="uni0312" unicode="&#x312;" 
d="M-207 1147l60 383h301l-7 -383h-354z" />
    <glyph glyph-name="uni0326" unicode="&#x326;" 
d="M-197 -449l7 361h346l-54 -361h-299z" />
    <glyph glyph-name="uni0327" unicode="&#x327;" 
d="M-94 -397q-86 0 -178 8v233h120q104 0 105 90q0 57 -41 125l172 58q152 -96 152 -236q0 -278 -330 -278z" />
    <glyph glyph-name="uni0328" unicode="&#x328;" 
d="M-182 -393q-139 0 -219 57q-80 56 -80 154t89 181t247 130l143 -129l-55 -31q-68 -35 -68 -75q0 -53 66 -54h57v-219q-100 -14 -180 -14z" />
    <glyph glyph-name="tonos" unicode="&#x384;" horiz-adv-x="634" 
d="M59 1147l91 383h423l-190 -383h-324z" />
    <glyph glyph-name="dieresistonos" unicode="&#x385;" horiz-adv-x="1415" 
d="M1154 1139q-83 0 -142 57q-60 57 -60 136t58 134q58 56 145 56q86 0 143 -54q58 -54 58 -136q0 -81 -60 -137t-142 -56zM463 1332q1 -81 -59 -137t-143 -56t-142 57t-59 137t58 134q58 55 144 55t144 -54t57 -136zM487 1147l91 383h391l-191 -383h-291z" />
    <glyph glyph-name="Alphatonos" unicode="&#x386;" horiz-adv-x="1517" 
d="M942 528l-131 455l-129 -455h260zM1100 0l-74 240h-430l-76 -240h-418l496 1378h424l496 -1378h-418zM39 983l6 395h391l-121 -395h-276z" />
    <glyph glyph-name="Epsilontonos" unicode="&#x388;" horiz-adv-x="1507" 
d="M543 0v1378h864v-334h-465v-190h444v-311h-444v-209h488v-334h-887zM43 983l6 395h391l-121 -395h-276z" />
    <glyph glyph-name="Etatonos" unicode="&#x389;" horiz-adv-x="1828" 
d="M522 0v1378h398v-491h378v491h398v-1378h-398v528h-378v-528h-398zM43 983l6 395h391l-121 -395h-276z" />
    <glyph glyph-name="Iotatonos" unicode="&#x38a;" horiz-adv-x="1054" 
d="M522 0v1378h400v-1378h-400zM43 983l6 395h391l-121 -395h-276z" />
    <glyph glyph-name="Omicrontonos" unicode="&#x38c;" horiz-adv-x="1896" 
d="M1081 338q150 0 245 99t95 252t-95 252t-245 99q-149 0 -245 -99t-96 -252t95 -252q96 -99 246 -99zM1080 -27q-332 0 -544 202t-212 515t213 514t543 201t544 -202q213 -202 213 -514t-213 -514t-544 -202zM27 983l6 395h391l-121 -395h-276z" />
    <glyph glyph-name="Upsilontonos" unicode="&#x38e;" horiz-adv-x="1798" 
d="M1341 0h-399v590l-457 788h459l199 -413l198 413h457l-457 -788v-590zM43 983l6 395h391l-121 -395h-276z" />
    <glyph glyph-name="Omegatonos" unicode="&#x38f;" horiz-adv-x="1937" 
d="M43 983l6 395h391l-121 -395h-276zM1102 1405q324 0 540 -186q216 -187 216 -455t-193 -445h174v-319h-668v319q270 121 271 377q0 152 -94 248t-245 96t-246 -96t-95 -250q0 -262 270 -375v-319h-665v319h161q-180 180 -180 448t215 453t539 185z" />
    <glyph glyph-name="iotadieresistonos" unicode="&#x390;" horiz-adv-x="634" 
d="M806 1139q-83 0 -142 57q-60 57 -60 136t58 134q58 56 145 56q86 0 143 -54q58 -54 58 -136q0 -81 -60 -137t-142 -56zM-87 1139q-83 0 -142 57t-59 137t58 134q58 55 144 55t143 -54t57 -136q0 -81 -58 -137q-60 -56 -143 -56zM139 1147l90 383h392l-191 -383h-291z
M618 0h-169q-176 0 -261 88q-84 88 -84 272v670h392v-614q0 -88 82 -88h40v-328z" />
    <glyph glyph-name="Alpha" unicode="&#x391;" horiz-adv-x="1415" 
d="M840 528l-131 455l-129 -455h260zM997 0l-73 240h-430l-76 -240h-418l496 1378h424l495 -1378h-418z" />
    <glyph glyph-name="Beta" unicode="&#x392;" horiz-adv-x="1327" 
d="M717 1067h-211v-229h211q59 0 94 30t35 84q0 115 -129 115zM506 311h258q68 0 104 33t37 92q0 59 -39 91t-104 32h-256v-248zM1280 375q0 -175 -129 -275t-348 -100h-668v1378h588q231 0 361 -99t130 -287t-155 -287q221 -90 221 -330z" />
    <glyph glyph-name="Gamma" unicode="&#x393;" horiz-adv-x="1011" 
d="M133 1378h846v-358h-447v-1020h-399v1378z" />
    <glyph glyph-name="uni0394" unicode="&#x394;" horiz-adv-x="1409" 
d="M918 326l-213 673l-209 -673h422zM1311 0h-1213v326l396 1052h424l393 -1052v-326z" />
    <glyph glyph-name="Epsilon" unicode="&#x395;" horiz-adv-x="1097" 
d="M133 0v1378h864v-334h-465v-190h445v-311h-445v-209h488v-334h-887z" />
    <glyph glyph-name="Zeta" unicode="&#x396;" horiz-adv-x="1167" 
d="M1096 358v-358h-1022v326l522 694h-508v358h999v-325l-534 -695h543z" />
    <glyph glyph-name="Eta" unicode="&#x397;" horiz-adv-x="1439" 
d="M133 0v1378h397v-491h379v491h398v-1378h-398v528h-379v-528h-397z" />
    <glyph glyph-name="Theta" unicode="&#x398;" horiz-adv-x="1630" 
d="M590 539v295h452v-295h-452zM457 690q0 -162 100 -266t257 -105q157 1 257 105t100 266t-100 265t-257 103t-257 -102q-100 -104 -100 -266zM814 -27q-331 0 -544 202t-213 515t213 514t544 201t544 -202t213 -514t-213 -514t-544 -202z" />
    <glyph glyph-name="Iota" unicode="&#x399;" horiz-adv-x="665" 
d="M133 0v1378h399v-1378h-399z" />
    <glyph glyph-name="Kappa" unicode="&#x39a;" horiz-adv-x="1368" 
d="M532 0h-399v1378h399v-547l369 547h451l-445 -659l484 -719h-471l-388 590v-590z" />
    <glyph glyph-name="Lambda" unicode="&#x39b;" horiz-adv-x="1376" 
d="M1376 0h-432l-256 870l-258 -870h-430l475 1378h426z" />
    <glyph glyph-name="Mu" unicode="&#x39c;" horiz-adv-x="1802" 
d="M1669 1378v-1378h-373v821l-243 -821h-305l-242 821v-821h-373v1378h516l252 -870l248 870h520z" />
    <glyph glyph-name="Nu" unicode="&#x39d;" horiz-adv-x="1441" 
d="M930 1378h379v-1378h-410l-387 748v-748h-379v1378h412l385 -745v745z" />
    <glyph glyph-name="Xi" unicode="&#x39e;" horiz-adv-x="1218" 
d="M78 0v344h1063v-344h-1063zM147 537v323h924v-323h-924zM78 1034v344h1063v-344h-1063z" />
    <glyph glyph-name="Omicron" unicode="&#x39f;" horiz-adv-x="1630" 
d="M815 338q150 0 245 99t95 252t-95 252t-245 99t-246 -99t-96 -252t96 -252t246 -99zM814 -27q-331 0 -544 202t-213 515t213 514t544 201t544 -202t213 -514t-213 -514t-544 -202z" />
    <glyph glyph-name="Pi" unicode="&#x3a0;" horiz-adv-x="1396" 
d="M133 0v1378h1131v-1378h-398v1020h-336v-1020h-397z" />
    <glyph glyph-name="Rho" unicode="&#x3a1;" horiz-adv-x="1212" 
d="M530 754h113q68 0 109 41t41 109t-41 109q-41 40 -109 40h-113v-299zM133 0v1378h518q246 0 387 -126q142 -126 142 -344t-140 -340t-389 -122h-119v-446h-399z" />
    <glyph glyph-name="Sigma" unicode="&#x3a3;" horiz-adv-x="1105" 
d="M1044 358v-358h-966v334l235 366l-235 344v334h944v-358h-473l225 -315l-235 -347h505z" />
    <glyph glyph-name="Tau" unicode="&#x3a4;" horiz-adv-x="1185" 
d="M381 0v1020h-334v358h1092v-358h-361v-1020h-397z" />
    <glyph glyph-name="Upsilon" unicode="&#x3a5;" horiz-adv-x="1310" 
d="M854 0h-399v590l-457 788h459l198 -413l199 413h457l-457 -788v-590z" />
    <glyph glyph-name="Phi" unicode="&#x3a6;" horiz-adv-x="1744" 
d="M1296 691q0 119 -60 201t-177 107v-620q117 27 177 109t60 203zM451 691q0 -120 60 -203t177 -109v620q-117 -25 -177 -107t-60 -201zM1688 689q0 -251 -164 -437t-451 -221v-174h-399v172q-289 35 -452 222t-163 439t163 438t452 222v172h399v-172q289 -34 452 -222
t163 -439z" />
    <glyph glyph-name="Chi" unicode="&#x3a7;" horiz-adv-x="1396" 
d="M1374 0h-452l-224 414l-225 -414h-450l423 709l-399 669h449l204 -377l195 377h451l-396 -669z" />
    <glyph glyph-name="Psi" unicode="&#x3a8;" horiz-adv-x="1716" 
d="M659 0v287q-279 0 -439 146t-161 401v544h398v-536q0 -102 48 -148t154 -47v783h396v-783q106 0 154 46t48 149v536h398v-544q0 -254 -160 -400t-440 -147v-287h-396z" />
    <glyph glyph-name="uni03A9" unicode="&#x3a9;" horiz-adv-x="1669" 
d="M834 1405q324 0 540 -186q216 -187 215 -455q0 -268 -192 -445h174v-319h-668v319q270 121 271 377q0 152 -94 248t-246 96q-150 0 -245 -96t-95 -250q0 -262 270 -375v-319h-666v319h162q-180 180 -180 448t215 453t539 185z" />
    <glyph glyph-name="Iotadieresis" unicode="&#x3aa;" horiz-adv-x="665" 
d="M133 0v1378h399v-1378h-399zM586 1477q-88 0 -151 59q-62 59 -62 142q0 82 61 142q62 60 152 60t150 -57t60 -143t-60 -145q-62 -58 -150 -58zM78 1477q-88 0 -151 59q-62 59 -62 142q0 82 61 142q62 60 152 60t150 -57t60 -143t-60 -145q-62 -58 -150 -58z" />
    <glyph glyph-name="Upsilondieresis" unicode="&#x3ab;" horiz-adv-x="1310" 
d="M854 0h-399v590l-457 788h459l198 -413l199 413h457l-457 -788v-590zM909 1880q91 0 151 -57t60 -143t-62 -145q-62 -58 -149 -58q-88 0 -150 59q-63 59 -63 142q0 82 62 142t151 60zM401 1880q91 0 151 -57t60 -143t-62 -145q-62 -58 -149 -58q-88 0 -150 59
q-63 59 -63 142q0 82 62 142t151 60z" />
    <glyph glyph-name="alphatonos" unicode="&#x3ac;" horiz-adv-x="1316" 
d="M502 1147l90 383h424l-191 -383h-323zM625 313q80 -1 129 55t49 147t-49 147t-129 55q-80 0 -130 -55q-51 -56 -51 -146t50 -146t131 -57zM1260 328h43v-328h-179q-170 0 -243 100q-117 -127 -332 -127q-215 -1 -353 145t-138 392t132 396q133 150 351 151
q184 0 282 -139v112h355v-610q0 -92 82 -92z" />
    <glyph glyph-name="epsilontonos" unicode="&#x3ad;" horiz-adv-x="1044" 
d="M377 1147l90 383h424l-191 -383h-323zM82 752q0 135 124 219t322 84q198 -1 326 -101q129 -100 131 -270h-332q-13 84 -117 84t-104 -73t98 -72h134v-205h-152q-109 0 -109 -74q0 -80 128 -80t135 96h340q-2 -186 -134 -286t-359 -100q-226 0 -356 84q-130 85 -130 241
q0 181 168 242q-113 76 -113 211z" />
    <glyph glyph-name="etatonos" unicode="&#x3ae;" horiz-adv-x="1259" 
d="M475 1147l90 383h424l-190 -383h-324zM744 1055q196 0 308 -115t111 -309v-965h-391v907q0 59 -33 95t-88 34q-55 0 -89 -34t-34 -95v-573h-389v614q0 88 -84 88h-41v328h187q168 0 237 -102q110 127 306 127z" />
    <glyph glyph-name="iotatonos" unicode="&#x3af;" horiz-adv-x="634" 
d="M139 1147l90 383h424l-190 -383h-324zM618 0h-169q-176 0 -261 88q-84 88 -84 272v670h392v-614q0 -88 82 -88h40v-328z" />
    <glyph glyph-name="upsilondieresistonos" unicode="&#x3b0;" horiz-adv-x="1275" 
d="M1325 1332q1 -81 -59 -137t-143 -56t-142 57t-59 136t58 134q58 56 144 56t144 -54t57 -136zM432 1332q0 -81 -60 -137t-142 -56q-83 0 -142 57t-59 137t58 134q58 55 144 55q85 0 143 -54t58 -136zM457 1147l90 383h391l-190 -383h-291zM1217 549q0 -279 -147 -427
t-410 -149q-264 -1 -414 145t-150 392v520h391v-526q0 -88 42 -133t118 -45q172 0 172 192t-59 512h379q78 -293 78 -481z" />
    <glyph glyph-name="alpha" unicode="&#x3b1;" horiz-adv-x="1316" 
d="M625 313q80 -1 129 55t49 147t-49 147t-129 55q-80 0 -130 -55q-51 -56 -51 -146t50 -146t131 -57zM1260 328h43v-328h-179q-170 0 -243 100q-117 -127 -332 -127q-215 -1 -353 145t-138 392t132 396q133 150 351 151q184 0 282 -139v112h355v-610q0 -92 82 -92z" />
    <glyph glyph-name="beta" unicode="&#x3b2;" horiz-adv-x="1310" 
d="M694 313q92 0 136 38q42 38 42 102q0 137 -174 137h-86v223h54q68 0 106 33t37 91q0 58 -42 94t-112 36q-69 0 -115 -44t-46 -116v-524q108 -70 200 -70zM1257 429q0 -202 -139 -329t-356 -127q-152 0 -266 68v-375h-392v1208q0 248 150 390t402 141q252 0 394 -110
t142 -296q0 -151 -121 -249q186 -119 186 -321z" />
    <glyph glyph-name="gamma" unicode="&#x3b3;" horiz-adv-x="1189" 
d="M752 1030h395q0 -205 -31 -338t-129 -313l-215 -391v-322h-391v314l-387 1050h412l184 -616l63 129q61 123 80 216t19 271z" />
    <glyph glyph-name="delta" unicode="&#x3b4;" horiz-adv-x="1181" 
d="M591 287q73 0 120 48t47 119q0 72 -47 116t-120 44t-120 -45t-47 -117t47 -118q47 -47 120 -47zM125 1378h926v-311h-408l209 -158q279 -205 278 -444q0 -217 -148 -354t-393 -137t-391 127q-146 128 -147 337q1 172 99 288t251 148l-276 220v284z" />
    <glyph glyph-name="epsilon" unicode="&#x3b5;" horiz-adv-x="1044" 
d="M82 752q0 135 124 219t322 84q198 -1 326 -101q129 -100 131 -270h-332q-13 84 -117 84t-104 -73t98 -72h134v-205h-152q-109 0 -109 -74q0 -80 128 -80t135 96h340q-2 -186 -134 -286t-359 -100q-226 0 -356 84q-130 85 -130 241q0 181 168 242q-113 76 -113 211z" />
    <glyph glyph-name="zeta" unicode="&#x3b6;" horiz-adv-x="985" 
d="M469 457q0 -154 311 -199l164 -22v-570h-375v293l-65 12q-213 37 -333 149t-120 275q0 127 52 233t178 234l186 189h-338v327h848v-303l-352 -346q-90 -92 -123 -149t-33 -123z" />
    <glyph glyph-name="eta" unicode="&#x3b7;" horiz-adv-x="1259" 
d="M744 1055q196 0 308 -115t111 -309v-965h-391v907q0 59 -33 95t-88 34q-55 0 -89 -34t-34 -95v-573h-389v614q0 88 -84 88h-41v328h187q168 0 237 -102q110 127 306 127z" />
    <glyph glyph-name="theta" unicode="&#x3b8;" horiz-adv-x="1353" 
d="M676 289q190 0 221 280h-442q31 -280 221 -280zM676 1090q-182 0 -217 -238h434q-35 238 -217 238zM676 1405q276 0 433 -186q157 -187 157 -523t-158 -530t-432 -193q-274 0 -432 194q-158 193 -158 529t157 522t433 187z" />
    <glyph glyph-name="iota" unicode="&#x3b9;" horiz-adv-x="634" 
d="M618 0h-169q-176 0 -261 88q-84 88 -84 272v670h392v-614q0 -88 82 -88h40v-328z" />
    <glyph glyph-name="kappa" unicode="&#x3ba;" horiz-adv-x="1171" 
d="M496 0h-392v1030h392v-385l262 385h416l-326 -481l352 -549h-432l-272 438v-438z" />
    <glyph glyph-name="lambda" unicode="&#x3bb;" horiz-adv-x="1155" 
d="M1092 328h53v-328h-162q-127 0 -201 53t-123 183l-73 196l-158 -432h-412l369 895l-37 80q-18 43 -49 59t-90 17h-62v327h187q154 0 245 -63t152 -228l254 -681q18 -46 40 -62t67 -16z" />
    <glyph glyph-name="uni03BC" unicode="&#x3bc;" horiz-adv-x="1267" 
d="M1210 328h43v-328h-149q-154 0 -238 84q-86 -100 -229 -100q-90 0 -160 43v-361h-373v1364h392v-573q0 -59 31 -95q32 -34 87 -34t89 34t34 93v575h391v-614q0 -88 82 -88z" />
    <glyph glyph-name="nu" unicode="&#x3bd;" horiz-adv-x="1189" 
d="M752 1030h395q0 -170 -37 -305t-135 -336l-189 -389h-421l-371 1030h412l180 -631l67 146q57 117 78 220t21 265z" />
    <glyph glyph-name="xi" unicode="&#x3be;" horiz-adv-x="1126" 
d="M465 432q0 -55 51 -82t195 -45l321 -43v-596h-375v295l-190 25q-440 61 -440 401q0 221 209 332q-150 99 -150 281t138 294t368 111q230 0 368 -122t144 -331h-356q-23 113 -138 113q-57 0 -92 -31t-35 -78q0 -111 160 -110h184v-305h-206q-156 0 -156 -109z" />
    <glyph glyph-name="omicron" unicode="&#x3bf;" horiz-adv-x="1253" 
d="M627 311q84 1 135 57t51 146t-51 146t-135 56q-85 0 -137 -56t-52 -146t52 -146t137 -57zM626 1057q244 0 410 -156t166 -386t-166 -386t-410 -156q-245 0 -410 155t-165 386t165 387t410 156z" />
    <glyph glyph-name="pi" unicode="&#x3c0;" horiz-adv-x="1351" 
d="M168 0v702h-160v328h1309v-328h-148v-280q0 -94 86 -94h39v-328h-153q-360 0 -361 360v342h-221v-702h-391z" />
    <glyph glyph-name="rho" unicode="&#x3c1;" horiz-adv-x="1304" 
d="M672 313q84 -1 135 55t51 147t-51 147t-135 55q-84 0 -136 -55q-52 -54 -52 -146t52 -148t136 -55zM96 449q0 281 154 443t413 163q259 0 421 -152t163 -385q0 -233 -145 -389t-359 -156q-145 0 -256 78v-385h-391v783z" />
    <glyph glyph-name="uni03C2" unicode="&#x3c2;" horiz-adv-x="1185" 
d="M438 504q0 -100 81 -147q81 -48 241 -68l274 -37v-586h-377v291l-49 8q-557 91 -557 547q0 228 155 386t385 159q229 0 375 -132t169 -352h-373q-25 139 -152 140q-80 -1 -126 -55t-46 -154z" />
    <glyph glyph-name="sigma" unicode="&#x3c3;" horiz-adv-x="1347" 
d="M627 311q84 1 135 57t51 145t-51 144t-135 55q-85 0 -137 -54q-52 -56 -52 -145t52 -145t137 -57zM1325 1030v-328h-192q61 -106 61 -229q0 -213 -164 -356t-408 -143t-407 153q-164 154 -164 389q0 234 161 374t431 140h682z" />
    <glyph glyph-name="tau" unicode="&#x3c4;" horiz-adv-x="978" 
d="M940 702h-283v-264q0 -59 29 -85t98 -25h117v-328h-184q-229 0 -340 96t-111 295v311h-260v328h934v-328z" />
    <glyph glyph-name="upsilon" unicode="&#x3c5;" horiz-adv-x="1275" 
d="M1217 549q0 -279 -147 -427t-410 -149q-264 -1 -414 145t-150 392v520h391v-526q0 -88 42 -133t118 -45q172 0 172 192t-59 512h379q78 -293 78 -481z" />
    <glyph glyph-name="phi" unicode="&#x3c6;" horiz-adv-x="1671" 
d="M1233 516q0 104 -56 160q-57 55 -161 59v-440q102 4 160 61q57 56 57 160zM438 516q0 -104 56 -160t161 -61v440q-217 -10 -217 -219zM639 -334v307q-274 5 -431 151t-157 392t160 390t428 149v323h391v-323q276 -3 433 -145t157 -394t-154 -395t-436 -148v-307h-391z
" />
    <glyph glyph-name="chi" unicode="&#x3c7;" horiz-adv-x="1191" 
d="M1118 -6h64v-328h-185q-117 0 -181 36t-122 134l-108 189l-207 -359h-387l395 676l-164 291q-41 70 -141 69h-66v328h172q123 0 191 -37t127 -135l102 -182l203 354h383l-387 -674l160 -280q29 -47 61 -65q33 -17 90 -17z" />
    <glyph glyph-name="psi" unicode="&#x3c8;" horiz-adv-x="1732" 
d="M678 -334v309q-272 1 -427 143t-155 392v520h391v-487q0 -217 191 -217v1005h391v-1005q205 0 205 180q0 193 -57 524h380q74 -266 74 -475q0 -270 -162 -426t-440 -154v-309h-391z" />
    <glyph glyph-name="omega" unicode="&#x3c9;" horiz-adv-x="1685" 
d="M1624 537q0 -254 -124 -409t-338 -155t-320 156q-104 -156 -320 -156t-338 155q-123 155 -123 409q1 153 47 291t121 210h387q-156 -217 -155 -532q-1 -84 27 -132t77 -48q98 0 99 129v395h358v-404q0 -121 96 -120q51 0 79 48t28 132q0 321 -156 526h387
q76 -74 122 -209t46 -286z" />
    <glyph glyph-name="iotadieresis" unicode="&#x3ca;" horiz-adv-x="634" 
d="M547 1133q-84 0 -145 58q-60 58 -60 140t58 139q58 58 146 58t146 -55t58 -141t-60 -142q-60 -57 -143 -57zM262 1332q0 -86 -60 -142q-60 -57 -143 -57q-84 0 -144 59t-60 140t58 138q58 58 146 58q87 0 145 -55t58 -141zM618 0h-169q-176 0 -261 88q-84 88 -84 272v670
h392v-614q0 -88 82 -88h40v-328z" />
    <glyph glyph-name="upsilondieresis" unicode="&#x3cb;" horiz-adv-x="1275" 
d="M1067 1332q1 -86 -59 -142q-60 -57 -144 -57t-144 58t-60 140t58 139q58 58 146 58t146 -55t57 -141zM377 1133q-84 0 -145 59q-60 59 -60 140t58 138q58 58 146 58t146 -55t58 -141t-60 -142q-60 -57 -143 -57zM1217 549q0 -279 -147 -427t-410 -149q-264 -1 -414 145
t-150 392v520h391v-526q0 -88 42 -133t118 -45q172 0 172 192t-59 512h379q78 -293 78 -481z" />
    <glyph glyph-name="omicrontonos" unicode="&#x3cc;" horiz-adv-x="1253" 
d="M627 311q84 1 135 57t51 146t-51 146t-135 56q-85 0 -137 -56t-52 -146t52 -146t137 -57zM626 1057q244 0 410 -156t166 -386t-166 -386t-410 -156q-245 0 -410 155t-165 386t165 387t410 156zM457 1147l90 383h424l-191 -383h-323z" />
    <glyph glyph-name="upsilontonos" unicode="&#x3cd;" horiz-adv-x="1275" 
d="M457 1147l90 383h424l-191 -383h-323zM1217 549q0 -279 -147 -427t-410 -149q-264 -1 -414 145t-150 392v520h391v-526q0 -88 42 -133t118 -45q172 0 172 192t-59 512h379q78 -293 78 -481z" />
    <glyph glyph-name="omegatonos" unicode="&#x3ce;" horiz-adv-x="1685" 
d="M680 1147l90 383h424l-190 -383h-324zM1624 537q0 -254 -124 -409t-338 -155t-320 156q-104 -156 -320 -156t-338 155q-123 155 -123 409q1 153 47 291t121 210h387q-156 -217 -155 -532q-1 -84 27 -132t77 -48q98 0 99 129v395h358v-404q0 -121 96 -120q51 0 79 48
t28 132q0 321 -156 526h387q76 -74 122 -209t46 -286z" />
    <glyph glyph-name="uni0400" unicode="&#x400;" horiz-adv-x="1097" 
d="M408 1487l-244 389h438l135 -389h-329zM133 0v1378h864v-334h-465v-190h445v-311h-445v-209h488v-334h-887z" />
    <glyph glyph-name="uni0401" unicode="&#x401;" horiz-adv-x="1097" 
d="M825 1880q91 0 151 -57t60 -143t-62 -145q-62 -58 -149 -58q-88 0 -150 59q-63 59 -63 142q0 82 62 142t151 60zM317 1880q91 0 151 -57t60 -143t-62 -145q-62 -58 -149 -58q-88 0 -150 59q-63 59 -63 142q0 82 62 142t151 60zM133 0v1378h864v-334h-465v-190h445v-311
h-445v-209h488v-334h-887z" />
    <glyph glyph-name="uni0402" unicode="&#x402;" horiz-adv-x="1484" 
d="M930 864q236 0 370 -116t136 -318q0 -465 -586 -440v315q96 0 137 27t41 88q0 113 -166 112q-86 0 -166 -26v-506h-399v1032h-248v346h985v-346h-338v-192q111 24 234 24z" />
    <glyph glyph-name="uni0403" unicode="&#x403;" horiz-adv-x="1011" 
d="M408 1487l137 389h450l-258 -389h-329zM133 1378h846v-358h-447v-1020h-399v1378z" />
    <glyph glyph-name="uni0404" unicode="&#x404;" horiz-adv-x="1589" 
d="M811 338q117 0 200 66t109 182h414q-23 -274 -223 -444q-201 -169 -517 -169t-526 200q-209 200 -209 515t209 516q210 201 526 201t518 -170t222 -442h-414q-28 115 -110 181t-198 66t-198 -53t-118 -145h442v-295h-446q35 -98 118 -154q84 -55 201 -55z" />
    <glyph glyph-name="uni0405" unicode="&#x405;" horiz-adv-x="1161" 
d="M586 -29q-246 0 -392 127t-153 351h379q2 -166 158 -166q63 1 102 29t39 72t-27 70t-94 50l-156 55q-358 125 -358 432q0 186 139 300t365 114t354 -115q129 -115 143 -327h-370q-6 133 -127 133q-51 0 -84 -27t-33 -68t28 -69t91 -51l164 -62q194 -72 276 -164t82 -243
q0 -205 -140 -323t-386 -118z" />
    <glyph glyph-name="uni0406" unicode="&#x406;" horiz-adv-x="665" 
d="M133 0v1378h399v-1378h-399z" />
    <glyph glyph-name="uni0407" unicode="&#x407;" horiz-adv-x="665" 
d="M133 0v1378h399v-1378h-399zM582 1477q-88 0 -151 59q-62 59 -62 142q0 82 61 142q62 60 152 60t150 -57t60 -143t-60 -145q-62 -58 -150 -58zM74 1477q-88 0 -151 59q-62 59 -62 142q0 82 61 142q62 60 152 60t150 -57t60 -143t-60 -145q-62 -58 -150 -58z" />
    <glyph glyph-name="uni0408" unicode="&#x408;" horiz-adv-x="811" 
d="M12 0v358h115q82 0 118 29t36 92v899h397v-956q0 -422 -469 -422h-197z" />
    <glyph glyph-name="uni0409" unicode="&#x409;" horiz-adv-x="1867" 
d="M1169 348h109q61 0 97 37t36 101t-35 103q-35 38 -98 38h-109v-279zM-18 -14v362q131 0 186 104t55 330v596h948v-403h134q237 0 375 -131q138 -130 138 -356t-138 -357t-375 -131h-533v1020h-172v-238q0 -418 -144 -607t-474 -189z" />
    <glyph glyph-name="uni040A" unicode="&#x40a;" horiz-adv-x="2043" 
d="M1284 348h170q63 0 98 36t35 102t-35 102q-35 37 -98 37h-170v-277zM133 0v1378h399v-487h353v487h399v-405h197q239 0 375 -131q136 -130 136 -356t-135 -356q-136 -130 -376 -130h-596v532h-353v-532h-399z" />
    <glyph glyph-name="uni040B" unicode="&#x40b;" horiz-adv-x="1499" 
d="M885 862q254 0 395 -142t141 -398v-322h-399v301q0 209 -195 209q-66 0 -131 -23v-487h-399v1032h-248v346h985v-346h-338v-196q103 26 189 26z" />
    <glyph glyph-name="uni040C" unicode="&#x40c;" horiz-adv-x="1368" 
d="M532 0h-399v1378h399v-547l369 547h451l-445 -659l484 -719h-471l-388 590v-590zM551 1487l137 389h451l-258 -389h-330z" />
    <glyph glyph-name="uni040D" unicode="&#x40d;" horiz-adv-x="1441" 
d="M557 1487l-244 389h439l135 -389h-330zM1311 1378v-1378h-398v762l-383 -762h-395v1378h397v-757l379 757h400z" />
    <glyph glyph-name="uni040E" unicode="&#x40e;" horiz-adv-x="1384" 
d="M709 1477q-205 -1 -326 107t-121 288h281q0 -62 47 -102t120 -40q74 0 120 40q46 38 47 102h280q1 -180 -121 -288t-327 -107zM950 1378h455l-694 -1378h-455l229 428l-499 950h458l265 -561z" />
    <glyph glyph-name="uni040F" unicode="&#x40f;" horiz-adv-x="1400" 
d="M1268 1378v-1378h-375v-256h-381v256h-379v1378h399v-1020h338v1020h398z" />
    <glyph glyph-name="uni0410" unicode="&#x410;" horiz-adv-x="1415" 
d="M840 528l-131 455l-129 -455h260zM997 0l-73 240h-430l-76 -240h-418l496 1378h424l495 -1378h-418z" />
    <glyph glyph-name="uni0411" unicode="&#x411;" horiz-adv-x="1288" 
d="M524 322h228q123 0 122 120q0 123 -122 123h-228v-243zM133 0v1378h1000v-321h-607v-191h271q203 0 323 -116t119 -313q0 -197 -122 -317t-320 -120h-664z" />
    <glyph glyph-name="uni0412" unicode="&#x412;" horiz-adv-x="1327" 
d="M717 1067h-211v-229h211q59 0 94 30t35 84q0 115 -129 115zM506 311h258q68 0 104 33t37 92q0 59 -39 91t-104 32h-256v-248zM1280 375q0 -175 -129 -275t-348 -100h-668v1378h588q231 0 361 -99t130 -287t-155 -287q221 -90 221 -330z" />
    <glyph glyph-name="uni0413" unicode="&#x413;" horiz-adv-x="1011" 
d="M133 1378h846v-358h-447v-1020h-399v1378z" />
    <glyph glyph-name="uni0414" unicode="&#x414;" horiz-adv-x="1509" 
d="M651 1020v-203q0 -291 -125 -459h375v662h-250zM1290 358h193v-614h-373v256h-717v-256h-370v614h43q100 0 161 121t62 338v561h1001v-1020z" />
    <glyph glyph-name="uni0415" unicode="&#x415;" horiz-adv-x="1097" 
d="M133 0v1378h864v-334h-465v-190h445v-311h-445v-209h488v-334h-887z" />
    <glyph glyph-name="uni0416" unicode="&#x416;" horiz-adv-x="2041" 
d="M1223 0h-400v596l-379 -596h-469l474 717l-435 661h449l360 -553v553h400v-542l356 542h449l-435 -659l471 -719h-467l-374 588v-588z" />
    <glyph glyph-name="uni0417" unicode="&#x417;" horiz-adv-x="1138" 
d="M560 -27q-251 0 -390 129t-145 365h372q2 -68 48 -107q46 -38 112 -38t108 38t42 94t-40 93t-122 37h-119v258h104q76 0 113 34t37 84t-39 88t-105 38t-107 -40q-42 -38 -44 -114h-344q12 225 148 349q137 124 359 124t354 -113t132 -299t-166 -276q227 -100 228 -332
q0 -176 -142 -294t-394 -118z" />
    <glyph glyph-name="uni0418" unicode="&#x418;" horiz-adv-x="1441" 
d="M1311 1378v-1378h-398v762l-383 -762h-395v1378h397v-757l379 757h400z" />
    <glyph glyph-name="uni0419" unicode="&#x419;" horiz-adv-x="1441" 
d="M1178 1872q0 -186 -122 -290t-335 -105q-213 0 -336 105t-123 290h281q0 -66 48 -104t130 -38t129 38t47 104h281zM1311 1378v-1378h-398v762l-383 -762h-395v1378h397v-757l379 757h400z" />
    <glyph glyph-name="uni041A" unicode="&#x41a;" horiz-adv-x="1368" 
d="M532 0h-399v1378h399v-547l369 547h451l-445 -659l484 -719h-471l-388 590v-590z" />
    <glyph glyph-name="uni041B" unicode="&#x41b;" horiz-adv-x="1376" 
d="M-18 -14v372q131 0 184 102t53 333v585h1024v-1378h-397v1020h-250v-238q0 -418 -143 -607t-471 -189z" />
    <glyph glyph-name="uni041C" unicode="&#x41c;" horiz-adv-x="1802" 
d="M1669 1378v-1378h-373v821l-243 -821h-305l-242 821v-821h-373v1378h516l252 -870l248 870h520z" />
    <glyph glyph-name="uni041D" unicode="&#x41d;" horiz-adv-x="1439" 
d="M133 0v1378h397v-491h379v491h398v-1378h-398v528h-379v-528h-397z" />
    <glyph glyph-name="uni041E" unicode="&#x41e;" horiz-adv-x="1630" 
d="M815 338q150 0 245 99t95 252t-95 252t-245 99t-246 -99t-96 -252t96 -252t246 -99zM814 -27q-331 0 -544 202t-213 515t213 514t544 201t544 -202t213 -514t-213 -514t-544 -202z" />
    <glyph glyph-name="uni041F" unicode="&#x41f;" horiz-adv-x="1398" 
d="M133 0v1378h1135v-1378h-400v1020h-336v-1020h-399z" />
    <glyph glyph-name="uni0420" unicode="&#x420;" horiz-adv-x="1212" 
d="M530 754h113q68 0 109 41t41 109t-41 109q-41 40 -109 40h-113v-299zM133 0v1378h518q246 0 387 -126q142 -126 142 -344t-140 -340t-389 -122h-119v-446h-399z" />
    <glyph glyph-name="uni0421" unicode="&#x421;" horiz-adv-x="1597" 
d="M794 -27q-316 0 -527 201q-210 201 -210 514t210 515q211 202 527 202t521 -170t225 -442h-416q-28 113 -114 181t-219 66q-133 0 -225 -97t-93 -253q0 -156 92 -254q91 -98 225 -98t221 68t113 180h416q-20 -272 -225 -442t-521 -171z" />
    <glyph glyph-name="uni0422" unicode="&#x422;" horiz-adv-x="1185" 
d="M381 0v1020h-334v358h1092v-358h-361v-1020h-397z" />
    <glyph glyph-name="uni0423" unicode="&#x423;" horiz-adv-x="1384" 
d="M950 1378h455l-694 -1378h-455l229 428l-499 950h458l265 -561z" />
    <glyph glyph-name="uni0424" unicode="&#x424;" horiz-adv-x="1765" 
d="M1321 698q1 112 -67 182q-68 68 -185 74v-503q119 3 185 69t67 178zM446 698q0 -112 67 -178t185 -69v503q-116 -4 -184 -74t-68 -182zM1706 707q0 -244 -174 -406t-449 -174v-127h-399v127q-276 14 -451 176q-174 162 -174 404q0 243 174 399t451 170v102h399v-102
q275 -12 449 -168t174 -401z" />
    <glyph glyph-name="uni0425" unicode="&#x425;" horiz-adv-x="1396" 
d="M1374 0h-452l-224 414l-225 -414h-450l423 709l-399 669h449l204 -377l195 377h451l-396 -669z" />
    <glyph glyph-name="uni0426" unicode="&#x426;" horiz-adv-x="1488" 
d="M1081 -256v256h-948v1378h399v-1020h340v1020h400v-1020h190v-614h-381z" />
    <glyph glyph-name="uni0427" unicode="&#x427;" horiz-adv-x="1345" 
d="M813 1378h401v-1378h-401v422q-96 -25 -186 -25q-259 1 -403 143t-144 402v436h399v-399q0 -213 209 -213q63 0 125 20v592z" />
    <glyph glyph-name="uni0428" unicode="&#x428;" horiz-adv-x="1904" 
d="M133 0v1378h383v-1020h252v1020h371v-1020h252v1020h383v-1378h-1641z" />
    <glyph glyph-name="uni0429" unicode="&#x429;" horiz-adv-x="1990" 
d="M1581 -256v256h-1448v1378h383v-1020h252v1020h369v-1020h254v1020h383v-1020h188v-614h-381z" />
    <glyph glyph-name="uni042A" unicode="&#x42a;" horiz-adv-x="1318" 
d="M592 348h137q63 0 99 37t36 101t-36 103q-36 38 -99 38h-137v-279zM195 0v1020h-263v358h660v-403h162q238 0 376 -132q138 -133 140 -357q0 -224 -138 -355t-378 -131h-559z" />
    <glyph glyph-name="uni042B" unicode="&#x42b;" horiz-adv-x="1857" 
d="M1327 0v1378h399v-1378h-399zM530 348h136q63 0 99 37t36 101t-36 103q-36 38 -99 38h-136v-279zM133 0v1378h399v-403h160q238 0 377 -132q139 -133 139 -357t-138 -355t-378 -131h-559z" />
    <glyph glyph-name="uni042C" unicode="&#x42c;" horiz-adv-x="1259" 
d="M530 348h136q63 0 99 37t36 101t-36 103q-36 38 -99 38h-136v-279zM133 0v1378h399v-403h160q238 0 377 -132q139 -133 139 -357t-138 -355t-378 -131h-559z" />
    <glyph glyph-name="uni042D" unicode="&#x42d;" horiz-adv-x="1589" 
d="M778 338q117 0 201 55t119 154h-447v295h443q-37 92 -119 145t-198 53q-117 0 -199 -66t-109 -181h-414q21 272 223 442t518 170t525 -201t209 -516t-209 -515t-525 -200t-518 169q-200 169 -223 444h414q27 -116 109 -182t200 -66z" />
    <glyph glyph-name="uni042E" unicode="&#x42e;" horiz-adv-x="2207" 
d="M1395 338q151 0 245 99t94 252t-94 252q-96 99 -246 99t-245 -99q-96 -99 -96 -252t96 -252t246 -99zM1395 -27q-283 0 -484 150t-256 397h-123v-520h-399v1378h399v-499h127q59 238 259 382t477 144q331 0 543 -202t212 -514t-212 -514t-543 -202z" />
    <glyph glyph-name="uni042F" unicode="&#x42f;" horiz-adv-x="1298" 
d="M766 750v305h-133q-68 0 -109 -41t-41 -111q0 -69 41 -111t109 -42h133zM629 1378h536v-1378h-399v442h-51l-242 -442h-459l310 508q-225 115 -226 395q0 223 142 349t389 126z" />
    <glyph glyph-name="uni0430" unicode="&#x430;" horiz-adv-x="1126" 
d="M522 221q63 0 102 37q38 37 38 102v46h-136q-51 0 -80 -25t-28 -70q0 -90 104 -90zM558 1057q216 0 344 -115t128 -315v-627h-344v80q-113 -106 -284 -106t-264 82q-93 83 -93 232q-1 148 105 232t303 84h209v41q0 67 -34 101t-91 34q-102 0 -115 -106h-336
q8 180 132 282t340 101z" />
    <glyph glyph-name="uni0431" unicode="&#x431;" horiz-adv-x="1206" 
d="M457 441q0 -71 49 -119t120 -48q72 0 118 50t46 120t-46 115t-118 45t-121 -46q-48 -46 -48 -117zM716 897q180 0 310 -126q131 -127 131 -327t-147 -335t-393 -135t-400 161q-154 162 -154 434v31q-1 348 137 522t462 236l413 80v-346l-411 -68q-132 -23 -190 -71
t-64 -140q126 84 306 84z" />
    <glyph glyph-name="uni0432" unicode="&#x432;" horiz-adv-x="1124" 
d="M457 260h172q92 0 92 79t-92 79h-172v-158zM457 780v-149h143q39 0 62 20q22 21 22 55t-22 54q-23 20 -62 20h-143zM1081 305q0 -139 -100 -222t-268 -83h-598v1030h514q185 0 289 -75t104 -211t-115 -203q174 -66 174 -236z" />
    <glyph glyph-name="uni0433" unicode="&#x433;" horiz-adv-x="860" 
d="M115 0v1030h731v-328h-340v-702h-391z" />
    <glyph glyph-name="uni0434" unicode="&#x434;" horiz-adv-x="1378" 
d="M610 723v-84q0 -203 -102 -315h276v399h-174zM1171 324h177v-580h-371v256h-578v-256h-372v580h49q172 0 172 331v375h923v-706z" />
    <glyph glyph-name="uni0435" unicode="&#x435;" horiz-adv-x="1208" 
d="M618 772q-145 0 -200 -141h391q-13 65 -65 103t-126 38zM53 510q-1 238 159 392t413 155q253 0 405 -175t125 -450h-745q20 -80 78 -127t143 -47q129 0 160 88h354q-47 -176 -183 -274t-337 -99q-252 0 -412 150q-160 149 -160 387z" />
    <glyph glyph-name="uni0436" unicode="&#x436;" horiz-adv-x="1712" 
d="M1051 0h-392v430l-262 -430h-426l342 545l-317 485h412l251 -389v389h392v-391l254 391h411l-319 -483l342 -547h-426l-262 430v-430z" />
    <glyph glyph-name="uni0437" unicode="&#x437;" horiz-adv-x="1044" 
d="M1018 299q0 -156 -130 -241t-356 -85q-226 1 -359 101q-132 100 -134 286h340q6 -96 134 -96t128 80q0 74 -109 74h-151v205h133q98 1 98 73t-104 72t-117 -84h-332q2 170 131 270q128 100 326 100t322 -83q124 -84 125 -219q0 -135 -113 -211q168 -61 168 -242z" />
    <glyph glyph-name="uni0438" unicode="&#x438;" horiz-adv-x="1265" 
d="M1151 1032v-1032h-389v481l-307 -485h-340v1034h391v-469l299 471h346z" />
    <glyph glyph-name="uni0439" unicode="&#x439;" horiz-adv-x="1265" 
d="M1024 1526q0 -186 -101 -286t-293 -99q-192 0 -293 99t-101 286h268q0 -141 127 -142q123 0 123 142h270zM1151 1032v-1032h-389v481l-307 -485h-340v1034h391v-469l299 471h346z" />
    <glyph glyph-name="uni043A" unicode="&#x43a;" horiz-adv-x="1177" 
d="M506 0h-391v1030h391v-401l258 401h416l-320 -498l344 -532h-430l-268 414v-414z" />
    <glyph glyph-name="uni043B" unicode="&#x43b;" horiz-adv-x="1239" 
d="M0 -10v334q111 0 155 74t44 251v381h925v-1030h-389v705h-168v-117q0 -324 -129 -461t-438 -137z" />
    <glyph glyph-name="uni043C" unicode="&#x43c;" horiz-adv-x="1499" 
d="M1384 1030v-1030h-317v582l-195 -582h-245l-195 588v-588h-317v1030h458l179 -573l174 573h458z" />
    <glyph glyph-name="uni043D" unicode="&#x43d;" horiz-adv-x="1255" 
d="M115 0v1030h391v-348h246v348h389v-1030h-389v358h-246v-358h-391z" />
    <glyph glyph-name="uni043E" unicode="&#x43e;" horiz-adv-x="1253" 
d="M627 311q84 1 135 57t51 146t-51 146t-135 56q-85 0 -137 -56t-52 -146t52 -146t137 -57zM626 1057q244 0 410 -156t166 -386t-166 -386t-410 -156q-245 0 -410 155t-165 386t165 387t410 156z" />
    <glyph glyph-name="uni043F" unicode="&#x43f;" horiz-adv-x="1241" 
d="M113 0v1030h1015v-1030h-391v702h-233v-702h-391z" />
    <glyph glyph-name="uni0440" unicode="&#x440;" horiz-adv-x="1296" 
d="M666 313q84 -1 135 55t51 147t-51 147t-135 55q-84 0 -134 -55q-50 -54 -51 -146q1 -92 51 -148t134 -55zM764 1057q205 0 340 -152q135 -153 135 -391t-133 -390t-344 -151q-166 0 -266 107v-414h-392v1364h357v-108q98 135 303 135z" />
    <glyph glyph-name="uni0441" unicode="&#x441;" horiz-adv-x="1212" 
d="M604 -27q-230 0 -392 155t-161 386q0 231 162 387t391 156t380 -128t177 -335h-373q-35 119 -165 119q-81 -1 -133 -55t-52 -143t51 -143t134 -55q131 0 165 119h373q-27 -207 -177 -335t-380 -128z" />
    <glyph glyph-name="uni0442" unicode="&#x442;" horiz-adv-x="962" 
d="M287 0v709h-281v325h952v-325h-282v-709h-389z" />
    <glyph glyph-name="uni0443" unicode="&#x443;" horiz-adv-x="1150" 
d="M741 1030h414l-491 -1364h-428l129 344l-371 1020h414l167 -594z" />
    <glyph glyph-name="uni0444" unicode="&#x444;" horiz-adv-x="1671" 
d="M1233 516q0 104 -56 160q-57 55 -161 59v-440q102 4 160 61q57 56 57 160zM438 516q0 -104 56 -160t161 -61v440q-217 -10 -217 -219zM639 -334v307q-274 5 -431 151t-157 392t160 390t428 149v323h391v-323q276 -3 433 -145t157 -394t-154 -395t-436 -148v-307h-391z
" />
    <glyph glyph-name="uni0445" unicode="&#x445;" horiz-adv-x="1204" 
d="M1214 0h-434l-178 268l-176 -268h-436l375 526l-359 504h436l160 -246l160 246h436l-360 -502z" />
    <glyph glyph-name="uni0446" unicode="&#x446;" horiz-adv-x="1335" 
d="M934 -256v256h-821v1030h391v-702h233v702h389v-702h179v-584h-371z" />
    <glyph glyph-name="uni0447" unicode="&#x447;" horiz-adv-x="1196" 
d="M692 1030h391v-1030h-391v289q-76 -16 -131 -17q-239 0 -363 124t-124 366v268h391v-229q0 -170 156 -170q39 0 71 8v391z" />
    <glyph glyph-name="uni0448" unicode="&#x448;" horiz-adv-x="1693" 
d="M113 0v1030h376v-704h179v704h358v-704h176v704h377v-1030h-1466z" />
    <glyph glyph-name="uni0449" unicode="&#x449;" horiz-adv-x="1787" 
d="M1386 -256v256h-1273v1030h376v-704h179v704h358v-704h176v704h377v-704h178v-582h-371z" />
    <glyph glyph-name="uni044A" unicode="&#x44a;" horiz-adv-x="1191" 
d="M575 291h84q53 0 84 30q31 29 31 81t-31 82t-84 30h-84v-223zM197 0v702h-228v328h619v-229h100q221 1 343 -101t122 -296t-122 -300q-122 -104 -343 -104h-491z" />
    <glyph glyph-name="uni044B" unicode="&#x44b;" horiz-adv-x="1650" 
d="M1147 0v1030h391v-1030h-391zM492 293h73q53 0 84 30q31 31 31 81t-32 81t-83 31h-73v-223zM113 0v1030h391v-229h90q221 1 343 -103t122 -293t-124 -297t-341 -108h-481z" />
    <glyph glyph-name="uni044C" unicode="&#x44c;" horiz-adv-x="1099" 
d="M492 293h73q53 0 84 30q31 31 31 81t-32 81t-83 31h-73v-223zM113 0v1030h391v-229h90q221 1 343 -103t122 -293t-124 -297t-341 -108h-481z" />
    <glyph glyph-name="uni044D" unicode="&#x44d;" horiz-adv-x="1212" 
d="M586 289q150 0 198 123h-262v204h262q-52 125 -200 125t-189 -147h-344q27 207 176 335t379 128t392 -156t163 -386q0 -230 -163 -386t-392 -156t-379 128t-176 335h344q41 -147 191 -147z" />
    <glyph glyph-name="uni044E" unicode="&#x44e;" horiz-adv-x="1808" 
d="M1184 311q84 1 135 57t51 146t-51 146t-135 56t-136 -56t-52 -146t52 -146t136 -57zM1184 -27q-202 -1 -352 105t-201 278h-127v-356h-391v1028h391v-344h131q55 168 203 270t346 103q244 0 410 -156t165 -386q1 -230 -165 -386t-410 -156z" />
    <glyph glyph-name="uni044F" unicode="&#x44f;" horiz-adv-x="1167" 
d="M676 524v224h-68q-51 0 -82 -30q-30 -30 -30 -82t30 -82t82 -30h68zM580 1030h475v-1030h-385v274h-52l-157 -274h-434l235 350q-145 92 -145 280t122 294t341 106z" />
    <glyph glyph-name="uni0450" unicode="&#x450;" horiz-adv-x="1208" 
d="M453 1147l-244 383h428l141 -383h-325zM618 772q-145 0 -200 -141h391q-13 65 -65 103t-126 38zM53 510q-1 238 159 392t413 155q253 0 405 -175t125 -450h-745q20 -80 78 -127t143 -47q129 0 160 88h354q-47 -176 -183 -274t-337 -99q-252 0 -412 150q-160 149 -160 387
z" />
    <glyph glyph-name="uni0451" unicode="&#x451;" horiz-adv-x="1208" 
d="M1063 1332q1 -86 -59 -142q-60 -57 -144 -57t-144 58t-60 140t58 139q58 58 146 58t146 -55t57 -141zM373 1133q-84 0 -145 59q-60 59 -60 140t58 138q58 58 146 58t146 -55q57 -55 57 -141t-59 -142q-59 -57 -143 -57zM618 772q-145 0 -200 -141h391q-13 65 -65 103
t-126 38zM53 510q-1 238 159 392t413 155q253 0 405 -175t125 -450h-745q20 -80 78 -127t143 -47q129 0 160 88h354q-47 -176 -183 -274t-337 -99q-252 0 -412 150q-160 149 -160 387z" />
    <glyph glyph-name="uni0452" unicode="&#x452;" horiz-adv-x="1273" 
d="M810 887q159 0 263 -119t105 -307v-414q0 -432 -443 -432h-139v297h35q84 0 121 34t36 109v348q0 59 -31 95q-32 34 -85 34t-87 -36t-34 -93v-401h-391v985h-152v252h152v139h391v-139h364v-252h-364v-194q100 94 259 94z" />
    <glyph glyph-name="uni0453" unicode="&#x453;" horiz-adv-x="860" 
d="M328 1147l143 383h426l-244 -383h-325zM115 0v1030h731v-328h-340v-702h-391z" />
    <glyph glyph-name="uni0454" unicode="&#x454;" horiz-adv-x="1212" 
d="M628 289q150 0 189 147h344q-27 -207 -177 -335t-378 -128q-230 0 -392 156t-163 386q0 230 163 386t392 156t379 -128t176 -335h-344q-41 147 -188 147t-201 -125h262v-204h-262q50 -123 200 -123z" />
    <glyph glyph-name="uni0455" unicode="&#x455;" horiz-adv-x="964" 
d="M930 311q0 -162 -114 -250t-325 -88q-210 1 -331 97t-127 270h342q6 -104 123 -104q94 0 94 65q0 27 -16 40t-60 24l-162 38q-143 33 -218 113t-75 201q0 154 116 247t305 93t302 -93t125 -259h-334q-6 90 -96 90q-37 1 -61 -17t-23 -47q0 -45 72 -61l164 -41
q299 -72 299 -318z" />
    <glyph glyph-name="uni0456" unicode="&#x456;" horiz-adv-x="600" 
d="M104 0v1030h392v-1030h-392zM301 1133q-94 0 -157 61q-62 62 -62 152t62 151t156 61t156 -60q62 -62 62 -152t-61 -152q-62 -61 -156 -61z" />
    <glyph glyph-name="uni0457" unicode="&#x457;" horiz-adv-x="600" 
d="M547 1133q-84 0 -145 58q-60 58 -60 140t58 139q58 58 146 58t146 -55t58 -141t-60 -142q-60 -57 -143 -57zM262 1332q0 -86 -60 -142q-60 -57 -143 -57q-84 0 -144 59t-60 140t58 138q58 58 146 58q87 0 145 -55t58 -141zM104 0v1030h392v-1030h-392z" />
    <glyph glyph-name="uni0458" unicode="&#x458;" horiz-adv-x="600" 
d="M-90 -334v309h57q76 0 107 28t30 95v932h390v-954q0 -197 -110 -303t-312 -107h-162zM303 1133q-94 0 -157 61q-62 62 -62 152t62 151t156 61t156 -60q62 -62 62 -152t-61 -152q-62 -61 -156 -61z" />
    <glyph glyph-name="uni0459" unicode="&#x459;" horiz-adv-x="1738" 
d="M1122 293h84q53 0 84 30q31 31 31 81t-32 80t-83 30h-84v-221zM0 -10v334q111 0 157 72t46 243v391h930v-231h100q221 1 343 -103t122 -292t-123 -296t-342 -108h-490v705h-172v-125q0 -318 -131 -454t-440 -136z" />
    <glyph glyph-name="uni045A" unicode="&#x45a;" horiz-adv-x="1736" 
d="M1120 307h86q51 0 82 29t31 77q0 47 -31 77t-82 30h-86v-213zM113 0v1030h391v-346h237v346h389v-209h105q219 0 340 -106t121 -300q0 -195 -122 -305t-339 -110h-494v358h-237v-358h-391z" />
    <glyph glyph-name="uni045B" unicode="&#x45b;" horiz-adv-x="1273" 
d="M810 891q159 0 263 -118t105 -306v-465h-390v406q0 59 -31 94q-32 35 -85 35t-87 -36t-34 -93v-406h-391v985h-152v252h152v139h391v-139h364v-252h-364v-190q100 94 259 94z" />
    <glyph glyph-name="uni045C" unicode="&#x45c;" horiz-adv-x="1177" 
d="M473 1147l143 383h426l-243 -383h-326zM506 0h-391v1030h391v-401l258 401h416l-320 -498l344 -532h-430l-268 414v-414z" />
    <glyph glyph-name="uni045D" unicode="&#x45d;" horiz-adv-x="1265" 
d="M469 1147l-244 383h428l142 -383h-326zM1151 1032v-1032h-389v481l-307 -485h-340v1034h391v-469l299 471h346z" />
    <glyph glyph-name="uni045E" unicode="&#x45e;" horiz-adv-x="1150" 
d="M969 1526q1 -186 -101 -286t-294 -99q-192 0 -292 99q-101 99 -102 286h269q0 -141 126 -142q123 0 123 142h271zM741 1030h414l-491 -1364h-428l129 344l-371 1020h414l167 -594z" />
    <glyph glyph-name="uni045F" unicode="&#x45f;" horiz-adv-x="1241" 
d="M1128 1030v-1030h-319v-256h-373v256h-323v1030h391v-702h233v702h391z" />
    <glyph glyph-name="uni0462" unicode="&#x462;" horiz-adv-x="1439" 
d="M674 332h170q63 0 99 33t36 92t-36 93t-99 34h-170v-252zM274 0v1001h-243v267h243v133h400v-133h438v-267h-438v-88h192q242 -1 379 -123t137 -339t-134 -334t-382 -117h-592z" />
    <glyph glyph-name="uni0463" unicode="&#x463;" horiz-adv-x="1187" 
d="M580 272h71q53 0 84 29t31 80t-31 79t-84 27h-71v-215zM201 0v854h-193v252h193v272h391v-272h334v-252h-334v-100h94q217 0 336 -98t119 -275t-121 -279t-334 -102h-485z" />
    <glyph glyph-name="uni0472" unicode="&#x472;" horiz-adv-x="1630" 
d="M817 332q117 0 204 63t120 170q-79 -39 -151 -39t-174 30t-177 30q-74 0 -147 -29q35 -104 121 -165q87 -60 204 -60zM815 1049q-117 1 -204 -63t-122 -171q79 37 151 37t174 -29t174 -29q73 0 151 29q-35 104 -121 165t-203 61zM816 1405q331 0 544 -202t213 -514
t-213 -514t-544 -202t-544 202t-213 515t213 514t544 201z" />
    <glyph glyph-name="uni0473" unicode="&#x473;" horiz-adv-x="1253" 
d="M628 276q79 0 135 44t75 120q-58 -32 -104 -32t-109 19t-111 19t-96 -20q23 -70 77 -110t133 -40zM624 754q-78 0 -134 -44t-74 -118q53 29 99 29q45 1 109 -19t109 -20t101 22q-23 70 -78 110t-132 40zM626 1057q244 0 410 -156t166 -386t-166 -386t-410 -156t-410 155
q-165 155 -165 386t165 387t410 156z" />
    <glyph glyph-name="uni0474" unicode="&#x474;" horiz-adv-x="1392" 
d="M1208 1378h187v-358h-70q-96 0 -135 -121l-291 -899h-426l-473 1378h430l258 -872l174 588q43 152 124 218t222 66z" />
    <glyph glyph-name="uni0475" unicode="&#x475;" horiz-adv-x="1150" 
d="M973 1030h164v-323h-58q-76 0 -100 -91l-191 -616h-423l-371 1030h412l169 -598l105 365q33 127 99 180q67 53 194 53z" />
    <glyph glyph-name="uni0490" unicode="&#x490;" horiz-adv-x="1007" 
d="M133 0v1378h445v254h399v-612h-445v-1020h-399z" />
    <glyph glyph-name="uni0491" unicode="&#x491;" horiz-adv-x="942" 
d="M115 0v1030h440v273h371v-601h-420v-702h-391z" />
    <glyph glyph-name="uni0492" unicode="&#x492;" horiz-adv-x="1067" 
d="M1012 1020h-432v-221h327v-359h-327v-440h-400v440h-151v359h151v579h832v-358z" />
    <glyph glyph-name="uni0493" unicode="&#x493;" horiz-adv-x="1034" 
d="M944 702h-373v-135h371v-317h-371v-250h-391v250h-151v317h151v463h764v-328z" />
    <glyph glyph-name="uni0496" unicode="&#x496;" horiz-adv-x="2109" 
d="M1702 -256v256h-105l-374 588v-588h-400v596l-379 -596h-469l474 717l-435 661h449l360 -553v553h400v-542l356 542h449l-435 -659l236 -361h252v-614h-379z" />
    <glyph glyph-name="uni0497" unicode="&#x497;" horiz-adv-x="1824" 
d="M1419 -256v256h-106l-262 430v-430h-392v430l-262 -430h-426l342 545l-317 485h412l251 -389v389h392v-391l254 391h411l-319 -483l137 -221h258v-582h-373z" />
    <glyph glyph-name="uni0498" unicode="&#x498;" horiz-adv-x="1138" 
d="M760 -256h-338v242q-188 33 -291 156q-102 124 -106 325h372q2 -68 48 -107q46 -38 112 -38t108 38t42 94t-40 93t-122 37h-119v258h104q76 0 113 34t37 84t-39 88t-105 38t-107 -40q-42 -38 -44 -114h-344q12 225 148 349q137 124 359 124t354 -113t132 -299t-166 -276
q227 -100 228 -332q0 -137 -88 -241t-248 -146v-254z" />
    <glyph glyph-name="uni0499" unicode="&#x499;" horiz-adv-x="1044" 
d="M1018 299q0 -121 -80 -200t-223 -109v-246h-338v246q-162 29 -249 124t-89 246h340q6 -96 134 -96t128 80q0 74 -109 74h-151v205h133q98 1 98 73t-104 72t-117 -84h-332q2 170 131 270q128 100 326 100t322 -83q124 -84 125 -219q0 -135 -113 -211q168 -61 168 -242z
" />
    <glyph glyph-name="uni049A" unicode="&#x49a;" horiz-adv-x="1427" 
d="M1018 -256v256h-98l-388 590v-590h-399v1378h399v-547l369 547h451l-445 -659l242 -361h250v-614h-381z" />
    <glyph glyph-name="uni049B" unicode="&#x49b;" horiz-adv-x="1292" 
d="M889 -256v256h-117l-268 414v-414h-391v1030h391v-401l258 401h416l-320 -498l133 -206h271v-582h-373z" />
    <glyph glyph-name="uni04A0" unicode="&#x4a0;" horiz-adv-x="1406" 
d="M-68 1020v358h641v-547l369 547h451l-445 -659l484 -719h-471l-388 590v-590h-399v1020h-242z" />
    <glyph glyph-name="uni04A1" unicode="&#x4a1;" horiz-adv-x="1218" 
d="M547 0h-391v702h-187v328h578v-385l262 385h414l-320 -481l344 -549h-430l-270 432v-432z" />
    <glyph glyph-name="uni04A2" unicode="&#x4a2;" horiz-adv-x="1525" 
d="M1307 358h190v-614h-381v256h-207v528h-379v-528h-397v1378h397v-491h379v491h398v-1020z" />
    <glyph glyph-name="uni04A3" unicode="&#x4a3;" horiz-adv-x="1349" 
d="M944 -256v256h-194v356h-246v-356h-391v1030h391v-346h246v346h389v-702h178v-584h-373z" />
    <glyph glyph-name="uni04AA" unicode="&#x4aa;" horiz-adv-x="1597" 
d="M979 -256h-338v244q-264 47 -424 238t-160 462q0 313 210 515q211 202 527 202t521 -170t225 -442h-416q-28 113 -114 181t-219 66q-133 0 -225 -97t-93 -253q0 -156 92 -254q91 -98 225 -98t221 68t113 180h416q-18 -231 -171 -391t-390 -205v-246z" />
    <glyph glyph-name="uni04AB" unicode="&#x4ab;" horiz-adv-x="1212" 
d="M797 -256h-338v250q-182 47 -295 188t-113 332q0 231 162 387t391 156t380 -128t177 -335h-373q-35 119 -165 119q-81 -1 -133 -55t-52 -143t51 -143t134 -55q131 0 165 119h373q-19 -162 -117 -276t-247 -160v-256z" />
    <glyph glyph-name="uni04AE" unicode="&#x4ae;" horiz-adv-x="1310" 
d="M854 0h-399v590l-457 788h459l198 -413l199 413h457l-457 -788v-590z" />
    <glyph glyph-name="uni04AF" unicode="&#x4af;" horiz-adv-x="1146" 
d="M770 -342h-391v352l-385 1020h414l165 -592l166 592h412l-381 -1014v-358z" />
    <glyph glyph-name="uni04B0" unicode="&#x4b0;" horiz-adv-x="1359" 
d="M1190 629v-342h-311v-287h-400v287h-301v342h279l-434 749h458l199 -413l199 413h456l-434 -749h289z" />
    <glyph glyph-name="uni04B1" unicode="&#x4b1;" horiz-adv-x="1208" 
d="M1085 57v-254h-284v-145h-391v145h-285v254h268l-366 973h413l166 -592l166 592h412l-367 -973h268z" />
    <glyph glyph-name="uni04B2" unicode="&#x4b2;" horiz-adv-x="1417" 
d="M1010 -256v256h-88l-224 414l-225 -414h-450l423 709l-399 669h449l204 -377l195 377h451l-396 -669l209 -351h230v-614h-379z" />
    <glyph glyph-name="uni04B3" unicode="&#x4b3;" horiz-adv-x="1306" 
d="M1276 326v-582h-373v256h-123l-178 268l-176 -268h-436l375 526l-359 504h436l160 -246l160 246h436l-360 -502l143 -202h295z" />
    <glyph glyph-name="uni04B6" unicode="&#x4b6;" horiz-adv-x="1429" 
d="M1212 358h191v-614h-381v256h-209v422q-96 -25 -186 -25q-259 1 -403 143t-144 402v436h399v-399q0 -213 209 -213q63 0 125 20v592h399v-1020z" />
    <glyph glyph-name="uni04B7" unicode="&#x4b7;" horiz-adv-x="1300" 
d="M1092 328h178v-584h-373v256h-197v289q-78 -16 -135 -17q-243 0 -367 124t-124 364v270h391v-231q0 -168 158 -168q33 0 77 10v389h392v-702z" />
    <glyph glyph-name="uni04BA" unicode="&#x4ba;" horiz-adv-x="1345" 
d="M532 0h-401v1378h401v-422q96 25 187 25q260 0 403 -142t144 -403v-436h-400v399q0 213 -209 213q-63 0 -125 -20v-592z" />
    <glyph glyph-name="uni04BB" unicode="&#x4bb;" horiz-adv-x="1218" 
d="M754 1057q160 0 264 -119t104 -307v-631h-389v573q0 59 -32 95t-85 34q-53 0 -87 -36t-33 -93v-573h-392v1378h392v-415q99 94 258 94z" />
    <glyph glyph-name="uni04C0" unicode="&#x4c0;" horiz-adv-x="665" 
d="M133 0v1378h399v-1378h-399z" />
    <glyph glyph-name="uni04CF" unicode="&#x4cf;" horiz-adv-x="616" 
d="M113 0v1378h391v-1378h-391z" />
    <glyph glyph-name="uni04D4" unicode="&#x4d4;" horiz-adv-x="1787" 
d="M877 502l-84 559l-203 -559h287zM1712 334v-334h-754l-36 209h-443l-88 -209h-409l591 1378h1117v-334h-537l31 -190h485v-311h-434l33 -209h444z" />
    <glyph glyph-name="uni04D5" unicode="&#x4d5;" horiz-adv-x="1837" 
d="M522 221q59 0 94 37t35 100v50h-125q-51 0 -80 -25t-28 -68q0 -94 104 -94zM1247 772q-147 0 -200 -145h391q-12 69 -64 107t-127 38zM1247 1057q262 0 413 -176t124 -449h-744q20 -84 78 -130t144 -46q131 0 159 90h353q-44 -176 -182 -274t-339 -99q-262 0 -415 164
q-113 -164 -389 -164q-186 0 -295 82t-109 232q-1 149 105 233t305 84h196v39q0 137 -114 137q-102 0 -115 -106h-336q8 180 132 281t341 101t332 -118q147 119 356 119z" />
    <glyph glyph-name="uni04D8" unicode="&#x4d8;" horiz-adv-x="1589" 
d="M781 311q126 -1 209 59t118 169h-645q18 -104 105 -166t213 -62zM782 1405q332 0 541 -198t209 -512t-212 -518t-552 -204q-340 -1 -541 229t-164 597h1055q-28 129 -114 199t-205 69q-119 0 -195 -41t-100 -106h-418q60 227 246 356t450 129z" />
    <glyph glyph-name="uni04D9" unicode="&#x4d9;" horiz-adv-x="1208" 
d="M590 258q145 0 201 141h-392q13 -65 65 -103t126 -38zM1155 520q1 -238 -159 -392t-413 -155q-253 0 -405 175t-125 450h746q-21 80 -79 127t-142 47q-129 0 -160 -88h-355q47 176 183 274t338 99q252 0 412 -150q160 -149 159 -387z" />
    <glyph glyph-name="uni04E2" unicode="&#x4e2;" horiz-adv-x="1441" 
d="M367 1524v286h708v-286h-708zM1311 1378v-1378h-398v762l-383 -762h-395v1378h397v-757l379 757h400z" />
    <glyph glyph-name="uni04E3" unicode="&#x4e3;" horiz-adv-x="1265" 
d="M297 1180v270h666v-270h-666zM1151 1032v-1032h-389v481l-307 -485h-340v1034h391v-469l299 471h346z" />
    <glyph glyph-name="uni04E6" unicode="&#x4e6;" horiz-adv-x="1630" 
d="M815 338q150 0 245 99t95 252t-95 252t-245 99t-246 -99t-96 -252t96 -252t246 -99zM814 -27q-331 0 -544 202t-213 515t213 514t544 201t544 -202t213 -514t-213 -514t-544 -202zM854 1678q0 82 61 142t151 60t152 -57q60 -57 60 -143t-62 -145q-62 -58 -149 -58
q-88 0 -151 59q-62 59 -62 142zM559 1880q91 0 151 -57t60 -143t-62 -145q-62 -58 -149 -58q-88 0 -150 59q-63 59 -63 142q0 82 62 142t151 60z" />
    <glyph glyph-name="uni04E7" unicode="&#x4e7;" horiz-adv-x="1253" 
d="M627 311q84 1 135 57t51 146t-51 146t-135 56q-85 0 -137 -56t-52 -146t52 -146t137 -57zM626 1057q244 0 410 -156t166 -386t-166 -386t-410 -156q-245 0 -410 155t-165 386t165 387t410 156zM1075 1332q1 -86 -59 -142q-60 -57 -144 -57t-144 58t-60 140t58 139
q58 58 146 58t146 -55t57 -141zM385 1133q-84 0 -144 59q-61 59 -61 140t58 138q58 58 147 58q88 0 145 -55q58 -55 58 -141t-60 -142q-60 -57 -143 -57z" />
    <glyph glyph-name="uni04E8" unicode="&#x4e8;" horiz-adv-x="1630" 
d="M817 332q121 0 205 58t117 165h-647q35 -106 119 -165q85 -58 206 -58zM817 1049q-119 1 -204 -57t-119 -161h643q-35 102 -118 160t-202 58zM816 1405q331 0 544 -202t213 -514t-213 -514t-544 -202t-544 202t-213 515t213 514t544 201z" />
    <glyph glyph-name="uni04E9" unicode="&#x4e9;" horiz-adv-x="1253" 
d="M626 276q77 0 131 40t77 110h-416q23 -70 77 -110t131 -40zM626 754q-161 0 -208 -152h416q-47 152 -208 152zM626 1057q244 0 410 -156t166 -386t-166 -386t-410 -156t-410 155q-165 155 -165 386t165 387t410 156z" />
    <glyph glyph-name="uni04EE" unicode="&#x4ee;" horiz-adv-x="1384" 
d="M354 1524v286h709v-286h-709zM950 1378h455l-694 -1378h-455l229 428l-499 950h458l265 -561z" />
    <glyph glyph-name="uni04EF" unicode="&#x4ef;" horiz-adv-x="1150" 
d="M741 1030h414l-491 -1364h-428l129 344l-371 1020h414l167 -594zM242 1180v270h665v-270h-665z" />
    <glyph glyph-name="uni04F2" unicode="&#x4f2;" horiz-adv-x="1384" 
d="M801 1487l166 389h364l-256 -389h-274zM373 1487l143 389h326l-166 -389h-303zM950 1378h455l-694 -1378h-455l229 428l-499 950h458l265 -561z" />
    <glyph glyph-name="uni04F3" unicode="&#x4f3;" horiz-adv-x="1150" 
d="M741 1030h414l-491 -1364h-428l129 344l-371 1020h414l167 -594zM651 1147l176 383h349l-250 -383h-275zM231 1147l154 383h328l-181 -383h-301z" />
    <glyph glyph-name="endash" unicode="&#x2013;" horiz-adv-x="1021" 
d="M55 487v328h912v-328h-912z" />
    <glyph glyph-name="emdash" unicode="&#x2014;" horiz-adv-x="2045" 
d="M100 487v328h1844v-328h-1844z" />
    <glyph glyph-name="quoteleft" unicode="&#x2018;" horiz-adv-x="606" 
d="M70 750l129 628h305l-6 -628h-428z" />
    <glyph glyph-name="quoteright" unicode="&#x2019;" horiz-adv-x="606" 
d="M104 748l7 628h428l-129 -628h-306z" />
    <glyph glyph-name="quotesinglbase" unicode="&#x201a;" horiz-adv-x="606" 
d="M104 -293l7 629h428l-129 -629h-306z" />
    <glyph glyph-name="quotedblleft" unicode="&#x201c;" horiz-adv-x="1093" 
d="M530 1378l-88 -628h-372l127 628h333zM989 1378l-6 -628h-393l88 628h311z" />
    <glyph glyph-name="quotedblright" unicode="&#x201d;" horiz-adv-x="1093" 
d="M563 750l88 628h373l-127 -628h-334zM104 750l7 628h393l-88 -628h-312z" />
    <glyph glyph-name="quotedblbase" unicode="&#x201e;" horiz-adv-x="1093" 
d="M563 -293l88 629h373l-127 -629h-334zM104 -293l7 629h393l-88 -629h-312z" />
    <glyph glyph-name="dagger" unicode="&#x2020;" horiz-adv-x="1064" 
d="M344 272v486h-285v336h285v284h373v-284h287v-336h-287v-486h-373z" />
    <glyph glyph-name="daggerdbl" unicode="&#x2021;" horiz-adv-x="1073" 
d="M344 47v246h-285v311h293v225h-293v314h285v235h373v-235h287v-314h-295v-225h295v-311h-287v-246h-373z" />
    <glyph glyph-name="bullet" unicode="&#x2022;" horiz-adv-x="948" 
d="M474 303q-166 0 -280 110q-114 111 -114 271t115 270t279 111q164 0 279 -110q113 -109 113 -271t-114 -272t-278 -109z" />
    <glyph glyph-name="ellipsis" unicode="&#x2026;" horiz-adv-x="1906" 
d="M1554 -27q-98 1 -162 63t-65 158q0 96 65 158q64 64 162 64t163 -64t65 -158q0 -95 -65 -158t-163 -63zM352 -27q-98 1 -163 63t-65 158t65 158q65 64 163 64t163 -64t65 -158q0 -95 -65 -158t-163 -63zM954 -27q-98 1 -162 63t-65 158q0 96 65 158q64 64 162 64t163 -64
t65 -158q0 -95 -65 -158t-163 -63z" />
    <glyph glyph-name="perthousand" unicode="&#x2030;" horiz-adv-x="2668" 
d="M1294 350q0 -52 30 -82t79 -30t79 30t30 80q0 49 -31 81t-79 32t-78 -30t-30 -81zM1790 345q0 -159 -112 -265t-278 -107q-167 -1 -278 105q-110 106 -110 267t109 264q110 103 279 103q170 0 280 -104t110 -263zM438 930q49 0 79 31t30 79t-31 81q-31 32 -79 32t-78 -30
q-29 -30 -29 -81q0 -52 30 -82t78 -30zM340 0l836 1378h325l-839 -1378h-322zM437 668q-167 0 -277 104t-111 265q0 161 110 265q111 104 279 103t278 -105t110 -263t-112 -264q-110 -105 -277 -105zM2126 350q0 -52 30 -82t78 -30q49 0 79 30t30 80q0 49 -31 81t-79 32
q-47 0 -77 -30t-30 -81zM2231 -27q-167 -1 -277 105t-111 267q0 161 110 264q111 103 279 103t279 -104t111 -263t-112 -265t-279 -107z" />
    <glyph glyph-name="minute" unicode="&#x2032;" horiz-adv-x="606" 
d="M45 678l107 700h430l-228 -700h-309z" />
    <glyph glyph-name="second" unicode="&#x2033;" horiz-adv-x="1122" 
d="M516 678l195 700h385l-228 -700h-352zM45 678l107 700h413l-200 -700h-320z" />
    <glyph glyph-name="guilsinglleft" unicode="&#x2039;" horiz-adv-x="702" 
d="M651 176h-379l-209 475l207 471h381l-198 -471z" />
    <glyph glyph-name="guilsinglright" unicode="&#x203a;" horiz-adv-x="702" 
d="M51 176l199 475l-199 471h381l207 -471l-209 -475h-379z" />
    <glyph glyph-name="fraction" unicode="&#x2044;" horiz-adv-x="542" 
d="M-272 0l796 1378h310l-801 -1378h-305z" />
    <glyph glyph-name="uni2074" unicode="&#x2074;" horiz-adv-x="739" 
d="M414 1348l-135 -197h137zM711 1151v-193h-82v-110h-240v110h-356v179l332 448h264v-434h82z" />
    <glyph glyph-name="Euro" unicode="&#x20ac;" horiz-adv-x="1669" 
d="M883 307q133 0 227 76t125 207h377q-20 -272 -223 -444t-502 -173q-256 0 -446 125q-189 125 -263 338h-176v207h137q-2 14 -2 45v31h-137v209h174q72 219 263 348t471 129t481 -171t223 -446h-377q-29 133 -122 208t-226 75q-193 0 -291 -143h448l-57 -209h-459v-31
q0 -31 2 -45h435l-58 -207h-303q101 -129 279 -129z" />
    <glyph glyph-name="uni20AE" unicode="&#x20ae;" horiz-adv-x="1267" 
d="M1221 1028h-392v-176l289 68v-258l-289 -68v-102l289 67v-258l-289 -68v-233h-389v166l-288 -66v258l288 66v100l-288 -67v258l288 67v246h-393v350h1174v-350z" />
    <glyph glyph-name="uni20B4" unicode="&#x20b4;" horiz-adv-x="1226" 
d="M1180 741h-193q-66 -45 -141 -79h334v-199h-672q-12 -31 -12 -77t40 -83t99 -37q143 0 162 129h377q-10 -195 -156 -309t-388 -115q-241 0 -382 114t-142 308q0 29 5 70h-64v199h225q61 37 154 79h-379v197h701q12 31 12 72q0 42 -35 72t-86 30q-111 0 -131 -104h-369
q17 188 149 292t352 104t355 -108q135 -109 135 -286q0 -37 -6 -72h56v-197z" />
    <glyph glyph-name="uni20B8" unicode="&#x20b8;" horiz-adv-x="1267" 
d="M440 0v600h-393v324h1174v-324h-392v-600h-389zM47 1030v348h1174v-348h-1174z" />
    <glyph glyph-name="uni20BA" unicode="&#x20ba;" horiz-adv-x="1202" 
d="M817 629h332v-105q0 -252 -163 -388t-464 -136h-325v489l-150 -59v258l150 60v98l-150 -60v258l150 60v274h389v-145l307 121v-258l-307 -121v-98l307 118v-258l-307 -119v-276q231 12 231 219v68z" />
    <glyph glyph-name="uni20BD" unicode="&#x20bd;" horiz-adv-x="1290" 
d="M604 850h137q123 0 123 121q0 53 -33 84t-90 30h-137v-235zM63 174v287h154l-2 106h-154v289h154v522h578q213 0 337 -110t125 -294q0 -185 -126 -296t-336 -111h-189l2 -106h494v-287h-494l-2 -174h-389l2 174h-154z" />
    <glyph glyph-name="uni2113" unicode="&#x2113;" horiz-adv-x="1019" 
d="M504 948v-243q88 70 122 130t33 138q0 102 -71 102q-84 0 -84 -127zM686 324h199v-324h-256q-285 0 -400 180l-190 -104v344q14 8 119 65v443q0 231 111 354q113 123 311 123q198 -1 300 -105t103 -292q0 -188 -93 -328t-341 -307q45 -49 137 -49z" />
    <glyph glyph-name="uni2116" unicode="&#x2116;" horiz-adv-x="2273" 
d="M1497 258v262h643v-262h-643zM1819 1135q-55 0 -89 -34t-34 -89t35 -91t88 -36t87 34t33 91q0 57 -32 91q-33 34 -88 34zM930 1378h379v-1378h-410l-387 748v-748h-379v1378h412l385 -745v745zM1411 1011q0 171 116 283t291 111q176 0 290 -112q114 -113 114 -283
t-114 -283t-290 -113q-175 0 -291 113t-116 284z" />
    <glyph glyph-name="trademark" unicode="&#x2122;" horiz-adv-x="1337" 
d="M1245 1378v-540h-192v299l-105 -299h-123l-104 299v-299h-193v540h271l88 -272l90 272h268zM31 1196v182h452v-182h-127v-358h-198v358h-127z" />
    <glyph glyph-name="uni2126" unicode="&#x2126;" horiz-adv-x="1669" 
d="M834 1405q324 0 540 -186q216 -187 215 -455q0 -268 -192 -445h174v-319h-668v319q270 121 271 377q0 152 -94 248t-246 96q-150 0 -245 -96t-95 -250q0 -262 270 -375v-319h-666v319h162q-180 180 -180 448t215 453t539 185z" />
    <glyph glyph-name="estimated" unicode="&#x212e;" horiz-adv-x="1755" 
d="M457 737h843q25 0 25 25v383q0 25 -16 39q-182 147 -426 147t-437 -143q-16 -12 -16 -41v-385q0 -25 27 -25zM907 -27q-330 0 -558 209t-228 507t222 507q223 209 535 209t533 -209t221 -504v-26h-1175q-27 0 -27 -25v-399q0 -23 16 -35q203 -160 465 -160q317 0 523 221
h98q-113 -141 -276 -218t-349 -77z" />
    <glyph glyph-name="uni2153" unicode="&#x2153;" horiz-adv-x="1638" 
d="M1286 -12q-137 0 -218 68t-87 196h227q2 -33 22 -52q20 -20 53 -20q32 0 51 16t20 44q0 59 -70 59h-72v150h68q68 0 68 59q0 25 -18 40t-49 15q-30 0 -50 -19t-25 -48h-223q6 120 88 188t215 68t211 -62t78 -164t-96 -151q111 -47 111 -153t-84 -170q-83 -64 -220 -64z
M479 1378v-735h-256v516l-147 -41l-49 191l237 69h215zM201 0l796 1378h310l-801 -1378h-305z" />
    <glyph glyph-name="uni2154" unicode="&#x2154;" horiz-adv-x="1855" 
d="M1503 -12q-137 0 -218 68t-87 196h227q3 -33 23 -52q20 -20 52 -20t51 16t20 44q0 59 -70 59h-71v150h67q68 0 68 59q-1 25 -19 40t-48 15t-50 -19t-25 -48h-223q6 120 88 188t215 68t211 -62t78 -164t-96 -151q110 -47 110 -153t-83 -170t-220 -64zM666 836v-193h-621
v76q0 83 49 147q50 64 156 123t135 84t29 55q0 62 -63 62t-62 -84h-240q0 131 86 210t223 79q138 0 222 -68t84 -163t-48 -155t-163 -126l-78 -47h291zM416 0l796 1378h310l-801 -1378h-305z" />
    <glyph glyph-name="partialdiff" unicode="&#x2202;" horiz-adv-x="1300" 
d="M598 307q164 0 215 215q-111 33 -187 33t-115 -34q-40 -34 -40 -93q0 -121 127 -121zM684 1405q254 0 397 -169t143 -509t-171 -548q-172 -208 -469 -208q-236 0 -372 116q-136 117 -136 323t129 323t366 117q123 0 260 -41q-14 272 -182 272q-133 0 -147 -123h-350
q6 211 142 329t390 118z" />
    <glyph glyph-name="uni2206" unicode="&#x2206;" horiz-adv-x="1409" 
d="M918 326l-213 673l-209 -673h422zM1311 0h-1213v326l396 1052h424l393 -1052v-326z" />
    <glyph glyph-name="product" unicode="&#x220f;" horiz-adv-x="1439" 
d="M133 -264v1642h1174v-1642h-398v1284h-379v-1284h-397z" />
    <glyph glyph-name="summation" unicode="&#x2211;" horiz-adv-x="1091" 
d="M1038 88v-352h-981v256l365 577l-365 553v256h957v-350h-467l246 -346v-221l-250 -373h495z" />
    <glyph glyph-name="minus" unicode="&#x2212;" horiz-adv-x="1187" 
d="M76 514v328h1036v-328h-1036z" />
    <glyph glyph-name="uni2219" unicode="&#x2219;" horiz-adv-x="602" 
d="M301 461q-98 0 -163 62q-64 61 -64 157t64 160q65 63 163 63t163 -63q64 -62 64 -158t-64 -159q-65 -62 -163 -62z" />
    <glyph glyph-name="radical" unicode="&#x221a;" horiz-adv-x="1495" 
d="M326 -272v589h-316v308h584v-445l582 1356h337l-813 -1808h-374z" />
    <glyph glyph-name="infinity" unicode="&#x221e;" horiz-adv-x="1988" 
d="M1415 528q72 0 112 41t40 111t-40 108t-110 39q-117 0 -235 -147q120 -152 233 -152zM575 528q109 0 234 154q-121 145 -236 145q-71 0 -111 -39q-40 -38 -40 -108t40 -111t113 -41zM1456 1167q223 0 352 -132t129 -361q0 -228 -128 -360t-351 -132q-260 0 -463 248
q-93 -116 -203 -182t-262 -66q-223 0 -352 131t-129 361t129 361q129 132 352 132q260 0 463 -241q207 241 463 241z" />
    <glyph glyph-name="integral" unicode="&#x222b;" horiz-adv-x="765" 
d="M-14 -250v344h104q166 0 166 146q0 80 -72 450t-71 502q0 197 120 302q121 105 347 105h202v-344h-106q-86 -1 -125 -35t-39 -112t71 -449t70 -501q0 -195 -121 -301t-344 -107h-202z" />
    <glyph glyph-name="approxequal" unicode="&#x2248;" horiz-adv-x="1187" 
d="M826 190q-64 0 -112 16t-172 74t-196 58t-254 -88v319q88 57 146 77q120 42 237 7q49 -15 169 -73t196 -58t258 86v-319q-90 -55 -148 -77q-60 -22 -124 -22zM826 698q-64 0 -112 16t-172 74t-196 58t-254 -88v319q88 57 146 77q120 42 237 7q49 -15 169 -73t196 -58
t258 86v-319q-90 -55 -148 -77q-60 -22 -124 -22z" />
    <glyph glyph-name="notequal" unicode="&#x2260;" horiz-adv-x="1187" 
d="M92 762v309h508l100 211h304l-101 -211h195v-309h-340l-78 -162h418v-311h-566l-86 -185h-303l86 185h-137v311h285l78 162h-363z" />
    <glyph glyph-name="lessequal" unicode="&#x2264;" horiz-adv-x="1187" 
d="M1085 25h-983v313h983v-313zM1085 1378v-338l-471 -151l471 -154v-338l-987 365v252z" />
    <glyph glyph-name="greaterequal" unicode="&#x2265;" horiz-adv-x="1187" 
d="M102 25v313h983v-313h-983zM102 1378l988 -364v-252l-988 -365v338l471 154l-471 151v338z" />
    <glyph glyph-name="lozenge" unicode="&#x25ca;" horiz-adv-x="1118" 
d="M571 393l179 293l-189 291l-188 -291zM639 1378l463 -692l-463 -686h-162l-463 686l463 692h162z" />
    <glyph glyph-name="uniF8FF" unicode="&#xf8ff;" horiz-adv-x="2480" 
d="M1133 123q12 0 18 2q6 4 6 18v7q0 2 -4 6h-4l-33 -27q0 -2 2 -6h15zM1464 426q-66 -33 -73 -31l-5 8l25 13q16 8 53 10zM168 72q0 8 2 10q20 12 29 22h10q8 -8 10 -14q-17 -29 -27 -32t-18 -1q-6 7 -6 15zM987 406v2q4 16 4 31t-6 32q-19 26 -31 16q-4 -6 2 -16l5 -4v-2
q1 -2 20 -59h6zM164 35q-4 -7 -14 -49l-29 8v8q6 6 10 37q2 8 14 16q8 -2 19 -16v-4zM809 70q-4 4 -8 16t-8 16q1 4 -7 8t-6 7l4 4q27 0 37 1q9 1 13 -3t5 -11q1 -6 4 -16t3 -12q-21 -12 -37 -10zM1188 231q0 -2 3 -5t11 10v4q2 4 2 20t-26 43q-7 15 -18 21q-10 6 -17 -13
v-2l-8 -16l-7 -6l-2 -13q0 -4 2 -6v-2q1 0 15 13t22 4q8 -10 11 -11l4 -8q6 -2 6 -14l2 -14v-5zM1627 281q-9 0 -9 6q-6 -18 -28 -43t-27 -35q4 -4 4 -6q-1 -1 -7 -11t-6 -14q10 4 19 0q6 8 23 22t26 27q16 29 31 82l-2 -2q1 -10 -7 -18t-17 -8zM596 1069h123q-1 25 -19 42
t-44 17t-43 -17t-17 -42zM1043 952q32 0 53 24q20 24 20 58t-21 56q-22 22 -52 22q-31 0 -53 -22t-22 -57q0 -33 22 -57q21 -24 53 -24zM1460 963h96q59 4 64 65q0 27 -18 46t-46 20h-63v90h35q51 0 51 55q0 23 -15 38t-36 15h-68v-329zM2132 874v529h100v-529h-100z
M2300 874v529h102v-529h-102zM1920 860q-71 0 -114 35t-43 94v195h99v-180q0 -57 59 -58q55 0 55 58v180h101v-195q0 -59 -43 -94t-114 -35zM2105 215v371h84v-246l111 166q41 62 41 118t-43 83q41 0 77 -33q85 -78 -5 -211l-156 -234q-12 -14 -27 -14h-82zM1925 215v410
h-176v82h440v-82h-178v-410h-86zM655 864q-69 0 -117 49t-49 119t49 119t120 49t115 -46q44 -46 44 -122v-20h-223v-2l2 -2q0 -27 19 -45q19 -19 57 -19t55 39l80 -39q-48 -80 -152 -80zM129 877v501h193q63 0 106 -43t43 -100t-33 -98t-82 -52l148 -208h-125l-107 163v121
h25q29 -1 49 19t21 47t-19 45t-49 18h-63v-413h-107zM1013 872q-59 0 -103 48t-44 116t43 116t103 48t102 -41v248h103v-533h-101v41q-43 -43 -103 -43zM1354 877v501h170q160 0 159 -129q0 -55 -43 -102q86 -41 86 -127q0 -59 -44 -101t-107 -42h-221zM287 514q0 14 -35 14
q-64 0 -72 64q0 20 8 31l54 -27q66 -14 78 -30t12 -40t-51 -66t-52 -75q0 -61 64 -61q31 0 88 32q76 56 89 60t36 6t38 5t50 34t69 34t86 37t82 41l64 35q25 8 41 8q53 0 137 -81t125 -146q8 -17 15 -71t36 -125l88 -97q2 0 2 -2l-4 -4q-35 -6 -71 37q-18 41 -45 49
q-2 0 -2 -4t12 -16q18 -35 20 -43q4 -18 37 -37l21 -10q4 -4 2 -9l-4 -2q-53 0 -88 35q-6 12 -21 12q-27 -26 -41 -26h-35t-63 -15t-47 7v41l10 14q0 10 -19 10q0 8 31 39q6 23 21 41l-4 4q-31 -8 -50 -6q-23 -14 -47 -8q-2 2 -2 8q25 37 19 84q-2 4 -5 4t-8 -4
q-8 -51 -22 -74q-4 -4 -41 -14q-8 -4 -8 -10l10 -25l33 -57q0 -14 -10 -49q10 -10 30 38q0 14 -4 21l-33 63l11 7l22 -7q10 -33 22 -48t11 -34q0 -19 -29 -53q-8 -8 -33 -8h-10q-103 -56 -133 -29q-6 4 -22 33q-4 6 -16 6t-17 2l-25 43q0 2 4 11q20 4 35 4h8q14 0 23 -9
q4 -6 14 -25t29 -28h6q23 0 43 10q44 34 -14 76q-33 14 -56 41l-12 31q-6 6 -10 2v-18q2 -4 -2 -17q-4 -4 -17 -4h-98l-47 -4q-23 0 -39 16q-4 8 -4 28t8 56q0 4 -8 4q-4 4 -10 -2l-6 -42q-5 -28 -15 -52q-22 -52 -116 -61q-86 0 -119 -51q-6 -12 -6 -19h6q47 51 121 47
q52 0 74 9t44 38l19 27q2 2 12 -8l-14 -33q-13 -29 -25 -34t-34 -17t-40 -13l-51 7q-27 0 -41 -12t-34 -23q-20 -10 -27 -10q-29 6 -35 0l-31 -39q-8 -4 -18 -4l-39 6q4 33 16 49q23 0 37 31q37 16 47 34l25 48l2 2l33 2l28 10q0 2 9 10q6 10 4 16l-15 41l-4 60q0 4 -20 0
q-73 -14 -107 19q-33 34 -33 75t48 84q47 43 47 45zM1559 428q-5 0 -25 -4h-6l-51 27l-9 -2q-4 0 -6 -3l-22 -6l-29 -4h-4l-21 4l-28 -10l-51 -12l-4 4q4 12 63 35t74 20q4 0 -4 -6q-18 -10 -19 -12h4l54 10q27 0 36 -2h13q20 0 28 14q0 2 -6 2h-8q-2 -2 -6 -2l-10 -2l-54 6
q-2 0 -2 2t41 2l27 7l20 2q2 2 10 2t12 -2q5 -2 15 0t11 4q0 10 -31 10t-31 -1t-2 -1h-4l-53 -6q-2 0 -2 2t19 7t24 3q-4 4 -27 4q-164 0 -303 -71l-2 -3q-84 91 -92 99q-80 80 -135 88q76 73 175 113t195 40q156 0 273 -73q-86 49 -184 49t-144 -19q41 8 102 9
q186 0 297 -101q-53 31 -112 47q117 -37 177 -142t60 -228q0 -180 -108 -314q-113 -133 -279 -172l8 4q-20 -4 -24 -4l22 6l-24 -4q150 35 252 133q2 0 6 5v2q70 70 69 88q-16 -12 -40 -43t-37 -43q14 16 14 20h-4v2l-8 -4q-95 -84 -183 -121t-188 -37t-226 55
q41 -18 72 -25t35 -5q-29 8 -86 33q61 -10 92 -4q-117 4 -182 69q29 -18 45 -20q-45 29 -84 67q86 -72 198 -72t218 42q-88 -6 -232 37l48 -29q0 -6 -43 8t-74 33l-2 2q23 10 59 16q2 -2 4 -2h31q16 0 49 19l6 2q4 0 4 -2q41 -35 75 -34t45 6t5 17q0 10 6 11q9 0 17 6t8 12
q100 25 145 94q-18 -12 -25 -12t-7 6t34 26t54 45q20 24 37 70q18 46 24 60q-23 4 -75 4q-52 -1 -135 -25t-99 -28q0 -6 -9 -6t-12 -3h-20v3q0 12 14 14l58 20h6q0 4 4 4l8 2l14 9l15 4h4q4 2 22 10h4q4 2 7 2l41 4h2q10 0 16 2q2 4 6 0h2q4 4 10 4l2 -2q2 2 5 2h14q4 0 6 4
h10q20 1 33 11q14 10 16 14l-20 2h-18zM1051 -98v-1v1z" />
    <glyph glyph-name="CR" horiz-adv-x="555" 
 />
    <glyph glyph-name="Iacute_J.loclNLD" horiz-adv-x="1476" 
d="M172 1487l137 389h451l-258 -389h-330zM133 0v1378h399v-1378h-399zM979 1487l137 389h451l-258 -389h-330zM678 0v358h115q81 0 117 29t36 92v899h397v-956q0 -422 -469 -422h-196z" />
    <glyph glyph-name="Idotaccent.loclTRK" horiz-adv-x="665" 
d="M330 1452q-98 0 -166 66t-68 160t68 159q68 66 166 66t167 -66t69 -160q0 -93 -70 -159q-68 -66 -166 -66zM133 0v1378h399v-1378h-399z" />
    <glyph glyph-name="A.ordn" horiz-adv-x="911" 
d="M522 868l-67 275l-68 -275h135zM600 549l-29 119h-235l-29 -119h-307l270 829h369l272 -829h-311z" />
    <glyph glyph-name="C.ordn" horiz-adv-x="980" 
d="M486 532q-192 0 -320 122q-129 122 -129 310t129 311q130 122 322 122q192 -1 319 -105t137 -270h-311q-27 96 -135 96q-64 0 -104 -42t-40 -110t40 -112q40 -43 104 -43q109 0 135 96h311q-12 -167 -139 -271t-319 -104z" />
    <glyph glyph-name="D.ordn" horiz-adv-x="962" 
d="M391 809h74q65 0 105 42t40 115q0 74 -39 114t-106 40h-74v-311zM86 551v827h385q199 0 327 -116t128 -294q0 -179 -130 -298t-325 -119h-385z" />
    <glyph glyph-name="E.ordn" horiz-adv-x="684" 
d="M88 551v827h541v-231h-236v-76h219v-205h-219v-82h242v-233h-547z" />
    <glyph glyph-name="G.ordn" horiz-adv-x="989" 
d="M504 856v170h422v-281q-61 -100 -174 -156t-252 -57q-207 0 -335 121t-128 311t128 312q129 121 317 121t306 -85t138 -227l-303 -2q-29 59 -113 59t-132 -49q-48 -50 -48 -130t50 -130q50 -51 129 -51t138 35v39h-143z" />
    <glyph glyph-name="H.ordn" horiz-adv-x="921" 
d="M86 551v827h305v-282h139v282h306v-827h-306v287h-139v-287h-305z" />
    <glyph glyph-name="I.ordn" horiz-adv-x="477" 
d="M86 551v827h305v-827h-305z" />
    <glyph glyph-name="J.ordn" horiz-adv-x="538" 
d="M8 551v258h74q35 0 50 14t15 47v508h306v-544q0 -283 -318 -283h-127z" />
    <glyph glyph-name="K.ordn" horiz-adv-x="907" 
d="M391 551h-305v827h305v-319l162 319h334l-225 -403l235 -424h-336l-170 338v-338z" />
    <glyph glyph-name="M.ordn" horiz-adv-x="1146" 
d="M1063 1378v-827h-277v428l-110 -428h-203l-108 432v-432h-277v827h379l108 -407l105 407h383z" />
    <glyph glyph-name="N.ordn" horiz-adv-x="921" 
d="M557 1378h279v-827h-299l-170 352v-352h-279v827h297l172 -360v360z" />
    <glyph glyph-name="P.ordn" horiz-adv-x="786" 
d="M371 1001h45q70 0 70 71t-70 71h-45v-142zM86 551v827h336q162 0 253 -81t91 -221t-91 -218t-253 -78h-45v-229h-291z" />
    <glyph glyph-name="R.ordn" horiz-adv-x="839" 
d="M371 1001h45q70 0 70 71t-70 71h-45v-142zM379 780v-229h-291v827h336q162 0 253 -81t91 -223t-96 -220l159 -303h-321l-100 229h-31z" />
    <glyph glyph-name="S.ordn" horiz-adv-x="741" 
d="M369 532q-162 0 -251 77t-93 216h268q2 -82 80 -82q63 0 63 48q0 20 -12 29t-43 18l-113 30q-225 59 -225 258q0 123 88 197q89 74 235 74t232 -74t94 -209h-266q0 70 -57 70t-58 -45q0 -31 47 -47l117 -31q233 -66 234 -260q0 -127 -89 -198t-251 -71z" />
    <glyph glyph-name="T.ordn" horiz-adv-x="745" 
d="M211 551v553h-180v274h684v-274h-201v-553h-303z" />
    <glyph glyph-name="U.ordn" horiz-adv-x="909" 
d="M829 883q0 -159 -102 -255t-271 -96q-168 0 -272 96t-104 255v495h305v-491q0 -76 68 -76q74 0 73 76v491h303v-495z" />
    <glyph glyph-name="Z.ordn" horiz-adv-x="739" 
d="M692 809v-258h-641v231l273 338h-273v258h637v-231l-280 -338h284z" />
    <glyph glyph-name="iacute_j.loclNLD" horiz-adv-x="1200" 
d="M733 1147l144 383h426l-244 -383h-326zM510 -334v309h57q76 0 107 28t31 95v932h389v-954q0 -197 -110 -303t-312 -107h-162zM133 1147l143 383h426l-243 -383h-326zM104 0v1030h392v-1030h-392z" />
    <glyph glyph-name="i.loclTRK.loclTRK" horiz-adv-x="600" 
d="M301 1133q-94 0 -157 61q-62 62 -62 152t62 151t156 61t158 -60q62 -62 62 -152t-62 -152q-63 -61 -157 -61zM104 0v1030h392v-1030h-392z" />
    <glyph glyph-name="uni0414.loclBGR" horiz-adv-x="1478" 
d="M754 958l-199 -600h377zM1452 358v-614h-373v256h-682v-256h-370v614h123l387 1020h428l364 -1020h123z" />
    <glyph glyph-name="uni041B.loclBGR" horiz-adv-x="1341" 
d="M1341 0h-432l-235 862l-244 -862h-430l459 1378h424z" />
    <glyph glyph-name="uni0413.ordn" horiz-adv-x="647" 
d="M86 1378h539v-274h-234v-553h-305v827z" />
    <glyph glyph-name="uni0415.ordn" horiz-adv-x="684" 
d="M88 551v827h541v-231h-236v-76h219v-205h-219v-82h242v-233h-547z" />
    <glyph glyph-name="uni0419.ordn" horiz-adv-x="921" 
d="M836 1378v-827h-291v344l-172 -344h-285v827h293v-350l172 350h283zM764 1690q0 -118 -82 -188t-222 -70t-223 70t-83 188h215q-1 -31 23 -54q24 -22 69 -22t67 22t23 54h213z" />
    <glyph glyph-name="uni041C.ordn" horiz-adv-x="1146" 
d="M1063 1378v-827h-277v428l-110 -428h-203l-108 432v-432h-277v827h379l108 -407l105 407h383z" />
    <glyph glyph-name="uni041E.ordn" horiz-adv-x="999" 
d="M500 811q68 0 108 43t39 111q0 69 -40 111q-41 42 -107 42t-107 -42t-41 -110t40 -112q40 -43 108 -43zM965 965q0 -189 -130 -311t-336 -122t-335 121t-129 311t129 312q129 121 335 121t336 -121t130 -311z" />
    <glyph glyph-name="uni0425.ordn" horiz-adv-x="901" 
d="M887 551h-344l-92 215l-93 -215h-344l246 436l-233 391h342l92 -188l67 188h344l-221 -405z" />
    <glyph glyph-name="uni042F.ordn" horiz-adv-x="839" 
d="M471 999v144h-63q-70 0 -70 -72q0 -31 18 -51t52 -21h63zM399 1378h355v-827h-293v225h-31l-98 -225h-322l152 291q-106 84 -106 228t90 226q91 82 253 82z" />
    <glyph glyph-name="uni0432.loclBGR" horiz-adv-x="1243" 
d="M651 291q76 0 118 36t42 101q0 137 -172 137h-166v-90q0 -184 178 -184zM616 1092q-64 0 -103 -42q-40 -42 -40 -122v-101h105q174 0 174 144q0 55 -36 88t-100 33zM1192 414q0 -197 -148 -319t-397 -122q-251 -1 -401 139t-150 377v414q0 242 137 372t378 130t373 -102
t132 -278t-125 -282q201 -98 201 -329z" />
    <glyph glyph-name="uni0433.loclBGR" horiz-adv-x="964" 
d="M474 -27q-210 0 -324 88t-115 250q0 121 73 196t228 118l164 47q70 20 69 59q0 29 -22 46q-23 17 -60 18q-92 0 -98 -90h-334q12 166 125 259t302 93t305 -93t116 -247q0 -229 -291 -309l-163 -46q-45 -12 -61 -25t-15 -38q0 -63 94 -63q117 0 125 104h340
q-6 -174 -127 -270t-331 -97z" />
    <glyph glyph-name="uni0453.loclBGR" horiz-adv-x="964" 
d="M313 1147l144 383h426l-244 -383h-326zM474 -27q-210 0 -324 88t-115 250q0 121 73 196t228 118l164 47q70 20 69 59q0 29 -22 46q-23 17 -60 18q-92 0 -98 -90h-334q12 166 125 259t302 93t305 -93t116 -247q0 -229 -291 -309l-163 -46q-45 -12 -61 -25t-15 -38
q0 -63 94 -63q117 0 125 104h340q-6 -174 -127 -270t-331 -97z" />
    <glyph glyph-name="uni0491.loclBGR" horiz-adv-x="964" 
d="M474 -27q-210 0 -324 88t-115 250q0 121 73 196t228 118l164 47q70 20 69 59q0 29 -22 46q-23 17 -60 18q-92 0 -98 -90h-334q8 121 73 205t175 120v256h359v-256q114 -37 178 -119t63 -194q0 -229 -291 -309l-163 -46q-45 -12 -61 -25t-15 -38q0 -63 94 -63
q117 0 125 104h340q-6 -174 -127 -270t-331 -97z" />
    <glyph glyph-name="uni0434.loclBGR" horiz-adv-x="1292" 
d="M629 371q84 0 134 54t50 143q0 88 -50 142t-134 54t-135 -54q-52 -54 -52 -142t52 -143q52 -54 135 -54zM834 1030h356v-885q0 -237 -150 -371t-399 -134t-390 96q-140 96 -157 272h371q18 -92 164 -92q170 0 170 166v106q-102 -106 -288 -106t-321 139t-135 349t136 348
q137 138 341 139q204 0 302 -135v108z" />
    <glyph glyph-name="uni0436.loclBGR" horiz-adv-x="1712" 
d="M1051 0h-392v430l-262 -430h-426l342 545l-317 485h412l251 -389v737h392v-739l254 391h411l-317 -483l340 -547h-426l-262 430v-430z" />
    <glyph glyph-name="uni0437.loclBGR" horiz-adv-x="1038" 
d="M1012 43q0 -180 -138 -292q-138 -111 -360 -111q-221 0 -350 122t-141 349h354q2 -66 37 -103t93 -37t94 37t36 96q0 60 -39 94t-102 33h-121v189h2v76h119q61 0 97 32t36 89t-33 89t-90 32t-92 -38q-35 -37 -39 -102h-348q12 215 145 338t348 123t342 -108t127 -283
q0 -209 -182 -301q205 -96 205 -324z" />
    <glyph glyph-name="uni0438.loclBGR" horiz-adv-x="1220" 
d="M725 1030h389v-1030h-356v80q-111 -106 -281 -106t-275 115q-105 116 -106 308v633h391v-573q0 -59 31 -95t85 -36t88 36t34 95v573z" />
    <glyph glyph-name="uni0439.loclBGR" horiz-adv-x="1220" 
d="M1001 1526q0 -186 -101 -286q-100 -100 -292 -99q-192 0 -294 99q-101 99 -101 286h268q0 -141 127 -142q123 0 123 142h270zM725 1030h389v-1030h-356v80q-111 -106 -281 -106t-275 115q-105 116 -106 308v633h391v-573q0 -59 31 -95t85 -36t88 36t34 95v573z" />
    <glyph glyph-name="uni045D.loclBGR" horiz-adv-x="1220" 
d="M725 1030h389v-1030h-356v80q-111 -106 -281 -106t-275 115q-105 116 -106 308v633h391v-573q0 -59 31 -95t85 -36t88 36t34 95v573zM442 1147l-243 383h428l141 -383h-326z" />
    <glyph glyph-name="uni043A.loclBGR" horiz-adv-x="1171" 
d="M496 0h-392v1378h392v-751l262 403h413l-323 -498l352 -532h-430l-274 420v-420z" />
    <glyph glyph-name="uni045C.loclBGR" horiz-adv-x="1171" 
d="M496 0h-392v1378h392v-751l262 403h413l-323 -498l352 -532h-430l-274 420v-420zM584 1147l143 383h426l-244 -383h-325z" />
    <glyph glyph-name="uni043B.loclBGR" horiz-adv-x="1146" 
d="M739 0l-166 594l-167 -594h-412l371 1030h421l365 -1030h-412z" />
    <glyph glyph-name="uni043F.loclBGR" horiz-adv-x="1220" 
d="M741 1057q173 0 277 -117t104 -309v-631h-389v573q0 59 -32 95t-85 34q-53 0 -87 -36t-33 -93v-573h-392v1030h357v-82q108 109 280 109z" />
    <glyph glyph-name="uni0442.loclBGR" horiz-adv-x="1828" 
d="M1333 1057q185 0 291 -114t107 -312v-631h-388v573q0 59 -30 95q-31 34 -83 34t-84 -34t-32 -93v-575h-391v573q0 59 -30 95t-83 34q-53 0 -84 -34t-30 -95v-573h-392v1030h357v-82q104 109 278 109t279 -129q129 129 315 129z" />
    <glyph glyph-name="uni0447.loclBGR" horiz-adv-x="1202" 
d="M698 1030h392v-1030h-392v268q-78 -16 -135 -16q-241 0 -365 124t-124 365v289h391v-250q0 -170 158 -170q31 0 75 11v409z" />
    <glyph glyph-name="uni0446.loclBGR" horiz-adv-x="1292" 
d="M1200 328h60v-584h-371v291q-47 23 -82 59q-115 -121 -300 -121t-298 119t-113 305v633h391v-573q0 -59 31 -95t85 -36t88 36t34 95v573h389v-606q0 -96 86 -96z" />
    <glyph glyph-name="uni0448.loclBGR" horiz-adv-x="1837" 
d="M496 -27q-186 0 -292 114q-105 114 -106 312v631h387v-573q0 -59 31 -95t83 -34q52 0 84 34t32 93v575h391v-573q0 -59 30 -95t83 -34q53 0 84 34t30 95v573h391v-1030h-356v82q-104 -109 -278 -109t-279 129q-129 -129 -315 -129z" />
    <glyph glyph-name="uni0449.loclBGR" horiz-adv-x="1900" 
d="M1808 328h62v-584h-371v291q-45 20 -82 59q-115 -121 -307 -121t-299 131q-125 -131 -315 -131t-295 115q-104 115 -105 309v633h389v-573q0 -59 30 -95t82 -36t84 36t32 93v575h391v-573q0 -61 30 -97t83 -34q53 0 85 36t31 95v573h389v-606q0 -96 86 -96z" />
    <glyph glyph-name="uni044C.loclBGR" horiz-adv-x="1095" 
d="M580 293q50 0 78 29t28 77q0 113 -131 113h-84v-92q0 -127 109 -127zM487 801h74q229 0 361 -110t133 -299q0 -189 -128 -304t-346 -115t-352 129q-133 129 -133 347v581h391v-229z" />
    <glyph glyph-name="uni044A.loclBGR" horiz-adv-x="1196" 
d="M682 293q49 0 77 29t27 77q0 113 -129 113h-86v-92q0 -127 111 -127zM683 -27q-218 0 -351 129t-133 347v253h-230v328h619v-229h76q227 0 359 -110t132 -299t-127 -304t-345 -115z" />
    <glyph glyph-name="uni044B.loclBGR" horiz-adv-x="1669" 
d="M1165 0v1030h391v-1030h-391zM580 293q50 0 78 29t28 77q0 113 -131 113h-84v-92q0 -127 109 -127zM487 801h74q229 0 361 -110t133 -299q0 -189 -128 -304t-346 -115t-352 129q-133 129 -133 347v581h391v-229z" />
    <glyph glyph-name="uni044E.loclBGR" horiz-adv-x="1808" 
d="M1182 311q84 1 135 57t51 146t-51 146t-135 56t-136 -56t-52 -146t52 -146t136 -57zM1182 -27q-201 -1 -352 105t-201 278h-125v-356h-391v1378h391v-694h129q55 168 203 270t346 103q244 0 410 -156t165 -386q1 -230 -165 -386t-410 -156z" />
    <glyph glyph-name="uni0431.loclSRB" horiz-adv-x="1169" 
d="M418 441q0 -73 47 -120t120 -47t120 48t47 120q0 70 -47 116t-120 46t-120 -45t-47 -118zM580 -27q-238 0 -383 128t-146 337q0 156 85 270t224 156l-55 33q-98 59 -141 119t-43 147t79 151t206 64h600v-295h-412q-35 0 -35 -22q0 -13 23 -27l260 -155q143 -87 210 -191
t66 -244q0 -207 -150 -339t-388 -132z" />
    <glyph glyph-name="uni0438.loclSRB" horiz-adv-x="1241" 
d="M737 1030h391v-1030h-391v387l-233 -197v-190h-391v1030h391v-399l233 196v203z" />
    <glyph glyph-name="Eta.ordn" horiz-adv-x="921" 
d="M86 551v827h305v-282h139v282h306v-827h-306v287h-139v-287h-305z" />
    <glyph glyph-name="Nu.ordn" horiz-adv-x="921" 
d="M557 1378h279v-827h-299l-170 352v-352h-279v827h297l172 -360v360z" />
    <glyph glyph-name="Omicron.ordn" horiz-adv-x="999" 
d="M500 811q68 0 108 43t39 111q0 69 -40 111q-41 42 -107 42t-107 -42t-41 -110t40 -112q40 -43 108 -43zM965 965q0 -189 -130 -311t-336 -122t-335 121t-129 311t129 312q129 121 335 121t336 -121t130 -311z" />
    <glyph glyph-name="Sigma.ordn" horiz-adv-x="675" 
d="M635 809v-258h-586v235l111 187l-111 170v235h572v-258h-228l105 -145l-113 -166h250z" />
    <glyph glyph-name="zero.tf" horiz-adv-x="1187" 
d="M453 496q0 -174 140 -174t140 174v387q0 174 -140 174t-140 -174v-387zM1124 487q0 -231 -145 -373t-386 -141q-241 -1 -386 141t-146 373v404q-1 231 145 373t387 141q241 0 386 -141t145 -373v-404z" />
    <glyph glyph-name="one.tf" horiz-adv-x="1187" 
d="M877 358h229v-358h-913v358h294v641l-290 -90l-88 328l452 141h316v-1020z" />
    <glyph glyph-name="two.tf" horiz-adv-x="1187" 
d="M1102 334v-334h-1028v141q0 295 377 539q161 104 203 143t42 97q0 121 -114 120q-119 0 -119 -157h-387q0 246 139 384t377 138t370 -118t132 -326q0 -161 -82 -259t-264 -216t-222 -152h576z" />
    <glyph glyph-name="three.tf" horiz-adv-x="1187" 
d="M1118 385q0 -182 -145 -297t-379 -115t-371 129t-147 367h370q2 -70 39 -109q37 -38 99 -38t102 34q39 34 39 89q0 57 -37 89t-104 31h-133v277h127q137 0 137 112q0 53 -35 84t-96 31q-62 0 -100 -37t-40 -100h-364q10 219 152 346t366 127t359 -110q134 -110 135 -287
q-1 -213 -183 -303q209 -94 209 -320z" />
    <glyph glyph-name="four.tf" horiz-adv-x="1187" 
d="M657 530v441l-272 -441h272zM1157 530v-321h-149v-209h-390v209h-591v301l553 868h428v-848h149z" />
    <glyph glyph-name="five.tf" horiz-adv-x="1187" 
d="M694 915q193 0 318 -130q125 -129 125 -339q-1 -210 -147 -342t-384 -131q-238 0 -375 124t-147 347h375q8 -57 46 -91q39 -34 99 -34q60 1 101 45t41 112t-43 111q-41 44 -113 44t-119 -70h-356v817h948v-334h-580v-176q94 47 211 47z" />
    <glyph glyph-name="six.tf" horiz-adv-x="1187" 
d="M590 326q68 0 112 46t46 116q0 70 -46 114q-46 45 -112 45q-68 0 -112 -45t-44 -115q0 -69 44 -115t112 -46zM589 -27q-224 0 -377 152t-153 375q0 94 35 182t129 227l314 469h456l-268 -413q172 -25 286 -158t113 -318q0 -217 -156 -367t-379 -149z" />
    <glyph glyph-name="seven.tf" horiz-adv-x="1187" 
d="M82 1378h1008v-325l-500 -1053h-424l514 1028h-598v350z" />
    <glyph glyph-name="eight.tf" horiz-adv-x="1187" 
d="M594 264q66 0 108 39t41 104q0 65 -42 105q-41 40 -107 41q-66 0 -108 -42q-42 -43 -42 -107t42 -102t108 -38zM595 1114q-58 0 -97 -36t-39 -93t38 -95t97 -38t97 38t38 95t-38 93t-96 36zM1133 387q-1 -190 -145 -302t-394 -112t-393 112t-144 302q0 229 193 334
q-168 103 -168 287t139 290t373 106t372 -106q140 -106 140 -290t-168 -287q195 -104 195 -334z" />
    <glyph glyph-name="nine.tf" horiz-adv-x="1187" 
d="M598 1053q-68 0 -113 -46t-45 -116t45 -115t113 -45t112 45t44 115t-44 116t-112 46zM63 905q0 201 156 351t380 149q224 0 377 -152t152 -374q0 -95 -34 -183t-129 -227l-314 -469h-456l268 414q-172 26 -286 158t-114 333z" />
    <glyph glyph-name="zero.zero" horiz-adv-x="1591" 
d="M797 307q156 0 257 109t101 274q0 90 -31 164l-503 -504q82 -43 176 -43zM797 1071q-156 1 -258 -107t-103 -274q0 -92 31 -166l504 504q-82 43 -174 43zM795 1405q325 0 531 -201t206 -514t-208 -515t-530 -202t-529 202q-208 202 -208 515t207 514t531 201z" />
    <glyph glyph-name="exclamdown.case" horiz-adv-x="737" 
d="M369 1407q94 0 155 -58q62 -57 62 -149t-62 -151t-155 -59t-155 58q-62 60 -62 151t61 150q62 58 156 58zM211 883h317l70 -881h-461z" />
    <glyph glyph-name="questiondown.case" horiz-adv-x="876" 
d="M518 987q-94 -1 -156 59t-61 151q0 91 61 149q62 58 156 59q94 0 156 -58q62 -57 61 -149q1 -92 -61 -152t-156 -59zM784 0h-319q-193 0 -305 97t-111 261q0 111 70 202t237 198v123h328v-265q-168 -110 -207 -142t-39 -66q0 -76 94 -76h252v-332z" />
    <glyph glyph-name="emdash.down" horiz-adv-x="2045" 
d="M100 406v327h1844v-327h-1844z" />
    <glyph glyph-name="endash.down" horiz-adv-x="1021" 
d="M55 406v327h912v-327h-912z" />
    <glyph glyph-name="hyphen.down" horiz-adv-x="679" 
d="M68 406v327h542v-327h-542z" />
    <glyph glyph-name="uni0308.case" 
d="M252 1477q-88 0 -151 59q-62 59 -62 142q0 82 61 142q62 60 152 60t150 -57t60 -143t-60 -145q-62 -58 -150 -58zM-469 1678q0 82 61 142q62 60 152 60t150 -57t61 -143t-61 -145q-62 -58 -150 -58t-151 59q-62 59 -62 142z" />
    <glyph glyph-name="uni0307.case" 
d="M-4 1452q-98 0 -166 66t-68 160t68 159q68 66 166 66t167 -66t69 -160q0 -93 -70 -159q-68 -66 -166 -66z" />
    <glyph glyph-name="gravecomb.case" 
d="M-168 1487l-244 389h439l135 -389h-330z" />
    <glyph glyph-name="acutecomb.case" 
d="M-164 1487l137 389h451l-258 -389h-330z" />
    <glyph glyph-name="uni030B.case" 
d="M88 1487l166 389h364l-256 -389h-274zM-340 1487l143 389h326l-166 -389h-303z" />
    <glyph glyph-name="uni0302.case" 
d="M446 1487h-311l-137 160l-137 -160h-310l291 389h314z" />
    <glyph glyph-name="uni030C.case" 
d="M135 1876h309l-292 -389h-314l-291 389h314l137 -160z" />
    <glyph glyph-name="uni0306.case" 
d="M-4 1477q-205 -1 -326 107t-121 288h281q0 -62 47 -102t120 -40t120 40q47 38 47 102h280q0 -180 -121 -288q-122 -107 -327 -107z" />
    <glyph glyph-name="uni030A.case" 
d="M-3 1583q35 0 57 23q22 24 22 60t-22 58t-58 21q-36 0 -58 -22q-22 -23 -22 -59t22 -58t59 -23zM-6 1386q-127 0 -209 78t-82 201t82 200t210 77t210 -77t82 -200t-83 -201t-210 -78z" />
    <glyph glyph-name="tildecomb.case" 
d="M181 1464q-97 0 -201 44t-162 44q-106 0 -224 -69v274q118 84 216 84t204 -44t162 -44q106 0 223 70v-277q-121 -82 -218 -82z" />
    <glyph glyph-name="uni0304.case" 
d="M-358 1524v286h708v-286h-708z" />
    <glyph glyph-name="uni0327.cr" 
d="M-170 25h338v-281h-338v281z" />
    <glyph glyph-name="uni0304.i" 
d="M-301 1180v270h596v-270h-596z" />
    <glyph glyph-name="uni0328.long" 
d="M-258 -393q-139 0 -219 57q-80 56 -80 152t74 168t311 213l170 -70l-145 -150q-51 -55 -52 -83q0 -53 66 -54h55v-219q-100 -14 -180 -14z" />
    <glyph glyph-name="uni030C.slovak" 
d="M-150 983l7 395h391l-121 -395h-277z" />
    <glyph glyph-name="brevecombcy" 
d="M389 1526q0 -186 -101 -286q-100 -100 -292 -99q-192 0 -294 99q-101 99 -101 286h268q0 -141 127 -142q123 0 123 142h270z" />
    <glyph glyph-name="brevecombcy.case" 
d="M453 1872q0 -186 -122 -290t-335 -105q-213 0 -336 105t-123 290h281q0 -66 48 -104t130 -38t129 38t47 104h281z" />
    </font>
</defs>
</svg>
