<?xml version="1.0" encoding="utf-8"?>
<!-- Generator: Adobe Illustrator 19.2.0, SVG Export Plug-In . SVG Version: 6.00 Build 0)  -->
<!DOCTYPE svg PUBLIC "-//W3C//DTD SVG 1.1//EN" "http://www.w3.org/Graphics/SVG/1.1/DTD/svg11.dtd">
<svg version="1.1" id="Calque_1" xmlns="http://www.w3.org/2000/svg" xmlns:xlink="http://www.w3.org/1999/xlink" x="0px" y="0px"
	 viewBox="0 0 500 500" style="enable-background:new 0 0 500 500;" xml:space="preserve">
<style type="text/css">
	.st0{fill:url(#SVGID_1_);}
	.st1{fill:url(#SVGID_2_);}
	.st2{fill:url(#SVGID_3_);}
	.st3{fill:url(#SVGID_4_);}
	.st4{fill:url(#SVGID_5_);}
	.st5{fill:url(#SVGID_6_);}
	.st6{fill:url(#SVGID_7_);}
	.st7{fill:url(#SVGID_8_);}
	.st8{fill:url(#SVGID_9_);}
	.st9{fill:url(#SVGID_10_);}
	.st10{fill:url(#SVGID_11_);}
	.st11{fill:url(#SVGID_12_);}
	.st12{fill:url(#SVGID_13_);}
	.st13{fill:url(#SVGID_14_);}
	.st14{fill:url(#SVGID_15_);}
	.st15{fill:url(#SVGID_16_);}
	.st16{fill:url(#SVGID_17_);}
	.st17{fill:url(#SVGID_18_);}
</style>
<g>
	<linearGradient id="SVGID_1_" gradientUnits="userSpaceOnUse" x1="71.9299" y1="284.5162" x2="306.2516" y2="284.5162">
		<stop  offset="0.202" style="stop-color:#5593C5"/>
		<stop  offset="0.3955" style="stop-color:#5A98C9"/>
		<stop  offset="0.6386" style="stop-color:#6AA7D6"/>
		<stop  offset="0.9072" style="stop-color:#83BFEA"/>
		<stop  offset="1" style="stop-color:#8EC9F2"/>
	</linearGradient>
	<polygon class="st0" points="71.9,240.6 112.8,217 306.3,328.4 265,352.1 	"/>
	<linearGradient id="SVGID_2_" gradientUnits="userSpaceOnUse" x1="112.7722" y1="260.8538" x2="347.1128" y2="260.8538">
		<stop  offset="0.202" style="stop-color:#5593C5"/>
		<stop  offset="0.3955" style="stop-color:#5A98C9"/>
		<stop  offset="0.6386" style="stop-color:#6AA7D6"/>
		<stop  offset="0.9072" style="stop-color:#83BFEA"/>
		<stop  offset="1" style="stop-color:#8EC9F2"/>
	</linearGradient>
	<polygon class="st1" points="112.8,217 154,193.3 347.1,305.1 306.3,328.4 	"/>
	<linearGradient id="SVGID_3_" gradientUnits="userSpaceOnUse" x1="153.9905" y1="237.3939" x2="388.064" y2="237.3939">
		<stop  offset="0.202" style="stop-color:#5593C5"/>
		<stop  offset="0.3955" style="stop-color:#5A98C9"/>
		<stop  offset="0.6386" style="stop-color:#6AA7D6"/>
		<stop  offset="0.9072" style="stop-color:#83BFEA"/>
		<stop  offset="1" style="stop-color:#8EC9F2"/>
	</linearGradient>
	<polygon class="st2" points="154,193.3 195.2,169.7 388.1,281.3 347.1,305.1 	"/>
	<linearGradient id="SVGID_4_" gradientUnits="userSpaceOnUse" x1="194.8217" y1="214.0043" x2="427.6134" y2="214.0043">
		<stop  offset="0.202" style="stop-color:#5593C5"/>
		<stop  offset="0.3955" style="stop-color:#5A98C9"/>
		<stop  offset="0.6386" style="stop-color:#6AA7D6"/>
		<stop  offset="0.9072" style="stop-color:#83BFEA"/>
		<stop  offset="1" style="stop-color:#8EC9F2"/>
	</linearGradient>
	<polygon class="st3" points="194.8,169.6 234.5,146.7 427.6,258.1 388.1,281.3 	"/>
	<linearGradient id="SVGID_5_" gradientUnits="userSpaceOnUse" x1="113.1483" y1="240.0913" x2="234.9263" y2="240.0913">
		<stop  offset="0" style="stop-color:#283972"/>
		<stop  offset="1" style="stop-color:#330062"/>
	</linearGradient>
	<polygon class="st4" points="113.1,216.8 134.4,204.8 234.9,263.3 214.6,275.4 	"/>
	<linearGradient id="SVGID_6_" gradientUnits="userSpaceOnUse" x1="154.2123" y1="216.7382" x2="276.3643" y2="216.7382">
		<stop  offset="0" style="stop-color:#283972"/>
		<stop  offset="1" style="stop-color:#330062"/>
	</linearGradient>
	<polygon class="st5" points="154.2,193.3 175.1,181.5 276.4,240 256.5,252 	"/>
	<linearGradient id="SVGID_7_" gradientUnits="userSpaceOnUse" x1="194.6674" y1="192.9658" x2="316.8194" y2="192.9658">
		<stop  offset="0" style="stop-color:#283972"/>
		<stop  offset="1" style="stop-color:#330062"/>
	</linearGradient>
	<polygon class="st6" points="194.7,169.6 214.9,157.6 316.8,216.3 296.9,228.3 	"/>
	<linearGradient id="SVGID_8_" gradientUnits="userSpaceOnUse" x1="113.1483" y1="252.1044" x2="214.1108" y2="252.1044">
		<stop  offset="0" style="stop-color:#2C6598"/>
		<stop  offset="1" style="stop-color:#330062"/>
	</linearGradient>
	<polygon class="st7" points="214.1,275.1 113.1,216.8 113.9,228.7 214.1,287.4 	"/>
	<linearGradient id="SVGID_9_" gradientUnits="userSpaceOnUse" x1="214.1108" y1="275.36" x2="234.9263" y2="275.36">
		<stop  offset="0" style="stop-color:#283972"/>
		<stop  offset="1" style="stop-color:#330062"/>
	</linearGradient>
	<polygon class="st8" points="234.9,263.3 234.7,275.1 214.1,287.4 214.1,275.1 	"/>
	<linearGradient id="SVGID_10_" gradientUnits="userSpaceOnUse" x1="154.2123" y1="228.1738" x2="256.4811" y2="228.1738">
		<stop  offset="0" style="stop-color:#2C6598"/>
		<stop  offset="1" style="stop-color:#330062"/>
	</linearGradient>
	<polygon class="st9" points="154.2,193.3 154.6,204.9 256.1,263.1 256.5,252 	"/>
	<linearGradient id="SVGID_11_" gradientUnits="userSpaceOnUse" x1="194.1688" y1="204.8117" x2="297.3109" y2="204.8117">
		<stop  offset="0" style="stop-color:#2C6598"/>
		<stop  offset="1" style="stop-color:#330062"/>
	</linearGradient>
	<polygon class="st10" points="297.3,228.6 297.3,240 194.2,181.6 194.7,169.6 	"/>
	<linearGradient id="SVGID_12_" gradientUnits="userSpaceOnUse" x1="296.9362" y1="228.1756" x2="317.1568" y2="228.1756">
		<stop  offset="0" style="stop-color:#283972"/>
		<stop  offset="1" style="stop-color:#330062"/>
	</linearGradient>
	<polygon class="st11" points="296.9,228.3 316.8,216.3 317.2,228.6 297.3,240 	"/>
	<linearGradient id="SVGID_13_" gradientUnits="userSpaceOnUse" x1="256.0925" y1="251.5378" x2="276.3643" y2="251.5378">
		<stop  offset="0" style="stop-color:#283972"/>
		<stop  offset="1" style="stop-color:#330062"/>
	</linearGradient>
	<polygon class="st12" points="256.5,252 276.4,240 276.4,251.6 256.1,263.1 	"/>
	<linearGradient id="SVGID_14_" gradientUnits="userSpaceOnUse" x1="290.9593" y1="366.1216" x2="280.6208" y2="337.7169">
		<stop  offset="0.202" style="stop-color:#8EC9F2"/>
		<stop  offset="0.3955" style="stop-color:#89C4EE"/>
		<stop  offset="0.6386" style="stop-color:#79B5E1"/>
		<stop  offset="0.9072" style="stop-color:#609DCD"/>
		<stop  offset="1" style="stop-color:#5593C5"/>
	</linearGradient>
	<polygon class="st13" points="265,352.1 265.3,375.5 306.6,352.2 306.3,328.4 	"/>
	<linearGradient id="SVGID_15_" gradientUnits="userSpaceOnUse" x1="71.9117" y1="308.0367" x2="265.1924" y2="308.0367">
		<stop  offset="0" style="stop-color:#5593C5"/>
		<stop  offset="1" style="stop-color:#2C6598"/>
	</linearGradient>
	<polygon class="st14" points="265.2,375.4 265.2,375.5 265,352.1 105.7,260.2 72,240.6 71.9,263.7 	"/>
	<linearGradient id="SVGID_16_" gradientUnits="userSpaceOnUse" x1="331.9547" y1="342.9919" x2="321.5376" y2="314.3712">
		<stop  offset="0.202" style="stop-color:#8EC9F2"/>
		<stop  offset="0.3955" style="stop-color:#89C4EE"/>
		<stop  offset="0.6386" style="stop-color:#79B5E1"/>
		<stop  offset="0.9072" style="stop-color:#609DCD"/>
		<stop  offset="1" style="stop-color:#5593C5"/>
	</linearGradient>
	<polygon class="st15" points="306.2,328.4 306.6,352.2 347.7,328.4 346.9,305.1 	"/>
	<linearGradient id="SVGID_17_" gradientUnits="userSpaceOnUse" x1="373.0545" y1="319.1129" x2="362.662" y2="290.5596">
		<stop  offset="0.202" style="stop-color:#8EC9F2"/>
		<stop  offset="0.3955" style="stop-color:#89C4EE"/>
		<stop  offset="0.6386" style="stop-color:#79B5E1"/>
		<stop  offset="0.9072" style="stop-color:#609DCD"/>
		<stop  offset="1" style="stop-color:#5593C5"/>
	</linearGradient>
	<polygon class="st16" points="346.9,305.1 388.1,281.3 388.1,304.6 347.7,328.4 	"/>
	<linearGradient id="SVGID_18_" gradientUnits="userSpaceOnUse" x1="413.0202" y1="295.4952" x2="402.7064" y2="267.1582">
		<stop  offset="0.202" style="stop-color:#8EC9F2"/>
		<stop  offset="0.3955" style="stop-color:#89C4EE"/>
		<stop  offset="0.6386" style="stop-color:#79B5E1"/>
		<stop  offset="0.9072" style="stop-color:#609DCD"/>
		<stop  offset="1" style="stop-color:#5593C5"/>
	</linearGradient>
	<polygon class="st17" points="427.6,258.1 388.1,281.3 388.1,304.6 428.1,281.5 	"/>
</g>
</svg>
