<?xml version="1.0" encoding="utf-8"?>
<!-- Generator: Adobe Illustrator 19.2.0, SVG Export Plug-In . SVG Version: 6.00 Build 0)  -->
<!DOCTYPE svg PUBLIC "-//W3C//DTD SVG 1.1//EN" "http://www.w3.org/Graphics/SVG/1.1/DTD/svg11.dtd">
<svg version="1.1" id="Calque_1" xmlns="http://www.w3.org/2000/svg" xmlns:xlink="http://www.w3.org/1999/xlink" x="0px" y="0px"
	 viewBox="0 0 500 500" style="enable-background:new 0 0 500 500;" xml:space="preserve">
<style type="text/css">
	.st0{fill:url(#SVGID_1_);}
	.st1{fill:url(#SVGID_2_);}
	.st2{fill:url(#SVGID_3_);}
	.st3{fill:url(#SVGID_4_);}
	.st4{fill:url(#SVGID_5_);}
	.st5{fill:url(#SVGID_6_);}
</style>
<g>
	<linearGradient id="SVGID_1_" gradientUnits="userSpaceOnUse" x1="94.2253" y1="318.8129" x2="231.5745" y2="318.8129">
		<stop  offset="0" style="stop-color:#310965"/>
		<stop  offset="1" style="stop-color:#312375"/>
	</linearGradient>
	<path class="st0" d="M322.3,318.8c0,24.9-35.7,45.1-79.7,45.1s-79.7-20.2-79.7-45.1c0-8,0.4-33,0.4-33s49.5-12.1,79.3-12.1
		c27.5,0,79.7,16.7,79.7,16.7S322.3,309.5,322.3,318.8z"/>
	<linearGradient id="SVGID_2_" gradientUnits="userSpaceOnUse" x1="158.103" y1="290.3887" x2="314.9921" y2="290.3887">
		<stop  offset="0" style="stop-color:#310965"/>
		<stop  offset="1" style="stop-color:#88C3ED"/>
	</linearGradient>
	<ellipse class="st1" cx="242.6" cy="290.4" rx="79.7" ry="45.1"/>
	<g>
		<linearGradient id="SVGID_3_" gradientUnits="userSpaceOnUse" x1="215.0105" y1="315.8624" x2="215.0105" y2="270.3817">
			<stop  offset="0" style="stop-color:#BED9ED"/>
			<stop  offset="0.1432" style="stop-color:#88C3ED"/>
			<stop  offset="1" style="stop-color:#31337E"/>
		</linearGradient>
		<path class="st2" d="M227.9,267c-15.1,2.9-25.8,10.2-25.8,18.8c0,7,7.1,13.1,17.9,16.8c0.2-1.3,0.5-2.6,0.9-3.8L227.9,267z"/>
		<linearGradient id="SVGID_4_" gradientUnits="userSpaceOnUse" x1="274.1812" y1="315.8624" x2="274.1812" y2="270.3817">
			<stop  offset="0" style="stop-color:#BED9ED"/>
			<stop  offset="0.1432" style="stop-color:#88C3ED"/>
			<stop  offset="1" style="stop-color:#31337E"/>
		</linearGradient>
		<path class="st3" d="M283,285.8c0-3.7-2.1-7.2-5.6-10.3l-12.1,27C276,298.9,283,292.8,283,285.8z"/>
		<linearGradient id="SVGID_5_" gradientUnits="userSpaceOnUse" x1="248.6833" y1="315.8624" x2="248.6833" y2="270.3817">
			<stop  offset="0" style="stop-color:#BED9ED"/>
			<stop  offset="0.1432" style="stop-color:#88C3ED"/>
			<stop  offset="1" style="stop-color:#31337E"/>
		</linearGradient>
		<path class="st4" d="M227.9,267l-7.1,31.8c-0.4,1.3-0.7,2.5-0.9,3.8c6.5,2.2,14.2,3.4,22.6,3.4c8.4,0,16.3-1.3,22.7-3.5l12.1-27
			c-7-5.9-20-9.9-34.8-9.9C237.4,265.6,232.5,266.1,227.9,267z"/>
		<linearGradient id="SVGID_6_" gradientUnits="userSpaceOnUse" x1="300.8501" y1="129.9946" x2="238.6684" y2="294.8557">
			<stop  offset="0" style="stop-color:#BED9ED"/>
			<stop  offset="0.1432" style="stop-color:#88C3ED"/>
			<stop  offset="1" style="stop-color:#31337E"/>
		</linearGradient>
		<path class="st5" d="M286.6,132.1c-17.8,0-32.5,13-35.2,30L227.9,267l-7.1,31.8c-0.4,1.3-0.7,2.5-0.9,3.8
			c6.5,2.2,14.2,3.4,22.6,3.4c8.4,0,16.3-1.3,22.7-3.5l12.1-27l41.6-92.9c0,0,0,0,0,0c2.1-4.5,3.3-9.5,3.3-14.9
			C322.3,148.1,306.3,132.1,286.6,132.1z"/>
	</g>
</g>
</svg>
