<?xml version="1.0" encoding="utf-8"?>
<!-- Generator: Adobe Illustrator 19.2.0, SVG Export Plug-In . SVG Version: 6.00 Build 0)  -->
<!DOCTYPE svg PUBLIC "-//W3C//DTD SVG 1.1//EN" "http://www.w3.org/Graphics/SVG/1.1/DTD/svg11.dtd">
<svg version="1.1" id="Calque_1" xmlns="http://www.w3.org/2000/svg" xmlns:xlink="http://www.w3.org/1999/xlink" x="0px" y="0px"
	 viewBox="0 0 500 500" style="enable-background:new 0 0 500 500;" xml:space="preserve">
<style type="text/css">
	.st0{fill:url(#SVGID_1_);}
	.st1{fill:url(#SVGID_2_);}
	.st2{fill:url(#SVGID_3_);}
	.st3{fill:url(#SVGID_4_);}
</style>
<g>
	<g>
		<g>
			
				<linearGradient id="SVGID_1_" gradientUnits="userSpaceOnUse" x1="-181.3005" y1="-62.708" x2="-181.2979" y2="-62.708" gradientTransform="matrix(4.584679e-02 -0.9989 0.9989 4.584679e-02 183.295 282.3569)">
				<stop  offset="0" style="stop-color:#310965"/>
				<stop  offset="1" style="stop-color:#475EA7"/>
			</linearGradient>
			<path class="st0" d="M112.3,460.6C112.3,460.6,112.4,460.6,112.3,460.6C112.4,460.6,112.3,460.6,112.3,460.6
				C112.3,460.6,112.3,460.6,112.3,460.6z"/>
			
				<linearGradient id="SVGID_2_" gradientUnits="userSpaceOnUse" x1="51.8984" y1="64.5139" x2="-143.1448" y2="8.8571" gradientTransform="matrix(4.584679e-02 -0.9989 0.9989 4.584679e-02 183.295 282.3569)">
				<stop  offset="0" style="stop-color:#310965"/>
				<stop  offset="1" style="stop-color:#475EA7"/>
			</linearGradient>
			<path class="st1" d="M307.8,47.2c0.1,0,0.2,0,0.3,0c0,0,0.1,0,0.1,0c0.1,0,0.2,0.1,0.3,0.1c0,0,0.1,0,0.1,0.1
				c0.1,0,0.2,0.1,0.3,0.1c0,0,0.1,0,0.1,0.1c0.1,0.1,0.3,0.2,0.4,0.3c0,0,0,0,0.1,0.1c0.1,0.1,0.3,0.3,0.4,0.4c0,0,0,0,0.1,0.1
				c0.1,0.1,0.2,0.3,0.3,0.4c0,0,0,0.1,0.1,0.1c0.1,0.1,0.2,0.3,0.2,0.4c0,0,0,0.1,0.1,0.1c0.1,0.2,0.2,0.5,0.4,0.8c0,0,0,0.1,0,0.1
				c0.1,0.3,0.2,0.6,0.3,0.9c0,0,0,0,0,0c0.1,0.2,0.1,0.4,0.2,0.7c0,0.1,0,0.1,0,0.2c0,0.2,0.1,0.3,0.1,0.5c0,0.2,0,0.3,0.1,0.5
				l0.4,3.9c0,0.3,0,0.5,0.1,0.8c0,0.1,0,0.2,0,0.4c0,0.2,0,0.4,0,0.6c0,0.1,0,0.2,0,0.3c0,0.2,0,0.5-0.1,0.7c0,0.1,0,0.1,0,0.2
				c0,0.3-0.1,0.6-0.1,0.9c-0.1,0.4-0.2,0.7-0.3,1c-1.5,3-1.7,3.2-1.8,3.4c-0.3,0.3-0.4,0.4-0.6,0.5c-0.3,0.2-0.5,0.3-0.7,0.4
				c-0.3,0.1-0.5,0.2-0.7,0.2l-0.9,0.1c-0.2,0-0.4,0.1-0.6,0.2l-11.5,47.6c-2.7,3.8-2.9,3.8-3.1,3.8l-7.3,0.2l-55.9,187.8l0,0
				c0,0,0,0,0,0c-0.2-0.1-0.3-0.3-0.5-0.4c0,0-0.1-0.1-0.1-0.1c-0.2-0.1-0.3-0.3-0.5-0.5c0,0-0.1-0.1-0.1-0.1
				c-0.2-0.2-0.4-0.4-0.6-0.7c0,0-0.1-0.1-0.1-0.1c-0.2-0.3-0.4-0.6-0.7-1c0-0.1-0.1-0.1-0.1-0.2c-0.1-0.1-0.1-0.3-0.2-0.4
				c0-0.1-0.1-0.2-0.1-0.3c-0.1-0.1-0.1-0.3-0.2-0.4c0-0.1-0.1-0.2-0.1-0.3c-0.1-0.2-0.1-0.3-0.2-0.5c0-0.1-0.1-0.2-0.1-0.2
				c-0.1-0.2-0.2-0.5-0.3-0.7c-0.2-0.5-0.3-1.1-0.5-1.6c0-0.2-0.1-0.3-0.1-0.5c-0.1-0.4-0.2-0.8-0.3-1.2c0-0.2-0.1-0.4-0.1-0.6
				c0-0.3-0.1-0.6-0.1-0.9c0-0.2-0.1-0.5-0.1-0.7c0-0.2,0-0.4,0-0.6c0-0.3,0-0.6,0-0.9c0-0.2,0-0.3,0-0.5c0-0.4,0-0.8,0-1.2
				c0-0.1,0-0.1,0-0.2c0-0.5,0-0.9,0.1-1.4c0-0.1,0-0.2,0-0.3c0-0.5,0.1-0.9,0.2-1.4l3.3-21.8c0-0.1,0-0.2,0-0.3c0-0.1,0-0.2,0-0.3
				c0-0.1,0-0.2,0-0.3c0-0.1,0-0.1,0-0.2c0,0,0,0,0-0.1c0,0,0-0.1,0-0.1c0-0.1,0-0.2,0-0.4c0-0.1,0-0.3,0-0.4c0,0,0-0.1,0-0.1
				c0,0,0-0.1,0-0.1c0-0.1,0-0.2,0-0.3c0-0.2-0.1-0.3-0.1-0.5c0-0.1,0-0.2-0.1-0.3c-0.1-0.3-0.2-0.6-0.3-0.9l-0.6-1.4
				c-0.1-0.1-0.1-0.3-0.2-0.4c0-0.1-0.1-0.1-0.1-0.2c0,0,0-0.1-0.1-0.1c0,0,0-0.1-0.1-0.1c-0.1-0.1-0.1-0.2-0.2-0.2
				c0,0-0.1-0.1-0.1-0.1c0,0,0,0,0,0c0,0,0,0,0,0c-0.1-0.1-0.1-0.1-0.2-0.1c-0.1,0-0.1-0.1-0.2-0.1c0,0,0,0,0,0c0,0,0,0,0,0
				c0,0-0.1-0.1-0.1-0.1c-0.1,0-0.1-0.1-0.2-0.1c0,0-0.1,0-0.1,0l-3.2-0.9c0,0,0,0,0,0c0,0,0,0,0,0c0,0,0,0-0.1,0c0,0,0,0,0,0
				c0,0,0,0-0.1,0c-0.1,0-0.1,0-0.2,0c0,0,0,0-0.1,0l-14.3-0.7c0,0,0,0,0,0c0,0,0,0-0.1,0c0,0,0,0,0,0c0,0,0,0,0,0c0,0-0.1,0-0.1,0
				c0,0-0.1,0-0.1,0c0,0-0.1,0-0.1,0h0l0,0l-3.3,0.6c0,0,0,0,0.1,0c-0.6,0.1-1.3,0.5-1.8,1.3c-4.3,6.8-7.7,15.2-9.8,24.5l-0.8,3.8
				c-1.1,4.8-1.8,9.9-2.2,14.9l-1.7,24.7c-0.2,3.2-1,6.4-2.1,9.1c-0.1,0.2-0.2,0.5-0.4,0.9c-0.1,0.2-0.2,0.3-0.4,0.7
				c-0.1,0.2-0.2,0.3-1.8,2.6c-0.1,0.2-0.3,0.3-0.4,0.5l-20.5,22.2c-0.3,0.3-0.5,0.6-0.9,1c-0.2,0.3-0.5,0.6-0.8,1.1
				c-0.2,0.3-0.5,0.6-0.8,1.1c-0.2,0.3-0.5,0.7-0.8,1.1c-0.2,0.3-0.3,0.6-0.6,1c-0.2,0.3-0.4,0.6-0.6,1.1c-0.2,0.3-0.3,0.6-0.6,1.1
				c-0.2,0.3-0.3,0.7-0.6,1.2c-0.1,0.3-0.3,0.6-0.5,1.1c-0.2,0.3-0.3,0.7-0.6,1.3c-0.1,0.4-0.3,0.7-0.4,1.1
				c-0.1,0.4-0.3,0.7-0.5,1.4c-0.1,0.4-0.2,0.8-0.4,1.3c-0.1,0.3-0.2,0.7-0.4,1.3c-0.1,0.4-0.2,0.8-0.4,1.4
				c-0.1,0.4-0.2,0.7-0.3,1.3c-0.1,0.4-0.2,0.8-0.3,1.5c-0.1,0.4-0.1,0.8-0.3,1.3c-0.1,0.4-0.1,0.9-0.3,1.6
				c-0.1,0.4-0.1,0.9-0.2,1.3l-0.7,5.5c0,0.4-0.1,0.8-0.2,1.5c0,0.3-0.1,0.5-0.1,1.2c0,0.2,0,0.5-0.1,1.2c0,0.2,0,0.5-0.1,1.2
				c0,0.2,0,0.4,0,1.1c0,0.2,0,0.4,0,1.1c0,0.2,0,0.5,0,1.1c0,0.2,0,0.5,0,1.1c0,0.3,0,0.6,0,1.1c0,0.4,0,0.8,0.1,1.3
				c0,0.3,0,0.6,0.1,1.3c0,0.2,0,0.5,0.1,1.1c0,0.2,0,0.5,0.1,1.1c0,0.2,0.1,0.4,0.1,1.1c0,0.2,0.1,0.4,0.2,1.1
				c0,0.2,0.1,0.4,0.2,1.1c0,0.2,0.1,0.5,0.2,1.1c0,0.2,0.1,0.5,0.2,1c0.1,0.7,0.3,1.4,0.6,2.3c0.1,0.2,0.1,0.5,0.3,1.1
				c0.1,0.2,0.1,0.4,0.3,1c0.1,0.2,0.1,0.4,0.3,1c0.1,0.2,0.1,0.4,0.3,1c0.1,0.2,0.1,0.4,0.3,0.9c0.1,0.2,0.1,0.4,0.4,0.9
				c0.1,0.2,0.2,0.4,0.4,0.9c0.1,0.2,0.2,0.4,0.4,0.9c0.1,0.3,0.3,0.6,0.5,1c0.1,0.2,0.2,0.4,0.3,0.6c0.1,0.2,0.2,0.4,0.5,0.9
				c0.2,0.3,0.4,0.6,0.5,0.9l2.6,4.1c10.7,17,24.2,28,38.8,31.7c-0.4-0.1-0.8-0.2-1.2-0.3l0,0l0,0l0,0l3.2,0.9
				c0.4,0.1,0.8,0.2,1.2,0.3c0.2,0.1,0.5,0.1,0.9,0.2c0.2,0,0.3,0.1,0.7,0.1c0.2,0,0.3,0,0.7,0.1c0,0,0.1,0,0.1,0c0,0,0,0,0,0l0,0
				c0,0,0,0,0,0l14.3,0.7c0.2,0,0.3,0,0.6,0c0.2,0,0.5,0,0.8,0c0.2,0,0.4,0,0.8-0.1c0.2,0,0.3,0,0.7-0.1l0,0l0,0l3.3-0.6
				c0.2,0,0.3-0.1,0.7-0.1c0.2,0,0.4-0.1,0.7-0.2c0.2-0.1,0.4-0.1,0.9-0.3c0.2-0.1,0.3-0.1,0.7-0.3c0.1-0.1,0.3-0.1,0.7-0.3
				c0.2-0.1,0.3-0.2,0.7-0.3c0.2-0.1,0.4-0.2,0.7-0.4c0.2-0.1,0.4-0.3,0.8-0.5c0.1-0.1,0.3-0.2,0.7-0.5c0.1-0.1,0.3-0.2,0.6-0.5
				c0.2-0.1,0.3-0.3,0.6-0.5c0.2-0.2,0.4-0.4,0.7-0.7c0.2-0.2,0.3-0.3,0.7-0.7c0.1-0.1,0.3-0.3,0.6-0.7c0.1-0.1,0.3-0.3,0.6-0.7
				c0.2-0.2,0.3-0.4,0.6-0.7c0.2-0.2,0.4-0.5,0.7-0.9c0.1-0.2,0.3-0.4,0.6-0.8c0.1-0.2,0.2-0.4,0.5-0.8c0.1-0.1,0.2-0.2,0.2-0.4
				c0.2-0.3,0.4-0.6,0.7-1.2c0.2-0.4,0.4-0.8,0.8-1.4c0.2-0.3,0.4-0.7,0.7-1.4c0.2-0.4,0.4-0.9,0.6-1.3c0.1-0.1,0.1-0.3,0.2-0.4
				c0.2-0.6,0.5-1.2,0.7-1.8c0.1-0.1,0.1-0.3,0.2-0.4c0.1-0.3,0.2-0.6,0.3-0.9c0.1-0.2,0.1-0.4,0.2-0.5c0.2-0.5,0.3-1,0.5-1.6
				c0.1-0.2,0.1-0.4,0.2-0.7c0-0.2,0.1-0.3,0.1-0.5c0.1-0.4,0.2-0.8,0.3-1.3c0.1-0.3,0.1-0.5,0.2-0.8c0-0.2,0.1-0.3,0.1-0.5
				c0.1-0.4,0.2-0.7,0.2-1.1c0.1-0.3,0.1-0.5,0.2-0.8c0-0.2,0.1-0.4,0.1-0.7c0.1-0.4,0.1-0.7,0.2-1.1c0-0.2,0.1-0.4,0.1-0.7
				c0-0.3,0.1-0.6,0.1-0.9c0-0.3,0.1-0.7,0.1-1c0-0.2,0-0.3,0.1-0.5c0-0.4,0.1-0.8,0.1-1.2c0-0.3,0.1-0.6,0.1-0.9c0-0.1,0-0.2,0-0.3
				c0.1-0.7,0.1-1.5,0.1-2.2l1.1-27.4c0-0.8,0.1-1.7,0.2-2.5c0-0.3,0.1-0.6,0.1-0.9c0.1-0.6,0.1-1.1,0.2-1.7c0-0.3,0.1-0.7,0.1-1
				c0.1-0.5,0.1-1,0.2-1.5c0.1-0.4,0.1-0.7,0.2-1.1c0.1-0.5,0.2-1,0.3-1.5c0.1-0.4,0.2-0.8,0.2-1.1c0.1-0.4,0.2-0.9,0.3-1.3
				c0.1-0.4,0.2-0.9,0.3-1.3c0.1-0.4,0.2-0.8,0.3-1.1c0.2-0.5,0.3-1.1,0.5-1.6c0.2-0.5,0.3-1,0.5-1.4c0.1-0.2,0.1-0.3,0.2-0.5
				c0.3-0.7,0.6-1.5,0.9-2.2c0.2-0.4,0.4-0.9,0.8-1.6c0.2-0.4,0.4-0.8,0.6-1.3c0.2-0.4,0.4-0.8,0.8-1.5c0.2-0.3,0.4-0.7,0.7-1.2
				c0.1-0.2,0.3-0.4,0.6-0.9c0.2-0.3,0.4-0.6,0.6-0.8l4-5.4c0.2-0.3,0.4-0.5,0.7-1c0.1-0.2,0.3-0.4,0.6-0.8c0.2-0.4,0.5-0.7,0.8-1.3
				c0.2-0.4,0.4-0.8,0.7-1.3c0.2-0.4,0.4-0.8,0.7-1.4c0.2-0.4,0.4-0.9,0.6-1.4c0.1-0.2,0.2-0.4,0.3-0.7c0,0,0,0,0,0
				c0.1-0.2,0.2-0.5,0.3-0.7c0.2-0.4,0.4-0.9,0.6-1.5c0.2-0.4,0.3-0.9,0.6-1.6c0,0,0,0,0,0c0,0,0-0.1,0-0.1c0.1-0.2,0.1-0.4,0.2-0.6
				c0,0,0-0.1,0-0.1c0.1-0.2,0.2-0.5,0.3-0.8c0-0.1,0.1-0.3,0.1-0.4c0,0,0-0.1,0-0.1c0-0.1,0.1-0.2,0.1-0.3c0,0,0,0,0-0.1
				c0,0,0-0.1,0-0.1c0-0.1,0.1-0.3,0.1-0.5c0.1-0.5,0.3-1,0.4-1.6c0-0.1,0.1-0.2,0.1-0.4c0-0.1,0.1-0.2,0.1-0.3c0-0.1,0-0.2,0.1-0.3
				c0-0.2,0.1-0.4,0.2-0.7c0-0.1,0.1-0.2,0.1-0.4c0-0.1,0-0.1,0-0.2c0-0.1,0-0.1,0-0.2c0-0.1,0-0.2,0.1-0.3c0-0.1,0-0.1,0-0.2
				c0-0.1,0.1-0.3,0.1-0.4c0.1-0.5,0.2-1,0.3-1.7c0-0.1,0-0.2,0-0.3c0,0,0,0,0-0.1c0,0,0-0.1,0-0.1c0-0.1,0-0.2,0-0.3
				c0,0,0-0.1,0-0.1c0-0.1,0-0.2,0-0.3c0-0.2,0-0.3,0.1-0.5c0-0.2,0-0.4,0.1-0.5c0,0,0-0.1,0-0.1c0-0.3,0.1-0.7,0.1-1
				c0.1-0.6,0.1-1.1,0.2-1.7c0,0,0,0,0-0.1c0-0.1,0-0.2,0-0.3c0,0,0,0,0-0.1c0,0,0-0.1,0-0.1c0-0.1,0-0.1,0-0.2c0-0.1,0-0.1,0-0.2
				c0,0,0-0.1,0-0.1c0,0,0,0,0-0.1c0-0.1,0-0.1,0-0.2c0-0.1,0-0.1,0-0.2c0,0,0,0,0,0c0,0,0-0.1,0-0.1c0-0.1,0-0.2,0-0.3
				c0,0,0,0,0-0.1c0,0,0-0.1,0-0.1c0-0.1,0-0.2-0.1-0.4c0,0,0-0.1,0-0.1c0-0.2-0.1-0.3-0.1-0.4c0,0,0,0,0,0
				c-0.1-0.1-0.1-0.3-0.2-0.4c0,0,0-0.1-0.1-0.1c0-0.1-0.1-0.2-0.1-0.3c0,0,0,0,0-0.1c0,0,0,0,0,0c0-0.1-0.1-0.2-0.2-0.2
				c0,0,0,0,0-0.1c0,0,0,0,0,0c0,0-0.1-0.1-0.1-0.1c0,0-0.1-0.1-0.1-0.1c0,0,0,0,0,0c0,0,0,0-0.1-0.1c0,0-0.1-0.1-0.1-0.1
				c0,0,0,0-0.1,0c0,0,0,0-0.1-0.1c0,0,0,0-0.1,0c0,0-0.1-0.1-0.1-0.1c0,0,0,0,0,0c0,0,0,0,0,0c-0.1,0-0.1-0.1-0.2-0.1c0,0,0,0,0,0
				c0,0,0,0-0.1,0c0,0-0.1,0-0.1,0c0,0-0.1,0-0.1,0c-0.5-0.1-1-0.3-1.4-0.4c-0.6-0.2-1.2-0.3-1.8-0.5c0,0,0,0,0,0c0,0,0,0,0,0
				c0,0,0,0,0,0c0,0,0,0,0,0c0,0-0.1,0-0.1,0c-0.1,0-0.1,0-0.2,0c0,0,0,0-0.1,0l-14.3-0.7c0,0,0,0,0,0c0,0,0,0-0.1,0
				c0,0-0.1,0-0.1,0c0,0-0.1,0-0.1,0c0,0,0,0,0,0c0,0,0,0,0,0l-3.3,0.6c0,0,0,0,0,0c0,0-0.1,0-1.8,1.3c-0.1,0.1-0.1,0.2-0.1,0.2
				l-0.7-4.3c-0.1-0.4-0.1-0.8-0.1-1.2l-1.1-19.2c0-0.1,0-0.2,0-0.3c0-0.1,0-0.2,0-0.4c0,0,0-0.1,0-0.1c0,0,0,0,0,0
				c0-0.2-0.1-0.4-0.1-0.6c0-0.1,0-0.1,0-0.2c0-0.2-0.1-0.3-0.1-0.4c0-0.1,0-0.1-0.1-0.2c-0.1-0.1-0.1-0.3-0.2-0.4
				c0-0.1-0.1-0.1-0.1-0.2c0,0,0-0.1,0-0.1c-0.1-0.1-0.1-0.2-0.2-0.3c0,0,0,0,0,0c0,0,0,0,0,0c-0.1-0.1-0.1-0.1-0.2-0.2
				c-0.1-0.1-0.1-0.1-0.2-0.2c0,0,0,0,0,0c0,0,0,0,0,0c-0.1,0-0.1-0.1-0.2-0.1c-0.1,0-0.1-0.1-0.2-0.1c0,0,0,0,0,0c0,0,0,0,0,0
				c0,0-0.1,0-0.1-0.1c-0.1,0-0.1-0.1-0.2-0.1c0,0-0.1,0-0.1,0l-2.2-0.6l56-188l7.3-0.2c0.2,0,0.4,0,3.1-3.8L312.3,67
				c0.2-0.1,0.4-0.1,0.6-0.2l0.9-0.1c0.2,0,0.4-0.1,0.7-0.2c0.2-0.1,0.4-0.2,0.7-0.4c0.2-0.1,0.4-0.3,0.6-0.5
				c0.2-0.2,0.3-0.4,1.8-3.4c0-0.2,0.1-0.3,0.1-0.5c0-0.2,0.1-0.4,0.1-0.6c0,0,0-0.1,0-0.1c0-0.2,0.1-0.5,0.1-0.7c0,0,0,0,0-0.1
				c0-0.1,0-0.1,0-0.2c0-0.2,0-0.3,0-0.5c0-0.1,0-0.1,0-0.2c0-0.1,0-0.2,0-0.3c0-0.1,0-0.2,0-0.3c0-0.1,0-0.2,0-0.3
				c0-0.1,0-0.2,0-0.4c0-0.1,0-0.1,0-0.2c0-0.2,0-0.4,0-0.6l-0.4-3.9c0-0.1,0-0.3,0-0.4c0,0,0-0.1,0-0.1c0-0.2-0.1-0.3-0.1-0.5
				c0-0.1,0-0.1,0-0.2c0-0.2-0.1-0.4-0.2-0.7c0,0,0,0,0,0c0,0,0,0,0,0c-0.1-0.3-0.2-0.6-0.3-0.9c0,0,0-0.1,0-0.1
				c-0.1-0.3-0.2-0.5-0.4-0.8c0,0,0,0,0-0.1c0,0,0,0,0-0.1c-0.1-0.1-0.2-0.3-0.2-0.4c0,0,0-0.1-0.1-0.1c-0.1-0.2-0.2-0.3-0.3-0.4
				c0,0,0,0,0,0c0,0,0,0,0,0c-0.1-0.2-0.3-0.3-0.4-0.4c0,0,0,0,0,0c0,0,0,0,0,0c-0.1-0.1-0.3-0.2-0.4-0.3c0,0,0,0,0,0
				c0,0-0.1,0-0.1,0c-0.1-0.1-0.2-0.1-0.3-0.1c0,0,0,0-0.1,0c0,0-0.1,0-0.1,0c-0.1,0-0.2-0.1-0.3-0.1c0,0-0.1,0-0.1,0c0,0,0,0-0.1,0
				c-0.1,0-0.2,0-0.3,0c0,0-0.1,0-0.1,0c0,0,0,0-0.1,0l-6-0.3C307.7,47.2,307.8,47.2,307.8,47.2z M112.3,460.6
				C112.3,460.6,112.3,460.6,112.3,460.6C112.3,460.6,112.4,460.6,112.3,460.6C112.4,460.6,112.3,460.6,112.3,460.6z"/>
		</g>
	</g>
	
		<linearGradient id="SVGID_3_" gradientUnits="userSpaceOnUse" x1="-180.4044" y1="17.6644" x2="25.0319" y2="17.6644" gradientTransform="matrix(4.584679e-02 -0.9989 0.9989 4.584679e-02 183.295 282.3569)">
		<stop  offset="0" style="stop-color:#1E72B7"/>
		<stop  offset="0.4827" style="stop-color:#37A7DF"/>
		<stop  offset="0.9879" style="stop-color:#6FC9C7"/>
	</linearGradient>
	<polyline class="st2" points="244.8,336.5 245.1,337.5 245.2,338.7 245.2,339.9 245.1,340.1 245.1,340.3 245.1,340.5 245.1,340.7 
		245.1,340.9 245,341.1 245,341.3 245,341.6 245,341.8 245,342.1 244.9,342.3 244.9,342.5 244.9,342.7 244.8,342.9 244.8,343.1 
		244.8,343.3 244.8,343.6 244.7,343.8 244.7,344.1 244.7,344.3 244.6,344.5 244.6,344.7 244.6,344.9 244.5,345.1 244.5,345.4 
		244.5,345.6 244.4,345.8 244.4,346.1 244.3,346.3 244.3,346.5 244.3,346.7 244.2,346.8 244.2,347.1 244.1,347.4 244.1,347.6 
		244,347.8 244,348 244,348.2 243.9,348.4 243.9,348.6 243.8,348.8 243.8,349.1 243.7,349.3 243.7,349.5 243.6,349.7 243.6,349.9 
		243.5,350.1 243.5,350.3 243.4,350.5 243.4,350.7 243.3,350.9 243.3,351.1 243.2,351.3 243.2,351.5 243.1,351.7 243.1,351.9 
		243,352.1 242.9,352.3 242.9,352.5 242.8,352.7 242.8,352.9 242.7,353.1 242.7,353.3 242.6,353.5 242.5,353.7 242.5,353.9 
		242.4,354.2 242.3,354.4 242.3,354.5 242.2,354.7 242.1,354.9 242.1,355.1 242,355.3 241.9,355.5 241.8,355.8 241.8,356 
		241.7,356.1 241.6,356.3 241.6,356.5 241.5,356.7 241.4,356.9 241.3,357.1 241.3,357.3 241.2,357.5 241.1,357.7 241,357.9 241,358 
		240.9,358.2 240.8,358.4 240.7,358.6 240.7,358.8 240.6,358.9 240.5,359.1 240.4,359.3 240.4,359.5 240.3,359.6 240.2,359.8 
		240.1,360 240,360.2 240,360.3 239.9,360.5 239.8,360.7 239.7,360.8 239.7,361 239.5,361.2 239.5,361.4 239.4,361.6 239.3,361.8 
		239.2,361.9 239.1,362.1 239,362.2 239,362.4 238.8,362.6 238.7,362.8 238.6,363 238.5,363.1 238.4,363.3 238.4,363.4 238.3,363.6 
		238.2,363.7 238.1,363.9 238,364.1 237.9,364.3 237.8,364.4 237.7,364.6 237.6,364.7 237.5,364.9 237.4,365 237.3,365.2 
		237.2,365.3 237.1,365.4 237.1,365.5 237,365.6 237,365.7 236.9,365.8 236.8,365.9 236.7,366 236.6,366.2 236.5,366.3 236.4,366.5 
		236.3,366.6 236.3,366.7 236.2,366.8 236.1,366.9 232.2,372.3 232.1,372.4 232,372.5 232,372.6 231.9,372.7 231.8,372.8 
		231.8,372.9 231.7,373 231.6,373.1 231.5,373.2 231.4,373.4 231.3,373.5 231.3,373.6 231.2,373.7 231.1,373.8 231.1,373.8 
		231.1,373.9 230.9,374.1 230.8,374.3 230.8,374.4 230.7,374.5 230.6,374.7 230.5,374.8 230.4,374.9 230.4,375.1 230.2,375.3 
		230.1,375.5 230,375.7 229.9,375.9 229.8,376.1 229.7,376.2 229.6,376.4 229.5,376.5 229.4,376.7 229.4,376.9 229.3,377 
		229.2,377.2 229.1,377.3 229,377.5 229,377.6 228.9,377.8 228.8,378 228.7,378.3 228.6,378.5 228.5,378.7 228.4,378.9 228.3,379 
		228.2,379.2 228.2,379.4 227.2,381.6 226.4,384 225.7,386.4 225.1,389 224.6,391.5 224.2,394.2 223.9,396.8 223.7,399.5 
		222.6,426.7 222.4,429.5 222.1,432.3 221.7,435 221.2,437.7 220.5,440.3 219.8,442.9 218.9,445.3 218,447.7 217.9,447.9 217.8,448 
		217.7,448.2 217.7,448.4 217.6,448.5 217.5,448.7 217.4,448.9 217.3,449 217.2,449.3 217.1,449.5 217,449.7 216.9,449.9 216.8,450 
		216.8,450.2 216.7,450.3 216.6,450.4 216.5,450.7 216.4,450.9 216.3,451.1 216.2,451.3 216.1,451.4 216,451.6 215.9,451.8 
		215.8,451.9 215.7,452.1 215.6,452.3 215.5,452.5 215.4,452.6 215.3,452.8 215.2,452.9 215.2,453 215.1,453.1 215.1,453.2 
		215,453.2 215,453.2 215,453.3 215,453.3 214.9,453.4 214.9,453.4 214.9,453.5 214.8,453.6 214.7,453.8 214.6,453.9 214.5,454 
		214.5,454.1 214.4,454.2 214.4,454.2 214.3,454.3 214.2,454.5 214.1,454.6 214,454.7 213.9,454.8 213.9,454.9 213.8,455 
		213.8,455.1 213.7,455.1 213.6,455.3 213.5,455.4 213.4,455.6 213.3,455.7 213.2,455.8 213.1,455.9 213.1,456 213,456.1 
		212.9,456.2 212.8,456.3 212.8,456.4 212.7,456.5 212.6,456.5 212.5,456.6 212.5,456.7 212.4,456.8 212.3,456.9 212.2,457 
		212.1,457.1 212.1,457.2 212,457.3 211.9,457.3 211.9,457.4 211.8,457.4 211.7,457.6 211.6,457.7 211.5,457.8 211.4,457.9 
		211.4,457.9 211.3,458 211.3,458.1 211.2,458.1 211.1,458.2 211,458.3 210.9,458.4 210.8,458.5 210.7,458.6 210.6,458.7 
		210.6,458.7 210.5,458.8 210.4,458.9 210.3,459 210.2,459.1 210.1,459.2 210,459.3 209.9,459.3 209.8,459.4 209.8,459.5 
		209.7,459.6 209.6,459.6 209.5,459.7 209.4,459.8 209.3,459.8 209.3,459.9 209.2,459.9 209.1,460 209,460.1 208.9,460.2 
		208.8,460.3 208.7,460.3 208.7,460.4 208.6,460.4 208.5,460.5 208.5,460.5 208.4,460.6 208.2,460.7 208.1,460.7 208.1,460.8 
		208,460.9 207.9,460.9 207.9,460.9 207.8,461 207.7,461.1 207.5,461.2 207.4,461.2 207.3,461.3 207.2,461.4 207.1,461.4 
		207.1,461.5 207,461.5 206.9,461.6 206.8,461.6 206.7,461.7 206.6,461.7 206.5,461.8 206.5,461.8 206.4,461.9 206.3,461.9 
		206.2,462 206.1,462 206,462.1 205.9,462.1 205.8,462.2 205.7,462.2 205.7,462.2 205.6,462.2 205.5,462.3 205.4,462.4 205.3,462.4 
		205.2,462.4 205.1,462.5 205,462.5 205,462.5 204.9,462.6 204.8,462.6 204.7,462.7 204.6,462.7 204.5,462.7 204.4,462.8 
		204.3,462.8 204.3,462.8 204.2,462.8 204.1,462.9 203.9,462.9 203.8,463 203.7,463 203.6,463.1 203.5,463.1 203.4,463.1 
		203.3,463.1 203.2,463.2 203.1,463.2 203,463.2 202.9,463.2 202.9,463.3 202.8,463.3 202.7,463.3 202.6,463.3 202.5,463.4 
		202.4,463.4 202.3,463.4 202.2,463.4 202.1,463.4 202.1,463.4 202,463.5 201.9,463.5 201.8,463.5 201.7,463.5 201.6,463.5 
		201.5,463.5 201.4,463.6 201.3,463.6 201.3,463.6 201.2,463.6 201.1,463.6 200.9,463.6 200.8,463.6 200.7,463.6 200.7,463.6 
		200.6,463.6 200.5,463.7 200.4,463.7 200.3,463.7 200.2,463.7 200.1,463.7 200,463.7 199.9,463.7 199.8,463.7 199.7,463.7 
		199.6,463.7 199.5,463.7 199.4,463.7 199.3,463.7 199.2,463.7 199.1,463.7 199,463.7 199,463.7 198.9,463.7 198.8,463.7 
		198.6,463.6 198.5,463.6 198.5,463.6 198.4,463.6 198.3,463.6 198.2,463.6 198.2,463.6 198,463.6 197.9,463.6 197.8,463.6 
		197.7,463.5 197.6,463.5 197.6,463.5 197.5,463.5 197.5,463.5 197.3,463.5 197.1,463.4 197,463.4 196.9,463.4 196.8,463.4 
		196.7,463.4 196.6,463.3 196.5,463.3 191.1,461.6 185.8,459.2 180.7,456.2 175.7,452.5 170.9,448.2 166.3,443.3 161.9,437.8 
		157.8,431.7 155.3,427.6 155.2,427.5 155.1,427.4 155.1,427.3 155,427.2 154.9,427.1 154.9,427 154.8,426.9 154.7,426.7 
		154.6,426.6 154.5,426.4 154.5,426.3 154.4,426.2 154.3,426.1 154.3,426 154.3,425.9 154.2,425.8 154.2,425.8 154.1,425.7 
		154.1,425.6 154,425.5 154,425.5 154,425.4 153.9,425.3 153.9,425.2 153.8,425.1 153.7,424.9 153.7,424.8 153.6,424.7 153.6,424.6 
		153.5,424.4 153.4,424.3 153.4,424.2 153.3,424.1 153.3,423.9 153.2,423.8 153.2,423.7 153.1,423.6 153.1,423.5 153,423.4 
		153,423.3 152.9,423.2 152.8,423 152.8,422.9 152.7,422.8 152.7,422.7 152.7,422.6 152.6,422.5 152.6,422.5 152.5,422.3 
		152.5,422.1 152.4,422 152.4,421.9 152.3,421.8 152.3,421.7 152.3,421.6 152.2,421.5 152.2,421.3 152.1,421.2 152,421 152,420.9 
		152,420.8 151.9,420.7 151.9,420.7 151.9,420.6 151.8,420.4 151.8,420.2 151.7,420.1 151.7,420 151.6,419.9 151.6,419.8 
		151.6,419.7 151.5,419.6 151.5,419.4 151.4,419.3 151.4,419.1 151.3,419 151.3,418.9 151.3,418.8 151.3,418.7 151.2,418.7 
		151.2,418.4 151.1,418.3 151.1,418.1 151,418 151,417.9 151,417.8 150.9,417.7 150.9,417.6 150.9,417.4 150.8,417.2 150.8,417.1 
		150.7,417 150.7,416.9 150.7,416.7 150.6,416.7 150.6,416.6 150.5,416.2 150.5,415.9 150.4,415.6 150.3,415.3 150.2,415 
		150.2,414.7 150.1,414.5 150.1,414.2 150,414 150,413.8 150,413.7 149.9,413.6 149.9,413.5 149.9,413.3 149.9,413.2 149.8,413.1 
		149.8,412.9 149.8,412.8 149.7,412.6 149.7,412.5 149.7,412.4 149.7,412.3 149.7,412.2 149.6,412.1 149.6,411.9 149.6,411.7 
		149.6,411.5 149.5,411.4 149.5,411.3 149.5,411.2 149.5,411.1 149.5,411 149.4,410.8 149.4,410.6 149.4,410.4 149.4,410.3 
		149.3,410.2 149.3,410.1 149.3,410 149.3,409.9 149.3,409.7 149.3,409.5 149.2,409.3 149.2,409.2 149.2,409.1 149.2,409 
		149.2,408.9 149.2,408.8 149.1,408.6 149.1,408.4 149.1,408.2 149.1,408.1 149.1,408 149.1,407.9 149.1,407.8 149,407.7 149,407.5 
		149,407.3 149,407.1 149,407 149,406.8 149,406.7 149,406.6 148.9,406.5 148.9,406.3 148.9,406.1 148.9,405.9 148.9,405.8 
		148.9,405.6 148.9,405.5 148.9,405.4 148.9,405.3 148.8,405.1 148.8,404.9 148.8,404.7 148.8,404.5 148.8,404.3 148.8,404.2 
		148.8,404 148.8,403.9 148.8,403.7 148.8,403.5 148.8,403.4 148.8,403.3 148.8,403.1 148.8,403 148.8,402.9 148.8,402.8 
		148.8,402.6 148.8,402.4 148.8,402.2 148.8,402.1 148.8,401.9 148.8,401.8 148.8,401.7 148.8,401.6 148.8,401.4 148.8,401.2 
		148.8,401 148.8,400.9 148.8,400.8 148.8,400.7 148.8,400.6 148.8,400.5 148.8,400.3 148.8,400.1 148.8,399.9 148.8,399.7 
		148.8,399.6 148.8,399.5 148.8,399.4 148.8,399.3 148.8,399.1 148.8,398.9 148.8,398.7 148.8,398.6 148.8,398.5 148.8,398.4 
		148.8,398.3 148.8,398.2 148.9,397.9 148.9,397.7 148.9,397.6 148.9,397.4 148.9,397.3 148.9,397.2 148.9,397.1 148.9,397 
		148.9,396.8 148.9,396.6 149,396.4 149,396.3 149,396.1 149,396 149,395.9 149,395.9 149,395.6 149,395.4 149.1,395.2 149.1,395.1 
		149.1,394.9 149.1,394.8 149.1,394.7 149.1,394.6 149.2,394.4 149.2,394.1 149.2,393.9 149.2,393.7 149.2,393.5 149.3,393.4 
		149.3,393.2 149.3,393.1 150,387.6 150,387.5 150.1,387.3 150.1,387.1 150.1,387 150.1,386.8 150.2,386.6 150.2,386.5 150.2,386.3 
		150.3,386 150.3,385.8 150.3,385.6 150.4,385.4 150.4,385.2 150.4,385 150.5,384.9 150.5,384.7 150.5,384.5 150.6,384.3 
		150.6,384.2 150.6,384 150.6,383.8 150.7,383.7 150.7,383.5 150.7,383.4 150.8,383.1 150.8,382.9 150.9,382.7 150.9,382.5 
		151,382.3 151,382.2 151,382 151.1,381.9 151.1,381.6 151.2,381.5 151.2,381.3 151.2,381.1 151.3,381 151.3,380.8 151.4,380.7 
		151.4,380.5 151.4,380.3 151.5,380.1 151.6,379.9 151.6,379.7 151.6,379.6 151.7,379.4 151.7,379.3 151.8,379.1 151.8,378.9 
		151.9,378.7 152,378.5 152,378.3 152,378.2 152.1,378 152.1,377.9 152.2,377.8 152.2,377.6 152.3,377.4 152.4,377.2 152.4,377 
		152.5,376.9 152.5,376.7 152.6,376.6 152.6,376.4 152.7,376.2 152.8,376 152.8,375.8 152.9,375.6 152.9,375.5 153,375.3 
		153.1,375.2 153.1,375 153.2,374.9 153.2,374.7 153.3,374.6 153.3,374.4 153.4,374.3 153.4,374.1 153.5,374 153.5,373.9 
		153.6,373.6 153.7,373.4 153.8,373.3 153.9,373.1 153.9,372.9 154,372.8 154.1,372.7 154.1,372.5 154.2,372.4 154.3,372.2 
		154.3,372.1 154.4,371.9 154.4,371.8 154.5,371.7 154.6,371.6 154.6,371.4 154.7,371.2 154.8,371 154.9,370.9 155,370.7 155,370.6 
		155.1,370.4 155.2,370.3 155.2,370.2 155.3,370 155.4,369.8 155.5,369.7 155.5,369.6 155.6,369.4 155.7,369.3 155.7,369.2 
		155.8,369.1 155.9,368.9 156,368.8 156.1,368.6 156.1,368.5 156.2,368.3 156.3,368.2 156.4,368.1 156.4,368 156.5,367.8 
		156.6,367.6 156.7,367.5 156.8,367.4 156.9,367.2 156.9,367.1 157,367 157.1,366.9 157.2,366.7 157.3,366.6 157.4,366.4 
		157.5,366.3 157.6,366.2 157.7,366 157.8,365.9 157.8,365.8 158,365.6 158.1,365.4 158.2,365.3 158.3,365.1 158.4,365 158.5,364.9 
		158.6,364.8 158.7,364.6 158.8,364.5 158.9,364.3 159,364.2 159.1,364 159.2,363.9 159.3,363.8 159.4,363.7 159.5,363.6 
		159.6,363.4 159.8,363.3 159.9,363.1 160,363 160.1,362.9 160.2,362.8 160.3,362.7 160.4,362.5 180.7,340.5 180.8,340.4 
		180.8,340.4 180.9,340.3 180.9,340.3 181,340.2 181,340.2 181.1,340.1 181.1,340 181.6,339.3 182,338.7 182.3,338.3 182.5,338 
		182.6,337.8 182.7,337.7 182.7,337.6 182.8,337.6 182.8,337.4 182.9,337.3 183,337.2 183,337.1 183,337.1 183.1,337 183.1,336.9 
		183.1,336.9 183.2,336.7 183.3,336.6 183.3,336.5 183.4,336.4 183.4,336.3 183.4,336.2 183.5,336.1 183.5,336.1 183.9,335.1 
		184.3,334.1 184.6,333 184.9,332 185.1,330.9 185.3,329.8 185.4,328.6 185.5,327.5 187.2,303 187.4,301.1 187.6,299.2 187.8,297.3 
		188,295.4 188.3,293.6 188.6,291.7 189,289.9 189.4,288 190.2,284.3 191.1,280.8 192,277.5 193.1,274.2 194.3,271 195.6,268 
		197,265.1 198.5,262.3 200,259.7 200.6,259 201.2,258.5 201.8,258.2 202.5,258.2 203.1,258.3 203.7,258.7 204.3,259.3 204.7,260.1 
		205.4,261.5 205.6,262 205.8,262.5 205.9,263.1 206,263.7 206,264.3 206,265 206,265.6 205.9,266.3 202.7,287.8 202.5,289.3 
		202.4,290.8 202.4,292.3 202.5,293.8 202.6,295.3 202.9,296.7 203.2,298 203.6,299.3 204.2,300.9 205,302.3 205.8,303.5 
		206.7,304.5 207.7,305.2 208.8,305.8 209.9,306.1 211,306.1 214.6,305.9 215.2,306 215.8,306.2 216.3,306.7 216.7,307.2 
		217.1,307.9 217.4,308.7 217.6,309.7 217.8,310.7 218.9,329.7 218.9,329.8 218.9,330 218.9,330.1 218.9,330.2 218.9,330.3 
		219,330.5 219,330.6 219,330.7 220,336.2 220.4,338.1 220.9,339.9 221.6,341.6 222.4,343.1 223.3,344.4 224.3,345.5 225.3,346.3 
		226.5,347 226.6,347 226.7,347 226.7,347.1 226.8,347.1 226.9,347.1 227,347.2 227.1,347.2 227.1,347.2 227.3,347.3 227.4,347.3 
		227.5,347.3 227.5,347.3 227.6,347.4 227.7,347.4 227.7,347.4 227.8,347.4 227.9,347.4 228,347.4 228.1,347.4 228.2,347.5 
		228.3,347.5 228.3,347.5 228.4,347.5 228.5,347.5 228.6,347.5 228.7,347.5 228.8,347.5 228.9,347.5 229,347.5 229,347.5 
		229.1,347.5 229.1,347.5 229.3,347.5 229.4,347.5 229.5,347.5 229.6,347.5 229.6,347.5 229.7,347.5 229.7,347.4 229.8,347.4 
		229.9,347.4 230,347.4 230.1,347.4 230.2,347.4 230.3,347.3 230.3,347.3 230.4,347.3 230.4,347.3 230.6,347.3 230.7,347.2 
		230.8,347.2 230.9,347.2 230.9,347.1 231,347.1 231,347.1 231.1,347.1 231.2,347 231.3,347 231.4,346.9 231.5,346.9 231.6,346.9 
		231.6,346.9 231.7,346.8 231.7,346.8 231.9,346.7 232,346.7 232.1,346.6 232.2,346.6 232.2,346.5 232.3,346.5 232.4,346.5 
		232.4,346.4 232.5,346.3 232.7,346.3 232.8,346.2 232.8,346.1 232.9,346.1 233,346 233.1,346 233.1,345.9 233.2,345.8 233.3,345.8 
		233.4,345.7 233.5,345.6 233.6,345.5 233.7,345.5 233.8,345.4 233.8,345.3 233.9,345.2 234,345.1 234.1,345 234.2,345 234.3,344.9 
		234.3,344.9 234.4,344.8 234.4,344.7 234.5,344.6 234.6,344.5 234.7,344.4 234.8,344.3 234.8,344.3 234.9,344.2 234.9,344.1 
		235,344.1 235.1,343.9 235.2,343.8 235.3,343.7 235.3,343.6 235.4,343.6 235.4,343.5 235.5,343.4 235.5,343.4 235.8,342.9 
		236,342.6 236.2,342.3 236.3,342.1 236.4,341.9 236.5,341.8 236.6,341.6 236.6,341.5 237.1,340.7 237.5,339.9 237.9,339.2 
		238.3,338.4 238.7,337.7 239,337 239.4,336.4 239.7,335.8 239.7,335.8 239.7,335.7 239.7,335.7 239.8,335.6 239.8,335.6 
		239.8,335.5 239.9,335.5 239.9,335.4 240.5,334.9 241,334.6 241.3,334.3 241.6,334.1 241.8,334 241.9,333.9 241.9,333.9 242,333.9 
		242.7,334 243.3,334.3 243.9,334.8 244.4,335.6 244.8,336.5 	"/>
	
		<linearGradient id="SVGID_4_" gradientUnits="userSpaceOnUse" x1="-115.3786" y1="62.1967" x2="240.5909" y2="62.1967" gradientTransform="matrix(4.584679e-02 -0.9989 0.9989 4.584679e-02 183.295 282.3569)">
		<stop  offset="0" style="stop-color:#2D4F8D"/>
		<stop  offset="1" style="stop-color:#5180BB"/>
	</linearGradient>
	<path class="st3" d="M306.9,47.4c2.4-0.8,4.6,1.8,5,5.8l0.4,3.9c0.1,1.3,0.1,2.6-0.2,3.9c-0.1,0.4-0.2,0.7-0.3,1
		c-1.5,3-1.7,3.2-1.8,3.4c-0.3,0.3-0.4,0.4-0.6,0.5c-0.3,0.2-0.5,0.3-0.7,0.4c-0.3,0.1-0.5,0.2-0.7,0.2l-0.9,0.1
		c-0.2,0-0.4,0.1-0.6,0.2l-11.5,47.6c-2.7,3.8-2.9,3.8-3.1,3.8l-7.3,0.2l-83.5,280.4l-16.8-14.5l91.2-273.7l-1.5-6.1
		c-0.5-2-0.2-4.4,0.7-6L302.4,50L306.9,47.4z"/>
</g>
</svg>
