<svg xmlns="http://www.w3.org/2000/svg" xmlns:xlink="http://www.w3.org/1999/xlink" viewBox="0 0 137.98 67.5">
  <defs>
    <clipPath id="a">
      <path d="M60.13,42.22h0" style="fill: none"/>
    </clipPath>
    <linearGradient id="b" x1="-3236.82" y1="415.44" x2="-3236.24" y2="415.44" gradientTransform="translate(156471.19 -144070.71) rotate(-35.34) scale(65.17)" gradientUnits="userSpaceOnUse">
      <stop offset="0" stop-color="#42bbe5"/>
      <stop offset="0.14" stop-color="#40b5e0"/>
      <stop offset="0.34" stop-color="#3ca3d1"/>
      <stop offset="0.56" stop-color="#3587b8"/>
      <stop offset="0.8" stop-color="#2b5f96"/>
      <stop offset="1" stop-color="#213a76"/>
    </linearGradient>
    <clipPath id="c">
      <path d="M92.53,46.51c-1.36.91-2.72,1.83-4.12,2.71C84,52,79.32,54.45,73.9,55.38c-0.48.08-1,.15-1.44,0.21h0C76.63,55.26,79,54.95,83,53a52.53,52.53,0,0,0,9.55-6.54l0,0" style="fill: none"/>
    </clipPath>
    <linearGradient id="d" x1="-3242.6" y1="411.36" x2="-3242.1" y2="411.36" gradientTransform="translate(249648.22 -31601.9) scale(76.97)" xlink:href="#b"/>
    <clipPath id="e">
      <path d="M79.08,50.67l-4.35,1.15c-2.13.58-4.43,1.42-10.92,0.82H63.7a13.73,13.73,0,0,1-2.84.09c-0.93-.06-2.57-0.32-2.55-0.31l0.62,0.24h0a14.14,14.14,0,0,1,3.75.48c1.15,0.24,2.29.3,3.48,0.44h0.07a16.27,16.27,0,0,0,2.62.1,27.49,27.49,0,0,0,6.32-1.06c3.42-1,5.9-2.25,5.59-2.38l-1.67.44" style="fill: none"/>
    </clipPath>
    <linearGradient id="f" x1="-3242.57" y1="411.48" x2="-3242.08" y2="411.48" gradientTransform="translate(249507.24 -31606.75) scale(76.93)" xlink:href="#b"/>
    <clipPath id="g">
      <path d="M92.63,28.49a3.32,3.32,0,0,0,.18-0.28,13.52,13.52,0,0,1-1.08,3.61l-0.83,1.3c-0.88,1.34-1.9,1.8-2.87,3a1.07,1.07,0,0,0-1,0c-0.1-.6,1.2-1.43.42-1.8,0.78-1.7,2.59-2.61,3.19-4.66-0.09.3,0.56,0.43,0.82,0.43,0.8,0,1.15-1.51,1.2-1.58M85,34.25c-4.62,3-1.73,2.24-1.68,2.22a5.16,5.16,0,0,0,1-.55c-1.78,2.87-4.92,4.7-8.65,5.52-0.09.26-1.38,0.22-1.6,0.43a1,1,0,0,1-.78.41c0.13,0.39-.77.53-1,0.88s0.31,0.68-.49.71l-0.64-.33a6.53,6.53,0,0,1-5-1.68l-1.92,0c-0.31.22-1.29,0.22-2,.5a0.81,0.81,0,0,1-.44-0.15c-0.28-.14-0.6-0.28-0.74,0s-0.75,0-1,0-1.07.49-.85,0.53c-1.07-.18-0.7.15-1.72,0.5l-1,0c-0.23.08-.11,0.69,0.87,1.3a11.34,11.34,0,0,0,1.06.64c3,1.6,7.43,2.46,5.29,1.47-4.48-2.52-1.23-.84,2.69.08a28.92,28.92,0,0,0,8.79.77h0C80,45.73,84,43.16,86.2,40.69a10.19,10.19,0,0,1-1.38.79c-0.06,0-4.52,1.29,1.3-2.88a21,21,0,0,0,8.7-12.66,2.32,2.32,0,0,1,.38-0.74l0.46,0.18c-0.36,1.69-.74,3.11-1.22,4.77,0.43-.54.69-0.71,1.11-1.24-1,3.9-3.4,6.5-6,9.39-0.7.77,1-.05-0.48,1.56,0.36-.39.28-0.18,0.56,0,1.19-1.5,3.11-1.58,4.19-3.22,2.81-4.29,3.79-6.66,4.47-9.36l0.06,0.07v0A1.9,1.9,0,0,0,98,26.94l-0.36-.34A8.08,8.08,0,0,0,96,25.49l-0.28-.14a12,12,0,0,0-2.93-.91l-0.68-.12-0.78-.11c-1.89,4.47-2.15,7.57-6.31,10" style="fill: none"/>
    </clipPath>
    <linearGradient id="h" x1="-3242.59" y1="411.52" x2="-3242.09" y2="411.52" gradientTransform="matrix(76.95, 0, 0, 76.95, 249588.88, -31632.74)" xlink:href="#b"/>
    <clipPath id="i">
      <path d="M94.82,25.93a21,21,0,0,1-8.7,12.66c-5.82,4.18-1.36,2.9-1.3,2.88a10.19,10.19,0,0,0,1.38-.79c-2.22,2.47-6.18,5-10.85,6.85-7.87,3-17.75,3.86-24.69-1.79a31.49,31.49,0,0,0,5,4.1c-1-.18-1.79-1-2.77-1.3,0,0,2.4,3.13,9.51,3.95l1.42,0.15c6.49,0.6,8.79-.24,10.92-0.82l4.35-1.15,1.67-.44c0.31,0.13-2.18,1.42-5.59,2.38a27.49,27.49,0,0,1-6.32,1.06,16.27,16.27,0,0,1-2.62-.1H66.15c-1.19-.14-2.33-0.2-3.48-0.44a14.14,14.14,0,0,0-3.75-.48s0.44,0.25,4.47,1.69c-0.25.09-1.44,0.26-6.4-1.87,0,0,5.94,2.85,9.32,3.18a28.24,28.24,0,0,0,7.59-.26C79.32,54.45,84,52,88.41,49.22c1.55-1,3.07-2,4.58-3,0,0,0,.09,0,0.13l0.31,0a4.27,4.27,0,0,1-.89,1.16c1.81-1.46,2.74-3.73,4.67-5.12a4.6,4.6,0,0,1-.54,1l-0.18.25a26.35,26.35,0,0,1-3.86,4.41c0.16-.12.32-0.26,0.5-0.44l-0.12.12-0.38.33a32.73,32.73,0,0,1-15,7.86,9.93,9.93,0,0,0,1.55-.31c-0.92.26-.94,0.29-1.33,0.41C78,56,78,56,79.25,55.8a15.61,15.61,0,0,1-3.6.94,31.82,31.82,0,0,0,17.83-9c0.2-.2,1.39-1.5,1.79-2a23.85,23.85,0,0,0,4.3-7.17,14.47,14.47,0,0,0,.51-1.72c0-.17.09-0.33,0.12-0.5,0.19-1.09.21-1.09,0.28-1.74v0c0-.2,0-0.4,0-0.6,0,0,0-.07,0-0.1s0-.35,0-0.51V33.3c0-.16,0-0.31,0-0.46s0-.09,0-0.14,0-.29,0-0.43V32.14c0-.15,0-0.29-0.06-0.43s0-.07,0-0.1-0.06-.33-0.09-0.48,0-.16-0.06-0.24l-0.05-.22-0.09-.28,0-.15-0.11-.29,0-.11c0-.1-0.08-0.2-0.13-0.3l0-.07-0.16-.33a8.39,8.39,0,0,0-1.32-1.9c-0.68,2.7-1.66,5.07-4.47,9.36-1.08,1.64-3,1.71-4.19,3.22-0.28-.15-0.2-0.36-0.56,0,1.5-1.61-.21-0.78.48-1.56,2.61-2.89,5-5.49,6-9.39-0.42.54-.68,0.7-1.11,1.24,0.48-1.66.86-3.07,1.22-4.77l-0.46-.18a2.32,2.32,0,0,0-.38.74" style="fill: none"/>
    </clipPath>
    <linearGradient id="j" x1="-3242.61" y1="391.51" x2="-3242.12" y2="391.51" gradientTransform="matrix(92.6, 0, 0, -92.6, 300307.43, 36293.44)" gradientUnits="userSpaceOnUse">
      <stop offset="0" stop-color="#1a87c8"/>
      <stop offset="0.13" stop-color="#1a81c1"/>
      <stop offset="0.33" stop-color="#1a70ad"/>
      <stop offset="0.57" stop-color="#1a548d"/>
      <stop offset="0.83" stop-color="#1b2e61"/>
      <stop offset="1" stop-color="#1b1140"/>
      <stop offset="1" stop-color="#1b1140"/>
    </linearGradient>
  </defs>
  <title>Vector Smart Object1</title>
  <g>
    <g style="clip-path: url(#a)">
      <polygon points="60.14 42.24 60.17 42.22 60.16 42.2 60.13 42.22 60.14 42.24" style="fill: url(#b)"/>
    </g>
    <g style="clip-path: url(#c)">
      <rect x="71.66" y="41.51" width="21.68" height="19.07" transform="translate(-14.32 57.14) rotate(-35.34)" style="fill: url(#d)"/>
    </g>
    <g style="clip-path: url(#e)">
      <rect x="59.39" y="43.97" width="20.58" height="16" transform="translate(-17.22 49.88) rotate(-35.34)" style="fill: url(#f)"/>
    </g>
    <g>
      <path d="M59.07,12.9l-0.37.19a2.87,2.87,0,0,0-1.47,2.15l2.4-1.37a63,63,0,0,1,9.93-3.34c-0.06,0-6.6.36-10.49,2.37m21.08-.56a28.08,28.08,0,0,0-8.6-.41c-6.67.69-9.88,1.67-11.49,2.31L56.5,15.51l-0.85.9,2.62-.23,2.81-1.09c1-.35,2.2-0.69,3.58-1,6.54-1.56,16.89-1.35,15.5-1.74m21.5,13.4a30.88,30.88,0,0,0-1.27-6.51L100,18a30.58,30.58,0,0,0-3.3-6.22c-1.73-2.29-3.6-4.84-11.14-7C92.7,6.49,93.24,7.38,94.17,8L93.07,7c-5.46-4-14-6-22.51-4.37,5.29-1.71,14-1.5,19.42,1.87A27.55,27.55,0,0,0,76,.06C75.34,0,74.61,0,73.79,0,66.48,0,57.63,3.66,53.08,7.82c-0.41.35-.76,0.69-1,1-1.41,1.65-.47,2.78.21,3.16,0.22,0.13-.06,2.54.16,2.69,0.73,0.49,3.31-2.54,4.49-3.06a42.73,42.73,0,0,1,25.26-2.8c9.3,2.62,13.28,7,13.54,7.33s1.8,1.9,1.76,2.55a0.32,0.32,0,0,1-.34,0,7.39,7.39,0,0,1-.74-0.7,0.44,0.44,0,0,1-.13-0.09l-0.12-.09A21.71,21.71,0,0,0,91,14.49c-2.83-1.21-6.11-1.53-8.91-2.3,3.2,1.27,6.58,1.67,9.58,3.37a22.12,22.12,0,0,1,6.18,5.65A15.72,15.72,0,0,1,101,32.31c0,0.09,0,.19,0,0.28s0,0,0,.06v0a20.77,20.77,0,0,1-.4,2.42c-0.1.45-.27,1-0.43,1.54l0,0a28.3,28.3,0,0,0,1.23-5,28.37,28.37,0,0,0,.21-5.87M87.3,11.69l0.32,0c0.11-.22-1.49-0.83-2.09-1A20.34,20.34,0,0,0,83,10.12s-0.28.11,1.47,0.68c0.44,0.14.14,0.59,2.78,0.89" style="fill: #f6921e"/>
      <path d="M95.56,25.34l-0.25-.1h0l0.25,0.11h0" style="fill: #22336c"/>
      <path d="M101,32.31a15.71,15.71,0,0,0-3.16-11.09,22.12,22.12,0,0,0-6.18-5.65c-3-1.71-6.38-2.11-9.58-3.37,2.8,0.77,6.07,1.1,8.91,2.3a21.69,21.69,0,0,1,5.14,3.35l0.12,0.09a0.46,0.46,0,0,0,.13.09,7.39,7.39,0,0,0,.74.7,0.32,0.32,0,0,0,.34,0c0-.64-1.5-2.21-1.76-2.55S92,10.57,82.7,8C71,5.69,61.11,9.72,56.89,11.6c-1.17.61-1.77,2.85-1.44,3.12s1.47-.38,3.26-1.64l0.37-.19c3.89-2,10.43-2.37,10.49-2.37a63.12,63.12,0,0,0-9.93,3.34l-1.43.59-0.8.78,2.66-1c1.61-.64,4.82-1.62,11.49-2.31a28.1,28.1,0,0,1,8.6.41c1.4,0.39-9,.17-15.5,1.74-1.38.33-2.55,0.67-3.58,1L57,16.3c0.44,0.42,2.67,3.27,3.31,4.07L61.38,21c0.11,0.14,1.05.49,1.16,0.62L63.84,21c0.22,0.28-1.18,1-1,1.18S64,21,65.4,20.1a36.54,36.54,0,0,1,18-4.31A9.17,9.17,0,0,1,85,16c0.46,0.25-3.41.42-2.47,0.7a10.07,10.07,0,0,0,3.21-.35,0.61,0.61,0,0,0,.24,0,0.56,0.56,0,0,1,.26,0,20.33,20.33,0,0,1,2.46.12c2.22,0.54.14,0.82-.64,0.64a5.72,5.72,0,0,0-1.14,0c-0.28.07-.86,0.14-1.13,0.2s-1.21.21-1.61,0.27c-0.23,0-2.83,0-2.43.31a15.48,15.48,0,0,1,2.31.27,5.12,5.12,0,0,0,.94,0,3.25,3.25,0,0,1,.68,0A0.55,0.55,0,0,0,86,18a0.94,0.94,0,0,1,.5-0.1c0.14,0,.37.08,0.33,0.18-0.42,1-1.13.89-2.42,0.79a14.06,14.06,0,0,0-2.26,0c-1.5.11-3.1,0.79-3.37,0.55s1.76-.91,1.23-1c-0.89-.13-7.72,2.3-8.08,3.24h0c-0.06.15,0,.19,0.15,0.23a18.62,18.62,0,0,0,2.15-.47c0.43,0,.55-0.2,1-0.21s1.46-.57,1.77-0.57a5.35,5.35,0,0,0,1.44.17c0.49-.11,1.09,0,1.57-0.21s0.94-.32,1.41-0.44l0.33-.1s0.42-.09.48-0.09a2.06,2.06,0,0,1,.87.43c1.05,0.62,1.35,1.11,2.25,1.16h0.36l0.63-.11c0.28-.07.55-0.1,0.82-0.14a5.69,5.69,0,0,1,1.18,0c0.35,0,.7.13,1,0.17s-0.08.33-.22,0.41a9.25,9.25,0,0,1-1.56.77,2.27,2.27,0,0,1-1,.24A1.48,1.48,0,0,0,86,23a2,2,0,0,1-.38.1H85.25a4.29,4.29,0,0,0-.51,0,2.09,2.09,0,0,1-.21.06H84.37a0.78,0.78,0,0,0-.36,0,0.67,0.67,0,0,1-.27.1H83.59a0.79,0.79,0,0,0-.37,0,2.28,2.28,0,0,1-.92.14H82.19s-2.42.17-2.45,0.19a5.75,5.75,0,0,1-.6.21,13.68,13.68,0,0,1-1.29.54c-0.11,0-.17,0-0.26,0l-0.84.23-0.37.29a2,2,0,0,1-.55.24c-0.16,0-.3.07-0.45,0.09a0.72,0.72,0,0,0-.32.21c-0.1.07-.24,0-0.34,0.1s-3.18,1.1-3.39,1.22L71,26.91a2,2,0,0,0-.4.25,0.64,0.64,0,0,0-.06.47h0a0.1,0.1,0,0,1,0,.06,1.68,1.68,0,0,0,.78,0,1.21,1.21,0,0,0,.3-0.06c0.14,0,.26,0,0.4-0.06a2.55,2.55,0,0,0,.74-0.27,0.49,0.49,0,0,0,.1-0.06c3.18-.71,8.48-2.92,13.76-3.27,0.06,0,5.54-.25,9.23,1.47C97,26,102.11,28.85,100.06,37l0,0.06v0l0.16-.42V36.61l0,0c0.16-.58.33-1.08,0.43-1.54q0.07-.32.13-0.62c0.11-.55.2-1.15,0.27-1.8v0s0,0,0-.06,0-.19,0-0.28M83,10.12a20.69,20.69,0,0,1,2.48.61c0.6,0.14,2.21.75,2.09,1l-0.32,0c-2.64-.3-2.34-0.74-2.78-0.89-1.76-.58-1.46-0.68-1.47-0.68M81.23,21.57a2.15,2.15,0,0,0,.24-0.13,10.13,10.13,0,0,0-3,.55,6.9,6.9,0,0,0-1.48.77c-0.13.22,0.15,0.35,0.2,0.36,0.79,0.16.84-.11,4-1.55" style="fill: #ffd300"/>
      <g style="clip-path: url(#g)">
        <rect x="53.46" y="14.23" width="47.82" height="43.43" transform="translate(-6.54 51.38) rotate(-35.34)" style="fill: url(#h)"/>
      </g>
      <g style="clip-path: url(#i)">
        <rect x="50.66" y="25.19" width="49.88" height="31.55" style="fill: url(#j)"/>
      </g>
      <path d="M74.21,39.92a4.6,4.6,0,0,1-1.67-1.77c-0.14-.25-0.28-0.51-0.42-0.76L72,37.1a7.14,7.14,0,0,0-.6-1,3.52,3.52,0,0,0-.32-0.35l-0.33-.35c-0.11-.11-0.2-0.22-0.29-0.32a1.18,1.18,0,0,1-.17-0.26,36.08,36.08,0,0,1-2.35-9.61c-0.28-1.92-1.45-3.48-3.36-5.81-0.24-.29-0.5-0.63-0.78-1l-0.6-.78a19.58,19.58,0,0,0-1.54-1.76L59.8,14.33l-2-1.71c-1.15-.94-2-1.6-3-2.29a7.94,7.94,0,0,0-4.5-1.44A6.14,6.14,0,0,0,47,9.69a18.51,18.51,0,0,1-3.52,2c-0.83.35-1.69,0.63-2.78,1L39.61,13a7.45,7.45,0,0,0-2.75,1.72l-0.43.41L36,15.56a2.19,2.19,0,0,1-.66.46,3.75,3.75,0,0,1-.93.14l-0.69,0-0.49,0a5.86,5.86,0,0,0-3.3,1.48c-0.39.31-.74,0.63-1.08,1l-0.16.15a8.9,8.9,0,0,1-1,.85,6.19,6.19,0,0,1-3,.86,13.6,13.6,0,0,0-1.69.23,9.1,9.1,0,0,0-2.05.69,16.86,16.86,0,0,0-2.47,1.48l-1.22.87-1.05.76a7.85,7.85,0,0,1-4.39,1.84,2.41,2.41,0,0,1-2.62-2.15,3.81,3.81,0,0,1,1.66-3.29l0.65-.53c0.49-.39,1-0.76,1.36-1.12a10.69,10.69,0,0,0,1.53-1.55,4.28,4.28,0,0,0,.74-3.94c-0.34-1.39-1.42-2.34-3.27-2.89a15.39,15.39,0,0,0-2-.42l-0.22,0-0.52-.08a2.33,2.33,0,0,1-.42-0.11,36.12,36.12,0,0,1-3.62-2.2L4.89,8l-0.12.17a5.35,5.35,0,0,0-1,3C3.56,13.33,5.37,16,8.48,16.5a0.45,0.45,0,0,1,.36.33,0.44,0.44,0,0,1-.16.46C5.4,19.88,4.7,21,4.53,23.9a6.53,6.53,0,0,0,1.74,4.86A7.37,7.37,0,0,0,11.8,30.9a13,13,0,0,0,1.92-.16H13.8a0.43,0.43,0,0,1,.27.1,0.42,0.42,0,0,1,.17.31,11.41,11.41,0,0,0,1,4.4,0.45,0.45,0,0,1-.07.57,2.17,2.17,0,0,1-.65.37,8.43,8.43,0,0,1-2.83.44c-0.66,0-1.16.46-1.56,1.44-0.13.32-.23,0.66-0.34,1l0,0.09L9.6,39.9a2.67,2.67,0,0,1-.15.33,2.84,2.84,0,0,1-.6.71,0.43,0.43,0,0,1-.29.11H8.49a0.45,0.45,0,0,1-.31-0.22,2.22,2.22,0,0,0-1.52-1.11H6.57a4.12,4.12,0,0,0-3.4,2.47,0.44,0.44,0,0,1-.36.27l-0.08,0a1.75,1.75,0,0,0-1.59,1.17,5.21,5.21,0,0,0-.25.94l0,0.22c0,0.25-.09.5-0.16,0.74a2.35,2.35,0,0,1-.23.55l-0.15.27-0.11.17a1.57,1.57,0,0,0-.12,1.25,1.11,1.11,0,0,0,.62.68,4.12,4.12,0,0,0,1,.36A8,8,0,0,0,3.2,49,0.65,0.65,0,0,0,3.49,49c0.07,0,.13-0.09.21-0.15A0.45,0.45,0,0,1,4,48.71H4l0.33,0.06L5.32,49H5.37l0.89,0.17,0.35,0.07H6.85a2.79,2.79,0,0,0,2.37-1.13,4.89,4.89,0,0,0,.31-0.47l0.16-.27,0.11-.2c0.12-.19.23-0.37,0.35-0.54a0.43,0.43,0,0,1,.36-0.18h0.11l0.46,0.1c0.32,0,.62.08,0.74,0.09h0.27a4.78,4.78,0,0,0,3.11-1.43L15.46,45l0.37-.31a5.39,5.39,0,0,1,.6-0.46,1.86,1.86,0,0,1,1.06-.39h0.08c0.32,0,1.51.1,3.52,0.41a1.19,1.19,0,0,0,.26,0,4.57,4.57,0,0,0,1.73-.46,14.43,14.43,0,0,0,1.64-.89,3.34,3.34,0,0,1,.45-0.23l0,0,0.53-.25a3.56,3.56,0,0,0,1.21-.95A10.21,10.21,0,0,0,27.79,40l0.33-.68,0.57-1.16a0.45,0.45,0,0,1,.4-0.25h0.13a15.58,15.58,0,0,0,2-.19l0.84-.13c0.6-.1,1.12-0.18,1.5-0.2l0.7,0,0.8,0.05c1,0.06,1.83.09,2.51,0.08,0.41,0,.76,0,1.06,0a6.61,6.61,0,0,0,1.43-.25l0.35-.12a0.56,0.56,0,0,1,.18,0,0.46,0.46,0,0,1,.31.13c0.22,0.21.45,0.43,0.69,0.64a0.42,0.42,0,0,1,.13.47,0.44,0.44,0,0,1-.38.31l-0.26,0a1.66,1.66,0,0,0-1.05.48,0.43,0.43,0,0,1-.35.17,0.51,0.51,0,0,1-.18,0l-0.19-.07a1.42,1.42,0,0,0-.37,0H38.4a13.72,13.72,0,0,0-2.15.13,3.74,3.74,0,0,0-1.18.37,0.93,0.93,0,0,0-.54.87,9.35,9.35,0,0,0,2,3.88,2.13,2.13,0,0,0,1.26.32H38a0.44,0.44,0,0,1,.39.24,4.44,4.44,0,0,0,3.52,2.69H42a26.65,26.65,0,0,0,6.88-2.35l0.09,0,0.25,0,0.46-.06,0.23,0a5.37,5.37,0,0,0,1.52-.35A4.69,4.69,0,0,0,52.91,43a0.45,0.45,0,0,1,.39-0.24h0a0.45,0.45,0,0,1,.38.32,3.14,3.14,0,0,0,.21.51A2.18,2.18,0,0,0,56,44.67h0.17a8.12,8.12,0,0,0,2.1-.47l0.38-.12a10.63,10.63,0,0,1,1.59-.46,4,4,0,0,1,.61-0.05h0.33l0.63,0,0.43,0c0.2,0,.41,0,0.64,0a3.31,3.31,0,0,0,1.51-.29,6.82,6.82,0,0,0,1.42-.83L66,42.46a0.48,0.48,0,0,1,.26-0.09,0.52,0.52,0,0,1,.29.11A8.25,8.25,0,0,0,72,44.56h0.28a1.82,1.82,0,0,0,1.45-.62,1,1,0,0,0,.17-0.84,0.44,0.44,0,0,1,.35-0.55,2.24,2.24,0,0,0,1.09-.48,1.18,1.18,0,0,0,.41-0.81,0.61,0.61,0,0,0-.21-0.47,5.86,5.86,0,0,0-1.35-.88M54.6,36.51a5.65,5.65,0,0,0-1.16,1.21c-0.83-.32-1-1.41-1.12-1.88,0.66-.13,2.22-0.42,3-0.55a3.85,3.85,0,0,0-.75,1.21" style="fill: #fff"/>
      <path d="M73.15,40.43c-1.52-.88-2.13-2.55-3.07-3.87-0.33-.49-0.91-0.8-1.21-1.27A34.56,34.56,0,0,1,66.55,26a9.94,9.94,0,0,0-.86-2.48,55.14,55.14,0,0,0-4.86-6.3C60.67,17,60.67,17,60.34,16.71l-6-5a12.22,12.22,0,0,0-2.41-1.29,6.09,6.09,0,0,0-4.23.16,27.58,27.58,0,0,1-3.82,2.13c-2,.89-4.2,1.07-5.9,2.58-1,.86-1.82,2.2-3.29,2a6.28,6.28,0,0,0-4.35,1.55c-1.12,1-2.18,2.2-3.62,2.48-1.26.53-2.81,0.28-4.1,0.76-2.05.5-3.67,2.13-5.41,3.38-1.75,1-3.42,2.1-5.59,2.05a3.76,3.76,0,0,1-3.24-2.45,4.09,4.09,0,0,1,1.29-4.26C10.95,19.26,13,18.35,14,16.57a3.27,3.27,0,0,0-.25-3.34c-1.34-1.39-3.27-1.44-5-1.86a15.2,15.2,0,0,1-3-1.69,3,3,0,0,0-.46,1.92,4.6,4.6,0,0,0,2.94,3.59c0.88,0.38,1.9.1,2.81,0.3a0.85,0.85,0,0,1,.53.63,1,1,0,0,1-.3.68,29.08,29.08,0,0,0-4.1,3.8,5.61,5.61,0,0,0-.75,5.5,5.91,5.91,0,0,0,4.76,3.52,10.76,10.76,0,0,0,4-.44,0.48,0.48,0,0,1,.33.28,26.32,26.32,0,0,0,.21,3.27,19.42,19.42,0,0,0,.92,2.63,1.15,1.15,0,0,1-.23.94,11.18,11.18,0,0,1-2.31,1.29l-2,.12-0.38.18c-0.74.86-.76,1.75-1.21,2.71A7.14,7.14,0,0,1,8,42.69,6.35,6.35,0,0,1,6.9,44.06a1.94,1.94,0,0,1-1.17.43,5.81,5.81,0,0,0-1,2.94c1.11,0.1,2.28.71,3.37,0.1C9,47.1,9.22,46,9.93,45.27c0.55-.61,1.39-0.15,2.05,0,1,0,1.7-.66,2.53-1,0.58-.37,1.06-1,1.67-1.41,1.17-.56,2.78-0.26,4,0A4.32,4.32,0,0,0,23,42.52a8.49,8.49,0,0,1,2.4-1.3,3.81,3.81,0,0,0,1.49-2c0.25-.68.92-1.22,0.86-2A1.25,1.25,0,0,0,27,36.67c-0.38.53-.66,1.09-1.09,1.6-1.83,2.5-3.27,2.73-7,2.74A8.65,8.65,0,0,0,11.8,43.9a0.35,0.35,0,0,1-.41-0.08,1.9,1.9,0,0,1,.3-1c1.69-2.41,4.33-3,7.11-3a10.74,10.74,0,0,0,4.25-1,6.45,6.45,0,0,0,3-3.3c0.33-1.59.45-3.32,0.86-4.84a0.58,0.58,0,0,1,.55-0.21,0.56,0.56,0,0,1,.46.34c-0.28,1.57-.78,3.42-0.17,4.93,1.21,1.6,3.47.73,5.11,0.65a29.72,29.72,0,0,1,4.75.08c0.81,0,1.41.18,2-.33a1.43,1.43,0,0,0,.2-1c-0.05-.45-0.43-0.73,0-1.11a0.57,0.57,0,0,1,.61.09A7.18,7.18,0,0,0,41.24,36a9.71,9.71,0,0,0,3.12,2.44,4.18,4.18,0,0,1,2,3.06,1.86,1.86,0,0,1-1.11,1.42,5.15,5.15,0,0,1-2.81.68c-1.34-.65-1.7-2.07-2.58-3.11a2.16,2.16,0,0,0-1.82-.56,9.66,9.66,0,0,0-2.13.33,0.7,0.7,0,0,0-.2.61c0.46,0.83,1,1.64,1.47,2.47,0.59,0.36,1.39-.2,1.9.43a7.13,7.13,0,0,0,1.37,2,2.39,2.39,0,0,0,2.43.45A31,31,0,0,0,48.39,44H49a3,3,0,0,0,2-.56A19.11,19.11,0,0,0,52.41,41a2.51,2.51,0,0,0,0-2.1,12,12,0,0,1-1.8-3.48,3.75,3.75,0,0,0-1.29-.35,1.08,1.08,0,0,0-.68.3l2,4a2.12,2.12,0,0,1,.21,1.14,5.17,5.17,0,0,1-1.39,2.25c-0.12.07-.28,0.15-0.38,0a9.18,9.18,0,0,0,.58-2.79l-2-3.52A3.28,3.28,0,0,1,47.14,35a0.66,0.66,0,0,1,.43-0.53c0.86-.28,1.89-0.23,2.55-0.92a9.7,9.7,0,0,0,1.27-4.25A0.61,0.61,0,0,1,51.8,29a0.51,0.51,0,0,1,.4.25,6.56,6.56,0,0,1-1.11,4.88,0.42,0.42,0,0,0,.08.53A3.66,3.66,0,0,0,54,34.18a15.57,15.57,0,0,0,2.94-.38,0.34,0.34,0,0,1,.21.25,4.84,4.84,0,0,0-1.17,2.41c-0.76.79-1.85,1.48-1.92,2.61,0.13,0.56.61,0,.94,0.08a0.29,0.29,0,0,1,.25.3l-0.76,1.11c-0.41.66,0.07,1.42,0.07,2.05a1.37,1.37,0,0,0,1.32.76A10.88,10.88,0,0,0,59,42.54a6.87,6.87,0,0,1,3.72-.26,5.11,5.11,0,0,0,3-1.65,1.84,1.84,0,0,1,1.24.68,6.52,6.52,0,0,0,5.15,2l0.17-.1a0.3,0.3,0,0,0-.08-0.45L71,42.2A4.75,4.75,0,0,1,68.82,40a11.48,11.48,0,0,0-1.22-2.56c-0.18-.41-0.58-0.73-0.76-1.15a0.2,0.2,0,0,1,.18-0.1,5.44,5.44,0,0,1,2.7,2.92c1,1.34,2.36,2.48,4.18,2.18l0.15-.13a0.25,0.25,0,0,0,0-.3ZM53.26,22.61l-0.06,0v0h0a0.25,0.25,0,0,1-.33,0l0,0v0A16.08,16.08,0,0,0,52,19.54l-0.23-.4L51.64,19l-0.2-.29a1,1,0,0,1-.11-1l0,0a0.74,0.74,0,0,1,.73-0.12l0,0A3.37,3.37,0,0,1,53,18.73a5.5,5.5,0,0,1,.39,2.11,6.76,6.76,0,0,1-.23,1.75l0.06,0M62.93,39.3h0a4.46,4.46,0,0,1-1.58.18h0l-0.11,0-0.11-.07A0.25,0.25,0,0,1,61,39.09a2.48,2.48,0,0,1,1.69-1.59h0.18l0.19,0a0.38,0.38,0,0,1,.28.32,3.22,3.22,0,0,1,0,.39,1.28,1.28,0,0,1-.41,1.06M66,32.4s-0.08.21-.08,0.21l-0.07.22a0.49,0.49,0,0,1-.36.35,0.29,0.29,0,0,1-.27,0,0.31,0.31,0,0,1-.12-0.26l0-.22L65,31.88A2.12,2.12,0,0,0,64.68,31l-0.34-.39L64,30.17a1.28,1.28,0,0,0-.84-0.45,1.47,1.47,0,0,0-.63.44l-0.27.33L62,30.81a0.23,0.23,0,0,1-.28.06h0l0,0a1.14,1.14,0,0,1-.08-0.43,1.68,1.68,0,0,1,.14-0.64l0.21-.42,0.23-.49,0,0a1.1,1.1,0,0,0,.21-0.4l0.07-.17,0.13-.35a0.66,0.66,0,0,1,1-.38,2,2,0,0,1,.74.76l0.11,0.19,0.15,0.24L64.88,29a4,4,0,0,1,1.22,2.68,3.16,3.16,0,0,1-.08.68" style="fill: #e21b4d"/>
      <polygon points="108.86 33.92 114.12 33.92 114.12 9.62 124.56 9.62 124.56 4.75 98.41 4.75 98.41 9.62 108.86 9.62 108.86 33.92" style="fill: #96999b"/>
      <path d="M138,11.32a7.33,7.33,0,0,0-6.8-6.57c4.69,2.93,1.75,9.29,0,11.9l-6.61,9.83V11.91H119.7v22h4.69a2,2,0,0,0,1.6-.85l0,0,5.72-8.5h0l3.56-5.29h0c2.11-3.18,2.84-5.84,2.67-7.93" style="fill: #96999b"/>
    </g>
    <path d="M5.93,43.3a5.13,5.13,0,0,0,1.7-2.06A1.71,1.71,0,0,0,7,40.56a0.64,0.64,0,0,0-.56,0,13.9,13.9,0,0,1-1.74,1.24,1.14,1.14,0,0,0-.21.83,1,1,0,0,0,.46.58,1.34,1.34,0,0,0,.94.05" style="fill: #e21b4d"/>
    <path d="M3.27,43.37a1.73,1.73,0,0,0-.94,1c-0.13.81,0.05,1.57-.58,2.16a0.46,0.46,0,0,0,0,.48,8.93,8.93,0,0,0,1.77.47c0.31-1,.53-2.08.89-2.94V44.34a2.18,2.18,0,0,0-1.12-1" style="fill: #e21b4d"/>
    <path d="M41.68,40.66c0.51,0.56.48,1.41,1.07,1.85a2.58,2.58,0,0,0,2-.63c0.33-.28-0.15-0.64-0.2-1-0.33-.47-0.11-1.44-0.91-1.47a16.73,16.73,0,0,1-2.43.15L41,39.75c-0.15.48,0.56,0.48,0.69,0.91" style="fill: #e21b4d"/>
  </g>
</svg>
