<?xml version="1.0" standalone="no"?>
<!DOCTYPE svg PUBLIC "-//W3C//DTD SVG 1.1//EN" "http://www.w3.org/Graphics/SVG/1.1/DTD/svg11.dtd" >
<svg xmlns="http://www.w3.org/2000/svg">
<metadata></metadata>
<defs>
<font id="jamoer_rough_freeregular" horiz-adv-x="686" >
<font-face units-per-em="2048" ascent="1536" descent="-512" />
<missing-glyph horiz-adv-x="307" />
<glyph horiz-adv-x="0" />
<glyph unicode="&#xd;" horiz-adv-x="468" />
<glyph horiz-adv-x="0" />
<glyph horiz-adv-x="0" />
<glyph unicode=" "  horiz-adv-x="307" />
<glyph unicode="&#x09;" horiz-adv-x="307" />
<glyph unicode="&#xa0;" horiz-adv-x="307" />
<glyph unicode="0" horiz-adv-x="806" d="M0 748q-2 16 1 33.5t3 33.5q2 16 0 33.5t2 34.5q4 16 10.5 31.5t12.5 31.5t12 31.5t14 30.5q8 16 20.5 28.5t22.5 24.5q10 14 19.5 27.5t21.5 23.5t25.5 16.5t23.5 14.5q12 8 24.5 13l27.5 11q23 10 46 16.5t46 8.5h32.5t32.5 -4t31.5 -6t30.5 -8q16 -6 30.5 -12.5 t28.5 -16.5t27.5 -20.5t25.5 -22.5q14 -12 22.5 -27.5t18.5 -30.5q10 -14 18.5 -28.5t16.5 -30.5t17.5 -30.5t13.5 -30.5t5 -35t5 -35t4 -33.5v-36.5q0 -16 1 -32.5t-1 -32.5q-4 -16 -9 -32.5t-9 -33.5q-4 -16 -7 -31.5t-10 -31.5q-8 -18 -21 -35.5t-26 -34.5 q-23 -31 -57 -59q-16 -14 -32.5 -28.5t-37.5 -24.5q-18 -10 -39.5 -13.5t-44.5 -7.5q-16 -2 -28.5 -5t-26.5 -3t-26.5 4t-28.5 6q-23 4 -43.5 8t-38.5 15q-16 8 -31.5 16t-28.5 18q-14 10 -24 24.5t-23 27.5q-10 14 -18 28.5t-16 28.5q-10 16 -18.5 30.5t-14.5 30.5 t-13.5 32t-11.5 32t-5 33.5t-3 34.5zM172 743q4 -18 11 -35.5t14 -33.5q8 -14 13 -28.5t15 -27.5q8 -10 17.5 -17t19.5 -15q10 -6 16.5 -14.5t16.5 -12.5q8 -4 17.5 -3t19.5 -1l16 -4t19 0q8 2 16 3t18 5t17.5 11.5t15.5 13.5q10 8 18.5 16t18.5 18q8 12 14.5 26.5 t14.5 29.5q12 32 18 71q0 10 3 19.5t3 19.5v43q-4 18 -12 35t-14 35q-6 14 -10.5 29.5t-14.5 27.5q-8 10 -18.5 17.5t-20.5 15.5q-8 6 -15 13.5t-18 11.5q-8 4 -17 2t-19 0q-8 2 -16.5 1t-16.5 -1q-10 -2 -18.5 -2t-16.5 -4q-10 -4 -19.5 -8.5t-17.5 -10.5q-10 -8 -18.5 -17 t-16.5 -20q-10 -12 -15 -26.5t-11 -28.5q-6 -18 -11.5 -35.5t-9.5 -36.5q-2 -20 -6 -39.5t0 -42.5z" />
<glyph unicode="1" horiz-adv-x="413" d="M-2 1057q4 16 17.5 26.5t29.5 20.5t29.5 20.5t27.5 18.5l62 37q20 14 41 14h4q31 0 59 -29q10 -12 18.5 -27.5t8.5 -31.5q0 -18 1 -36.5t1 -35.5q0 -18 -2 -35.5t-2 -35.5q0 -16 -1 -35t-1 -35q0 -18 4 -35.5t4 -36.5q0 -18 -3 -35.5t-3 -35.5q0 -16 -1 -35t-1 -35 q0 -18 2 -35.5t2 -36.5q0 -16 -2 -34.5t-2 -36.5q0 -16 3 -35t3 -35q0 -33 -29 -61q-12 -10 -27.5 -18.5t-31.5 -8.5q-35 0 -59 29q-29 25 -29 59q0 18 -1 36.5t-1 37.5q0 16 3 34.5t3 36.5t-4 37t-4 37t2 36.5t2 37.5q0 16 -1 34.5t-1 36.5t1 37t1 37q0 14 -8.5 29.5 t-24.5 15.5q-23 0 -43 9.5t-33 31.5q-8 16 -13 32.5t-1 33.5z" />
<glyph unicode="2" horiz-adv-x="663" d="M-4 469q0 23 13.5 41t31.5 31q14 14 28.5 25.5t30.5 23.5q14 12 29.5 23.5t32.5 23.5q16 12 28.5 26.5t26.5 26.5q16 12 29.5 25.5l27.5 27.5t25.5 28.5t24.5 29.5q10 16 21 30.5t20 30.5q8 20 12 45q0 20 -2 31q0 6 -2 11t-4 9q-4 12 -9 21q-4 4 -7 9t-7 9t-10 7.5 t-12 7.5q-8 2 -29 6q-8 0 -15.5 3t-15.5 1q-4 0 -9 -4t-9 -6t-8.5 -3t-8.5 -5t-7 -10.5t-7 -10.5q-4 -8 -9 -15t-9 -18q-2 -4 -7.5 -7t-7.5 -7q-8 -33 -39 -49q-14 -8 -30.5 -14.5t-32.5 -2.5q-35 10 -55 43q-16 31 -5 68q4 16 11.5 31.5t15.5 31.5q10 16 20.5 29.5 t20.5 28.5q10 12 21.5 26.5t27.5 24.5q16 12 38 18.5t44 10.5q23 6 44.5 9t43.5 -1q14 -2 27.5 -5t25.5 -7q14 -4 26.5 -10.5t25.5 -14.5q20 -10 38.5 -21.5t34.5 -27.5q10 -12 16.5 -26.5t14.5 -28.5q10 -14 18.5 -27.5t12.5 -30.5q4 -16 3 -31.5t-1 -31.5q0 -18 1 -38 t-3 -36q-4 -18 -9.5 -35.5t-13.5 -34.5q-8 -16 -18 -31.5t-21 -31.5q-10 -16 -23 -28.5t-24 -26.5q-12 -14 -23.5 -29.5t-25.5 -28.5q-20 -18 -13 -36.5t23 -18.5t34 3t34 3q33 0 61 -29q29 -29 29 -61q0 -35 -29 -63q-10 -12 -27.5 -16.5t-33.5 -4.5h-76q-20 0 -38.5 -1 t-37.5 -1q-20 0 -38.5 -1t-36.5 -1h-76q-20 0 -39 -2t-39 -2q-6 0 -13 2l-14 4q-10 4 -16 11t-14 16q-10 10 -18.5 19t-12.5 22q0 4 -1 9t-1 9z" />
<glyph unicode="3" horiz-adv-x="649" d="M0 607q-2 18 8 32q10 16 24.5 26.5t30.5 14.5q35 10 68 -10q16 -10 24.5 -22.5t14.5 -29.5q0 -2 2 -4q4 -8 10 -12t11 -12l7 -7t7 -8q4 -4 8 -7t8 -5q6 -2 11.5 -3t11.5 -3q10 -2 17 -1t18 3q10 2 19 -1t17 1q6 4 11.5 7t11.5 7q4 4 5 9.5t5 9.5q2 4 2 6t2 6t5 5t6 5 q0 4 -1.5 8.5t-1.5 8.5q-2 4 -4 6t-4 6t-2 7t-2 7q-4 4 -7 9.5t-7 9.5q-8 6 -17.5 9t-19.5 7q-6 4 -12 7t-13 6q-29 6 -47 30q-4 6 -9 12.5t-9 14.5q-2 4 2 11t4 13q0 4 -3 11.5t-1 11.5q2 8 8 14t10 13q18 29 43 34q8 2 13.5 5.5t11.5 5.5q10 4 20.5 6t20.5 8l16 16 q2 4 4 6.5t4 6.5q4 12 5 16v16q0 4 -5 13q-2 4 -5 6t-5 6q-6 8 -14 14q-4 4 -10 7.5t-11 7.5q-10 4 -18 5t-16 3q-10 2 -18.5 0t-18.5 -2q-6 -2 -11.5 -4t-11.5 -4q-4 -4 -9 -4t-9 -5q-10 -6 -17 -16q-4 -6 -9 -12t-9 -13q-2 -2 0 -4q-6 -16 -13 -30.5t-24 -24.5 q-16 -10 -33.5 -10t-33.5 4t-28.5 15.5t-23.5 25.5q-10 16 -14 32.5t2 32.5q4 16 12.5 33t18.5 33q18 31 45 57q12 12 27.5 20.5t31.5 16.5t32.5 16.5t33.5 12.5q37 6 73 6q16 -2 35 -3t37 -7q16 -4 30.5 -14.5t31.5 -20.5q16 -10 31.5 -18.5t27.5 -20.5q25 -27 41 -59 q6 -12 11 -24.5t9 -27.5q4 -14 7.5 -27.5t3.5 -27.5q0 -16 -2 -29.5t-7 -27.5q-4 -12 -10 -25.5t-12 -25.5q-12 -20 -18 -43t8 -43q18 -25 28 -60q4 -16 4 -33.5v-33.5t-1 -33t-7 -33q-4 -14 -9 -26.5t-13 -24.5t-14.5 -24.5t-16.5 -22.5t-23.5 -17.5t-25.5 -15.5 q-23 -14 -53 -25q-25 -8 -54 -12q-14 -4 -27.5 -7t-27.5 -3q-33 0 -59 6q-14 4 -26.5 11t-27.5 14q-18 8 -34.5 16t-30.5 20q-27 25 -47 58q-10 16 -15.5 34.5t-11.5 34.5t-8 34z" />
<glyph unicode="4" horiz-adv-x="684" d="M-4 582q0 10 5 21t11 22q10 16 21.5 31.5t21.5 31.5t19.5 32.5t19.5 33.5q10 16 20.5 32.5t20.5 32.5t18.5 33.5t18.5 34.5q10 16 22.5 31.5t22.5 31.5t19.5 32.5t19.5 33.5q10 16 17.5 34.5t17.5 34.5t20.5 33t20.5 33t28.5 24.5t36.5 10.5q4 2 6.5 1t6.5 -1 q18 0 34.5 -3t28.5 -16q10 -12 14.5 -28.5t4.5 -32.5q0 -20 1 -38.5t1 -39.5q0 -18 -1 -37.5t-1 -38.5q0 -20 3 -38.5t3 -36.5q0 -20 -2 -39t-2 -39q0 -18 2 -38t2 -38q0 -23 4 -40t16 -21q25 -10 42.5 -31.5t17.5 -50.5q0 -25 -14.5 -47.5t-35.5 -32.5q-16 -8 -24 -13.5 t-8 -19.5q0 -41 -23 -64q-25 -29 -63 -28q-16 0 -32 10t-26 23q-12 12 -21 26.5t-9 32.5q0 16 -19.5 21.5t-42.5 5.5t-43 -2.5t-43 -2.5t-44 3.5t-44 3.5q-4 0 -12 4q-2 0 -2 -4q0 -2 -2 -2q-8 2 -13.5 6t-11.5 8q-10 6 -21.5 12t-17.5 17q-4 10 -3 21t1 22h-2l-4 2h-2z M259 674q3 -10 13 -10q8 0 14.5 3t14.5 3q27 0 27 28q0 12 -2 25.5t-2 26.5q0 14 -9.5 17t-15.5 -7q-10 -16 -18.5 -33t-18.5 -33q-6 -10 -3 -20z" />
<glyph unicode="5" horiz-adv-x="659" d="M1 624.5q3 16.5 11 32.5q10 14 22.5 27.5t28.5 17.5q35 8 70 -8q14 -10 22.5 -25.5t14.5 -31.5q0 -4 4 -16q4 -8 11.5 -14.5t13.5 -14.5q4 -4 7 -10.5t7 -10.5t9 -5t11 -5q12 -4 21 -6q8 0 15 -1t18 -1q8 2 15 5t15 5q6 4 12.5 6t12.5 6t18 17q4 4 3 11t4 11q2 4 6 9.5 t6 11.5q0 12 -1 26.5t-3 26.5q-4 14 -6 26.5t-7 24.5q-6 16 -14 27q-4 4 -10 6t-10 6q-8 4 -13.5 10.5t-13.5 10.5q-31 10 -61 16q-16 2 -33 1t-33 -1q-2 0 -2 -2v6q-2 0 -2 -2t-2 -2l-4 -2v-2q-4 2 -6 5t-6 5q-31 8 -52 39l-4 8t-4 9l-4 12t-2 14q0 4 3 9.5t5 11.5v2 q4 23 4 43t4 43t9.5 43t9.5 43v6q0 29 14.5 48t36.5 30q-2 2 -2 4q-2 2 -2 4l2 -2q23 10 47 6q18 0 36.5 -1t39.5 -1q18 0 36.5 2t37.5 2q20 0 38.5 -2t36.5 -2q39 0 64 -25q25 -29 24 -63q0 -37 -26 -60q-12 -12 -27.5 -21t-34.5 -9q-16 0 -33.5 3t-33.5 3h-68 q-29 0 -33 -21q-2 -10 6.5 -15t18.5 -7q14 -4 27.5 -9t27.5 -10q14 -4 28.5 -8t27.5 -10q16 -12 32.5 -25.5t30.5 -29.5q12 -16 23.5 -32.5t21.5 -35.5q17 -39 23 -80q4 -18 4 -36.5t2 -36.5q0 -41 -8 -72q-6 -37 -25 -68q-14 -33 -43 -57q-23 -25 -55 -45 q-16 -10 -31.5 -19.5t-32.5 -13.5q-18 -4 -36.5 -5t-36.5 -3q-18 0 -38 1t-36 5q-33 6 -70 29q-16 10 -29.5 22.5t-25.5 24.5q-14 14 -26.5 27.5t-22.5 29.5t-16.5 34.5t-10.5 37.5q-6 16 -3 32.5z" />
<glyph unicode="6" horiz-adv-x="649" d="M-4 635q0 18 1 37.5t5 38.5q2 8 8 15t10 17l37 68q10 16 18.5 33.5t16.5 34.5q10 16 17.5 33.5t17.5 33.5t16.5 34.5t16.5 35.5q8 16 20.5 31.5t22.5 31.5q8 16 12 37t14 37q8 16 23.5 26.5t32.5 14.5q37 6 67 -10q16 -10 25.5 -24.5t13.5 -31.5q10 -33 -10 -65 q-6 -14 -13.5 -27.5t-15.5 -27.5t-12 -29.5t-12 -30.5q-10 -18 -6 -34.5t20 -20.5q35 -10 57 -21q12 -8 25.5 -15t24.5 -17q14 -12 27 -24.5t24 -29.5q10 -16 16 -33.5t12 -33.5q10 -37 11 -72q0 -2 2 -4q0 -2 -2 -3t-2 -3q0 -27 -11 -62q-4 -16 -8 -29.5t-12 -27.5 t-18.5 -25.5t-20.5 -23.5q-14 -16 -30.5 -30.5t-35.5 -24.5q-20 -10 -39.5 -20.5t-42.5 -12.5q-14 -4 -27 -2t-28 2q-14 0 -28.5 -1t-28.5 3q-23 4 -43.5 12t-36.5 21q-14 8 -24.5 20.5t-22.5 22.5q-25 25 -41 49q-8 12 -13.5 26.5t-11.5 30.5q-4 16 -10 33.5t-8 36.5z M172 631q2 -6 5 -10.5l7 -10.5q2 -4 1 -10t3 -10q12 -12 19 -17q6 -4 11 -6t11 -6q6 -2 12.5 -2t14.5 -2q6 0 12 -1t15 -1l24 6q13 6 21 14q4 4 11 6.5t11 6.5t5 10t5 10q2 6 4.5 11.5t2.5 11.5q2 4 -1.5 6t-3.5 6q0 2 -4 10q0 4 2 11.5t0 11.5q-4 4 -5 10t-5 10l-18 19 q-4 4 -10.5 5t-12.5 5t-13 3t-13 -1q-8 2 -14.5 6t-14.5 2q-6 -2 -11 -7t-12 -9q-6 -4 -11 -5t-11 -5q-4 -4 -8 -8.5t-8 -8.5t-7.5 -8t-5.5 -8q-6 -10 -8 -23v-22z" />
<glyph unicode="7" horiz-adv-x="620" d="M-2 444q-4 16 2 33t14 33l37 68q10 16 15.5 34.5t15.5 34.5l37 68q10 16 16 34.5t17 34.5q10 16 20 33t21 33q10 16 15 34.5t15 35.5q20 39 8 65q-10 35 -51 35h-94q-33 0 -61 24q-23 23 -23 62q0 33 27 59q12 10 25.5 21.5t31.5 11.5q20 0 39.5 -1t38.5 -1q20 0 39.5 -3 t40.5 -3q20 0 39.5 3t38.5 3q20 0 39.5 -3t39.5 -3q4 0 9.5 3t9.5 1q12 0 23.5 -6t21.5 -12q33 -20 39 -50q4 -16 5 -33.5t-7 -33.5q-10 -16 -18.5 -30.5t-16.5 -31.5q-10 -16 -18.5 -31.5t-18.5 -31.5q-8 -16 -15 -31.5t-18 -32.5q-8 -16 -16 -32.5t-16 -32.5 q-10 -16 -19.5 -30.5t-17.5 -31.5q-10 -16 -17.5 -31.5t-17.5 -31.5q-8 -16 -15.5 -32.5t-15.5 -33.5q-8 -16 -18.5 -30.5t-20.5 -30.5q-8 -16 -11 -33.5t-13 -34.5q-8 -16 -16.5 -31.5t-16.5 -31.5q-20 -35 -57 -41q-16 -4 -34 0t-32 12q-16 10 -28.5 22.5t-16.5 28.5z" />
<glyph unicode="8" horiz-adv-x="681" d="M-4 657q0 14 5 28.5t9 29.5q8 23 16.5 44t22.5 40q10 10 11 31.5t-9 41.5q-12 31 -18 68q-2 16 0 33.5t6 36.5q4 31 18 55q6 14 17.5 23.5t21.5 19.5q10 12 19.5 24.5t21.5 20.5q12 10 26.5 14t29.5 11q18 6 37.5 8t39.5 4q18 2 38 1t40 -5q18 -4 38 -9.5t36 -15.5 q31 -18 57 -53q12 -14 23.5 -29.5t17.5 -34.5q8 -16 13.5 -35.5t5.5 -39.5q0 -2 1 -3t1 -3t-2 -3.5t-2 -3.5q-2 -25 -7.5 -49t-17.5 -47q-6 -12 -9 -29.5t7 -27.5q14 -16 25.5 -33.5t19.5 -38.5q8 -20 13 -40.5t7 -43.5q0 -2 -2 -4q0 -2 -3 -3t-3 -3q0 -16 -1 -32.5 t-5 -33.5q-4 -16 -9 -31.5t-15 -29.5t-21.5 -25.5t-23.5 -21.5q-31 -29 -58 -41q-16 -10 -31.5 -19.5t-31.5 -13.5q-33 -8 -70 -12q-31 -2 -68 4q-16 4 -31.5 9t-31.5 11t-29.5 14.5t-25.5 18.5q-10 10 -20.5 18.5t-20.5 18.5q-20 20 -35 43q-12 18 -23.5 38.5t-15.5 43.5 q-2 16 -3 30.5t-1 30.5zM172 651q0 -4 1 -9t1 -9q4 -12 6 -17q4 -6 6 -10t7 -8q4 -4 7 -10t7 -10q6 -4 13 -6.5t13 -6.5q10 -4 17.5 -8t15.5 -6q10 0 19.5 1t19.5 1q8 2 15.5 5t15.5 7t14 7.5t12 7.5q4 4 10.5 7t10.5 7t4 11t2 11q4 12 4 17q0 4 3 5t3 5q0 2 -3 3t-3 5 q0 6 -4 19l-4 8t-6 8t-8 9t-9 10q-6 4 -12 6t-14 6t-15.5 10t-15.5 8q-10 0 -18 -4t-19 -4q-10 -2 -18 -2t-17 -2q-8 -4 -15 -6t-13 -6q-4 -4 -8 -10.5t-9 -12.5q-4 -4 -4 -9t-2 -9t-5 -9.5t-5 -9.5zM213 946l10 -10q2 -4 2 -8t4 -8t10.5 -2t10.5 -3q6 -2 11 -5t11 -5 q6 0 13.5 -2t13.5 -2q6 2 12 5t13 5q4 4 7 7.5t7 7.5t7 4t7 4l6 12v12v5q0 2 2 3t2 3q-4 8 -4 10q-2 4 -2 7t-2 7q-4 4 -7 5t-7 6q-4 4 -9 4t-9 2q-11 4 -23 8q-8 0 -14 2t-13 2q-6 -2 -11 -5t-11 -7l-8 -4t-9 -7q-4 -4 -7 -4t-7 -4t-2 -7t-2 -7q0 -2 -1 -3t-1 -5v-11v-12z " />
<glyph unicode="9" horiz-adv-x="649" d="M-4 936q2 16 6 30.5t8 30.5t10.5 29.5t12.5 28.5q8 14 18 25.5t21 23.5q14 16 29.5 30.5t35.5 24.5q18 10 38 19.5t42 13.5q16 4 29.5 4h27.5t26.5 -3t29.5 -7q20 -4 39.5 -13.5t38.5 -19.5q14 -10 28.5 -17.5t24.5 -17.5q12 -10 21.5 -23.5t17.5 -27.5q8 -12 13 -26.5 t11 -30.5q4 -18 7.5 -36t3.5 -36t2 -37.5t-2 -36.5q-4 -23 -13 -37q-10 -16 -21.5 -31.5t-21.5 -31.5t-16 -34.5t-17 -35.5q-8 -16 -18 -32.5t-20 -32.5t-15.5 -36t-15.5 -36q-8 -16 -18.5 -32.5t-20.5 -32.5l-37 -68q-16 -31 -49 -41q-37 -10 -68 8t-41 53q-4 16 0 33 t13 33q8 14 14 28.5t14 28.5q6 14 15.5 26.5t17.5 29.5q10 16 2 33.5t-24 21.5t-30.5 8t-27.5 12q-14 6 -25.5 16.5t-21.5 20.5q-16 12 -26.5 25.5t-20.5 30.5q-20 33 -29 65q-6 16 -11 33.5t-5 36.5q0 2 1 3t1 3l-2 2q-2 0 -2 2zM170 932q0 -4 4 -6t4 -4q2 -6 2 -11.5 t2 -11.5q4 -4 2 -11t2 -11t10.5 -7.5t10.5 -7.5q6 -4 10 -9t10 -9q6 -2 13.5 0t15.5 0q6 0 13 -2t14 -2q6 2 13 3t13 3q6 4 11.5 8t9.5 8l8 8t8 9q4 4 5 10t5 10q2 4 5.5 9t3.5 12q2 6 -0.5 11t-2.5 11q0 16 -2 23l-12 18q-4 4 -10 7t-10 7t-9.5 8.5t-9.5 8.5q-8 2 -14 4 l-12 4h-29q-6 -2 -12 -5t-13 -5q-6 -4 -11 -6.5t-11 -6.5q-4 -4 -7 -9t-7 -9t-6.5 -8t-6.5 -10q-2 -4 -5 -9.5t-3 -11.5q-2 -4 -2 -10z" />
<glyph unicode="A" horiz-adv-x="745" d="M8 489q6 16 9 35t10 37q6 16 12 33.5t14 36.5q6 16 14.5 32.5t14.5 34.5q8 16 15 34t14 34q6 16 9 35.5t9 36.5q8 16 18.5 32.5t16.5 32.5t10 35.5t10 36.5q6 16 12.5 33.5t14.5 35.5l25 68q4 12 11 21.5t15 19.5q4 4 8 10t9 11l8 4q4 2 7 1t7 -1q4 2 9 5t12 3v-6v2l2 2 q16 0 22 -2q4 -2 7 -4t7 -4q2 0 4.5 2t4.5 0q6 -4 10 -9.5t8 -9.5q18 -18 25 -45q4 -10 10 -21.5t10 -23.5q6 -16 8 -33.5t9 -34.5q6 -16 15 -31.5t15 -31.5t10.5 -33.5t10.5 -34.5q6 -16 13 -32.5t13 -32.5t13.5 -32.5t13.5 -33.5q6 -16 10 -32.5t10 -32.5t13.5 -32.5 t13.5 -33.5q8 -18 12 -38.5t13 -39.5q6 -20 16 -37.5t18 -37.5q8 -18 12.5 -39t10.5 -39q8 -16 16.5 -33.5t14.5 -34.5q6 -18 12 -35.5t14 -33.5q10 -23 18.5 -43.5t22.5 -38.5q8 -10 18.5 -16.5t20.5 -14.5q16 -12 27 -16q8 -4 14 -4.5t14 -2.5q7 -2 17 -2q18 0 33.5 -9 t25.5 -21q29 -29 29 -60q0 -18 -8 -33.5t-19 -27.5q-23 -23 -61 -23q-17 0 -33 -1h-6q-13 0 -27 3q-16 4 -31.5 8.5t-29.5 10.5q-31 14 -55 37q-14 10 -24.5 22t-20.5 25q-10 12 -20.5 24.5t-20.5 24.5q-8 14 -15.5 27.5t-15.5 29.5q-12 25 -27 58q-8 20 -12 40.5t-10 40.5 q-8 18 -19.5 37t-17.5 37q-8 20 -13.5 41t-13.5 39q-8 23 -30.5 41t-45.5 18h-79h-80q-23 0 -45.5 -12t-30.5 -33q-6 -16 -12 -29.5t-23 -23.5q-22 -13 -46 -13q-12 0 -24 3q-16 4 -27 16.5t-22 28.5q-11 19 -11 38q0 12 5 25zM266 707q-2 -5 -2 -10q0 -11 8 -21 q12 -14 31 -14q10 0 19.5 -1.5t19.5 -1.5q16 1 28 13q7 7 6 17q0 7 -3 16q-8 23 -16.5 44t-16.5 44q-4 14 -18 15h-1q-12 0 -16 -15q-10 -23 -19.5 -43.5t-19.5 -42.5z" />
<glyph unicode="B" horiz-adv-x="757" d="M-6 748q0 16 5 34.5t5 34.5t-4 34.5t-4 35.5v69q0 18 2 36t2 36q0 16 -2 34.5t-2 35.5q0 33 20 57q12 16 32 20.5t40 4.5q25 0 49.5 2t48.5 2h58q16 0 29.5 3t29.5 3q23 0 46.5 -2t47.5 -6q20 -4 40 -10.5t36 -16.5t30.5 -25.5t26.5 -31.5t20.5 -33.5t14.5 -36.5 q6 -16 11.5 -30.5t7.5 -30.5q0 -16 -2 -30.5t-7 -31.5q-4 -20 -12 -37.5t-18 -33.5q16 -14 31.5 -29t25.5 -31t16.5 -33.5t10.5 -35.5q10 -41 10 -74q-2 -20 -2 -39t-6 -37q-14 -41 -37 -70q-10 -16 -23.5 -31.5t-29.5 -27.5q-16 -10 -35 -18.5t-37 -14.5q-27 -10 -53.5 -12 t-53.5 -2t-51 2t-51 2q-23 0 -43 -3t-43 -3t-43 2t-43 2v-6l-2 8q-39 0 -61 20q-27 27 -27 64q0 16 1 34.5t1 35.5q0 16 1 34.5t1 34.5v70q0 18 -4 35.5t-4 36.5zM174 662q0 -12 2 -24.5t2 -23.5q0 -59 55 -59q4 0 6.5 -2t6.5 -2q27 0 51.5 1t50.5 1h49q4 2 10.5 2t10.5 2 q4 4 10 6t10 6t4 9.5t4 9.5t10.5 7t10.5 7q1 2 1 4q0 4 -2 8q-3 8 -1 11v22q-2 4 -1 10.5t-3 10.5q-2 4 -5 8t-7 8t-7.5 7t-7.5 7t-7 9.5t-7 9.5q-4 2 -11.5 2h-11.5q-12 2 -24.5 1t-24.5 -1q-2 -2 -2 -4t-2 -2q-18 0 -36.5 2t-39.5 2q-6 0 -11 -2t-11 -2q-4 0 -8.5 2 t-8.5 2q-23 0 -39 -17.5t-16 -37.5zM178 954q0 -31 11.5 -49t35.5 -18q23 0 45.5 4t44.5 4h25q2 0 4 -1t4 -1t3 1t3 1q8 4 15 4q4 4 8 1t8 1q4 2 5 5t5 7t5 7.5t3 7.5q0 4 -2 8t0 8q0 4 1 8t1 9q0 4 -2 6t-4 6t-2 7t-2 7q-4 4 -5 7t-5 5q-4 4 -7 3t-7 2q-4 2 -7.5 4t-7.5 2 l-20 4t-21 2q-23 0 -45 -2t-45 -2q-29 0 -37 -17.5t-8 -40.5z" />
<glyph unicode="C" horiz-adv-x="835" d="M6 748q-1 16 -1 33t1 34q2 16 3 33.5t5 34.5q4 18 9.5 37.5t15.5 37.5q8 18 19.5 35t23.5 33t25.5 30.5t29.5 28.5q14 14 31.5 24.5t34.5 20.5q16 10 35.5 17.5t37.5 13.5t36 12.5t36 8.5q10 2 21 2q7 0 15 -1q18 -3 40 -3q18 -2 35.5 -4t36.5 -7q18 -4 36.5 -8t34.5 -12 t33.5 -16.5t34.5 -18.5q35 -25 57 -47q27 -27 27 -66q0 -37 -27 -63q-25 -25 -63 -25q-37 0 -64 27l-9 13.5t-11 13.5q-12 8 -25.5 14t-27.5 12q-25 10 -58 15q-31 2 -61 0q-16 -4 -29.5 -8.5t-28.5 -8.5q-14 -6 -27.5 -12t-25.5 -16q-10 -10 -19.5 -21.5t-19.5 -21.5 q-10 -12 -16 -24.5t-12 -27.5q-6 -14 -11.5 -27.5t-7.5 -29.5q-2 -14 -4 -29.5t0 -31.5q2 -14 9 -27.5t14 -28.5q6 -14 10 -27.5t14 -25.5t21.5 -21.5t21.5 -19.5q12 -10 24.5 -18.5t26.5 -14.5t28.5 -9t29.5 -7q31 -4 63 0q29 6 58 18q14 6 25 14.5t24 18.5q6 4 13 9t13 12 q24 24 59 24h2.5h3.5q34 0 58 -24q12 -12 16.5 -28.5t4.5 -33.5q0 -35 -25 -59q-12 -12 -24.5 -25.5t-28.5 -23.5t-30.5 -21.5t-31.5 -19.5q-16 -8 -34.5 -13.5t-36.5 -9.5q-35 -6 -70 -6q-11 -1 -22 -1h-12q-18 1 -36 3q-16 4 -33.5 7t-33.5 7t-33.5 6.5t-34.5 10.5 q-16 8 -30.5 18t-28.5 21q-14 10 -26.5 22t-24.5 25q-12 14 -24.5 25.5t-22.5 25.5q-10 16 -18.5 29.5t-16.5 29.5q-6 16 -8 34t-7 34q-10 35 -12 68z" />
<glyph unicode="D" horiz-adv-x="768" d="M-4 606v70q0 18 2 35.5t2 36.5q0 16 1 34.5t1 34.5t1 34.5t1 35.5v69q0 18 -2 36t-2 36v70q0 37 27 59q20 25 59 25v-2l2 10q16 0 31.5 -2t32.5 -2q16 0 31.5 -2t31.5 -2q23 0 43.5 2t42.5 0q23 -2 44.5 -4t41.5 -9q20 -6 37.5 -15t36.5 -19q18 -10 34.5 -20.5 t32.5 -22.5t28.5 -26.5t25.5 -31.5q31 -35 47 -63q10 -18 21.5 -36t15.5 -36q6 -16 5 -34.5t1 -35.5q4 -15 6 -33q1 -9 1 -17.5t-1 -16.5q0 -16 -3 -33.5t-7 -34.5q-4 -16 -8.5 -32.5t-10.5 -32.5t-12 -32.5t-14 -31.5q-10 -16 -22.5 -27.5t-22.5 -25.5q-12 -12 -25.5 -23.5 t-28.5 -21.5q-29 -23 -57 -37q-16 -10 -30.5 -19.5t-30.5 -15.5q-16 -4 -34 -5t-34 -5q-35 -6 -70 -6q-23 0 -43 -2t-43 -2t-43 2t-43 2q-4 -2 -5 -1t-5 1q-39 0 -61 22q-12 12 -16.5 29t-4.5 35q0 16 -1 34.5t-1 35.5q0 16 -3 34.5t-3 34.5zM170 786q0 -16 1 -34.5t1 -34.5 q0 -18 1 -35.5t1 -36.5q0 -16 2 -32.5t10 -28.5q10 -14 24.5 -23.5t31.5 -9.5q16 0 34 -1h11q11 0 22 1q14 2 28.5 8t29.5 10q14 6 24.5 16.5t22.5 18.5q20 16 43 41q14 20 26 51q6 14 12.5 26.5t8.5 29.5q2 16 4 30q1 7 1 15t-1 16q-4 16 -7 30.5t-9 28.5t-13.5 26.5 t-15.5 25.5q-10 12 -22.5 21t-22.5 20q-25 14 -51 28q-16 6 -29.5 10.5t-30.5 6.5q-14 2 -28.5 3t-30.5 1q-31 0 -58 -27q-10 -10 -12 -26.5t-2 -32.5t-1 -35t-1 -35q0 -18 -2 -35.5t-2 -36.5z" />
<glyph unicode="E" horiz-adv-x="679" d="M-82 326q0 27 16.5 50t40.5 32q20 8 38 21t18 42q0 20 -3 39.5t-3 40.5q0 20 -1 39.5t-1 40.5q0 20 2 39.5t2 40.5q0 20 1 39.5t1 40.5q-2 4 0 14t2 14q0 16 -1 32.5t-1 33.5q0 16 -2 33.5t-2 33.5v66q0 16 -1 32.5t-1 32.5q0 4 3 7.5t3 7.5q0 39 22 61q25 25 62 25h30 h74q18 0 36.5 3t37.5 3q18 0 36.5 -1t34.5 -1q18 0 37 -1t37 -1t37 -1t37 -1t32.5 -8.5t24.5 -18.5q25 -25 25 -59q0 -33 -25 -58q-12 -10 -25.5 -17t-31.5 -7q-8 0 -15.5 -1t-17.5 -1q-18 0 -36.5 -2t-37.5 -2q-18 0 -36.5 1t-36.5 1q-20 0 -39 1t-37 1q-20 0 -35.5 -17.5 t-15.5 -44.5q0 -23 14 -41t37 -18q16 0 31.5 1t31.5 1t33 -1t33 -1h63q16 0 31 -9.5t27 -21.5q12 -10 21.5 -24.5t9.5 -32.5q0 -31 -29 -60q-12 -12 -27.5 -20t-32.5 -8v4q-23 0 -45 -4t-45 -4t-44 3t-44 3q-35 0 -51 -29q-8 -12 -14 -27.5t-6 -31.5q0 -18 1 -37t1 -39 q0 -18 -1 -36.5t-1 -37.5q0 -16 6 -31.5t12 -29.5q8 -18 17.5 -33.5t19.5 -19.5q8 -4 16 -7.5t17 -7.5q16 -12 31.5 -25.5t31.5 -27.5q16 -12 31.5 -24.5t32.5 -26.5q16 -12 32.5 -23.5t32.5 -23.5q14 -10 26.5 -20.5t26.5 -18.5t28.5 -14.5t31.5 -14.5q14 -4 27.5 -10 t27.5 -10q16 -4 29.5 -10.5t30.5 -8.5q23 -4 43 0t43 6q16 4 31.5 8.5t31.5 8.5q18 10 38.5 18t37.5 23q8 4 14 10l12 12q27 27 60 27q38 0 63 -23q12 -12 15.5 -29.5t5.5 -33.5q0 -39 -25 -62q-10 -10 -20.5 -18t-20.5 -18q-12 -8 -23.5 -15.5t-23.5 -15.5 q-16 -10 -31.5 -21.5t-33.5 -19.5q-16 -6 -35 -12.5t-37 -10.5t-37.5 -5t-40.5 -3q-16 0 -34 -1h-13q-12 0 -23 1q-16 2 -33.5 6t-33.5 8q-18 4 -35.5 7.5t-34.5 9.5q-16 6 -30.5 14t-30.5 15q-16 8 -30.5 15t-31.5 17q-16 10 -31.5 17.5t-27.5 17.5q-14 10 -27.5 21.5 t-25.5 21.5t-24.5 22.5t-24.5 22.5q-14 12 -25.5 25.5t-24.5 23.5q-18 14 -39.5 23.5t-44.5 19.5q-6 2 -13 3t-13 3q-16 2 -29.5 4.5t-30.5 2.5q-14 -2 -27.5 -1t-29.5 1q-35 2 -57 26q-12 12 -20.5 26.5t-8.5 33.5z" />
<glyph unicode="F" d="M-4 887q0 18 1 35.5t1 33.5q0 18 1 36t1 36q0 16 2 34.5t2 35.5q0 55 49 78q10 4 18.5 5t18.5 1q8 0 16.5 2t16.5 2q18 0 36.5 -2t37.5 -2q16 0 34.5 -1t36.5 -1t37 3t37 3t36.5 -3t37.5 -3q18 0 36.5 5t36.5 5q16 0 34 -8t30 -19q10 -12 14 -29.5t4 -35.5q0 -33 -22 -60 q-28 -24 -58 -24h-2q-10 0 -17 -2t-15 -2q-16 0 -35 2t-35 2q-18 0 -35.5 -1t-36.5 -1h-69q-35 0 -52.5 -18.5t-17.5 -41.5q0 -29 21.5 -45t50.5 -16q23 0 44 -1t44 -1h88q37 0 59 -25q25 -25 25 -59q0 -16 -4 -33.5t-17 -28.5q-22 -22 -60 -22h-3v-4h-86q-23 0 -44.5 3 t-43.5 3q-14 0 -28.5 -9t-24.5 -24q-10 -12 -16.5 -28.5t-6.5 -32.5q0 -20 4 -40t4 -40q0 -23 -2 -42.5t-2 -39.5q0 -37 -26 -64q-26 -22 -61 -22h-3q-16 0 -33.5 5t-29.5 15q-12 12 -16.5 30t-4.5 36v70v69q0 18 -2 35.5t-2 34.5q0 18 -1 35.5t-1 36.5q0 16 2 34.5t2 34.5 t-3 34.5t-3 35.5z" />
<glyph unicode="G" horiz-adv-x="874" d="M-2 780v35q2 16 7 33.5t9 34.5q4 18 8.5 38.5t14.5 36.5q10 18 22.5 34t24.5 32t25.5 30.5t29.5 28.5q16 12 31.5 24.5t32.5 22.5q33 18 73 33q18 6 37 8.5t37 4.5q18 4 37 7q11 2 22 2q8 0 15 -1q33 0 74 -10q35 -6 71 -23q37 -16 66 -37q16 -10 28.5 -23.5t26.5 -27.5 q12 -12 20.5 -28.5t8.5 -33.5q0 -31 -29 -59q-12 -14 -28.5 -18t-32.5 -4t-32.5 4t-29.5 16q-6 6 -11 13.5t-11 13.5q-12 8 -26.5 12t-29.5 10q-14 4 -27 8t-28 7q-16 2 -30.5 4t-30.5 0q-16 -4 -30.5 -6.5t-29.5 -6.5q-25 -10 -51 -30q-23 -16 -43 -41q-10 -12 -14 -26.5 t-10 -29.5q-6 -14 -13.5 -26.5t-11.5 -28.5q-2 -16 0 -30.5t4 -30.5q4 -16 6 -30.5t8 -29.5q14 -33 31 -51q10 -12 22.5 -20.5t22.5 -18.5q12 -8 23.5 -18.5t23.5 -16.5q16 -6 30.5 -7t31.5 -5q16 -2 30.5 0t30.5 4q31 4 55 14q14 6 28.5 10.5t27.5 12.5q12 10 22.5 35.5 t10.5 52.5q0 12 -2.5 25.5t-2.5 25.5q0 18 5.5 35.5t17.5 30.5q12 10 29.5 15t33.5 5q18 0 36 -5t30 -17q25 -29 25 -64v-73q0 -18 1 -37t1 -37v-74q0 -18 -3.5 -36.5t-3.5 -37.5v-73q0 -18 1.5 -37t1.5 -37v-27.5t-3 -29.5q0 -14 1.5 -27.5t3.5 -30.5q4 -10 5 -18t5 -19 q4 -4 5 -11t5 -11t6 -7t6 -8q6 -6 11 -8q4 -2 8 -1t8 -1q2 0 4 1t6 1q37 0 64 -22q24 -24 24 -61q0 -21 -9 -35.5t-19 -26.5q-12 -12 -27.5 -20.5t-32.5 -8.5h-12q-14 2 -28.5 5t-28.5 7t-28.5 8.5t-27.5 14.5q-25 14 -43 37q-10 10 -16 22.5t-14 24.5q-10 16 -19.5 31.5 t-13.5 31.5t-4 34t-2 36q-2 16 -3 34.5t-1 35.5v88q0 29 -25 47t-53 12q-16 -4 -33.5 -6t-34.5 -4q-18 -2 -35.5 -1t-36.5 3q-35 2 -67 12q-16 4 -33.5 8.5t-34.5 12.5q-16 8 -30.5 18t-28.5 21q-14 10 -28.5 20t-26.5 23q-12 12 -19.5 28.5t-17.5 30.5q-10 16 -18.5 29.5 t-16.5 29.5q-6 16 -14.5 31t-12.5 31q-10 33 -12 67q-2 16 -2 35z" />
<glyph unicode="H" horiz-adv-x="811" d="M-4 467q0 16 1 34.5t1 35.5q0 16 1 34.5t1 34.5q0 18 -2 35.5t-2 34.5q0 18 4 35.5t4 36.5q0 16 -3 34.5t-3 34.5t1 34.5t1 35.5q0 18 -2 35.5t-2 33.5q0 18 1 36t1 36q0 16 1 34.5t1 35.5q0 37 27 59q23 27 59 27q33 0 57 -29q12 -10 21.5 -25.5t9.5 -31.5 q0 -25 -3 -49.5t-3 -51.5q0 -18 8 -35.5t19 -33.5q20 -33 61 -33h80q20 0 38.5 -1t39.5 -1q16 0 34.5 5t32.5 17q27 27 27 66v59q0 14 -1 28.5t-1 29.5q0 39 24 63q27 23 62 23q41 0 63 -23q25 -25 25 -63q0 -18 -2 -38t-2 -38t1 -36.5t1 -39.5q0 -18 3 -36.5t3 -39.5 q0 -18 -2 -36.5t-2 -36.5q0 -20 -2 -39t-2 -37t2 -37.5t2 -38.5q0 -18 -3 -37.5t-3 -38.5q0 -18 5 -36.5t5 -38.5q0 -18 1 -34t5 -32q8 -39 21 -63q10 -16 19 -28.5t24 -23.5q18 -16 36.5 -28.5t34.5 -28.5t34 -31.5t36 -29.5q12 -10 26.5 -17.5t30.5 -17.5 q14 -8 28.5 -13.5t31.5 -11.5q14 -6 26.5 -15t28.5 -14q14 -4 28.5 -7t30.5 -7q23 -2 43.5 0t42.5 6q16 2 32 8.5t32 10.5q18 10 38.5 18t37.5 23q8 4 13 11t11 13q12 12 28.5 16.5t33.5 4.5q16 0 31.5 -4.5t29.5 -16.5q12 -14 16.5 -29.5t4.5 -31.5t-4.5 -32.5t-16.5 -31.5 q-10 -10 -22.5 -16t-22.5 -14q-12 -10 -22.5 -18.5t-22.5 -16.5q-16 -10 -32.5 -19.5t-35.5 -17.5q-16 -8 -33.5 -15.5t-35.5 -11.5t-38 -5t-40 -3q-5 -1 -11 -1q-11 0 -23 3q-18 4 -36 6q-16 2 -34.5 1t-34.5 3t-32.5 12.5t-33.5 12.5q-16 6 -32.5 8t-32.5 10t-30.5 16.5 t-31.5 18.5q-16 10 -28.5 20.5t-26.5 20.5q-12 10 -26.5 19.5t-28.5 19.5q-12 10 -23.5 23.5t-26.5 23.5q-12 10 -26 19.5t-29 19.5q-35 27 -78 49q-8 2 -13 8.5t-13 8.5q-14 2 -28.5 -2t-31.5 -7q-14 0 -27.5 3.5t-29.5 5.5q-35 0 -59 24q-25 25 -25 60q0 31 27 57 q12 12 26.5 23.5t30.5 9.5q16 0 32.5 5t28.5 21q10 14 13.5 32t3.5 34t3 30.5t3 30.5v62q0 18 -10.5 33.5t-24.5 27.5q-29 25 -63 25q-18 0 -38 3t-38 3q-20 0 -38.5 -2t-39.5 -2q-23 0 -38 -9.5t-25 -21.5q-23 -29 -23 -70q0 -18 -1 -36.5t-1 -38.5q0 -18 3 -38t3 -38 q0 -37 -29 -61q-23 -23 -61 -23q-37 0 -59 23q-12 12 -21.5 27.5t-9.5 33.5z" />
<glyph unicode="I" horiz-adv-x="286" d="M-4 887q0 18 3 35.5t3 33.5v72q0 16 -1 34.5t-1 35.5q0 37 27 59q12 12 27.5 21.5t31.5 9.5q39 0 66 -27q23 -27 22 -63v-70q0 -18 -1 -35.5t-1 -36.5q0 -16 2 -33.5t2 -35.5q0 -16 -2 -34.5t-2 -35.5q0 -16 1 -34.5t1 -34.5v-72q0 -16 -1 -33.5t-1 -36.5q0 -16 3 -34.5 t3 -34.5t-3 -35t-3 -35q0 -18 -8 -32.5t-19 -24.5q-12 -12 -26.5 -23.5t-32.5 -11.5q-16 0 -32.5 8t-28.5 20q-25 25 -25 64q0 16 1 34.5t1 35.5q0 16 1 34.5t1 34.5q0 18 -3 35.5t-3 34.5q0 18 2 35.5t2 36.5v69q0 16 -3 34.5t-3 35.5z" />
<glyph unicode="J" d="M8 498q10 41 35 55q16 8 33.5 11t34.5 -1q8 -2 14 -6t14 -6q23 -2 47.5 0t49.5 6q16 4 32.5 6t32.5 8q10 4 16.5 11.5t16.5 11.5q14 14 20 22q12 18 21 35q6 16 11 32.5t9 35.5v16t2 19q0 23 -1 44t-3 44q0 23 2 45t2 45q0 20 -1 40.5t-1 43.5q0 20 3 40.5t3 41.5 q0 35 23 61q23 23 61 23q33 0 58 -25q12 -12 22 -26.5t10 -32.5q0 -23 -2 -45.5t-2 -44.5v-90q0 -16 1 -32t3 -32q0 -16 -3 -30.5t-3 -30.5q-2 -16 2 -30.5t2 -31.5q-2 -16 -3 -32.5t-5 -32.5t-9 -30.5t-9 -31.5q-12 -31 -27 -59q-10 -16 -21.5 -33.5t-25.5 -32.5 q-14 -14 -31.5 -24.5t-33.5 -20.5q-29 -18 -66 -31q-16 -4 -33.5 -8t-36.5 -8q-16 -2 -34.5 -2h-34.5q-16 -2 -35 -4q-9 -1 -17.5 -1t-17.5 1q-16 2 -34.5 4t-35.5 6q-35 10 -51 43q-9 15 -9 29q0 13 5 35z" />
<glyph unicode="K" horiz-adv-x="768" d="M-4 731v74v74q0 18 2 36.5t2 36.5v72q0 18 2 36.5t2 37.5q0 33 23 59q12 10 26.5 19.5t32.5 9.5q39 0 64 -25q10 -12 18 -29.5t8 -33.5q0 -18 -1 -37t-1 -37v-74q0 -23 20.5 -37t34.5 0q12 12 25.5 23.5t26.5 24.5q12 12 23 25l22 26q12 12 25.5 23.5t25.5 23.5 t23.5 25.5t23.5 25.5t25.5 22.5t25.5 22.5q27 27 60 27q16 0 32.5 -4t30.5 -17q25 -25 25 -63q0 -33 -27 -64q-16 -14 -30.5 -28.5l-30.5 -30.5q-14 -16 -30 -29.5t-32 -27.5q-16 -16 -29.5 -31t-29.5 -31q-18 -20 -15 -55q4 -33 21 -53q12 -14 24.5 -26.5t22.5 -27.5 l43 -55q10 -14 19.5 -29.5t21.5 -27.5l43 -56q2 -2 2 -4t2 -4q12 -16 25.5 -30.5t25.5 -28.5q12 -16 28.5 -26.5t29.5 -26.5q14 -16 24 -34t25 -34q14 -16 30.5 -27.5t30.5 -27.5q33 -37 74 -68q14 -10 28.5 -19.5t30.5 -19.5t30.5 -20.5t31.5 -18.5q16 -6 34.5 -10t34.5 -8 t34 -9.5t36 -9.5q23 -4 46.5 -3t45.5 3q16 4 29.5 9.5t27.5 11.5q18 8 37 17t35 22q6 4 14.5 8t14.5 10q12 12 26.5 22.5t30.5 10.5q35 0 62 -31q26 -26 26 -57q0 -33 -28 -62q-12 -12 -24.5 -26.5t-29.5 -24.5q-16 -12 -33.5 -19t-33.5 -16q-16 -10 -33.5 -17t-36.5 -11 q-14 -4 -28.5 -8.5t-30.5 -6.5t-31.5 -6t-32.5 -4q-16 0 -31.5 4t-31.5 6q-57 6 -105 21q-27 8 -52.5 15t-51.5 18q-18 8 -36.5 18t-35.5 21q-18 10 -36.5 20t-35.5 23q-16 10 -29.5 22t-27.5 25q-14 12 -25.5 27.5t-23.5 27.5q-14 14 -26.5 27.5t-24.5 27.5l-49 56 q-14 16 -24.5 30.5t-25.5 30.5q-12 16 -25 29.5t-26 27.5q-12 16 -25.5 29.5t-25.5 30.5q-12 16 -25.5 29.5t-25.5 29.5q-12 14 -22.5 30.5t-22.5 33.5l-4 -4q-10 12 -18.5 24t-18.5 25q-6 8 -17.5 16t-23.5 13.5t-25.5 4t-23.5 -11.5t-14.5 -23.5t-8.5 -27.5 q-4 -12 -7 -25.5t-3 -29.5q0 -18 -1 -38t-1 -38t-3 -35.5t-15 -30.5q-22 -22 -61 -22h-3q-18 0 -32.5 8t-26.5 21q-10 12 -18.5 26.5t-8.5 32.5q0 23 1 43t1 43t-2 44t-2 44q0 4 -1 9t1 9q0 18 -1 36t-1 36z" />
<glyph unicode="L" horiz-adv-x="397" d="M-90 326q0 16 2 31.5t12 27.5q23 25 58 29q20 2 36.5 18.5t16.5 56.5v76q0 18 3 38t3 38v76q0 20 -2 38.5t-2 37.5q0 20 -1 38.5t-1 38.5q0 18 -1 37t-1 39q0 18 4 36.5t4 39.5q0 18 -4 37.5t-4 38.5q0 16 9 32.5t21 28.5q10 12 26.5 16.5t33.5 4.5q18 0 34.5 -4.5 t28.5 -16.5q12 -10 17.5 -27.5t5.5 -33.5v-78v-78q0 -20 -1 -39.5t-1 -40.5q0 -18 1 -37.5t1 -40.5q0 -20 3 -38.5t3 -38.5t-3 -39t-3 -39v-78q0 -20 1 -39.5t1 -40.5q0 -16 6 -31.5t14 -31.5q16 -33 43 -54q16 -10 33 -23.5t33 -25.5t28.5 -28.5t28.5 -28.5 q16 -14 30.5 -27.5t31.5 -25.5q14 -10 28.5 -17.5t30.5 -17.5q31 -18 60 -29q14 -6 27 -11t28 -9q16 -4 29.5 -6.5t29.5 -4.5q23 -4 43.5 -2t42.5 4q16 4 31.5 5.5t32.5 7.5q41 18 76 45q6 4 12 10l12 12q12 12 28.5 16.5t33.5 4.5q36 0 59 -23q12 -12 21.5 -27.5t9.5 -31.5 q0 -39 -29 -64q-10 -10 -21.5 -17t-21.5 -17t-22.5 -16.5t-24.5 -14.5q-16 -10 -32.5 -19.5t-35.5 -15.5q-16 -8 -33.5 -16.5t-35.5 -12.5t-38 -2t-40 0q-16 0 -34 -4q-12 -3 -24 -3q-6 0 -12 1q-16 2 -33.5 7t-33.5 10q-16 4 -34 8t-34 10t-32.5 10t-33.5 12 q-16 8 -29.5 17.5t-29.5 17.5q-16 10 -30.5 18.5t-28.5 18.5t-27.5 20.5t-26.5 20.5q-12 10 -23 24.5t-24 24.5q-12 10 -26.5 19.5t-28.5 19.5q-18 14 -36.5 29.5t-41.5 25.5q-6 2 -14 1t-14 2q-16 2 -29.5 3t-30.5 1q-14 0 -27.5 -3.5t-29.5 -3.5q-37 4 -64 27 q-12 12 -15 29.5t-3 36.5z" />
<glyph unicode="M" horiz-adv-x="923" d="M-4 1010v77q-1 5 -1 10q0 13 7 26q10 18 25 32q14 14 30 21q8 4 14.5 6t14.5 2q23 0 42 -8.5t32 -24.5q10 -10 17 -20.5t18 -20.5l55 -55q14 -14 26.5 -28.5t26.5 -29.5q10 -10 27.5 -17t34.5 -11q16 -4 32.5 0t32.5 8q37 6 57 27q12 12 24.5 26t25.5 27q14 14 27.5 25.5 t27.5 25.5q12 12 25.5 24.5t27.5 24.5q6 8 14.5 11t18.5 8q8 2 14 4t15 2q18 0 34.5 -4t28.5 -17q12 -12 16.5 -29.5t4.5 -33.5q0 -18 1 -37t1 -39q0 -18 1 -36.5t1 -37.5q0 -20 -3.5 -38.5t-3.5 -37.5q0 -18 4.5 -36.5t4.5 -38.5q0 -18 -1 -37t-1 -37t-3.5 -37.5 t-3.5 -38.5q0 -18 4.5 -36.5t4.5 -37.5v-75q0 -25 4 -46.5t10 -41.5q23 -55 49 -76q14 -10 25.5 -24.5t25.5 -24.5q12 -10 25.5 -22.5t26.5 -24.5q14 -10 29.5 -19.5t29.5 -19.5q25 -23 55 -37q14 -8 27.5 -15.5t30.5 -15.5q14 -4 28.5 -7t28.5 -7q16 -4 29.5 -9.5 t29.5 -7.5q23 -4 43.5 -7t42.5 -1q16 4 30.5 12.5t31.5 12.5q20 10 40.5 18t37.5 23q6 4 11 11t11 13q31 27 62 27q16 0 31.5 -8.5t27.5 -20.5q12 -14 20.5 -28.5t8.5 -30.5q0 -37 -27 -62q-20 -23 -41 -39q-10 -10 -21.5 -18t-23.5 -16q-29 -16 -70 -33q-16 -6 -35.5 -9 t-37.5 -7q-41 -10 -74 -11q-18 -1 -35.5 -1t-34.5 1q-18 2 -35.5 1t-33.5 3q-18 4 -34 12.5t-32 14.5t-33.5 8t-33.5 10t-29.5 17.5t-30.5 17.5q-16 10 -31.5 17.5t-29.5 17.5q-12 10 -23.5 23.5t-23.5 23.5q-14 12 -26.5 23.5t-25.5 21.5q-12 12 -26.5 21.5t-26.5 19.5 q-20 16 -39.5 27.5t-40.5 21.5q-8 2 -14 2t-14 2q-16 2 -29.5 2h-28.5q-14 0 -28.5 4.5t-28.5 4.5q-18 2 -34.5 6t-29.5 14q-22 26 -22 61q0 34 24 62q12 12 27.5 21.5t34.5 7.5q25 -2 36 9t19 28q8 16 13.5 35.5t5.5 35.5q0 20 -3.5 40t-3.5 38q0 20 1.5 39.5t1.5 40.5 q0 18 1 37.5t1 40.5q0 16 -9.5 29.5t-21.5 21.5q-14 8 -30.5 8t-26.5 -10t-18.5 -21.5t-18.5 -21.5t-20.5 -18.5t-20.5 -18.5q-25 -25 -62 -25q-31 0 -57 27q-12 12 -27.5 21.5t-27.5 19.5q-10 10 -19.5 20.5t-19.5 20.5q-4 6 -18.5 3t-30.5 -19q-8 -10 -14.5 -22.5 t-6.5 -31.5q0 -16 2 -33.5t2 -35.5q0 -16 -4 -33.5t-4 -34.5q0 -16 3 -34.5t3 -34.5t-1 -34t-1 -34q0 -18 -6 -35.5t-18 -28.5q-24 -28 -61 -28h-3q-16 0 -32.5 9t-26.5 22q-25 25 -25 61v78q0 18 1 37.5t1 40.5q0 18 -1 37.5t-1 37.5q0 20 -1 40t-1 38v78q0 20 1 38.5 t1 39.5q0 20 -3 38.5t-3 39.5z" />
<glyph unicode="N" horiz-adv-x="792" d="M-4 606v70q0 18 2 35.5t2 36.5v69q0 16 1 34.5t1 35.5q0 18 -1 35.5t-1 33.5q0 18 1 36t1 36q0 16 -1 34.5t-1 35.5q0 16 5 34.5t18 30.5q12 10 29.5 13.5t33.5 3.5q10 0 23 -4q12 -4 23 -6.5t18 -10.5q10 -14 20 -29.5t20 -29.5q12 -16 25.5 -29.5t26.5 -30.5 q12 -14 24.5 -28.5t24.5 -30.5t26.5 -29.5t26.5 -29.5q12 -14 23.5 -29.5t23.5 -32.5q12 -16 22.5 -31.5t22.5 -31.5q20 -23 44 -17t24 35q0 16 3 32.5t3 33.5q0 16 -4 33.5t-4 33.5v70q0 16 2 33.5t2 33.5v52.5t4 50.5q2 27 12 57q4 12 7 26.5t8 26.5q10 23 22 41.5 t27 38.5q12 18 26.5 37t30.5 35q10 10 24.5 18.5t28.5 18.5t27.5 16t30.5 13q34 10 63 10q18 0 35.5 -3t28.5 -16q12 -12 20 -29.5t8 -33.5q0 -18 -11 -32.5t-21 -25.5q-25 -25 -60 -26v-4h-10q-8 -4 -15.5 -8.5t-13.5 -8.5q-12 -10 -24.5 -21t-22.5 -26 q-12 -16 -21.5 -33.5t-17.5 -35.5q-8 -20 -12 -45q-2 -20 -1 -40t1 -38q0 -25 -1 -48.5t-1 -47.5q0 -23 1 -43.5t1 -42.5v-87v-73q0 -16 -2 -34.5t-2 -37.5v-72q0 -18 1 -36.5t1 -34.5q0 -18 2 -37t2 -37v-2q0 -39 -25 -64q-26 -26 -60 -26h-3l-2 -2q-4 0 -9 3t-10 5v2 l-4 -6q-27 8 -41 22q-4 4 -4 10.5t-4 10.5q-8 10 -17 19.5t-18 19.5q-12 16 -23 31.5t-24 31.5q-14 16 -26.5 30.5t-24.5 31.5q-12 16 -22.5 32.5t-24.5 32.5q-12 16 -27.5 27.5t-27.5 28.5q-12 16 -22.5 33.5t-22.5 33.5q-6 6 -16.5 9t-20.5 1t-18.5 -10t-8.5 -24 q0 -18 -2 -36t-2 -36q0 -16 3 -34.5t3 -35.5q0 -18 -1 -35.5t-1 -35.5q0 -16 1 -35t1 -35q0 -18 -10 -32.5t-23 -26.5q-12 -10 -26.5 -18.5t-32.5 -8.5q-35 0 -59 25q-27 27 -27 61v70q0 16 -2 34.5t-2 34.5z" />
<glyph unicode="O" horiz-adv-x="915" d="M2 823q2 16 6 32.5t8 33.5q4 16 7.5 32.5t11.5 32.5q6 16 16 30.5t21 29.5q10 14 23.5 23.5t23.5 21.5q12 12 22.5 24.5t24.5 22.5q31 25 57 35q16 8 31.5 13t32.5 11q33 8 67 13q16 4 35 6q10 1 18.5 1t16.5 -1q16 0 33.5 -1t34.5 -5q16 -4 31.5 -12.5t31.5 -14.5 q33 -12 59 -33q16 -10 35 -19t33 -24q16 -14 26.5 -31.5t20.5 -33.5q12 -16 21.5 -34t19.5 -36q8 -16 16.5 -34.5t12.5 -39.5q4 -20 4 -40v-40q0 -2 2 -4q0 -27 -4 -51t-10 -49q-6 -20 -9.5 -40.5t-13.5 -37.5q-16 -39 -41 -69q-12 -16 -29.5 -27.5t-33.5 -24.5 q-16 -14 -29.5 -28.5t-30.5 -24.5q-16 -10 -35.5 -17t-40.5 -14q-37 -14 -67 -16q-11 -3 -22 -3q-7 0 -13 1q-18 2 -35 2q-16 0 -33.5 2t-33.5 6t-34 5t-34 7t-30.5 14.5t-28.5 16.5q-16 10 -28.5 21.5t-25.5 21.5q-16 12 -31.5 23.5t-25.5 27.5q-12 16 -23.5 33t-21.5 33 t-13 36.5t-10 39.5q-4 18 -8 36.5t-6 38.5q-4 20 -4 44q0 16 2 34zM172 782q2 -14 4 -30q4 -16 9 -29.5t10 -28.5q6 -14 10 -28.5t14 -26.5q10 -10 20.5 -21.5t20.5 -21.5q12 -8 26.5 -12t28.5 -11q14 -4 27.5 -11t30.5 -11q11 -1 21 -2q6 0 10 1q14 1 30 1q14 4 28.5 9 t29.5 11q14 6 27.5 11.5t25.5 15.5q10 10 18 22.5t19 22.5q20 27 30 51q6 14 11.5 27.5t9.5 30.5q0 8 -2 15t-2 15t-1 14.5t-1 14.5q-4 16 -4 30.5t-5 30.5q-8 12 -15 25.5t-17 24.5q-10 12 -21.5 21t-21.5 20q-27 20 -51 30q-14 6 -28.5 7t-31.5 6q-16 2 -30 3h-9 q-10 0 -20 -1q-16 -4 -30.5 -4t-31.5 -7q-12 -6 -24.5 -15t-24.5 -17q-10 -10 -20.5 -21.5t-20.5 -21.5q-10 -12 -18 -24.5t-15 -27.5q-10 -33 -16 -57q-1 -8 -1 -16t1 -15z" />
<glyph unicode="P" horiz-adv-x="772" d="M-98 354q2 14 10 27q18 20 51 29q16 4 38 23.5t22 47.5q0 16 -1.5 33.5t-1.5 34.5q0 16 -1 33.5t-1 33.5t3.5 33t3.5 33t-4.5 33.5t-4.5 34.5q0 4 2 11t2 11v78v80q0 20 -1 39.5t-1 38.5q0 20 -1 39.5t-1 39.5q0 4 3.5 6.5t3.5 4.5q0 41 22 61q25 25 61 25q23 0 42.5 2 t41.5 2q23 0 42.5 -3t41.5 -3q23 0 42.5 4t41.5 4q16 0 32 -1t32 -3t30.5 -4t28.5 -6q16 -4 28.5 -11.5t27.5 -15.5q25 -14 47 -35q10 -10 20 -21.5t19 -23.5q10 -16 14 -34.5t10 -37.5q4 -18 9.5 -36.5t5.5 -36.5t-2.5 -38t-8.5 -38t-17 -34.5t-24 -33.5 q-10 -16 -22.5 -32.5t-28.5 -26.5q-16 -12 -33.5 -20.5t-38.5 -16.5q-27 -10 -52 -9t-54 1q-27 0 -51.5 -3t-50.5 -3q-31 0 -56 -25q-12 -12 -22.5 -25.5t-10.5 -29.5v-58q0 -16 3.5 -29.5t3.5 -29.5q0 -33 20 -67q10 -16 20.5 -28.5t26.5 -23.5q37 -25 66 -49 q16 -12 28.5 -28.5t28.5 -30.5q16 -12 30.5 -25.5t31.5 -25.5q14 -10 29.5 -16.5t31.5 -14.5q14 -10 26.5 -19.5t28.5 -17.5q33 -10 58 -16q16 -4 29.5 -7.5t29.5 -7.5q19 -2 36 -2q26 0 50 4q16 4 32.5 6t33.5 9q18 10 35.5 23.5t35.5 25.5q6 4 12.5 10t12.5 10 q12 12 29.5 17.5t33.5 5.5t34 -4.5t30 -16.5t17 -29.5t5 -33.5q0 -37 -24 -62q-10 -10 -22.5 -17t-22.5 -17t-21.5 -18.5t-23.5 -16.5q-16 -10 -34 -17.5t-34 -13.5q-18 -8 -34.5 -17.5t-37.5 -13.5q-18 -4 -36.5 -4t-38.5 -2q-16 0 -34 1t-36 3q-16 2 -33.5 4t-34.5 7 q-16 4 -34.5 6t-34.5 6q-37 14 -64 26q-16 8 -30.5 17.5t-28.5 19.5q-16 8 -29.5 18.5t-28.5 20.5q-14 10 -27 19.5t-28 19.5q-12 12 -25.5 23.5t-25.5 21.5t-23.5 23.5t-23.5 23.5q-20 14 -41 25.5t-41 21.5q-20 4 -29 7q-16 2 -29.5 1t-29.5 -1q-14 0 -27.5 3t-29.5 3 q-37 4 -60 22q-22 22 -22 59q0 16 2 31zM190 932q0 -16 7.5 -29.5t17.5 -25.5q18 -25 49 -25q27 0 52.5 -1t50.5 -1h24t25 2q4 0 11 -2q4 -1 6.5 -1t4.5 1q12 4 19 10q4 4 5 10.5t5 10.5t9 7t7 7q2 6 2 12t2 11l1 16q0 4 -1 6q0 8 -8 21q-2 4 -3 10t-5 10t-9 6t-9 6t-8.5 6 t-8.5 5q-4 2 -9 5t-11 5q-12 0 -24.5 -3t-24.5 -3q-25 0 -50.5 1t-52.5 1q-35 0 -53 -21q-20 -27 -21 -57z" />
<glyph unicode="Q" horiz-adv-x="956" d="M-2 745v17q0 27 4 61q2 16 6 32.5t8 33.5q4 16 9.5 31.5t11.5 31.5q8 16 16 31.5t19 28.5q10 14 21 26.5t24 22.5q10 12 22.5 23.5t26.5 21.5q12 10 26.5 16t30.5 15q16 8 31.5 16t32.5 12q16 4 32.5 8.5t34.5 6.5q11 3 22 3q6 0 12 -1q18 -2 34 -2q16 -2 33.5 -4 t33.5 -7q16 -4 34 -4t34 -6q16 -8 31.5 -15t29.5 -18q16 -10 30 -26.5t28 -30.5q16 -14 28.5 -28.5t22.5 -30.5q12 -16 24.5 -32.5t20.5 -35.5q16 -39 25 -76q4 -20 5 -39.5t1 -40.5q0 -2 2 -4q0 -27 -5 -51t-12 -49q-4 -14 -7 -27.5t-9 -27.5q-12 -33 -10 -58 q2 -16 10 -27.5t16 -21.5q14 -14 24.5 -30.5t25.5 -30.5q14 -12 28.5 -24.5t26.5 -26.5q14 -14 28.5 -26.5t28.5 -27.5q12 -10 23.5 -23.5t23.5 -25.5t23.5 -24.5t23.5 -24.5t23.5 -24.5t26.5 -22.5q16 -10 30.5 -20.5t30.5 -20.5t33.5 -14t34.5 -13q16 -6 33.5 -12 t33.5 -10t33.5 -11.5t34.5 -11.5q23 -2 47.5 2t46.5 6q16 4 29.5 5.5t29.5 5.5q18 10 37 19t35 22l25 24q29 29 59 29q16 0 31.5 -8.5t27.5 -20.5q25 -25 25 -59q0 -16 -4 -32.5t-16 -31.5q-14 -12 -31 -24.5t-33 -24.5q-35 -23 -70 -37q-16 -10 -33.5 -19t-33.5 -13 q-18 -6 -37.5 -8.5t-38.5 -4.5q-18 -2 -35 -2t-33 2q-35 0 -67 6q-16 4 -32.5 6.5t-33.5 6.5q-29 8 -63 22q-16 6 -31.5 12.5t-32.5 12.5q-16 8 -30.5 14t-30.5 17q-18 10 -32.5 24t-31.5 27q-16 14 -32.5 25.5t-32.5 27.5q-16 14 -32.5 25.5t-31.5 27.5q-14 12 -26 25.5 t-25 27.5q-14 12 -26.5 25.5t-24.5 26.5q-14 14 -27.5 26.5t-25.5 24.5q-12 14 -22.5 29.5t-22.5 29.5q-22 22 -59 22q-7 0 -13 -1q-16 -2 -32.5 -7.5t-39.5 -13.5q-16 -4 -33.5 -7t-33.5 -7q-18 -2 -35.5 -4t-36.5 -2q-16 0 -34.5 2t-35.5 6q-16 4 -31.5 11t-31.5 14 q-16 6 -30.5 12t-28.5 16q-16 10 -30.5 18.5t-27.5 18.5q-31 25 -55 55q-12 16 -19.5 35t-15.5 35q-10 16 -20.5 33.5t-14.5 36.5q-6 18 -9 37.5t-7 39.5zM168 813q0 -16 4 -30.5t6 -30.5t4 -30.5t6 -29.5q6 -14 12.5 -27.5t16.5 -25.5q10 -10 21.5 -20.5t21.5 -20.5 q12 -10 25.5 -15t27.5 -12q14 -6 28 -11t30 -9q5 -1 11 -1q10 0 20 3q14 4 30 6q4 0 11.5 -3t11.5 -1q14 4 23 20.5t7 30.5q-2 18 1 37t18 33q12 12 27.5 18t31.5 8q6 0 11.5 -2t9.5 -4q10 -2 21 2t16 15q2 10 6 19t6 20q0 6 -1 14t-1 16t1 15.5t-1 15.5q-2 14 -9.5 27.5 t-11.5 27.5q-6 14 -10 28.5t-12 27.5q-10 12 -22.5 21t-22.5 20q-12 8 -25.5 14t-28.5 12q-14 4 -27 9.5t-30 7.5q-16 2 -30 4q-8 1 -15.5 1t-15.5 -1q-16 -4 -30.5 -7.5t-29.5 -7.5q-25 -12 -53 -28q-10 -10 -18.5 -23.5t-18.5 -25.5q-10 -10 -16 -23.5t-12 -26.5 q-6 -16 -13.5 -28.5t-11.5 -28.5z" />
<glyph unicode="R" horiz-adv-x="772" d="M-4 674q0 16 1 33.5t1 35.5q0 6 3 17.5t3 17.5q0 18 -4 37t-4 39q0 18 2 36.5t2 39.5v76q0 18 -2 37.5t-2 37.5v21q0 16 10 30.5t23 24.5q10 12 24.5 21.5t30.5 9.5q23 0 43 -3t41 -3h84h84q16 0 32 5q9 3 19 3q7 0 14 -2q14 -2 28.5 -5t31.5 -7q31 -10 55 -27 q12 -8 24.5 -16.5t22.5 -18.5t18.5 -22.5t16.5 -24.5q16 -31 27 -70q4 -18 11 -36.5t5 -36.5q0 -18 -4 -37t-10 -37q-6 -16 -12.5 -30.5t-16.5 -26.5q-8 -14 -19.5 -26.5t-23.5 -23.5q-10 -10 -21.5 -22t-27.5 -21q-12 -6 -14.5 -29.5t10.5 -35.5q18 -18 37.5 -34.5 t38.5 -35.5l53 -53q12 -14 23.5 -28.5t23.5 -26.5q14 -14 29.5 -24.5t29.5 -22.5q12 -14 21.5 -31t23.5 -29q12 -12 25.5 -22.5t26.5 -22.5q12 -12 22 -25.5t25 -25.5q12 -10 26.5 -20.5t26.5 -20.5q16 -10 30.5 -19.5t30.5 -19.5t31.5 -17t32.5 -14q16 -8 33.5 -13t33.5 -9 q18 -6 35 -11.5t35 -9.5q23 -4 46.5 -2t45.5 4q29 6 58 19q18 8 38.5 15t36.5 20q6 6 10.5 14t10.5 14q27 27 63 27q16 0 32 -9.5t28 -21.5q22 -22 22 -56q0 -19 -4 -35.5t-16 -29.5q-14 -14 -30.5 -26.5t-33.5 -22.5q-33 -27 -67 -41q-16 -10 -34 -18t-36 -12 q-37 -10 -76 -13q-11 -1 -22 -1h-12q-18 1 -33 1q-16 2 -32.5 3t-33.5 5q-16 4 -32.5 8.5t-32.5 8.5t-32 9t-32 11t-32.5 8.5t-32.5 10.5t-29.5 16t-30.5 17q-37 20 -67 49q-16 12 -30.5 27.5t-31.5 29.5q-16 14 -31.5 26.5t-29.5 28.5q-14 12 -28.5 23.5t-27.5 25.5 q-12 12 -23 26.5t-24 29.5q-14 12 -27.5 24.5t-25.5 26.5q-14 12 -26.5 24.5l-26.5 26.5q-2 2 -5 2t-5 4q-2 0 -1 2t-1 4q-12 12 -25.5 23.5t-26.5 24.5q-12 12 -22 26.5t-23 26.5q-12 14 -25.5 24.5t-25.5 24.5l2 2q-2 0 -2 4q-18 16 -39.5 31.5t-40.5 34.5 q-14 14 -27.5 23t-27.5 7q-16 -4 -25.5 -18t-9.5 -33v-69q0 -16 -3 -34t-3 -34q0 -18 -4 -34.5t-17 -26.5q-23 -23 -61 -23q-37 0 -59 23q-25 25 -25 61v68q0 18 1 35.5t1 33.5t-4 34.5t-4 35.5zM172 936q0 -35 18 -59q8 -14 20.5 -23.5t31.5 -9.5q27 0 52 4t52 4 q12 0 24.5 -5t24.5 -5q4 2 9.5 5t11.5 5q4 4 10 4t10 4t5 10.5t5 10.5t13 16q2 6 2 11t2 10v22q-2 6 -1 11t-1 12q-4 4 -7 8t-8 8q-4 4 -16 12q-4 4 -6 9.5t-8 9.5q-4 2 -10.5 0t-12.5 -2q-12 2 -23.5 1t-23.5 -1q-27 0 -52 3t-52 3q-35 0 -54 -23q-10 -10 -13 -24.5 t-3 -30.5z" />
<glyph unicode="S" horiz-adv-x="710" d="M0 580q-1 8 -1 15q0 25 15 50q20 35 49 43q9 2 18 2q23 0 48 -14q12 -8 25.5 -20.5t17.5 -28.5q0 -14 4 -21q0 -2 6 -8q4 -4 5 -8t6 -8q8 -6 28 -15q16 -6 33.5 -7t34.5 -5q16 -2 31.5 -3t31.5 3q12 2 23.5 2t21.5 4q14 4 19 8q4 2 4 5.5t4 5.5q4 8 4 10q2 4 2 8t2 8v33 q-2 4 -1 10t-1 10l-2 5q-2 2 -5 1t-5 1q-8 4 -13.5 10t-13.5 10q-16 6 -32.5 10t-32.5 9l-68 12q-16 4 -31.5 11t-31.5 11t-32 9.5t-30 15.5q-16 8 -28.5 18.5t-24.5 22.5q-10 10 -19.5 22.5t-17.5 26.5t-16.5 26.5t-10.5 28.5q-4 27 -4 53.5t11 51.5q8 25 23 46t36 40 q14 12 27.5 22.5t29.5 20.5q16 8 32.5 16t33.5 12q16 4 34.5 8.5t36.5 6.5q16 2 32 2t32 -2t31.5 -6t31.5 -9q16 -4 29.5 -11t30.5 -15q14 -6 29.5 -12.5t25.5 -16.5q25 -20 41 -51q10 -14 12 -29.5t7 -31.5q2 -10 2 -19q0 -25 -13 -45q-16 -35 -47 -43q-13 -4 -26 -4 q-22 0 -41 12q-31 14 -37 53q-4 8 -4 15q-2 2 -5.5 2t-3.5 2q-4 2 -4 4t-4 6t-9 5t-11 5q-10 4 -20.5 5.5t-20.5 3.5q-14 2 -27.5 3t-27.5 -1q-12 -2 -25.5 -3t-24.5 -6l-24 -12q-4 -4 -3 -8t-3 -8q-2 -2 -4 -3t-5 -3v-9q-6 -6 -6 -8q0 -4 4.5 -5t6.5 -3q2 -4 0 -8t0 -6 q2 -4 5 -6t7 -7q4 -2 8 -5t8 -5q16 -6 34.5 -9t37.5 -7q18 -4 36.5 -4t37.5 -4q16 -4 29.5 -11.5t27.5 -11.5q16 -6 30.5 -10t28.5 -12q25 -16 50 -37q29 -20 43 -45q8 -14 15 -28.5t11 -31.5q3 -9 3 -19q0 -5 -1 -11q-2 -16 0 -31q0 -39 -10 -80q-8 -25 -17.5 -46.5 t-25.5 -41.5q-31 -37 -70 -55q-45 -23 -86 -29q-43 -6 -88 -6q-16 2 -32.5 5t-32.5 5q-16 4 -31.5 9t-32.5 9q-16 6 -30.5 12.5t-28.5 14.5q-16 10 -30.5 18.5t-27.5 18.5q-12 10 -23 22.5t-20 28.5q-18 31 -20 64z" />
<glyph unicode="T" horiz-adv-x="339" d="M-727 1569q0 35 27 61q27 31 61 31q16 0 31.5 -9.5t29.5 -21.5q12 -16 29 -28q18 -14 40 -22.5t44 -18.5q16 -6 30.5 -13.5t31.5 -11.5q16 -4 32.5 -8t32.5 -8q20 -2 38.5 -1t39.5 1q18 -2 37.5 -1t38.5 1h75q20 0 39 -1t39 -1q18 2 37 4t39 4q23 2 47.5 3t46.5 5 q16 4 35 2t35 2q18 4 35.5 8t34.5 8q16 4 33.5 7.5t33.5 7.5q18 4 34.5 10t35.5 10q18 4 36.5 7t36.5 8q20 4 39 6t39 6q18 4 37 9t37 9q20 4 38.5 5t39.5 6q18 4 36.5 8t39.5 8q18 2 37.5 3t37.5 5q18 2 38 1t40 3q18 2 37 7.5t39 7.5q18 0 36.5 -2.5t37.5 0.5q18 0 36.5 1 t36.5 -1q18 0 38 1t38 -1t35.5 -7.5t36.5 -9.5q16 -2 30.5 -1t28.5 -3t27.5 -10t28.5 -10q18 -6 35.5 -12.5t33.5 -14.5q16 -10 29 -23.5t27 -23.5t18 -26.5t4 -33.5q0 -16 -3 -33.5t-15 -29.5t-29.5 -15t-34.5 -3q-18 0 -32.5 2t-28.5 12q4 -4 8 -3t8 -1q-14 10 -30.5 18 t-32.5 17q-16 6 -32 9t-32 7t-30.5 7t-30.5 7q-20 2 -40 3t-38 3q-20 2 -40 2h-40q-18 -2 -37.5 0.5t-40.5 -0.5q-20 -2 -39.5 -2t-40.5 -2q-18 -2 -37.5 -5t-40.5 -7q-18 -4 -36.5 -4t-36.5 -4t-37 -7t-37 -7t-35.5 -10.5t-36.5 -10.5l-73 -12q-18 -4 -37 -5t-37 -5 t-36.5 -7.5t-37.5 -7.5q-18 -4 -35.5 -8t-36.5 -8q-10 -4 -20 -5t-21 -5q-29 -6 -57 -31q-25 -20 -37 -53q-8 -16 -10 -31.5t-2 -32.5q0 -27 1 -52.5t1 -49.5q0 -18 -1 -38t-1 -38t-2 -36.5t-2 -37.5q0 -18 -1 -36.5t-1 -36.5t1 -38t1 -38t1 -37t1 -37t1 -36.5t1 -37.5 q0 -18 -3 -37.5t-3 -38.5v-73q0 -18 2 -37t2 -37q0 -33 -29 -61q-29 -25 -61 -25q-16 0 -33.5 5t-30.5 18q-24 24 -24 60q0 20 -2 38t-2 37v69q0 18 4 37t4 35q0 18 -4 36.5t-4 35.5q0 20 3 39.5t3 38.5q0 20 -2 39.5t-2 39.5q0 18 -1 38t-1 40t1 39t1 39t2 39.5t2 38.5 q0 20 -1 39.5t-1 40.5q0 43 -31 80q-16 18 -37.5 26t-40.5 6q-16 0 -30.5 2t-28.5 2q-16 0 -30.5 -2t-31.5 -2h-71l-74 7q-18 2 -35.5 6t-36.5 8q-18 4 -36.5 7t-34.5 9q-20 6 -39 16.5t-37 20.5q-20 10 -38.5 19.5t-35.5 21.5q-41 27 -67 51q-25 25 -25 64z" />
<glyph unicode="U" horiz-adv-x="790" d="M-6 809q0 18 5 36.5t5 37.5q0 16 -3 34.5t-3 36.5q0 16 3 35t3 37t-3 35.5t-3 36.5q0 16 9 31.5t20 27.5q25 29 57 29q35 0 63 -25q25 -29 25 -63v-74v-74q0 -18 -1 -36.5t-1 -36.5v-74q0 -18 -1 -36.5t-1 -37.5q0 -4 1 -6t1 -6v-23q2 -10 7 -20t9 -21q4 -10 6.5 -20 t8.5 -21q8 -8 17 -12t18 -12q10 -6 16 -14.5t16 -12.5t22.5 -5t22.5 -3t22.5 -4t22.5 0t21.5 6t21.5 8t19.5 9.5t19.5 11.5q8 6 12.5 16t10.5 18q12 20 20 37q4 10 6.5 20.5t6.5 20.5q0 4 3 18.5t3 24.5q0 16 3 34t3 34q0 20 -2 39.5t-2 42.5q0 20 -1 40.5t-1 41.5 q0 20 2 40.5t2 41.5q0 16 -2 30.5t-2 30.5t2 30.5t2 31.5q0 16 -3 29.5t-1 27.5q0 14 4 27.5t8 27.5q4 23 7 44.5t14 41.5q10 20 21 40t28 36q23 25 55 45q16 10 33.5 15.5t34.5 9.5q16 6 33.5 6h35.5q6 1 12 1q12 0 24 -3q18 -4 28 -17q12 -10 16 -28.5t4 -34.5 q0 -35 -26 -58q-24 -28 -56 -28h-2h-14q-4 -2 -10.5 -1t-12.5 -1l-18 -13q-4 -4 -7 -11t-7 -11q-4 -6 -11.5 -12t-11.5 -15q-4 -14 -8 -39q0 -4 2 -22.5t2 -46.5v-72q0 -16 -4 -34.5t-4 -37.5q0 -16 2 -34.5t2 -34.5q0 -18 -2 -36.5t-2 -35.5q0 -18 3 -36.5t3 -35.5 q0 -18 -3 -35.5t-3 -33.5q0 -33 -1 -51.5t-1 -20.5q-2 -23 -3 -44t-10 -44q-8 -20 -19 -39.5t-24 -36.5q-23 -31 -41 -45q-10 -10 -21 -19t-24 -20q-20 -16 -43.5 -24t-46.5 -19q-16 -4 -33.5 -8t-33.5 -6q-11 -3 -23 -3q-6 0 -12 1q-19 2 -35 4t-34.5 2t-35.5 6 q-16 6 -33.5 12.5t-33.5 16.5t-29.5 22.5t-28.5 24.5q-12 12 -23 26.5t-24 28.5q-10 14 -16 28.5t-14 31.5q-6 16 -13.5 30.5t-11.5 30.5t-2 33.5t2 34.5q0 6 -1 12t-1 12q0 18 -4 37t-4 35z" />
<glyph unicode="V" horiz-adv-x="765" d="M0 1108q4 16 14 31q10 16 21.5 28.5t27.5 16.5t33 0t33 -15q16 -10 28.5 -20t18.5 -27q6 -18 12.5 -36.5t12.5 -34.5q6 -18 9 -38t9 -38q8 -18 18.5 -34.5t16.5 -35.5q8 -16 11 -35.5t11 -38.5q6 -16 19.5 -23t28.5 -7q27 0 41 35q2 6 5 12t5 12q6 16 10 31.5t10 32.5 l25 61q4 16 10 29.5t12 29.5q6 18 14.5 35t14.5 35q6 16 14.5 32.5t18.5 33.5q8 18 15 36.5t18 34.5q10 16 24 29.5t27 30.5q12 16 23.5 30.5t27.5 28.5q14 12 26.5 27.5t28.5 27.5q16 10 32.5 19.5t33.5 19.5q16 10 35.5 14.5t35.5 12.5q18 6 37 11t37 9t37 7.5t37 7.5 q20 2 39 6t37 4t33.5 -10t25.5 -23q23 -23 23 -59q0 -37 -21 -60q-12 -12 -27.5 -20t-33.5 -8q-16 0 -35 2t-37 0q-14 -4 -27.5 -7t-27.5 -8q-14 -4 -27.5 -10t-26.5 -10q-23 -10 -44 -21.5t-44 -27.5q-20 -16 -39.5 -34.5t-35.5 -41.5q-10 -14 -20.5 -27.5t-18.5 -29.5 q-10 -16 -18.5 -30.5t-14.5 -31.5q-6 -16 -12 -31.5t-13 -31.5q-4 -16 -7 -32.5t-9 -33.5q-8 -23 -14 -43t-15 -43q-8 -23 -18 -41t-21 -41q-6 -16 -12 -32.5t-12 -32.5t-12.5 -32.5t-12.5 -33.5q-6 -16 -10 -33.5t-10 -33.5t-12.5 -32.5t-12.5 -33.5q-6 -16 -12 -32.5 t-12 -32.5q-2 -12 -9.5 -22.5t-15.5 -20.5q-6 -8 -22 -17q-2 -2 -2.5 -4t-2.5 -4q-4 -2 -8 1t-8 1q-6 -2 -22 -2q-4 0 -12 -4q-5 -3 -8 -3q-2 0 -3 1q-6 2 -14 6l-9 4q-6 4 -9 10.5t-7 10.5q-20 20 -22 43q-6 18 -12.5 35.5t-14.5 33.5q-6 16 -13.5 33.5t-13.5 36.5 q-6 16 -13 33.5t-15 33.5q-6 16 -9.5 35t-9.5 37q-8 16 -13 33.5t-13 36.5q-6 16 -16.5 32.5t-18.5 32.5q-6 16 -8 36t-9 36q-6 16 -13 33.5t-13 36.5q-6 16 -14.5 32.5t-16.5 34.5q-4 10 -4 19q0 7 2 14z" />
<glyph unicode="W" horiz-adv-x="1032" d="M-1 1108q3 18 11 33q18 31 56 41q16 4 33.5 3t31.5 -11q29 -16 43 -52q6 -16 13.5 -33.5t13.5 -33.5q8 -16 11 -36t9 -36l25 -68q6 -16 13 -33.5t13 -33.5q6 -18 12.5 -35.5t12.5 -34.5q8 -18 26.5 -17t26.5 19t10 47t-8 56q-4 16 -9 32.5t-9 32.5q-6 16 -15.5 30.5 t-15.5 31.5q-4 16 -11 31.5t-11 31.5q-6 16 -3 33.5t11 34.5q20 31 53 41q16 4 34.5 4t33.5 -10q16 -10 24 -24.5t15 -31.5l24 -61q6 -16 11 -31.5t12 -32.5q4 -16 12 -30.5t14 -30.5t9.5 -32.5t7.5 -33.5q6 -16 15 -30.5t15 -30.5q8 -23 32 -24t32 22q4 14 12 26.5t12 26.5 q6 16 10.5 31.5t10.5 32.5q6 16 14 29.5t13 29.5q6 16 8 31.5t8 31.5q6 18 14 35t17 33q6 16 12 34.5t14 35.5q8 16 17.5 34.5t19.5 34.5t22.5 30.5t24.5 31.5q12 16 23.5 31.5t25.5 29.5t30.5 24.5t33.5 22.5q29 20 63 41q16 10 35 15.5t37 11.5t35.5 15t36.5 14 q18 4 37.5 4t37.5 2q20 2 39 2h37t34.5 -4t27.5 -17q12 -10 21 -26.5t9 -34.5t-11 -32.5t-21 -25.5q-12 -12 -26.5 -21t-33.5 -9q-18 0 -35.5 1t-35.5 -1q-14 -4 -27.5 -8.5t-28.5 -8.5q-14 -4 -27.5 -8t-27.5 -8q-23 -10 -43.5 -23.5t-40.5 -27.5q-43 -37 -76 -78 q-10 -14 -19 -27.5t-18 -27.5q-10 -16 -17 -30.5t-15 -31.5q-6 -16 -11.5 -31.5t-11.5 -31.5t-14 -29.5t-15 -30.5q-8 -23 -13 -44t-13 -44t-14.5 -43t-14.5 -43q-6 -16 -16.5 -31.5t-16.5 -31.5t-9 -33.5t-9 -34.5q-6 -16 -13.5 -32.5t-13.5 -32.5t-12 -32.5t-12 -33.5 q-6 -16 -10.5 -33.5t-10.5 -33.5q-4 -12 -10 -22.5t-14 -20.5q-4 -6 -10.5 -10.5t-12.5 -8.5h-8q-4 -2 -6 -5t-6 -5q-6 -2 -12.5 1t-12.5 5q-8 -2 -22 2q-4 2 -6.5 1t-6.5 1q-4 4 -8 4q-4 4 -12 6t-13 7q-8 10 -10 22t-6 25q-4 10 -6 19t-6 20q-4 12 -15.5 18t-23.5 6 t-23.5 -6t-17.5 -18q-4 -10 -6 -20.5t-6 -20.5q-4 -12 -11.5 -21.5t-17.5 -19.5q-4 -4 -7 -10.5t-7 -10.5q-4 0 -5.5 -1t-3.5 -1q-4 -2 -7 -1t-7 -1q-12 0 -18 -2q-2 0 -2 -4v-4v2q-8 0 -13.5 4t-11.5 8q-33 6 -51 35q-4 6 -8 11t-6 11q-6 18 -11.5 36t-13.5 36 q-6 16 -13.5 33.5t-13.5 34.5q-8 18 -12 36.5t-10 34.5t-12.5 35t-12.5 35q-6 18 -16 34.5t-17 33.5q-6 16 -9 35.5t-9 35.5l-12 36t-13 36q-6 16 -14 33.5t-16 34.5q-6 16 -14.5 33.5t-14.5 33.5q-4 11 -4 22q0 7 1 13z" />
<glyph unicode="X" horiz-adv-x="837" d="M4 467q0 18 6 31.5t17 27.5q12 14 21 28.5t22 31.5q10 12 21 23.5t22 23.5q10 14 19 27.5t20 25.5q10 12 22 23.5t23 23.5q14 18 8 49t-19 47q-10 14 -17 28.5t-17 27.5q-10 14 -21.5 25.5t-21.5 23.5t-19.5 26.5t-19.5 26.5q-10 14 -23.5 23.5t-23.5 23.5q-18 25 -19 64 q0 37 23 59q23 23 59 23q16 0 33.5 -4.5t27.5 -16.5q10 -16 23.5 -27.5t26.5 -27.5q12 -16 24 -32.5t27 -33.5q12 -16 23.5 -34.5t25.5 -34.5q4 -6 16.5 -8.5t25.5 -1t24.5 4.5t15.5 9q12 16 26.5 30.5t26.5 30.5t25.5 29.5t25.5 30.5q12 16 24.5 31.5t24.5 31.5 q10 12 26.5 18.5t33.5 6.5q16 0 33.5 -4t29.5 -17q27 -27 27 -63q0 -18 -10 -31.5t-21 -28.5q-10 -14 -20 -29.5t-21 -29.5q-10 -12 -20 -26.5t-21 -26.5q-10 -14 -22 -25.5t-23 -26.5q-10 -12 -21 -24t-22 -25q-16 -20 -12 -44.5t16 -41.5q10 -12 21.5 -25.5t21.5 -25.5 q10 -14 18.5 -28.5t18.5 -28.5q10 -12 22.5 -25.5t22.5 -25.5q10 -14 20.5 -26.5t20.5 -27.5q2 -2 5 0t3 0q10 -10 19.5 -24.5t19.5 -24.5q10 -12 19.5 -25.5t19.5 -25.5q10 -10 24.5 -19.5t24.5 -19.5q14 -16 26.5 -31.5t27.5 -29.5q14 -16 26.5 -31.5t28.5 -30.5 q14 -14 29.5 -28.5t31.5 -26.5q14 -10 29.5 -19.5t32.5 -19.5q16 -10 31.5 -17.5t31.5 -15.5t35 -11t35 -7t33.5 -9.5t36.5 -7.5q23 -4 46 -3t46 5q16 4 29.5 6.5t29.5 8.5q18 8 35.5 18t34.5 23q6 6 11 12t11 12q14 12 31.5 15.5t34.5 3.5q16 0 33.5 -3.5t29.5 -15.5 t16.5 -29.5t4.5 -33.5t-4 -33.5t-17 -30.5q-14 -12 -29.5 -22t-31.5 -23q-14 -10 -28.5 -22.5t-30.5 -22.5q-16 -8 -35 -12t-35 -10q-39 -10 -90 -15q-15 -1 -30 -1h-15q-22 1 -45 3q-18 4 -37 6.5t-37 6.5t-35.5 8t-36.5 8q-16 6 -33.5 13.5t-35.5 15.5q-16 8 -34 12 t-34 14t-32.5 19.5t-30.5 21.5q-16 10 -32 21.5t-32 23.5q-14 12 -24.5 27.5t-24.5 30.5q-14 14 -30.5 23.5t-28.5 23.5q-14 14 -23.5 31.5t-22.5 31.5q-12 12 -27.5 22.5t-27.5 24.5q-12 12 -22.5 26.5t-20.5 29.5q-12 14 -24.5 27.5t-24.5 25.5q-10 14 -23.5 26.5 t-23.5 26.5q-12 14 -24.5 27.5t-22.5 28.5q-10 14 -18.5 30.5t-18.5 30.5q0 2 -2 1t-2 1q-12 14 -37 12t-37 -18t-27.5 -28.5t-29.5 -28.5q-12 -16 -23.5 -33t-23.5 -33t-23.5 -32.5t-25.5 -33.5q-10 -12 -29 -19t-35 -7t-31.5 9t-27.5 22q-23 23 -23 59z" />
<glyph unicode="Y" horiz-adv-x="829" d="M0 1098q0 16 5 33.5t18 29.5q12 12 29.5 17.5t33.5 5.5t34.5 -5t29.5 -18q6 -8 9 -17t9 -16q12 -16 24.5 -29.5t24.5 -29.5t26.5 -28.5t26.5 -28.5q27 -31 72 -31q45 4 72 37q2 2 6 1t6 1q10 12 15 27.5t16 25.5q10 12 20 23.5t21 23.5q14 16 28.5 31.5t26.5 32.5l49 67 q14 16 27.5 32.5t25.5 33.5q10 12 17.5 26.5t17.5 26.5t20.5 22.5t20.5 22.5l21.5 21.5l21.5 21.5q18 16 36.5 28.5t39.5 24.5q18 12 37.5 23.5t40.5 21.5q16 8 31.5 13.5t31.5 11.5t31.5 14.5t32.5 12.5q16 4 33.5 7t33.5 7q13 3 28 3h7q19 -1 37 -1q12 1 24 1h12 q17 -1 36 -5q18 -2 36.5 -1t34.5 -3q18 -6 36 -16.5t34 -20.5q33 -14 68 -39q16 -10 30.5 -21.5t28.5 -25.5q27 -27 27 -61q0 -16 -6.5 -33t-18.5 -29q-27 -27 -61 -27q-39 0 -64 25q-6 6 -11 13.5t-14 11.5q-16 12 -33.5 21t-37.5 20q-14 4 -27.5 11t-27.5 9q-24 3 -47.5 3 t-47.5 -3q-18 -4 -34.5 -10t-32.5 -12q-18 -4 -36 -7.5t-34 -9.5q-16 -8 -32.5 -14t-32.5 -17q-16 -10 -30.5 -20t-31.5 -21q-41 -33 -70 -71q-10 -12 -21 -26.5t-22 -26.5q-10 -14 -19 -28.5t-19 -29.5q-10 -14 -22.5 -26.5t-22.5 -26.5l-43 -55q-2 -6 -11 -15l-12 -12 q-10 -16 -21.5 -31.5t-23.5 -31.5t-22.5 -33t-22.5 -33l-2 2q-14 -16 -27.5 -33.5t-25.5 -34.5q-25 -29 -39 -53q-16 -35 -23 -63q-8 -27 -8 -66q0 -23 1 -46t1 -46v-90q0 -18 -9 -32.5t-22 -24.5q-27 -27 -57 -27q-18 0 -35.5 4t-28.5 14q-26 26 -26 63q0 25 1 48t1 45 q0 23 2 46.5t2 45.5q0 25 -6 46.5t-10 41.5q-8 23 -15.5 43.5t-23.5 38.5q-10 14 -20.5 28.5t-20.5 29.5q-10 12 -22.5 25t-22.5 26q-10 14 -22.5 26.5t-22.5 26.5t-20.5 27.5t-20.5 27.5t-18.5 28.5t-8.5 33.5z" />
<glyph unicode="Z" horiz-adv-x="903" d="M-4 326q0 2 1 4t1 4t1 4t1 4q0 39 20 66q12 16 26.5 28.5t27.5 28.5q27 29 47 59q12 16 25.5 29.5t25.5 28.5l43 61q12 14 22.5 28.5t22.5 30.5q10 14 23.5 26.5t25.5 29.5q10 14 20.5 29.5t22.5 29.5q10 16 22.5 29.5t22.5 27.5q12 16 23.5 30t23.5 30q10 10 14.5 24.5 t-1.5 26.5t-19.5 21.5t-29.5 9.5q-18 0 -37 -4t-37 -4t-36.5 1t-37.5 1h-74q-18 0 -33.5 8t-27.5 20q-23 23 -23 60q0 35 27 57q10 12 24.5 23.5t32.5 11.5q16 0 34 -1t36 -1q16 0 34.5 -2t35.5 -2q18 0 36.5 2t36.5 2q16 0 35 -4t37 -4t36.5 4t37.5 4q18 0 36.5 1t36.5 1 t36 -1t36 -1q33 0 62 -29q23 -23 22 -61h8q0 -18 -10 -32.5t-20 -29.5q-12 -16 -25.5 -29.5t-26.5 -27.5q-10 -16 -22 -30.5t-25 -30.5q-12 -14 -21 -31t-22 -33q-12 -16 -26.5 -28.5t-26.5 -28.5t-24.5 -31.5t-24.5 -32.5q-12 -16 -23.5 -31.5t-23.5 -31.5l-49 -62 q-12 -16 -25.5 -30.5t-26.5 -30.5q-12 -16 -26.5 -29.5t-26.5 -30.5q-12 -16 -16 -32.5t-2 -32.5q4 -16 17 -29.5t28 -19.5q8 -4 14 -12.5t17 -12.5q16 -12 32.5 -22.5t32.5 -24.5q16 -12 31.5 -25.5t32.5 -27.5q16 -12 30.5 -25.5t30.5 -25.5q27 -23 55 -37q31 -18 60 -33 q14 -4 28.5 -6t30.5 -6q27 -8 57 -13q23 -4 43.5 -6t42.5 0q16 4 32 9.5t32 11.5q20 10 37.5 21.5t34.5 23.5q8 6 15 10t13 10q12 12 28.5 16.5t33.5 4.5q16 0 32.5 -3.5t28.5 -17.5q23 -23 23 -61q0 -35 -25 -60q-10 -10 -19.5 -21t-19.5 -22q-10 -8 -24.5 -12t-26.5 -12 q-16 -10 -31.5 -20.5t-31.5 -18.5q-37 -16 -74 -25q-18 -4 -37 -3t-39 -1q-16 0 -34 -2q-9 -1 -17.5 -1t-18.5 1q-16 2 -33.5 4t-33.5 6q-18 4 -35.5 7.5t-34.5 9.5q-16 6 -30.5 15t-30.5 16q-16 8 -32.5 12t-31.5 14q-16 10 -29.5 20.5t-27.5 20.5t-25.5 22.5t-23.5 22.5 q-14 10 -25.5 22.5t-25.5 22.5q-12 10 -27.5 19.5t-28.5 19.5q-37 27 -80 47q-8 4 -14 6t-12 5q-16 2 -29.5 4t-30.5 2q-14 0 -27.5 -5.5t-29.5 -3.5q-16 0 -32.5 10.5t-26.5 20.5q-12 12 -21.5 27.5t-9.5 34.5z" />
<glyph unicode="a" horiz-adv-x="759" d="M-3 456q-1 6 -1 13q0 12 4 23q6 16 15.5 33.5t15.5 33.5t11 34.5t11 35.5q6 18 14.5 34.5t14.5 34.5q6 16 11 35t11 35q8 16 16.5 33.5t14.5 34.5q6 16 13.5 33.5t15.5 33.5q6 16 9 35.5t9 36.5q6 18 14.5 34.5t14.5 32.5l12 36t13 34q4 12 7 24.5t13 22.5t23 17l6 6 q4 2 8 0t8 -2q12 4 23 4q6 0 11 -2t11 -4q4 0 7 2t7 0l7 -6q14 -8 20 -17q10 -10 13 -21.5t8 -23.5q6 -18 15 -34.5t15 -33.5q8 -16 10.5 -35.5t8.5 -35.5q8 -16 18 -32.5t17 -33.5q6 -18 9 -36.5t11 -34.5q6 -16 14.5 -34t14.5 -34q8 -16 13 -34.5t11 -35.5 q6 -16 14.5 -33.5t14.5 -33.5q8 -18 11 -37t9 -35t11.5 -35t13.5 -35q7 -20 7 -36.5t-7 -30.5q-10 -14 -25.5 -23.5t-31.5 -13.5q-15 -4 -29 -4q-22 0 -39 10q-16 10 -22.5 24.5t-12.5 30.5q-10 23 -32.5 33t-45.5 10q-18 0 -37.5 -2t-37.5 -2q-20 0 -40 3.5t-38 3.5 q-23 0 -48.5 -16.5t-29.5 -31.5q-6 -16 -14.5 -27t-24.5 -22q-15 -10 -33 -14q-9 -2 -17.5 -2t-17.5 2q-35 10 -55 41q-8 16 -11 34zM266 711q-3 -8 -3 -16q-1 -13 9 -23q14 -16 35 -17q10 0 18.5 2t16.5 2q38 0 38 27q0 10 -5 23q-8 23 -18.5 45t-18.5 45q-4 12 -18 13h-1 q-12 0 -16 -13q-10 -23 -18.5 -44t-18.5 -44z" />
<glyph unicode="b" horiz-adv-x="757" d="M-6 748q0 16 5 34.5t5 34.5t-4 34.5t-4 35.5v69q0 18 2 36t2 36q0 16 -2 34.5t-2 35.5q0 33 20 57q12 16 32 20.5t40 4.5q25 0 49.5 2t48.5 2h58q16 0 29.5 3t29.5 3q23 0 46.5 -2t47.5 -6q20 -4 40 -10.5t36 -16.5t30.5 -25.5t26.5 -31.5t20.5 -33.5t14.5 -36.5 q6 -16 11.5 -30.5t7.5 -30.5q0 -16 -2 -30.5t-7 -31.5q-4 -20 -12 -37.5t-18 -33.5q16 -14 31.5 -29t25.5 -31t16.5 -33.5t10.5 -35.5q10 -41 10 -74q-2 -20 -2 -39t-6 -37q-14 -41 -37 -70q-10 -16 -23.5 -31.5t-29.5 -27.5q-16 -10 -35 -18.5t-37 -14.5q-27 -10 -53.5 -12 t-53.5 -2t-51 2t-51 2q-23 0 -43 -3t-43 -3t-43 2t-43 2v-6l-2 8q-39 0 -61 20q-27 27 -27 64q0 16 1 34.5t1 35.5q0 16 1 34.5t1 34.5v70q0 18 -4 35.5t-4 36.5zM174 662q0 -12 2 -24.5t2 -23.5q0 -59 55 -59q4 0 6.5 -2t6.5 -2q27 0 51.5 1t50.5 1h49q4 2 10.5 2t10.5 2 q4 4 10 6t10 6t4 9.5t4 9.5t10.5 7t10.5 7q1 2 1 4q0 4 -2 8q-3 8 -1 11v22q-2 4 -1 10.5t-3 10.5q-2 4 -5 8t-7 8t-7.5 7t-7.5 7t-7 9.5t-7 9.5q-4 2 -11.5 2h-11.5q-12 2 -24.5 1t-24.5 -1q-2 -2 -2 -4t-2 -2q-18 0 -36.5 2t-39.5 2q-6 0 -11 -2t-11 -2q-4 0 -8.5 2 t-8.5 2q-23 0 -39 -17.5t-16 -37.5zM178 954q0 -31 11.5 -49t35.5 -18q23 0 45.5 4t44.5 4h25q2 0 4 -1t4 -1t3 1t3 1q8 4 15 4q4 4 8 1t8 1q4 2 5 5t5 7t5 7.5t3 7.5q0 4 -2 8t0 8q0 4 1 8t1 9q0 4 -2 6t-4 6t-2 7t-2 7q-4 4 -5 7t-5 5q-4 4 -7 3t-7 2q-4 2 -7.5 4t-7.5 2 l-20 4t-21 2q-23 0 -45 -2t-45 -2q-29 0 -37 -17.5t-8 -40.5z" />
<glyph unicode="c" horiz-adv-x="835" d="M6 748q-1 16 -1 33t1 34q2 16 3 33.5t5 34.5q4 18 9.5 37.5t15.5 37.5q8 18 19.5 35t23.5 33t25.5 30.5t29.5 28.5q14 14 31.5 24.5t34.5 20.5q16 10 35.5 17.5t37.5 13.5t36 12.5t36 8.5q10 2 21 2q7 0 15 -1q18 -3 40 -3q18 -2 35.5 -4t36.5 -7q18 -4 36.5 -8t34.5 -12 t33.5 -16.5t34.5 -18.5q35 -25 57 -47q27 -27 27 -66q0 -37 -27 -63q-25 -25 -63 -25q-37 0 -64 27l-9 13.5t-11 13.5q-12 8 -25.5 14t-27.5 12q-25 10 -58 15q-31 2 -61 0q-16 -4 -29.5 -8.5t-28.5 -8.5q-14 -6 -27.5 -12t-25.5 -16q-10 -10 -19.5 -21.5t-19.5 -21.5 q-10 -12 -16 -24.5t-12 -27.5q-6 -14 -11.5 -27.5t-7.5 -29.5q-2 -14 -4 -29.5t0 -31.5q2 -14 9 -27.5t14 -28.5q6 -14 10 -27.5t14 -25.5t21.5 -21.5t21.5 -19.5q12 -10 24.5 -18.5t26.5 -14.5t28.5 -9t29.5 -7q31 -4 63 0q29 6 58 18q14 6 25 14.5t24 18.5q6 4 13 9t13 12 q24 24 59 24h2.5h3.5q34 0 58 -24q12 -12 16.5 -28.5t4.5 -33.5q0 -35 -25 -59q-12 -12 -24.5 -25.5t-28.5 -23.5t-30.5 -21.5t-31.5 -19.5q-16 -8 -34.5 -13.5t-36.5 -9.5q-35 -6 -70 -6q-11 -1 -22 -1h-12q-18 1 -36 3q-16 4 -33.5 7t-33.5 7t-33.5 6.5t-34.5 10.5 q-16 8 -30.5 18t-28.5 21q-14 10 -26.5 22t-24.5 25q-12 14 -24.5 25.5t-22.5 25.5q-10 16 -18.5 29.5t-16.5 29.5q-6 16 -8 34t-7 34q-10 35 -12 68z" />
<glyph unicode="d" horiz-adv-x="768" d="M-4 606v70q0 18 2 35.5t2 36.5q0 16 1 34.5t1 34.5t1 34.5t1 35.5v69q0 18 -2 36t-2 36v70q0 37 27 59q20 25 59 25v-2l2 10q16 0 31.5 -2t32.5 -2q16 0 31.5 -2t31.5 -2q23 0 43.5 2t42.5 0q23 -2 44.5 -4t41.5 -9q20 -6 37.5 -15t36.5 -19q18 -10 34.5 -20.5 t32.5 -22.5t28.5 -26.5t25.5 -31.5q31 -35 47 -63q10 -18 21.5 -36t15.5 -36q6 -16 5 -34.5t1 -35.5q4 -15 6 -33q1 -9 1 -17.5t-1 -16.5q0 -16 -3 -33.5t-7 -34.5q-4 -16 -8.5 -32.5t-10.5 -32.5t-12 -32.5t-14 -31.5q-10 -16 -22.5 -27.5t-22.5 -25.5q-12 -12 -25.5 -23.5 t-28.5 -21.5q-29 -23 -57 -37q-16 -10 -30.5 -19.5t-30.5 -15.5q-16 -4 -34 -5t-34 -5q-35 -6 -70 -6q-23 0 -43 -2t-43 -2t-43 2t-43 2q-4 -2 -5 -1t-5 1q-39 0 -61 22q-12 12 -16.5 29t-4.5 35q0 16 -1 34.5t-1 35.5q0 16 -3 34.5t-3 34.5zM170 786q0 -16 1 -34.5t1 -34.5 q0 -18 1 -35.5t1 -36.5q0 -16 2 -32.5t10 -28.5q10 -14 24.5 -23.5t31.5 -9.5q16 0 34 -1h11q11 0 22 1q14 2 28.5 8t29.5 10q14 6 24.5 16.5t22.5 18.5q20 16 43 41q14 20 26 51q6 14 12.5 26.5t8.5 29.5q2 16 4 30q1 7 1 15t-1 16q-4 16 -7 30.5t-9 28.5t-13.5 26.5 t-15.5 25.5q-10 12 -22.5 21t-22.5 20q-25 14 -51 28q-16 6 -29.5 10.5t-30.5 6.5q-14 2 -28.5 3t-30.5 1q-31 0 -58 -27q-10 -10 -12 -26.5t-2 -32.5t-1 -35t-1 -35q0 -18 -2 -35.5t-2 -36.5z" />
<glyph unicode="e" horiz-adv-x="692" d="M-4 606v70q0 18 2 35.5t2 36.5q0 16 -2 34.5t-2 34.5t4 34.5t4 35.5q0 18 -2 35.5t-2 33.5q0 18 -1 36t-1 36v70q0 27 15.5 48t37.5 32q20 10 39 10q8 0 16.5 -3t16.5 -3q18 0 36.5 4t37.5 4q16 0 34.5 -3t36.5 -3t37 2t37 2t36.5 -3t37.5 -3q18 0 36.5 -1t36.5 -1 q16 0 34 -3t28 -16q22 -22 22 -60t-26 -61q-22 -24 -55 -24h-3h-32q-18 0 -37 -2t-37 -2q-16 0 -34.5 -1t-37.5 -1q-18 0 -36.5 1t-36.5 1q-35 0 -47.5 -16.5t-12.5 -45.5t19.5 -43t48.5 -14q23 0 45 1t45 1t44 -2t44 -2q18 0 35.5 -5t29.5 -18q23 -23 23 -63q0 -37 -23 -64 q-26 -26 -62 -26h-3v2q-23 0 -45.5 1t-44.5 1q-23 0 -46.5 1t-45.5 1q-31 0 -48.5 -19.5t-17.5 -42.5q0 -10 1 -21t1 -22q0 -29 20.5 -48t47.5 -19q20 0 40.5 3t41.5 3q20 0 39.5 1t40.5 1q20 0 39 -1t42 -1q16 0 32 -9t26 -22q12 -10 22.5 -25.5t10.5 -31.5 q0 -18 -9.5 -33.5t-21.5 -27.5q-23 -25 -60 -25q-10 0 -17 2t-15 2h-74h-72h-73q-18 0 -37 -2t-37 -2t-36.5 -2t-37.5 -2v-2v2q0 2 -2 4q-37 0 -61 25q-23 23 -23 61q0 16 -2 34.5t-2 35.5q0 16 -2 34.5t-2 34.5z" />
<glyph unicode="f" d="M-4 887q0 18 1 35.5t1 33.5q0 18 1 36t1 36q0 16 2 34.5t2 35.5q0 55 49 78q10 4 18.5 5t18.5 1q8 0 16.5 2t16.5 2q18 0 36.5 -2t37.5 -2q16 0 34.5 -1t36.5 -1t37 3t37 3t36.5 -3t37.5 -3q18 0 36.5 5t36.5 5q16 0 34 -8t30 -19q10 -12 14 -29.5t4 -35.5q0 -33 -22 -60 q-28 -24 -58 -24h-2q-10 0 -17 -2t-15 -2q-16 0 -35 2t-35 2q-18 0 -35.5 -1t-36.5 -1h-69q-35 0 -52.5 -18.5t-17.5 -41.5q0 -29 21.5 -45t50.5 -16q23 0 44 -1t44 -1h88q37 0 59 -25q25 -25 25 -59q0 -16 -4 -33.5t-17 -28.5q-22 -22 -60 -22h-3v-4h-86q-23 0 -44.5 3 t-43.5 3q-14 0 -28.5 -9t-24.5 -24q-10 -12 -16.5 -28.5t-6.5 -32.5q0 -20 4 -40t4 -40q0 -23 -2 -42.5t-2 -39.5q0 -37 -26 -64q-26 -22 -61 -22h-3q-16 0 -33.5 5t-29.5 15q-12 12 -16.5 30t-4.5 36v70v69q0 18 -2 35.5t-2 34.5q0 18 -1 35.5t-1 36.5q0 16 2 34.5t2 34.5 t-3 34.5t-3 35.5z" />
<glyph unicode="g" horiz-adv-x="854" d="M-2 815q2 16 6 33.5t8 34.5q6 18 10.5 38.5t14.5 36.5q8 18 19.5 36t23.5 34t27.5 28.5t31.5 26.5q16 12 30.5 26.5t31.5 25.5q18 10 37.5 15t37.5 11q41 14 72 17q20 4 39 8q13 3 25 3q6 0 12 -1q18 -2 36.5 -4t37.5 -6q18 -4 35.5 -12.5t33.5 -16.5q37 -16 66 -37 q16 -10 30.5 -21.5t28.5 -23.5q12 -12 16.5 -30.5t4.5 -35.5q0 -33 -25 -59q-22 -22 -56 -22h-3q-37 0 -60 24q-6 4 -12 10.5t-14 10.5q-10 10 -24.5 14t-29.5 10q-14 4 -27 8t-30 9q-16 2 -30.5 5t-30.5 1q-27 -2 -58 -17q-14 -6 -25.5 -15t-23.5 -19q-10 -10 -22.5 -18.5 t-22.5 -20.5q-10 -10 -17 -23.5t-14 -26.5q-6 -16 -8 -30.5t-6 -28.5q0 -16 2 -30.5t4 -30.5q4 -16 5 -29.5t8 -28.5q6 -14 11 -28.5t13 -26.5q10 -10 23.5 -18.5t23.5 -18.5q12 -8 23.5 -19.5t23.5 -17.5q14 -4 29.5 -5t32.5 -5q16 -2 30.5 -3t30.5 1q25 6 58 16 q25 10 51 31q18 16 26.5 41t8.5 53q0 10 -2.5 20.5t-2.5 20.5q0 41 25 64q10 12 28 16t36 4q33 0 57 -24q12 -12 21.5 -26.5t9.5 -33.5v-67q0 -16 1 -34t1 -34t-3.5 -32.5t-3.5 -32.5v-68q0 -37 -24 -61q-23 -23 -59 -23q-31 0 -50 10q-8 6 -33.5 10.5t-37.5 -0.5 q-10 -4 -20.5 -4t-20.5 -4q-16 -4 -33.5 -6t-36.5 -4q-16 0 -34 -4q-13 -3 -24 -3q-6 0 -12 1q-16 4 -33.5 10t-33.5 10t-33.5 8.5t-34.5 12.5q-29 14 -59 35q-29 20 -53 47q-10 12 -22.5 24.5t-22.5 26.5t-17.5 29.5t-15.5 31.5t-12.5 33t-8.5 33t-5 32.5t-3 35.5 q-2 16 -6 34q-3 11 -3 22q0 6 1 11z" />
<glyph unicode="h" horiz-adv-x="788" d="M-4 467q0 16 2 34.5t2 35.5q0 16 -1 34.5t-1 34.5q0 18 2 35.5t2 34.5q0 18 -2 35.5t-2 36.5q0 16 1 34.5t1 34.5t1 34.5t1 35.5q0 18 1 35.5t1 33.5q0 18 -3 36t-3 36v70q0 16 9 31.5t22 25.5q10 12 24.5 21.5t32.5 9.5q35 0 61 -27q25 -23 25 -61q0 -14 -2 -28.5 t-2 -29.5q0 -14 1 -28.5t1 -28.5q0 -16 8 -30.5t19 -26.5q10 -14 23 -25.5t30 -11.5h82q23 0 42 -1t42 -1q18 0 35.5 9t29.5 24q10 12 15.5 29.5t5.5 35.5q0 14 -1 28.5t-1 28.5t3 27.5t3 28.5q0 37 24 61q23 23 60 23q39 0 61 -23q23 -23 23 -61q0 -16 2 -35t2 -35t2 -34.5 t2 -35.5q0 -16 -1 -34.5t-1 -34.5t-2 -35t-2 -35q0 -6 2 -13t2 -15q0 -20 -1 -40t-1 -40q0 -23 2 -42.5t2 -39.5t-1 -40t-1 -42q0 -20 1 -40t1 -40q0 -18 -10 -32.5t-23 -26.5q-12 -10 -26.5 -18.5t-32.5 -8.5q-16 0 -33.5 5t-30.5 17q-10 10 -18 28t-8 36t3 37.5t3 40.5 q0 18 -2 37.5t-2 38.5q0 18 -2 35.5t-11 31.5q-27 33 -59 33q-23 0 -45.5 -1t-44.5 -1h-90q-33 0 -57 -35q-10 -16 -13.5 -33.5t-3.5 -34.5q0 -18 -3 -36.5t-3 -36.5q0 -20 1 -39t1 -37q0 -35 -27 -61q-23 -23 -59 -23q-18 0 -34.5 4t-28.5 16q-10 12 -18.5 29t-8.5 35z" />
<glyph unicode="i" horiz-adv-x="286" d="M-4 887q0 18 3 35.5t3 33.5v72q0 16 -1 34.5t-1 35.5q0 37 27 59q12 12 27.5 21.5t31.5 9.5q39 0 66 -27q23 -27 22 -63v-70q0 -18 -1 -35.5t-1 -36.5q0 -16 2 -33.5t2 -35.5q0 -16 -2 -34.5t-2 -35.5q0 -16 1 -34.5t1 -34.5v-72q0 -16 -1 -33.5t-1 -36.5q0 -16 3 -34.5 t3 -34.5t-3 -35t-3 -35q0 -18 -8 -32.5t-19 -24.5q-12 -12 -26.5 -23.5t-32.5 -11.5q-16 0 -32.5 8t-28.5 20q-25 25 -25 64q0 16 1 34.5t1 35.5q0 16 1 34.5t1 34.5q0 18 -3 35.5t-3 34.5q0 18 2 35.5t2 36.5v69q0 16 -3 34.5t-3 35.5z" />
<glyph unicode="j" d="M8 498q10 41 35 55q16 8 33.5 11t34.5 -1q8 -2 14 -6t14 -6q23 -2 47.5 0t49.5 6q16 4 32.5 6t32.5 8q10 4 16.5 11.5t16.5 11.5q14 14 20 22q12 18 21 35q6 16 11 32.5t9 35.5v16t2 19q0 23 -1 44t-3 44q0 23 2 45t2 45q0 20 -1 40.5t-1 43.5q0 20 3 40.5t3 41.5 q0 35 23 61q23 23 61 23q33 0 58 -25q12 -12 22 -26.5t10 -32.5q0 -23 -2 -45.5t-2 -44.5v-90q0 -16 1 -32t3 -32q0 -16 -3 -30.5t-3 -30.5q-2 -16 2 -30.5t2 -31.5q-2 -16 -3 -32.5t-5 -32.5t-9 -30.5t-9 -31.5q-12 -31 -27 -59q-10 -16 -21.5 -33.5t-25.5 -32.5 q-14 -14 -31.5 -24.5t-33.5 -20.5q-29 -18 -66 -31q-16 -4 -33.5 -8t-36.5 -8q-16 -2 -34.5 -2h-34.5q-16 -2 -35 -4q-9 -1 -17.5 -1t-17.5 1q-16 2 -34.5 4t-35.5 6q-35 10 -51 43q-9 15 -9 29q0 13 5 35z" />
<glyph unicode="k" horiz-adv-x="720" d="M-4 676q0 18 1 35.5t1 36.5q0 16 1 34.5t1 34.5t1 34.5t1 35.5q0 18 -1 35.5t-1 33.5q0 18 2 36t2 36q0 16 -3 34.5t-3 35.5q0 39 25 63q29 29 63 29q18 0 33.5 -10.5t27.5 -22.5q29 -25 29 -59q0 -20 -1 -40t-1 -42q0 -20 2 -40t2 -40q0 -25 19.5 -34t33.5 7 q12 12 22.5 26.5t22.5 27.5q12 12 23.5 25t24.5 26q12 12 27.5 21t29.5 22q12 12 22.5 26.5t22.5 26.5t25.5 22.5t27.5 22.5q23 25 58 25q33 0 57 -25q27 -25 27 -57q0 -35 -25 -60q-14 -16 -27.5 -31.5t-27.5 -31.5q-16 -16 -31.5 -28.5t-32.5 -28.5q-16 -14 -29.5 -29 t-27.5 -31q-23 -23 -23 -53.5t17 -48.5q12 -14 22 -28.5t23 -31.5q10 -14 25.5 -25.5t25.5 -25.5q12 -14 23.5 -28.5t23.5 -28.5q10 -14 21.5 -29t23.5 -31q10 -14 17.5 -28.5t7.5 -32.5q0 -16 -6.5 -34.5t-18.5 -31.5q-26 -26 -60 -26h-3q-16 0 -31.5 10t-26.5 23 q-12 16 -26.5 27t-26.5 26q-10 14 -20.5 29.5t-20.5 29.5q-12 14 -24.5 27.5t-24.5 30.5q-10 14 -21.5 28.5t-21.5 28.5q-14 16 -41 19t-41 -11q-16 -16 -28.5 -39.5t-12.5 -54.5q0 -20 -1 -41t-1 -41q0 -37 -23 -59q-27 -27 -61 -27q-16 0 -33.5 5t-29.5 15q-25 25 -25 66 v70v69q0 18 -1 35.5t-1 34.5z" />
<glyph unicode="l" horiz-adv-x="690" d="M-4 467q0 16 1 34.5t1 35.5q0 16 2 34.5t2 34.5q0 18 -3 35.5t-3 34.5q0 18 1 35.5t1 36.5q0 16 1 34.5t1 34.5v70v69q0 18 2 36t2 36q0 16 -4 34.5t-4 35.5q0 39 27 65q27 23 65 23q37 0 66 -25q12 -12 20 -28.5t8 -34.5t-1 -36t-1 -36t1 -35.5t1 -36.5q0 -16 -1 -34.5 t-1 -36.5v-72q0 -16 1 -34.5t1 -35.5v-71q0 -47 27 -80q29 -35 74 -35q16 0 33.5 -2t33.5 -2q18 0 35.5 3t34.5 3q16 0 33.5 -1t35.5 -1q16 0 31 -9t27 -22q10 -12 20.5 -26.5t10.5 -30.5q0 -33 -29 -61q-12 -10 -27.5 -20.5t-32.5 -10.5q-10 0 -17 2t-15 2q-18 0 -37 2 t-37 2h-72q-18 0 -36.5 -1t-36.5 -1t-37 -1t-37 -1h-74v4v-4q0 -2 -2 -2q-16 0 -31.5 9t-27.5 22q-12 12 -22.5 26.5t-10.5 32.5z" />
<glyph unicode="m" horiz-adv-x="911" d="M-4 817q0 16 3 34.5t3 35.5q0 18 -1 35.5t-1 33.5q0 18 -1 36t-1 36q0 16 1 34.5t1 35.5q0 37 23 63q12 10 28.5 19.5t34.5 9.5q8 0 14 -2t15 -6q10 -4 16 -11.5t14 -15.5q12 -10 25.5 -21.5t24.5 -23.5l65 -66q16 -16 33.5 -30.5t34.5 -30.5q12 -14 28.5 -23.5 t36.5 -11.5h4q34 0 64 29q16 16 29.5 30.5t29.5 30.5q29 31 60 60q16 16 32.5 27.5t32.5 27.5q25 29 62 29q20 0 34 -8q11 -5 25 -19q28 -26 28 -60q0 -6 -1 -12v-75q0 -20 -2.5 -39t-2.5 -39t2.5 -39t2.5 -39q0 -18 -1 -37.5t-1 -38.5v-78q0 -20 -1.5 -38.5t-1.5 -38.5 q0 -18 3.5 -38t3.5 -40q0 -18 1 -38t1 -38q0 -35 -29 -64q-24 -24 -58 -24h-3q-35 0 -62 27q-22 26 -22 58q-1 20 -3 40t-2 39q0 20 1.5 38.5t1.5 39.5q0 18 1 37.5t1 37.5q0 20 -2.5 39t-2.5 39q0 14 -8 25.5t-20 18.5t-24.5 7t-20.5 -8q-12 -10 -20.5 -23.5t-20.5 -25.5 q-10 -10 -20.5 -22.5t-20.5 -22.5q-14 -12 -31.5 -15t-34.5 -3q-16 0 -33.5 3t-29.5 15t-22.5 26.5t-20.5 26.5q-12 10 -25.5 21.5t-25.5 21.5q-4 4 -15.5 4t-24 -5t-21.5 -18.5t-9 -35.5v-74q0 -18 3 -36.5t3 -37.5q0 -20 -1 -38.5t-1 -36.5t-2 -37t-2 -37q0 -37 -25 -61 q-10 -10 -26.5 -20.5t-32.5 -10.5q-18 0 -33.5 10t-25.5 21q-25 25 -25 61q0 16 -2 34.5t-2 35.5q0 16 3 34.5t3 34.5v70q0 18 -2 35.5t-2 36.5q0 16 -2 34.5t-2 34.5z" />
<glyph unicode="n" horiz-adv-x="790" d="M-4 537v69q0 18 2 35.5t2 34.5v72q0 16 -2 34.5t-2 34.5t4 34.5t4 35.5q0 18 -3 35.5t-3 33.5q0 18 -1 36t-1 36q0 16 4 34.5t4 35.5q0 37 23 59q25 25 59 25q6 0 11 1t12 -1q23 -6 36 -25q10 -14 23.5 -26.5t24.5 -28.5q14 -16 26 -30.5t25 -31.5q12 -16 25.5 -30.5 t25.5 -30.5t23.5 -32.5t23.5 -33.5q12 -16 27.5 -28.5t27.5 -28.5t24.5 -31.5t24.5 -31.5t34 -11.5t22 33.5q0 16 2 34.5t2 35.5q0 18 1 35.5t1 35.5q0 16 -1 35t-1 35q0 18 -2 35.5t-2 36.5q0 16 8 32.5t20 28.5q25 25 60 25q33 0 61 -25q25 -25 25 -61q0 -20 -1 -39 t-1 -39q0 -18 2 -37.5t2 -38.5q0 -20 -2 -38.5t-2 -39.5v-78q0 -18 1 -37.5t1 -37.5q0 -20 1 -39t1 -39t-2 -38.5t-2 -39.5q0 -18 4 -38t4 -38q1 -2 1 -3q0 -2 -2 -4q-3 -3 -3 -7q0 -16 -5 -34.5t-16 -31.5q-12 -12 -30.5 -16t-34.5 -4v2h-2q-20 0 -37 8v2h-2q-4 2 -7 0 t-5 0q-10 6 -14.5 16.5t-8.5 18.5q-6 10 -14 17.5t-15 17.5q-12 16 -25 29.5t-26 29.5q-12 16 -24.5 31.5t-24.5 32.5q-12 16 -26.5 28.5t-26.5 28.5t-21.5 33.5t-21.5 34.5q-12 16 -25.5 29.5t-25.5 29.5q-14 16 -41 6t-27 -41q0 -16 -2 -33.5t-2 -33.5t3 -33t3 -33v-67 v-68q0 -37 -27 -64q-24 -24 -58 -24h-3q-18 0 -32.5 8t-26.5 21q-10 12 -19.5 26.5t-9.5 32.5q0 16 -1 34.5t-1 35.5z" />
<glyph unicode="o" horiz-adv-x="915" d="M2 823q2 16 6 32.5t8 33.5q4 16 7.5 32.5t11.5 32.5q6 16 16 30.5t21 29.5q10 14 23.5 23.5t23.5 21.5q12 12 22.5 24.5t24.5 22.5q31 25 57 35q16 8 31.5 13t32.5 11q33 8 67 13q16 4 35 6q10 1 18.5 1t16.5 -1q16 0 33.5 -1t34.5 -5q16 -4 31.5 -12.5t31.5 -14.5 q33 -12 59 -33q16 -10 35 -19t33 -24q16 -14 26.5 -31.5t20.5 -33.5q12 -16 21.5 -34t19.5 -36q8 -16 16.5 -34.5t12.5 -39.5q4 -20 4 -40v-40q0 -2 2 -4q0 -27 -4 -51t-10 -49q-6 -20 -9.5 -40.5t-13.5 -37.5q-16 -39 -41 -69q-12 -16 -29.5 -27.5t-33.5 -24.5 q-16 -14 -29.5 -28.5t-30.5 -24.5q-16 -10 -35.5 -17t-40.5 -14q-37 -14 -67 -16q-11 -3 -22 -3q-7 0 -13 1q-18 2 -35 2q-16 0 -33.5 2t-33.5 6t-34 5t-34 7t-30.5 14.5t-28.5 16.5q-16 10 -28.5 21.5t-25.5 21.5q-16 12 -31.5 23.5t-25.5 27.5q-12 16 -23.5 33t-21.5 33 t-13 36.5t-10 39.5q-4 18 -8 36.5t-6 38.5q-4 20 -4 44q0 16 2 34zM172 782q2 -14 4 -30q4 -16 9 -29.5t10 -28.5q6 -14 10 -28.5t14 -26.5q10 -10 20.5 -21.5t20.5 -21.5q12 -8 26.5 -12t28.5 -11q14 -4 27.5 -11t30.5 -11q11 -1 21 -2q6 0 10 1q14 1 30 1q14 4 28.5 9 t29.5 11q14 6 27.5 11.5t25.5 15.5q10 10 18 22.5t19 22.5q20 27 30 51q6 14 11.5 27.5t9.5 30.5q0 8 -2 15t-2 15t-1 14.5t-1 14.5q-4 16 -4 30.5t-5 30.5q-8 12 -15 25.5t-17 24.5q-10 12 -21.5 21t-21.5 20q-27 20 -51 30q-14 6 -28.5 7t-31.5 6q-16 2 -30 3h-9 q-10 0 -20 -1q-16 -4 -30.5 -4t-31.5 -7q-12 -6 -24.5 -15t-24.5 -17q-10 -10 -20.5 -21.5t-20.5 -21.5q-10 -12 -18 -24.5t-15 -27.5q-10 -33 -16 -57q-1 -8 -1 -16t1 -15z" />
<glyph unicode="p" horiz-adv-x="747" d="M-4 817q0 16 4 34.5t4 35.5q0 18 -3 35.5t-3 33.5q0 18 -1 36t-1 36v70q0 16 6 30.5t16 26.5q12 14 31 24.5t39 10.5h84q20 0 40.5 -1t43.5 -1h84h31.5t31.5 -2t31 -4t29 -6q27 -8 53 -29q14 -8 26.5 -15.5t22.5 -17.5t20.5 -21.5t18.5 -23.5q25 -35 33 -70 q4 -18 4 -37.5v-37.5t-2 -38t-8 -36q-10 -37 -37 -72q-10 -16 -23.5 -31.5t-29.5 -25.5q-16 -12 -36 -17.5t-38 -13.5q-53 -18 -105 -18q-27 0 -51 2t-51 2q-23 0 -37 -7t-24 -18q-23 -20 -23 -61q0 -16 -2 -30.5t-2 -31.5q0 -16 3 -30.5t3 -30.5q0 -18 -10 -32.5t-23 -26.5 q-12 -12 -26.5 -20.5t-32.5 -8.5q-16 0 -31.5 8t-27.5 19q-27 27 -27 61q0 16 1 34.5t1 35.5q0 16 -2 34.5t-2 34.5q0 18 3 35.5t3 34.5q0 18 -1 35.5t-1 36.5q0 16 -3 34.5t-3 34.5zM176 915q0 -35 17 -51q10 -10 23 -12t30 -2h102q12 0 24.5 -1t24.5 -1q4 2 10.5 2t10.5 2 t9 5t9 7t9.5 6t9.5 7q4 4 5 10t5 10q2 4 0 10t0 11q0 6 4 12t4 12q-2 4 -6 9t-6 10l-12 18q-4 4 -7.5 6t-7.5 6t-8 7l-8 6q-6 2 -11.5 2t-9.5 2h-49q-27 0 -51.5 1t-50.5 1q-35 0 -51 -17q-18 -16 -19 -49v-29z" />
<glyph unicode="q" horiz-adv-x="911" d="M-1 783v13q0 14 1 27q4 16 10 32.5t10 33.5q4 16 7.5 31.5t11.5 31.5t15 30.5t18 29.5q10 14 21 27.5t22 25.5q12 10 23.5 23.5t23.5 23.5q14 10 28.5 16.5t30.5 14.5q37 16 66 24q16 6 33.5 8.5t33.5 4.5q16 4 35 6t35 2q33 -4 68 -12q35 -6 65 -19q16 -6 30.5 -15 t28.5 -20q16 -10 34 -21t32 -26q14 -14 26.5 -30.5t22.5 -32.5q20 -33 37 -72q8 -18 15.5 -36.5t11.5 -39.5q4 -18 6 -37.5t4 -40.5q0 -2 2 -2l2 -2q-2 -49 -16 -100q-4 -16 -7.5 -33t-9.5 -33q-12 -27 -13 -47t19 -41q12 -12 15.5 -29.5t3.5 -33.5t-3 -33.5t-16 -30.5 q-12 -14 -29.5 -18t-33.5 -4q-29 0 -60 27q-18 20 -41.5 18t-46.5 -12q-10 -4 -20 -8.5t-21 -8.5q-16 -6 -34.5 -5t-34.5 -3q-16 -2 -34.5 -7t-35.5 -5q-16 0 -33.5 6t-33.5 10t-33 7t-33 10q-16 6 -30.5 14t-28.5 16q-14 10 -28.5 18.5t-27.5 18.5q-16 12 -30.5 25.5 t-26.5 29.5t-19.5 34t-17.5 34t-19.5 33.5t-13.5 36.5q-10 37 -14 77q-2 18 -3 38zM171 782v-11q0 -10 1 -21q2 -14 7 -28.5t9 -29.5q8 -14 15.5 -26.5t15.5 -24.5q10 -12 22.5 -20.5t22.5 -18.5q12 -10 23.5 -18.5t25.5 -14.5t29 -7t31 -3t31 -5q8 -2 17 -2q7 0 13 1 q6 2 11.5 4t11.5 4q14 4 25.5 14.5t6.5 22.5q-4 20 -0.5 40.5t19.5 37.5q28 25 59 25q10 0 21 -3q10 -4 19 2.5t14 16.5q2 8 7 16t7 17q1 4 1 8t-1 8q-2 8 -2 16t-1 14.5t-3 14.5q-2 16 -6.5 29.5t-10.5 29.5q-6 12 -14 24.5t-16 23.5q-10 12 -19.5 23t-19.5 22 q-12 8 -24.5 15t-26.5 13t-28.5 11.5t-29.5 7.5q-8 1 -15.5 1t-14.5 -1q-15 -2 -31 -4q-16 -4 -29.5 -6.5t-28.5 -8.5q-29 -12 -49 -30q-12 -10 -23.5 -19.5t-21.5 -19.5q-10 -12 -15 -25.5t-11 -28.5q-6 -14 -11.5 -27.5t-9.5 -27.5q-2 -16 -3 -31z" />
<glyph unicode="r" horiz-adv-x="753" d="M-4 748q0 16 4 34.5t4 34.5t-3 34.5t-3 35.5q0 18 1 35.5t1 33.5q0 18 1 36t1 36q0 16 -3 34.5t-3 35.5q0 10 6 18t10 19q10 23 29.5 39t46.5 16h84h84q20 0 40.5 -1t43.5 -1q16 0 31.5 1t31.5 -1t29.5 -8t28.5 -11q14 -4 28.5 -7t28.5 -11q12 -8 23.5 -18.5t21.5 -20.5 t18.5 -22.5t18.5 -24.5q10 -16 18.5 -32.5t14.5 -33.5q4 -18 5 -37.5t1 -37.5t-1 -38t-7 -36t-15.5 -28.5t-19.5 -26.5q-8 -14 -17.5 -27.5t-19.5 -24.5q-12 -10 -23.5 -22t-25.5 -21q-14 -8 -19.5 -27.5t9.5 -31.5q14 -16 30.5 -27.5t32.5 -25.5q14 -16 26.5 -32t26.5 -30 q29 -29 29 -61q0 -16 -9 -30.5t-22 -26.5q-29 -29 -59 -29q-37 0 -61 24q-14 14 -28.5 26.5t-29.5 27.5q-14 14 -28.5 27.5t-28.5 27.5l-55 55q-16 14 -27.5 30.5t-26.5 31.5q-20 20 -32.5 27.5t-32.5 7.5t-25.5 -23t-5.5 -33q0 -18 -2 -35.5t-2 -35.5q0 -16 3 -35t3 -35 q0 -37 -26 -64q-12 -12 -29 -16t-35 -4q-16 0 -33.5 4t-29.5 16q-10 10 -14.5 28t-4.5 36q0 16 -3 34.5t-3 35.5v69q0 18 3 35.5t3 34.5q0 18 -4 35.5t-4 36.5zM170 950q0 -8 4 -15t4 -15q0 -31 19 -50q18 -18 49 -18q25 0 50.5 -1t51.5 -1h49q5 2 11 -1q4 -2 7 -2q2 0 5 1 q4 4 7 9t7 9t8 6t9 7q4 4 7 9t5 9q4 4 3 10t1 11q0 6 2 12q1 3 1 5.5t-1 4.5q0 6 -3 11t-5 10q-4 4 -3 11t-3 11t-9.5 6t-9.5 6t-10 3t-10 3q-4 2 -9.5 7.5t-9.5 5.5q-4 1 -8 1q-9 0 -17 -3q-12 -4 -24 -4q-27 0 -52 2t-50 2q-37 0 -56.5 -17.5t-19.5 -44.5z" />
<glyph unicode="s" horiz-adv-x="710" d="M0 580q-1 8 -1 15q0 25 15 50q20 35 49 43q9 2 18 2q23 0 48 -14q12 -8 25.5 -20.5t17.5 -28.5q0 -14 4 -21q0 -2 6 -8q4 -4 5 -8t6 -8q8 -6 28 -15q16 -6 33.5 -7t34.5 -5q16 -2 31.5 -3t31.5 3q12 2 23.5 2t21.5 4q14 4 19 8q4 2 4 5.5t4 5.5q4 8 4 10q2 4 2 8t2 8v33 q-2 4 -1 10t-1 10l-2 5q-2 2 -5 1t-5 1q-8 4 -13.5 10t-13.5 10q-16 6 -32.5 10t-32.5 9l-68 12q-16 4 -31.5 11t-31.5 11t-32 9.5t-30 15.5q-16 8 -28.5 18.5t-24.5 22.5q-10 10 -19.5 22.5t-17.5 26.5t-16.5 26.5t-10.5 28.5q-4 27 -4 53.5t11 51.5q8 25 23 46t36 40 q14 12 27.5 22.5t29.5 20.5q16 8 32.5 16t33.5 12q16 4 34.5 8.5t36.5 6.5q16 2 32 2t32 -2t31.5 -6t31.5 -9q16 -4 29.5 -11t30.5 -15q14 -6 29.5 -12.5t25.5 -16.5q25 -20 41 -51q10 -14 12 -29.5t7 -31.5q2 -10 2 -19q0 -25 -13 -45q-16 -35 -47 -43q-13 -4 -26 -4 q-22 0 -41 12q-31 14 -37 53q-4 8 -4 15q-2 2 -5.5 2t-3.5 2q-4 2 -4 4t-4 6t-9 5t-11 5q-10 4 -20.5 5.5t-20.5 3.5q-14 2 -27.5 3t-27.5 -1q-12 -2 -25.5 -3t-24.5 -6l-24 -12q-4 -4 -3 -8t-3 -8q-2 -2 -4 -3t-5 -3v-9q-6 -6 -6 -8q0 -4 4.5 -5t6.5 -3q2 -4 0 -8t0 -6 q2 -4 5 -6t7 -7q4 -2 8 -5t8 -5q16 -6 34.5 -9t37.5 -7q18 -4 36.5 -4t37.5 -4q16 -4 29.5 -11.5t27.5 -11.5q16 -6 30.5 -10t28.5 -12q25 -16 50 -37q29 -20 43 -45q8 -14 15 -28.5t11 -31.5q3 -9 3 -19q0 -5 -1 -11q-2 -16 0 -31q0 -39 -10 -80q-8 -25 -17.5 -46.5 t-25.5 -41.5q-31 -37 -70 -55q-45 -23 -86 -29q-43 -6 -88 -6q-16 2 -32.5 5t-32.5 5q-16 4 -31.5 9t-32.5 9q-16 6 -30.5 12.5t-28.5 14.5q-16 10 -30.5 18.5t-27.5 18.5q-12 10 -23 22.5t-20 28.5q-18 31 -20 64z" />
<glyph unicode="t" horiz-adv-x="710" d="M4 1098q0 35 23 61q23 20 59 21q16 0 33.5 3t34.5 3h73q18 0 37 2t37 2h74h74q18 0 36.5 -2t38.5 -2q33 0 60 -27q22 -22 22 -58q0 -19 -4 -36.5t-16 -28.5q-22 -26 -59 -26h-3q-14 0 -26.5 -1t-24.5 -1q-39 0 -59 -31q-25 -35 -25 -68q0 -18 4 -36.5t4 -36.5t-4 -37 t-4 -37t4 -36.5t4 -37.5q0 -18 -1 -36.5t-1 -37.5q0 -18 1 -36.5t1 -36.5t-1 -37t-1 -37q0 -39 -24 -64q-12 -12 -29.5 -17t-36.5 -5q-35 0 -61 22q-12 12 -16.5 29t-4.5 35t-3 36.5t-3 39.5q0 18 3 36.5t3 38.5q0 18 -3 37t-3 39q0 18 3 37t3 37v76q0 20 -3 38.5t-3 37.5 q0 31 -24 61q-10 12 -23.5 23.5t-32.5 11.5q-12 0 -24.5 1t-26.5 1q-16 0 -32.5 4t-28.5 14q-20 23 -21 62z" />
<glyph unicode="u" horiz-adv-x="780" d="M-4 946q0 18 3 38t3 38t-3 37.5t-3 38.5q0 16 9 32.5t20 28.5q25 25 61 25q18 0 35.5 -5t28.5 -18q12 -10 17 -28.5t5 -34.5v-72q0 -18 -2 -36.5t-2 -35.5q0 -18 3 -36.5t3 -36.5q0 -16 -2 -35t-2 -37t-1 -36.5t-1 -35.5q0 -4 2 -10t2 -10t-1 -10.5t-1 -12.5q4 -10 7 -21 t7 -22q4 -10 12.5 -17t14.5 -16l12 -16t17 -14q8 -6 16 -14.5t18 -12.5q20 -8 43 -10q20 -2 45 0q10 2 20.5 7t20.5 9t18.5 8.5t18.5 10.5q8 8 15.5 15t13.5 15q6 10 13 17.5t12 17.5q4 10 7 21.5t7 21.5q0 4 -3 9.5t-3 9.5q0 2 1 3t1 3q0 18 1 36.5t1 39.5q0 18 -1 36.5 t-1 38.5q0 18 2 37t2 39q0 18 -3 38t-3 38t2 37.5t2 38.5q0 16 4 34.5t16 30.5q12 10 29.5 15.5t34.5 5.5q35 0 61 -27q10 -12 20.5 -27.5t10.5 -31.5q0 -18 -3 -38t-3 -38t3 -37.5t3 -38.5q0 -20 -2 -38.5t-2 -37.5q0 -20 -2 -38.5t-2 -36.5q0 -20 1 -39t1 -37q0 -4 -1 -6 t-1 -4v-33t-4 -33t-10.5 -30.5t-12.5 -30.5q-14 -35 -31 -58q-16 -23 -41 -43q-10 -10 -19 -21t-21 -22q-23 -16 -45.5 -25.5t-47.5 -19.5q-16 -4 -33.5 -6t-33.5 -4q-18 -1 -35.5 -1t-34.5 1q-18 2 -36.5 2t-35.5 6q-37 12 -65 31q-16 10 -29.5 22.5t-27.5 24.5t-24.5 26.5 t-20.5 30.5q-10 14 -21.5 24.5t-17.5 27.5q-8 14 -9.5 29.5t-5.5 31.5t-9 30.5t-5 30.5q-2 4 2 9.5t4 9.5q0 18 -3 36.5t-3 39.5v75q0 18 -1 37t-1 39z" />
<glyph unicode="v" horiz-adv-x="757" d="M6 1075q-5 15 -5 28q0 20 11 38q14 31 54 41q13 4 25 4q22 0 40 -12q16 -10 24.5 -23.5t14.5 -30.5q6 -16 15.5 -32.5t15.5 -32.5t9 -35t9 -35t15.5 -32.5t15.5 -32.5t13 -33t13 -33q14 -37 48 -37q35 0 51 37q6 16 13 32.5t13 33.5q6 16 10.5 33.5t10.5 33.5t15 32.5 t16 33.5q6 16 9 34.5t9 34.5q10 29 45 49q21 12 43 12q11 0 23 -3q16 -4 30.5 -13.5t24.5 -25.5q8 -14 10 -32v-9q0 -13 -4 -25q-8 -16 -14 -33.5t-15 -35.5l-24 -68q-8 -18 -14.5 -35.5t-14.5 -34.5q-6 -16 -12 -34.5t-12 -34.5t-9.5 -36t-9.5 -36t-13 -33.5t-13 -36.5 l-25 -67q-8 -18 -18.5 -33.5t-16.5 -34.5q-6 -16 -10 -34.5t-10 -34.5q-2 -12 -8.5 -23.5t-14.5 -21.5q-6 -6 -22 -15q-6 -6 -7 -6q-4 -2 -7 -1t-7 1q-6 -2 -11 -6t-11 -4q-16 0 -25 2l-12 6l-8 4q-8 6 -21 19q-8 10 -15 21t-10 24q-6 16 -11 34.5t-11 34.5t-12 34.5 t-13 35.5q-6 16 -13 33.5t-13 36.5q-6 16 -13.5 33.5t-13.5 33.5t-11 34.5t-11 35.5q-8 16 -13.5 34.5t-11.5 34.5l-31 68q-6 18 -10 36.5t-10 35.5q-6 16 -14.5 33.5t-14.5 33.5z" />
<glyph unicode="w" horiz-adv-x="1036" d="M4 1075q-4 13 -4 26q0 21 12 40q16 33 51 43q9 2 18 2q24 0 50 -15q35 -20 45 -49q6 -16 11.5 -33.5t11.5 -33.5t11 -35t11 -35t13.5 -32.5t13.5 -32.5t11 -35t11 -35t13.5 -32.5t13.5 -33.5q6 -20 30.5 -21t32.5 19q6 16 3 45t-13 54q-6 16 -10 32.5t-10 32.5 t-14.5 31.5t-14.5 32.5q-6 16 -10 32.5t-10 32.5q-5 12 -5 24q0 20 13 42q10 16 23.5 28.5t29.5 16.5q8 2 16 2q10 0 18 -2q18 -4 34 -15q33 -18 43 -49q6 -16 8 -32.5t8 -32.5q4 -16 11 -30.5t14 -31.5q6 -16 13 -30.5t13 -30.5t12.5 -31.5t12.5 -32.5q6 -16 9 -32.5 t9 -32.5q8 -23 37 -23t37 23q6 16 11 31.5t11 31.5t10.5 33t10.5 33l25 61q6 16 11 31.5t11 32.5l25 61q12 35 41 51q24 13 47 13q9 0 18 -2q39 -10 57 -39q9 -16 11 -34q1 -5 0 -10q0 -12 -4 -24q-8 -18 -13.5 -35.5t-13.5 -33.5l-12 -36t-13 -34q-6 -16 -13 -34.5 t-13 -35.5q-6 -16 -11.5 -34.5t-11.5 -34.5t-13 -34t-13 -36q-6 -16 -15.5 -32.5t-15.5 -35.5l-25 -67q-6 -18 -14 -35.5t-14 -34.5q-6 -16 -11.5 -34.5t-13.5 -34.5q-2 -12 -8 -22.5t-14 -20.5q-4 -4 -7.5 -10.5t-9.5 -10.5q-4 -2 -10 -2l-12 -6q-6 -2 -12.5 -1t-12.5 1 t-12 -1t-10 1q-4 0 -6.5 3t-6.5 3q-4 2 -4 3t-4 3q-6 4 -9 9.5t-7 9.5q-16 16 -23 43q-4 10 -11 20t-11 21q-8 23 -36 22.5t-38 -24.5q-4 -10 -6 -20.5t-6 -20.5q-6 -27 -25 -45q-4 -4 -9 -6.5t-11 -6.5l-9 -4q-8 -4 -10 -4q-4 -2 -9 -4t-9 -2q-2 0 -2 -2v-2v2q-6 0 -12.5 3 t-12.5 5q-31 8 -49 39l-9 9t-7 11q-6 18 -11.5 36t-13.5 36q-6 16 -10 34.5t-11 35.5q-6 18 -12 35.5t-12 35.5q-8 16 -18.5 33t-18.5 33q-6 16 -11 34.5t-14 35.5q-6 18 -11 35.5t-13 33.5q-6 18 -9 37t-10 37q-6 16 -15 32.5t-17 35.5q-6 16 -11.5 34.5t-13.5 34.5z" />
<glyph unicode="x" horiz-adv-x="790" d="M0 1098q0 39 25 63q27 23 61 23q16 0 33.5 -6.5t27.5 -20.5l43 -55q12 -16 26.5 -27.5t25.5 -25.5q12 -14 21 -31t20 -31q29 -35 55 -35q33 0 57 31q12 16 21.5 31.5t19.5 29.5q12 14 23.5 28.5t21.5 31.5q12 14 23.5 28.5t23.5 28.5q10 12 28.5 18.5t35.5 6.5 q39 0 63 -25q12 -12 16.5 -29.5t4.5 -33.5q0 -33 -23 -62q-10 -14 -21 -28.5t-22 -28.5q-14 -16 -29.5 -32.5t-29.5 -33.5q-14 -16 -25.5 -35.5t-25.5 -35.5q-14 -20 -15 -60q0 -16 1 -33.5t12 -27.5q14 -16 25.5 -32.5t25.5 -33.5q12 -16 26.5 -30.5t28.5 -30.5 q12 -16 22.5 -33.5t24.5 -34.5q10 -16 20.5 -28.5t10.5 -30.5q0 -16 -6 -34.5t-19 -31.5q-12 -12 -30.5 -16t-34.5 -4t-35.5 4t-30.5 16q-10 14 -19 31t-20 31q-12 16 -26.5 29.5t-26.5 29.5q-14 16 -26.5 31.5t-26.5 32.5q-14 16 -43 17t-45 -19q-20 -31 -47 -60 q-10 -16 -22.5 -30.5t-24.5 -30.5t-24.5 -29.5t-24.5 -30.5q-10 -12 -29 -16t-35 -4t-33.5 4t-29.5 16t-15.5 30t-3.5 34q0 18 6 31.5t19 27.5q10 14 20 28.5t21 29.5q14 16 27.5 34.5t27.5 36.5q14 16 26.5 35t28.5 35q20 31 21 57q0 31 -23 58q-12 16 -23.5 33.5 t-23.5 33.5q-14 16 -26.5 32.5t-24.5 33.5q-14 16 -27.5 31.5t-25.5 31.5q-12 14 -19.5 28.5t-7.5 33.5z" />
<glyph unicode="y" horiz-adv-x="778" d="M2 1098q0 16 4 34.5t17 28.5q12 12 29.5 16.5t33.5 4.5t34.5 -4t29.5 -17q6 -8 11 -15t9 -16q14 -16 27.5 -34.5t27.5 -34.5q16 -16 27.5 -35.5t26.5 -36.5q10 -12 27.5 -15t35.5 -3q16 2 32.5 6t26.5 16q12 14 20.5 29.5t18.5 30.5q12 14 22.5 27.5t22.5 25.5 q10 14 23.5 25.5t23.5 25.5q10 12 26.5 22.5t33.5 10.5q34 0 63 -29q12 -12 17.5 -29.5t5.5 -33.5q0 -18 -7 -32.5t-18 -29.5q-6 -8 -11 -14t-11 -14q-12 -16 -25.5 -30.5t-25.5 -31.5q-14 -16 -24.5 -33.5t-23.5 -33.5q-14 -16 -27 -30.5t-26 -31.5q-16 -20 -27.5 -34.5 t-17.5 -30.5q-10 -31 -10 -78q0 -16 3 -33.5t3 -36.5q0 -16 1 -33.5t1 -33.5q0 -18 -2 -36t-2 -34q0 -39 -25 -64q-22 -24 -60 -24h-3q-16 0 -31.5 8t-27.5 19q-23 23 -23 61v65q0 16 -2 33t-2 33t1 33.5t1 34.5q0 23 -5 42t-9 35q-6 18 -16.5 35t-24.5 33 q-10 14 -21.5 28.5t-21.5 28.5t-20.5 28.5t-20.5 29.5q-12 14 -23.5 27.5t-21.5 27.5q-12 14 -22.5 28.5t-22.5 28.5q-10 14 -17.5 27.5t-7.5 32.5z" />
<glyph unicode="z" horiz-adv-x="790" d="M-2 1098q0 37 27 63q12 12 28.5 15.5t32.5 3.5q18 0 35.5 2t36.5 2q16 0 33.5 -1t35.5 -1t37 1t35 1h74h73h72q18 0 36.5 2t37.5 2q18 0 32.5 -9.5t26.5 -21.5q12 -10 21.5 -25.5t9.5 -33.5h-4h2q0 -18 -9 -31.5t-20 -28.5q-10 -14 -20.5 -29.5t-20.5 -29.5 q-12 -14 -24.5 -27.5t-22.5 -29.5q-12 -14 -22.5 -28.5t-22.5 -31.5q-10 -14 -24.5 -26.5t-24.5 -26.5q-12 -16 -22.5 -30.5t-22.5 -28.5q-10 -14 -22.5 -28.5t-22.5 -29.5q-12 -16 -23.5 -29.5t-23.5 -27.5q-16 -20 -3 -50t42 -30q18 0 36.5 -1t36.5 -1t37 -2t37 -2t36.5 3 t37.5 3q35 0 63 -25q10 -12 14.5 -28.5t4.5 -34.5q0 -37 -23 -59q-12 -10 -26.5 -17.5t-32.5 -7.5q-16 0 -34.5 -1t-35.5 -1h-69q-18 0 -36 -2t-36 -2q-16 0 -34.5 3t-35.5 3h-71h-72q-16 0 -34.5 -2t-35.5 -2q-4 0 -6 3t-6 3q-37 0 -59 23q-27 23 -27 59h2q0 37 25 61 q10 14 20 28.5t21 29.5q12 14 23 28.5t22 28.5q12 16 23 29.5t24 29.5q10 14 25.5 25.5t27.5 26.5q10 14 20.5 29.5t22.5 29.5q10 14 20.5 29.5t22.5 31.5q10 14 24.5 26.5t24.5 27.5q12 14 14.5 33.5t-8.5 31.5q-16 20 -65 21h-68q-16 0 -33.5 1t-33.5 1h-68q-16 0 -33.5 3 t-29.5 15q-25 25 -25 64z" />
<glyph unicode="&#x2000;" horiz-adv-x="844" />
<glyph unicode="&#x2001;" horiz-adv-x="1688" />
<glyph unicode="&#x2002;" horiz-adv-x="844" />
<glyph unicode="&#x2003;" horiz-adv-x="1688" />
<glyph unicode="&#x2004;" horiz-adv-x="562" />
<glyph unicode="&#x2005;" horiz-adv-x="422" />
<glyph unicode="&#x2006;" horiz-adv-x="281" />
<glyph unicode="&#x2007;" horiz-adv-x="281" />
<glyph unicode="&#x2008;" horiz-adv-x="211" />
<glyph unicode="&#x2009;" horiz-adv-x="337" />
<glyph unicode="&#x200a;" horiz-adv-x="93" />
<glyph unicode="&#x202f;" horiz-adv-x="337" />
<glyph unicode="&#x205f;" horiz-adv-x="422" />
<glyph unicode="&#x25fc;" horiz-adv-x="1187" d="M0 0v1188h1188v-1188h-1188z" />
</font>
</defs>
</svg>
