<?xml version="1.0" encoding="utf-8"?>
<!-- Generator: Adobe Illustrator 19.2.0, SVG Export Plug-In . SVG Version: 6.00 Build 0)  -->
<!DOCTYPE svg PUBLIC "-//W3C//DTD SVG 1.1//EN" "http://www.w3.org/Graphics/SVG/1.1/DTD/svg11.dtd">
<svg version="1.1" id="Layer_1" xmlns="http://www.w3.org/2000/svg" xmlns:xlink="http://www.w3.org/1999/xlink" x="0px" y="0px"
	 viewBox="0 0 70.4 57.7" style="enable-background:new 0 0 70.4 57.7;" xml:space="preserve">
<style type="text/css">
	.st0{fill:#60163F;}
	.st1{fill:url(#SVGID_1_);}
	.st2{fill:url(#SVGID_2_);}
	.st3{fill:url(#SVGID_3_);}
	.st4{fill:url(#SVGID_4_);}
	.st5{fill:url(#SVGID_5_);}
	.st6{fill:#E8328A;}
	.st7{fill:#90183C;}
	.st8{fill:#472564;}
	.st9{fill:url(#SVGID_6_);}
	.st10{fill:url(#SVGID_7_);}
	.st11{fill:url(#SVGID_8_);}
	.st12{fill:url(#SVGID_9_);}
	.st13{fill:url(#SVGID_10_);}
	.st14{fill:url(#SVGID_11_);}
	.st15{fill:#FDD2BA;}
	.st16{fill:#FFF7F3;}
	.st17{fill:#B28269;}
</style>
<g>
	<polygon class="st0" points="25.6,38 27.6,38.9 19.2,39.8 17.2,38.9 	"/>
	<polygon class="st0" points="32.4,37.3 34.4,38.1 32.1,38.4 30,37.6 	"/>
	<polygon class="st0" points="30.2,43.2 32.2,44 27.7,44.5 25.7,43.6 	"/>
	<linearGradient id="SVGID_1_" gradientUnits="userSpaceOnUse" x1="31.1" y1="44" x2="31.1" y2="37.6">
		<stop  offset="0" style="stop-color:#7A1631"/>
		<stop  offset="1" style="stop-color:#C0213C"/>
	</linearGradient>
	<polygon class="st1" points="30,37.6 32.1,38.4 32.2,44 30.2,43.2 	"/>
	<polygon class="st0" points="39,36.6 41,37.4 38.9,37.7 36.9,36.8 	"/>
	<linearGradient id="SVGID_2_" gradientUnits="userSpaceOnUse" x1="37.95" y1="43.3" x2="37.95" y2="36.8">
		<stop  offset="0" style="stop-color:#7A1631"/>
		<stop  offset="1" style="stop-color:#C0213C"/>
	</linearGradient>
	<polygon class="st2" points="36.9,36.8 38.9,37.7 39,43.3 37,42.4 	"/>
	<polygon class="st0" points="37,42.4 39,43.3 34.5,43.7 32.5,42.9 	"/>
	<polygon class="st0" points="43.5,41.7 45.6,42.6 41.1,43 39.1,42.2 	"/>
	<linearGradient id="SVGID_3_" gradientUnits="userSpaceOnUse" x1="44.5" y1="42.6" x2="44.5" y2="36.1">
		<stop  offset="0" style="stop-color:#7A1631"/>
		<stop  offset="1" style="stop-color:#C0213C"/>
	</linearGradient>
	<polygon class="st3" points="43.4,36.1 45.4,37 45.6,42.6 43.5,41.7 	"/>
	<linearGradient id="SVGID_4_" gradientUnits="userSpaceOnUse" x1="52.45" y1="36.1" x2="52.45" y2="6.9">
		<stop  offset="0" style="stop-color:#7A1631"/>
		<stop  offset="1" style="stop-color:#C0213C"/>
	</linearGradient>
	<polygon class="st4" points="51.1,6.9 53.1,7.7 53.8,36.1 51.8,35.2 	"/>
	<polygon class="st0" points="51.8,35.2 53.8,36.1 45.4,37 43.4,36.1 	"/>
	
		<linearGradient id="SVGID_5_" gradientUnits="userSpaceOnUse" x1="34.15" y1="705.8466" x2="34.15" y2="669.0577" gradientTransform="matrix(1 0 0 1 0 -662.2)">
		<stop  offset="0" style="stop-color:#AE2153"/>
		<stop  offset="1" style="stop-color:#91183F"/>
	</linearGradient>
	<polygon class="st5" points="17.2,38.9 16.5,10.5 51.1,6.9 51.8,35.2 43.4,36.1 43.5,41.7 39.1,42.2 39,36.6 36.9,36.8 37,42.4 
		32.5,42.9 32.4,37.3 30,37.6 30.2,43.2 25.7,43.6 25.6,38 	"/>
	<polygon class="st6" points="55.4,38 57.4,38.9 61.4,42.7 59.4,41.8 	"/>
	<polygon class="st7" points="60.9,47 62.9,47.9 63,52.9 61,52.1 	"/>
	<polygon class="st0" points="61,52.1 63,52.9 58.3,53.4 56.3,52.6 	"/>
	<polygon class="st8" points="55.4,38 59.4,41.8 65.7,41.2 65.8,46.5 60.9,47 61,52.1 56.3,52.6 56.1,45.8 48.3,38.8 	"/>
	<polyline class="st7" points="65.8,46.5 60.9,47 61,52.1 56.3,52.6 56.1,45.8 48.3,38.8 55.4,38 59.4,41.8 65.7,41.2 65.8,46.5 	
		"/>
	<linearGradient id="SVGID_6_" gradientUnits="userSpaceOnUse" x1="66.75" y1="47.3" x2="66.75" y2="41.2">
		<stop  offset="0" style="stop-color:#7A1631"/>
		<stop  offset="1" style="stop-color:#C0213C"/>
	</linearGradient>
	<polygon class="st9" points="65.7,41.2 67.7,42 67.8,47.3 65.8,46.5 	"/>
	<polygon class="st0" points="65.8,46.5 67.8,47.3 62.9,47.9 60.9,47 	"/>
	<polygon class="st0" points="9.7,51.8 11.7,52.6 6.7,53.2 4.7,52.3 	"/>
	<linearGradient id="SVGID_7_" gradientUnits="userSpaceOnUse" x1="15.45" y1="57.2" x2="15.45" y2="49.6">
		<stop  offset="0" style="stop-color:#7A1631"/>
		<stop  offset="1" style="stop-color:#C0213C"/>
	</linearGradient>
	<polygon class="st10" points="14.4,49.6 16.4,50.4 16.5,57.2 14.5,56.3 	"/>
	<polygon class="st0" points="14.5,56.3 16.5,57.2 11.8,57.7 9.8,56.9 	"/>
	<polygon class="st7" points="10.9,46.3 14.7,41.7 21.5,41 14.4,49.6 14.5,56.3 9.8,56.9 9.7,51.8 4.7,52.3 4.6,47 	"/>
	<polygon class="st0" points="21.5,41 23.5,41.8 16.4,50.4 14.4,49.6 	"/>
	<polygon class="st0" points="6.7,14.7 8.7,15.5 2.1,16.2 0.1,15.4 	"/>
	<linearGradient id="SVGID_8_" gradientUnits="userSpaceOnUse" x1="10.9" y1="11.5" x2="10.9" y2="3.9">
		<stop  offset="0" style="stop-color:#7A1631"/>
		<stop  offset="1" style="stop-color:#C0213C"/>
	</linearGradient>
	<polygon class="st11" points="9.8,3.9 11.8,4.7 12,11.5 10,10.7 	"/>
	<polygon class="st6" points="10,10.7 12,11.5 15.7,15 13.7,14.2 	"/>
	<polygon class="st7" points="9.8,3.9 10,10.7 13.7,14.2 13.9,21.5 6.7,14.7 0.1,15.4 0,10 5,9.5 4.8,4.4 	"/>
	<linearGradient id="SVGID_9_" gradientUnits="userSpaceOnUse" x1="14.8" y1="22.3" x2="14.8" y2="14.2">
		<stop  offset="0" style="stop-color:#7A1631"/>
		<stop  offset="1" style="stop-color:#C0213C"/>
	</linearGradient>
	<polygon class="st12" points="13.7,14.2 15.7,15 15.9,22.3 13.9,21.5 	"/>
	<linearGradient id="SVGID_10_" gradientUnits="userSpaceOnUse" x1="64.55" y1="5.9" x2="64.55" y2="4.729372e-11">
		<stop  offset="0" style="stop-color:#7A1631"/>
		<stop  offset="1" style="stop-color:#C0213C"/>
	</linearGradient>
	<polygon class="st13" points="63.5,0 65.5,0.9 65.6,5.9 63.6,5.1 	"/>
	<polygon class="st0" points="62.1,10.6 64.1,11.4 57,20.3 55,19.5 	"/>
	<polyline class="st7" points="68.4,9.9 62.1,10.6 55,19.5 54.8,11.9 58.6,7.3 58.5,0.6 63.5,0 63.6,5.1 68.3,4.6 68.4,9.9 	"/>
	<linearGradient id="SVGID_11_" gradientUnits="userSpaceOnUse" x1="69.35" y1="10.8" x2="69.35" y2="4.6">
		<stop  offset="0" style="stop-color:#7A1631"/>
		<stop  offset="1" style="stop-color:#C0213C"/>
	</linearGradient>
	<polygon class="st14" points="68.3,4.6 70.3,5.4 70.4,10.8 68.4,9.9 	"/>
	<polygon class="st0" points="68.4,9.9 70.4,10.8 64.1,11.4 62.1,10.6 	"/>
	<polygon class="st15" points="22.6,29.9 25.3,32.1 20,32.7 	"/>
	<polygon class="st16" points="22.6,29.9 24.6,30.7 27.3,33 25.3,32.1 	"/>
	<polygon class="st17" points="25.3,32.1 27.3,33 22,33.5 20,32.7 	"/>
	<polygon class="st15" points="43.8,27.9 46.5,30.1 41.2,30.7 	"/>
	<polygon class="st16" points="43.8,27.9 45.8,28.7 48.5,31 46.5,30.1 	"/>
	<polygon class="st17" points="46.5,30.1 48.5,31 43.2,31.5 41.2,30.7 	"/>
</g>
</svg>
