<?xml version="1.0" encoding="utf-8"?>
<!-- Generator: Adobe Illustrator 19.2.0, SVG Export Plug-In . SVG Version: 6.00 Build 0)  -->
<!DOCTYPE svg PUBLIC "-//W3C//DTD SVG 1.1//EN" "http://www.w3.org/Graphics/SVG/1.1/DTD/svg11.dtd">
<svg version="1.1" id="Layer_1" xmlns="http://www.w3.org/2000/svg" xmlns:xlink="http://www.w3.org/1999/xlink" x="0px" y="0px"
	 viewBox="0 0 87.3 84.9" style="enable-background:new 0 0 87.3 84.9;" xml:space="preserve">
<style type="text/css">
	.st0{fill:url(#SVGID_1_);}
	.st1{fill:#8F8E79;}
	.st2{fill:#59594C;}
	.st3{fill:url(#SVGID_2_);}
</style>
<linearGradient id="SVGID_1_" gradientUnits="userSpaceOnUse" x1="10.7251" y1="42.0335" x2="77.7084" y2="42.0335">
	<stop  offset="0" style="stop-color:#FFFFFF;stop-opacity:0.5"/>
	<stop  offset="1" style="stop-color:#FFFFFF;stop-opacity:0.7"/>
</linearGradient>
<polygon class="st0" points="26.9,72.1 10.7,51 14.2,24.7 35.2,8.5 61.6,12 77.7,33.1 74.2,59.4 53.2,75.5 " style="opacity: 0.6;"/>
<g>
	<polygon class="st1" points="56.3,18.7 57.2,19.9 47.2,40.1 46.3,38.9 	"/>
</g>
<g>
	<polygon class="st2" points="43.6,43.2 44.5,44.5 33.6,43.4 32.7,42.1 	"/>
</g>
<g>

		<linearGradient id="SVGID_2_" gradientUnits="userSpaceOnUse" x1="45.2169" y1="734.8333" x2="45.2169" y2="685.9333" gradientTransform="matrix(1 0 0 1 0 -668.6)">
		<stop  offset="0" style="stop-color:#FFFDD9"/>
		<stop  offset="1" style="stop-color:#FDD4BD"/>
	</linearGradient>
	<polygon class="st3" points="57.8,40 35.3,66.2 43.6,43.2 32.7,42.1 42.8,17.3 56.3,18.7 46.3,38.9 	"/>
</g>
<g>
	<polygon class="st1" points="57.8,40 58.7,41.3 36.3,67.5 35.3,66.2 	"/>
</g>
</svg>
